<svg width="20" height="20" viewBox="0 0 20 20" fill="none"
    xmlns="http://www.w3.org/2000/svg">
    <path
        d="M1.02846 20.0005C0.765 20.0005 0.501545 19.9003 0.301379 19.6986C-0.10046 19.2968 -0.10046 18.6453 0.301379 18.2435L18.2435 0.301379C18.6453 -0.10046 19.2968 -0.10046 19.6986 0.301379C20.1005 0.703217 20.1005 1.3547 19.6986 1.75679L1.75679 19.6986C1.55511 19.899 1.29166 20.0005 1.02846 20.0005Z"
        fill="#2C2D36" />
    <path
        d="M18.9718 20.0005C18.7083 20.0005 18.4451 19.9003 18.2447 19.6986L0.301379 1.75679C-0.10046 1.3547 -0.10046 0.703217 0.301379 0.301379C0.703217 -0.10046 1.3547 -0.10046 1.75679 0.301379L19.6986 18.2435C20.1005 18.6453 20.1005 19.2968 19.6986 19.6986C19.4969 19.899 19.2337 20.0005 18.9718 20.0005Z"
        fill="#2C2D36" />
</svg>