<svg width="125" height="125" viewBox="0 0 125 125" fill="none" xmlns="http://www.w3.org/2000/svg">
<circle cx="62.5" cy="62.5" r="62.5" fill="white"/>
<path d="M95.4091 93.8182H92.2273V90.6364V87.4545V84.2727V81.0909V77.9091V74.7273V71.5455V68.3636V65.1818V62V58.8182V55.6364V50.8636C92.2273 50.1334 91.7301 49.4972 91.0217 49.3201L79.5 46.4397V28.5909C79.5 27.7123 78.7884 27 77.9091 27H46.0909C45.2123 27 44.5 27.7123 44.5 28.5909V46.4395L32.9776 49.3201C32.2699 49.4972 31.7727 50.1334 31.7727 50.8636V55.6364V58.8182V62V65.1818V68.3636V71.5455V74.7273V77.9091V81.0909V84.2727V87.4545V90.6364V93.8182H28.5909C27.7123 93.8182 27 94.5297 27 95.4091C27 96.2884 27.7123 97 28.5909 97H33.3636H46.0909H55.6364H68.3636H77.9091H90.6364H95.4091C96.2884 97 97 96.2884 97 95.4091C97 94.5297 96.2884 93.8182 95.4091 93.8182ZM44.5 93.8182H34.9545V90.6364H39.7273V87.4545H34.9545V84.2727H39.7273V81.0909H34.9545V77.9091H39.7273V74.7273H34.9545V71.5455H39.7273V68.3636H34.9545V65.1818H39.7273V62H34.9545V58.8182H39.7273V55.6364H34.9545V52.1058L44.5 49.7194V93.8182ZM66.7727 93.8182H57.2273V82.6818H66.7727V93.8182ZM76.3182 47.6818V93.8182H69.9545V81.0909C69.9545 80.2116 69.243 79.5 68.3636 79.5H55.6364C54.7578 79.5 54.0455 80.2116 54.0455 81.0909V93.8182H47.6818V47.6818V30.1818H76.3182V47.6818ZM89.0455 55.6364H84.2727V58.8182H89.0455V62H84.2727V65.1818H89.0455V68.3636H84.2727V71.5455H89.0455V74.7273H84.2727V77.9091H89.0455V81.0909H84.2727V84.2727H89.0455V87.4545H84.2727V90.6364H89.0455V93.8182H79.5V49.7194L89.0455 52.1058V55.6364ZM73.1364 74.7273H50.8636V71.5455H73.1364V74.7273ZM73.1364 68.3636H50.8636V65.1818H73.1364V68.3636ZM73.1364 62H50.8636V58.8182H73.1364V62ZM73.1364 55.6364H50.8636V52.4545H73.1364V55.6364ZM73.1364 49.2727H50.8636V46.0909H73.1364V49.2727ZM73.1364 42.9091H50.8636V39.7273H73.1364V42.9091ZM73.1364 36.5455H50.8636V33.3636H73.1364V36.5455Z" fill="#6339F5"/>
</svg>
