<svg width="72" height="69" viewBox="0 0 72 69" fill="none" xmlns="http://www.w3.org/2000/svg">
<path d="M31.9239 10.811H17.4707" stroke="#6339F5" stroke-width="2.5" stroke-miterlimit="10" stroke-linecap="round" stroke-linejoin="round"/>
<path d="M61.4704 10.811H67.2113C68.7521 10.811 70.0001 12.059 70.0001 13.5999V25.3116H1.39453V13.5999C1.39453 12.059 2.64254 10.811 4.18338 10.811H9.92421" stroke="#6339F5" stroke-width="2.5" stroke-miterlimit="10" stroke-linecap="round" stroke-linejoin="round"/>
<path d="M53.9239 10.811H39.4707" stroke="#6339F5" stroke-width="2.5" stroke-miterlimit="10" stroke-linecap="round" stroke-linejoin="round"/>
<path d="M1.39453 50.8918V64.0128C1.39453 65.6189 2.69539 66.9198 4.30148 66.9198H56.308" stroke="#6339F5" stroke-width="2.5" stroke-miterlimit="10" stroke-linecap="round" stroke-linejoin="round"/>
<path d="M70.0001 53.2276V25.3115H1.39453V38.1857" stroke="#6339F5" stroke-width="2.5" stroke-miterlimit="10" stroke-linecap="round" stroke-linejoin="round"/>
<path d="M57.6977 17.1472C55.6908 17.1472 54.064 15.5203 54.064 13.5134V8.10809C54.064 6.10124 55.6908 4.47437 57.6977 4.47437C59.7045 4.47437 61.3314 6.10124 61.3314 8.10809V13.5134C61.3314 15.5203 59.7045 17.1472 57.6977 17.1472Z" stroke="#6339F5" stroke-width="2.5" stroke-miterlimit="10" stroke-linecap="round" stroke-linejoin="round"/>
<path d="M35.6972 17.1472C33.6903 17.1472 32.0635 15.5203 32.0635 13.5134V8.10809C32.0635 6.10124 33.6903 4.47437 35.6972 4.47437C37.7041 4.47437 39.3309 6.10124 39.3309 8.10809V13.5134C39.3309 15.5203 37.7041 17.1472 35.6972 17.1472Z" stroke="#6339F5" stroke-width="2.5" stroke-miterlimit="10" stroke-linecap="round" stroke-linejoin="round"/>
<path d="M13.6972 17.1472C11.6903 17.1472 10.0635 15.5203 10.0635 13.5134V8.10809C10.0635 6.10124 11.6903 4.47437 13.6972 4.47437C15.7041 4.47437 17.3309 6.10124 17.3309 8.10809V13.5134C17.3311 15.5203 15.7042 17.1472 13.6972 17.1472Z" stroke="#6339F5" stroke-width="2.5" stroke-miterlimit="10" stroke-linecap="round" stroke-linejoin="round"/>
<path d="M35.6976 60.5886C43.5301 60.5886 49.8796 54.2391 49.8796 46.4066C49.8796 38.5741 43.5301 32.2246 35.6976 32.2246C27.8651 32.2246 21.5156 38.5741 21.5156 46.4066C21.5156 54.2391 27.8651 60.5886 35.6976 60.5886Z" stroke="#6339F5" stroke-width="2.5" stroke-miterlimit="10" stroke-linecap="round" stroke-linejoin="round"/>
<path d="M35.6973 32.8738V34.7366" stroke="#6339F5" stroke-width="2.5" stroke-miterlimit="10" stroke-linecap="round" stroke-linejoin="round"/>
<path d="M26.1279 36.8374L27.4451 38.1546" stroke="#6339F5" stroke-width="2.5" stroke-miterlimit="10" stroke-linecap="round" stroke-linejoin="round"/>
<path d="M22.1646 46.4065H24.0274" stroke="#6339F5" stroke-width="2.5" stroke-miterlimit="10" stroke-linecap="round" stroke-linejoin="round"/>
<path d="M26.1279 55.9756L27.4451 54.6584" stroke="#6339F5" stroke-width="2.5" stroke-miterlimit="10" stroke-linecap="round" stroke-linejoin="round"/>
<path d="M35.6973 59.9393V58.0767" stroke="#6339F5" stroke-width="2.5" stroke-miterlimit="10" stroke-linecap="round" stroke-linejoin="round"/>
<path d="M45.2664 55.9756L43.9492 54.6584" stroke="#6339F5" stroke-width="2.5" stroke-miterlimit="10" stroke-linecap="round" stroke-linejoin="round"/>
<path d="M49.23 46.4065H47.3672" stroke="#6339F5" stroke-width="2.5" stroke-miterlimit="10" stroke-linecap="round" stroke-linejoin="round"/>
<path d="M45.2664 36.8374L43.9492 38.1546" stroke="#6339F5" stroke-width="2.5" stroke-miterlimit="10" stroke-linecap="round" stroke-linejoin="round"/>
<path d="M35.6972 40.8328V46.1158H32.0635" stroke="#6339F5" stroke-width="2.5" stroke-miterlimit="10" stroke-linecap="round" stroke-linejoin="round"/>
<path d="M56.3081 66.9203V54.6821C56.3081 53.8793 56.9589 53.2285 57.7617 53.2285H69.9999L56.3081 66.9203Z" stroke="#6339F5" stroke-width="2.5" stroke-miterlimit="10" stroke-linecap="round" stroke-linejoin="round"/>
</svg>
