<svg width="450" height="450" viewBox="0 0 450 450" fill="none" xmlns="http://www.w3.org/2000/svg">
<g opacity="0.1">
<path d="M224.977 328.573C223.112 328.572 221.324 327.819 220.006 326.48L214.185 320.565C212.231 318.568 209.906 316.985 207.345 315.907C204.784 314.829 202.038 314.279 199.266 314.287H189.825C184.231 314.287 178.866 312.029 174.911 308.011C170.955 303.992 168.733 298.541 168.733 292.858V192.858C168.733 190.963 169.474 189.147 170.793 187.807C172.111 186.468 173.899 185.715 175.764 185.715H196.855V200.001H182.794V292.858C182.794 294.753 183.535 296.569 184.853 297.909C186.172 299.249 187.96 300.001 189.825 300.001H199.266C203.885 299.989 208.461 300.908 212.728 302.704C216.995 304.5 220.869 307.138 224.126 310.465L224.977 311.33L225.827 310.465C229.084 307.138 232.958 304.5 237.226 302.704C241.493 300.908 246.068 299.989 250.687 300.001H260.129C261.993 300.001 263.781 299.249 265.1 297.909C266.418 296.569 267.159 294.753 267.159 292.858V200.001H210.916V185.715H274.189C276.054 185.715 277.842 186.468 279.161 187.807C280.479 189.147 281.22 190.963 281.22 192.858V292.858C281.22 298.541 278.998 303.992 275.042 308.011C271.087 312.029 265.722 314.287 260.129 314.287H250.687C247.915 314.279 245.169 314.829 242.608 315.907C240.047 316.985 237.722 318.568 235.768 320.565L229.947 326.48C228.629 327.819 226.841 328.572 224.977 328.573Z" fill="#9999FF"/>
<path d="M246.061 78.5716H203.878C202.014 78.5716 200.225 77.819 198.907 76.4795C197.588 75.1399 196.848 73.3231 196.848 71.4287V66.6572C192.504 59.4814 190.081 51.2772 189.817 42.8572C189.817 34.2857 193.241 14.2856 224.969 14.2856C256.698 14.2856 260.121 34.2857 260.121 42.8572C259.858 51.2772 257.435 59.4814 253.091 66.6572V71.4287C253.091 73.3231 252.35 75.1399 251.032 76.4795C249.713 77.819 247.925 78.5716 246.061 78.5716ZM211.155 64.2858H238.875C238.846 63.2443 239.048 62.2095 239.466 61.2584C239.885 60.3073 240.51 59.4645 241.294 58.7929C244.238 54.0009 245.882 48.5032 246.061 42.8572C246.061 38.95 246.061 28.5714 224.969 28.5714C203.878 28.5714 203.878 38.95 203.878 42.8572C204.056 48.5032 205.701 54.0009 208.645 58.7929C209.43 59.4687 210.062 60.31 210.495 61.2585C210.929 62.2071 211.154 63.2401 211.155 64.2858Z" fill="#9999FF"/>
<path d="M232.01 0H217.947V21.4286H232.01V0Z" fill="#9999FF"/>
<path d="M260.13 200V185.715C262.774 185.712 265.364 184.952 267.602 183.522C269.841 182.092 271.637 180.049 272.784 177.629C267.697 177.002 262.973 174.63 259.394 170.905C255.814 167.18 253.594 162.325 253.099 157.143C253.099 133.872 278.451 112.421 294.171 101.357C290.74 100.457 287.211 100.001 283.667 100H263.04L265.1 102.093C265.979 102.987 266.609 104.102 266.926 105.324C267.242 106.547 267.234 107.832 266.902 109.05C266.569 110.268 265.925 111.375 265.034 112.257C264.143 113.139 263.038 113.765 261.831 114.071C253.826 116.065 246.657 120.605 241.37 127.03C236.084 133.455 232.956 141.428 232.444 149.786C232.163 154.164 232.008 158.986 232.008 164.286V192.857H217.947V164.286C217.947 158.957 218.102 153.779 218.404 148.907C218.969 139.545 221.948 130.498 227.042 122.674C232.136 114.851 239.166 108.527 247.426 104.336L241.098 97.9071C240.115 96.9082 239.446 95.6356 239.175 94.2502C238.904 92.8648 239.043 91.4289 239.575 90.1239C240.107 88.8189 241.008 87.7034 242.164 86.9185C243.32 86.1336 244.679 85.7145 246.069 85.7142H283.667C292.397 85.7238 301.005 87.7898 308.815 91.75L312.478 93.6071C313.617 94.1844 314.581 95.065 315.266 96.1551C315.951 97.2452 316.332 98.5037 316.368 99.7965C316.404 101.089 316.094 102.368 315.471 103.496C314.847 104.623 313.935 105.558 312.829 106.2C300.126 113.571 267.16 137.143 267.16 157.143C267.16 160.057 272.637 164.286 281.221 164.286C283.085 164.286 284.874 165.038 286.192 166.378C287.511 167.718 288.251 169.534 288.251 171.429C288.251 179.006 285.288 186.274 280.015 191.632C274.741 196.99 267.588 200 260.13 200Z" fill="#9999FF"/>
<path d="M323.4 128.572H281.218V114.286H315.589C313.909 107.857 310.071 107.2 309.142 107.143L309.339 92.8574C316.637 92.8574 330.431 98.8289 330.431 121.429C330.431 123.323 329.69 125.14 328.371 126.48C327.053 127.819 325.265 128.572 323.4 128.572Z" fill="#9999FF"/>
<path d="M308.801 95.6081L295.823 90.108L302.235 74.4794C302.312 73.1723 300.393 71.4294 297.243 71.4294H279.26C276.11 71.4294 274.191 73.1723 274.191 74.1223L280.68 90.108L267.702 95.6081L261.29 80.0009C260.524 78.1388 260.129 76.1405 260.13 74.1223C260.476 69.3034 262.679 64.8178 266.261 61.639C269.842 58.4603 274.513 56.8449 279.26 57.1437H297.243C301.99 56.8449 306.661 58.4603 310.242 61.639C313.824 64.8178 316.027 69.3034 316.373 74.1223C316.37 76.1226 315.981 78.1028 315.227 79.9509L308.801 95.6081Z" fill="#9999FF"/>
<path d="M295.28 42.8572H281.218V64.2858H295.28V42.8572Z" fill="#9999FF"/>
<path d="M302.314 250.001C301.227 250.013 300.151 249.769 299.172 249.287L286.595 242.858H274.193V228.573H288.254C289.342 228.561 290.417 228.805 291.396 229.287L300.93 234.13L311.405 223.487C312.729 222.16 314.516 221.421 316.375 221.43H327.708L323.771 209.401C323.419 208.328 323.324 207.185 323.491 206.067C323.659 204.949 324.086 203.887 324.737 202.969C325.388 202.051 326.244 201.303 327.235 200.787C328.225 200.272 329.323 200.002 330.436 200.001C333.579 200.001 335.934 192.858 336.939 185.715H323.406C321.821 185.717 320.282 185.174 319.038 184.175C317.795 183.176 316.92 181.78 316.556 180.212C316.193 178.645 316.361 176.999 317.034 175.54C317.706 174.082 318.844 172.898 320.263 172.18C324.102 170.23 326.808 163.094 328.461 154.965L307.313 176.43C305.543 178.088 304.376 180.305 304.002 182.722C303.628 185.139 304.069 187.614 305.253 189.744C305.654 190.547 306.232 191.246 306.942 191.786C307.651 192.326 308.473 192.693 309.345 192.858C311.209 192.858 312.998 193.611 314.316 194.95C315.635 196.29 316.375 198.107 316.375 200.001C316.4 203.901 315.464 207.745 313.653 211.183C311.842 214.621 309.213 217.545 306.005 219.687C297.386 224.644 285.8 222.544 270.572 213.258L277.814 201.015C292.282 209.837 297.752 208.015 299.081 207.251C299.966 206.695 300.668 205.885 301.098 204.923C298.048 203.161 295.461 200.679 293.555 197.687C290.544 192.814 289.28 187.035 289.975 181.325C290.671 175.616 293.283 170.324 297.372 166.344L332.524 130.629C333.511 129.638 334.764 128.966 336.126 128.698C337.488 128.429 338.898 128.576 340.178 129.119C341.458 129.663 342.552 130.58 343.32 131.753C344.089 132.927 344.498 134.306 344.497 135.715C344.611 147.923 342.444 160.042 338.113 171.43H344.497C346.361 171.43 348.15 172.182 349.468 173.522C350.787 174.861 351.527 176.678 351.527 178.572C351.527 191.43 348.174 205.908 339.344 211.701L344.131 226.316C344.483 227.389 344.579 228.532 344.411 229.65C344.243 230.768 343.816 231.83 343.166 232.748C342.515 233.666 341.659 234.413 340.668 234.929C339.677 235.445 338.58 235.715 337.466 235.716H319.286L307.285 247.908C305.967 249.248 304.179 250.001 302.314 250.001Z" fill="#9999FF"/>
<path d="M330.425 300.001C329.337 300.014 328.261 299.769 327.282 299.287C322.67 296.937 302.212 285.88 296.665 271.43H274.182V257.144H302.303C304.168 257.144 305.956 257.897 307.274 259.236C308.593 260.576 309.334 262.393 309.334 264.287C309.334 269.459 318.473 277.344 327.353 282.916C329.52 272.086 330.55 261.052 330.425 250.001C330.407 248.378 330.934 246.796 331.919 245.518C332.904 244.239 334.289 243.34 335.845 242.968C337.4 242.596 339.034 242.774 340.477 243.472C341.92 244.17 343.086 245.347 343.783 246.808C346.538 252.416 358.047 257.78 369.197 261.316C364.869 253.83 359.632 246.926 353.611 240.766C352.526 239.661 351.826 238.226 351.62 236.679C351.413 235.132 351.711 233.559 352.467 232.201C353.224 230.842 354.398 229.773 355.809 229.157C357.221 228.54 358.792 228.41 360.283 228.787C370.351 231.333 380.568 233.228 390.872 234.458C384.196 229.185 377.039 224.571 369.5 220.68C368.084 219.963 366.947 218.782 366.274 217.327C365.6 215.872 365.43 214.23 365.789 212.664C366.148 211.099 367.017 209.703 368.254 208.701C369.491 207.699 371.025 207.151 372.607 207.144C388.835 207.342 404.713 202.344 417.988 192.858H379.638C377.876 192.853 376.181 192.177 374.887 190.963C373.593 189.749 372.795 188.086 372.65 186.303C372.505 184.52 373.024 182.746 374.105 181.333C375.185 179.92 376.748 178.971 378.485 178.672C397.045 174.802 413.648 164.36 425.335 149.208L381.88 163.915C380.228 164.466 378.434 164.375 376.844 163.659C375.254 162.944 373.981 161.656 373.272 160.044C372.562 158.431 372.466 156.608 373.001 154.928C373.537 153.247 374.666 151.828 376.172 150.944C393.882 141.795 408.297 127.199 417.363 109.237L390.591 127.372C389.211 128.323 387.544 128.745 385.887 128.562C384.23 128.38 382.69 127.605 381.543 126.376C380.396 125.147 379.716 123.544 379.625 121.853C379.533 120.162 380.036 118.493 381.044 117.144C384.988 111.983 387.889 106.08 389.578 99.775C391.267 93.4702 391.712 86.8881 390.886 80.4079L358.476 125.629L347.108 117.229L388.011 60.0864C388.727 59.1006 389.677 58.3142 390.772 57.7999C391.867 57.2855 393.071 57.0598 394.275 57.1435C395.48 57.2438 396.639 57.6581 397.64 58.3463C398.641 59.0344 399.451 59.9733 399.991 61.0721C405.499 73.699 406.817 87.8035 403.745 101.258L424.948 86.8936C426.009 86.1749 427.241 85.7625 428.514 85.7007C429.788 85.6388 431.053 85.9297 432.176 86.5424C433.299 87.155 434.237 88.0663 434.89 89.1787C435.542 90.2912 435.885 91.5629 435.881 92.8579C434.412 109.692 427.2 125.475 415.493 137.479L440.718 128.908C442.041 128.453 443.467 128.41 444.815 128.782C446.163 129.155 447.371 129.926 448.285 130.999C449.199 132.072 449.778 133.398 449.948 134.806C450.118 136.215 449.871 137.643 449.238 138.908C440.862 154.648 429.034 168.219 414.67 178.572H435.881C437.186 178.572 438.466 178.942 439.577 179.639C440.687 180.337 441.585 181.334 442.169 182.521C442.753 183.707 443 185.036 442.883 186.357C442.765 187.678 442.288 188.94 441.505 190.001C429.279 204.751 412.581 214.961 394.029 219.03C402.178 224.262 409.04 231.321 414.086 239.666C414.624 240.758 414.876 241.971 414.82 243.191C414.765 244.41 414.402 245.594 413.767 246.631C413.133 247.668 412.247 248.522 411.196 249.112C410.144 249.702 408.961 250.008 407.759 250.001C397.385 249.756 387.044 248.71 376.825 246.873C382.327 253.947 385.74 262.463 386.668 271.43C386.668 272.489 386.436 273.535 385.99 274.492C385.543 275.45 384.892 276.294 384.085 276.964C383.277 277.634 382.333 278.113 381.321 278.367C380.308 278.62 379.253 278.642 378.231 278.43C366.221 276.066 354.645 271.823 343.916 265.851C343.044 278.159 340.816 292.373 335.367 297.909C334.056 299.241 332.279 299.993 330.425 300.001Z" fill="#9999FF"/>
<path d="M365.584 378.573C358.631 378.573 351.835 376.478 346.054 372.554C340.274 368.629 335.768 363.051 333.107 356.526C330.447 350 329.751 342.819 331.107 335.891C332.463 328.963 335.811 322.599 340.727 317.604C345.644 312.61 351.907 309.208 358.726 307.83C365.545 306.452 372.613 307.159 379.036 309.862C385.459 312.566 390.949 317.143 394.811 323.016C398.674 328.89 400.736 335.795 400.736 342.858C400.724 352.327 397.017 361.404 390.427 368.1C383.838 374.795 374.903 378.561 365.584 378.573ZM365.584 321.43C361.412 321.43 357.334 322.686 353.866 325.041C350.398 327.396 347.694 330.742 346.098 334.658C344.502 338.573 344.084 342.882 344.898 347.039C345.712 351.195 347.72 355.014 350.67 358.011C353.62 361.007 357.378 363.048 361.469 363.875C365.56 364.702 369.801 364.278 373.655 362.656C377.509 361.034 380.803 358.287 383.12 354.763C385.438 351.239 386.675 347.096 386.675 342.858C386.675 337.175 384.453 331.725 380.497 327.706C376.542 323.687 371.177 321.43 365.584 321.43Z" fill="#9999FF"/>
<path d="M372.609 285.715H358.546V314.287H372.609V285.715Z" fill="#9999FF"/>
<path d="M379.651 292.858H351.525V307.144H379.651V292.858Z" fill="#9999FF"/>
<path d="M393.7 335.715H337.457V350.001H393.7V335.715Z" fill="#9999FF"/>
<path d="M351.516 392.858C350.833 392.857 350.153 392.756 349.498 392.558L279.194 371.13C277.745 370.689 276.475 369.785 275.572 368.552C274.669 367.319 274.182 365.824 274.182 364.287V342.858H288.242V358.973L349.512 377.644L360.606 366.38L370.547 376.48L356.486 390.766C355.168 392.105 353.38 392.858 351.516 392.858Z" fill="#9999FF"/>
<path d="M189.819 200C182.36 200 175.208 196.99 169.934 191.632C164.66 186.274 161.697 179.006 161.697 171.429C161.697 169.534 162.438 167.718 163.756 166.378C165.075 165.038 166.863 164.286 168.728 164.286C177.312 164.286 182.788 160.057 182.788 157.143C182.788 137.1 149.823 113.571 137.091 106.2C135.986 105.558 135.073 104.623 134.45 103.496C133.827 102.368 133.517 101.089 133.553 99.7965C133.589 98.5037 133.97 97.2452 134.655 96.1551C135.34 95.065 136.303 94.1844 137.442 93.6071L141.112 91.75C148.928 87.7848 157.545 85.7186 166.281 85.7142H203.88C205.27 85.7145 206.629 86.1336 207.785 86.9185C208.94 87.7034 209.841 88.8189 210.373 90.1239C210.905 91.4289 211.045 92.8648 210.773 94.2502C210.502 95.6356 209.833 96.9082 208.85 97.9071L202.523 104.336C210.783 108.528 217.812 114.854 222.906 122.679C228 130.503 230.979 139.551 231.544 148.914C231.846 153.779 232.001 158.957 232.001 164.286V192.857H217.94V164.286C217.94 158.986 217.786 154.164 217.504 149.814C216.992 141.457 213.865 133.484 208.578 127.059C203.292 120.634 196.123 116.094 188.117 114.1C186.911 113.794 185.805 113.167 184.914 112.285C184.024 111.403 183.379 110.297 183.047 109.079C182.714 107.861 182.706 106.575 183.022 105.353C183.339 104.131 183.969 103.015 184.848 102.121L186.908 100H166.281C162.738 100.001 159.208 100.457 155.778 101.357C171.498 112.421 196.849 133.872 196.849 157.143C196.355 162.325 194.134 167.18 190.554 170.905C186.975 174.63 182.251 177.002 177.164 177.629C178.312 180.049 180.108 182.092 182.346 183.522C184.585 184.952 187.175 185.712 189.819 185.715V200Z" fill="#9999FF"/>
<path d="M168.727 128.572H126.545C124.68 128.572 122.892 127.819 121.574 126.48C120.255 125.14 119.515 123.323 119.515 121.429C119.515 98.8289 133.308 92.8574 140.606 92.8574L140.803 107.143C139.875 107.207 136.036 107.857 134.356 114.286H168.727V128.572Z" fill="#9999FF"/>
<path d="M182.249 95.6081L169.27 90.108L175.682 74.4794C175.76 73.1723 173.84 71.4294 170.691 71.4294H152.707C149.557 71.4294 147.638 73.1723 147.638 74.1223L154.127 90.108L141.149 95.6081L134.737 80.0009C133.971 78.1388 133.577 76.1405 133.577 74.1223C133.923 69.3034 136.126 64.8178 139.708 61.639C143.289 58.4603 147.96 56.8449 152.707 57.1437H170.691C175.437 56.8449 180.108 58.4603 183.69 61.639C187.271 64.8178 189.474 69.3034 189.82 74.1223C189.817 76.1226 189.428 78.1028 188.674 79.9509L182.249 95.6081Z" fill="#9999FF"/>
<path d="M168.729 42.8572H154.666V64.2858H168.729V42.8572Z" fill="#9999FF"/>
<path d="M147.64 250.001C145.775 250.001 143.987 249.248 142.669 247.908L130.668 235.715H112.488C111.374 235.714 110.277 235.445 109.286 234.929C108.295 234.413 107.439 233.665 106.788 232.747C106.138 231.829 105.711 230.768 105.543 229.649C105.375 228.531 105.471 227.388 105.823 226.315L110.61 211.701C101.78 205.908 98.4268 191.429 98.4268 178.572C98.4268 176.678 99.1675 174.861 100.486 173.521C101.804 172.182 103.593 171.429 105.457 171.429H111.841C107.51 160.042 105.343 147.923 105.457 135.715C105.457 134.302 105.87 132.922 106.642 131.747C107.415 130.573 108.513 129.658 109.797 129.117C111.082 128.577 112.495 128.435 113.859 128.711C115.222 128.986 116.475 129.666 117.458 130.665L152.61 166.379C156.7 170.359 159.314 175.65 160.011 181.359C160.707 187.069 159.444 192.849 156.435 197.722C154.523 200.71 151.937 203.191 148.891 204.958C149.33 205.929 150.042 206.747 150.937 207.308C152.28 208.065 157.763 209.837 172.169 201.051L179.41 213.294C164.182 222.579 152.603 224.672 143.977 219.722C140.759 217.58 138.121 214.653 136.305 211.207C134.489 207.762 133.551 203.909 133.579 200.001C133.579 198.106 134.319 196.29 135.638 194.95C136.956 193.61 138.745 192.858 140.609 192.858C141.481 192.694 142.305 192.33 143.017 191.793C143.728 191.255 144.309 190.559 144.715 189.758C145.893 187.626 146.33 185.153 145.953 182.738C145.577 180.323 144.41 178.108 142.641 176.451L121.493 155.001C123.146 163.129 125.852 170.265 129.691 172.215C131.091 172.943 132.209 174.127 132.869 175.578C133.528 177.028 133.689 178.662 133.328 180.216C132.966 181.771 132.101 183.158 130.872 184.155C129.643 185.151 128.121 185.701 126.548 185.715H113.015C114.006 192.936 116.34 200.001 119.518 200.001C120.631 200.002 121.729 200.271 122.719 200.787C123.71 201.303 124.566 202.051 125.217 202.969C125.868 203.886 126.295 204.948 126.463 206.067C126.631 207.185 126.535 208.328 126.183 209.401L122.246 221.429H133.579C135.443 221.43 137.231 222.183 138.549 223.522L149.025 234.165L158.558 229.322C159.534 228.828 160.61 228.571 161.7 228.572H175.761V242.858H163.359L150.782 249.287C149.803 249.769 148.727 250.013 147.64 250.001Z" fill="#9999FF"/>
<path d="M119.517 300.001C117.653 300.001 115.865 299.248 114.547 297.908C109.098 292.372 106.87 278.158 105.998 265.851C95.2777 271.82 83.7112 276.063 71.7108 278.429C70.6892 278.641 69.634 278.62 68.6217 278.366C67.6094 278.113 66.6653 277.633 65.8577 276.963C65.0502 276.293 64.3994 275.449 63.9526 274.492C63.5058 273.535 63.2741 272.489 63.2743 271.429C64.2019 262.462 67.6149 253.947 73.1168 246.872C62.8984 248.709 52.5574 249.755 42.1831 250.001C40.9846 250.001 39.8058 249.691 38.7588 249.098C37.7117 248.506 36.8312 247.651 36.2007 246.615C35.5703 245.58 35.2109 244.398 35.1566 243.181C35.1024 241.965 35.3552 240.754 35.8909 239.665C40.9278 231.324 47.7769 224.265 55.9135 219.029C37.3612 214.96 20.6629 204.75 8.43721 190.001C7.65384 188.939 7.17679 187.677 7.05954 186.356C6.94229 185.035 7.18946 183.707 7.77335 182.52C8.35725 181.334 9.2548 180.336 10.3654 179.639C11.4761 178.941 12.7559 178.572 14.0615 178.572H35.2722C20.9208 168.215 9.10537 154.644 0.738931 138.908C0.118708 137.644 -0.118987 136.222 0.0558757 134.821C0.230738 133.42 0.810311 132.104 1.72138 131.037C2.63244 129.971 3.83412 129.203 5.1746 128.83C6.51508 128.458 7.93422 128.497 9.25274 128.943L34.4778 137.515C22.7526 125.505 15.5303 109.707 14.0615 92.8574C14.0613 91.5643 14.4067 90.2953 15.0607 89.1859C15.7148 88.0765 16.653 87.1684 17.7752 86.5583C18.8975 85.9482 20.1617 85.6591 21.433 85.7219C22.7043 85.7846 23.935 86.1968 24.9938 86.9146L46.1975 101.279C43.1253 87.8245 44.443 73.7199 49.9517 61.093C50.493 60.0009 51.3012 59.0682 52.2989 58.3843C53.2966 57.7005 54.4504 57.2882 55.6498 57.1872C56.8492 57.0861 58.0541 57.2995 59.149 57.8071C60.244 58.3146 61.1924 59.0993 61.9034 60.0859L102.813 117.229L91.4732 125.643L59.056 80.3574C58.2171 86.8457 58.6551 93.4387 60.3448 99.7536C62.0344 106.068 64.942 111.979 68.8986 117.143C69.8947 118.492 70.3893 120.154 70.2949 121.838C70.2004 123.521 69.523 125.116 68.3825 126.34C67.242 127.565 65.7119 128.34 64.063 128.529C62.414 128.718 60.7525 128.308 59.3724 127.372L32.5515 109.207C41.6285 127.195 56.0739 141.804 73.8199 150.943C75.3252 151.827 76.4547 153.247 76.9902 154.927C77.5258 156.608 77.4294 158.43 76.7197 160.043C76.01 161.656 74.7373 162.944 73.1474 163.659C71.5576 164.374 69.7633 164.465 68.1112 163.915L24.6071 149.208C36.2886 164.355 52.8842 174.797 71.4366 178.672C73.1714 178.97 74.7331 179.918 75.8136 181.329C76.894 182.739 77.4145 184.51 77.2724 186.292C77.1302 188.074 76.3357 189.737 75.0457 190.952C73.7557 192.168 72.064 192.848 70.3047 192.858H31.9539C45.2288 202.344 61.1067 207.342 77.3351 207.144C78.9201 207.142 80.4592 207.685 81.7025 208.684C82.9458 209.683 83.8203 211.079 84.1843 212.646C84.5482 214.214 84.38 215.86 83.7072 217.318C83.0344 218.777 81.8963 219.961 80.4777 220.679C72.9436 224.57 65.7918 229.181 59.1193 234.451C69.4196 233.227 79.6322 231.335 89.6945 228.786C91.1854 228.41 92.7567 228.54 94.1681 229.156C95.5795 229.773 96.7533 230.842 97.5099 232.2C98.2665 233.559 98.5644 235.132 98.3579 236.678C98.1513 238.225 97.4518 239.66 96.3663 240.765C90.3494 246.922 85.1155 253.821 80.787 261.301C91.9372 257.729 103.453 252.394 106.195 246.808C106.902 245.367 108.068 244.21 109.503 243.527C110.938 242.843 112.558 242.672 114.101 243.042C115.644 243.412 117.018 244.3 118.002 245.563C118.985 246.827 119.519 248.39 119.517 250.001C119.39 261.052 120.42 272.085 122.59 282.915C131.469 277.337 140.609 269.458 140.609 264.287C140.609 262.392 141.349 260.575 142.668 259.236C143.986 257.896 145.774 257.144 147.639 257.144H175.761V271.429H153.263C147.716 285.844 127.251 296.901 122.646 299.287C121.671 299.766 120.601 300.011 119.517 300.001Z" fill="#9999FF"/>
<path d="M224.972 364.287C223.107 364.287 221.32 363.534 220.001 362.194C207.327 348.809 196.381 333.839 187.43 317.644C188.931 325.286 191.79 332.586 195.866 339.187C196.672 340.552 197.006 342.152 196.815 343.732C196.624 345.312 195.919 346.782 194.811 347.909C192.502 350.771 189.539 353.017 186.181 354.451C182.822 355.885 179.17 356.464 175.541 356.137C172.296 355.579 169.281 354.073 166.866 351.801L157.832 356.394C156.512 357.064 155.018 357.294 153.562 357.053C152.106 356.812 150.761 356.112 149.719 355.051L144.629 349.88C136.511 349.173 128.741 346.207 122.173 341.308C121.125 340.463 120.336 339.331 119.899 338.045C119.463 336.76 119.396 335.374 119.708 334.052C120.019 332.729 120.696 331.524 121.658 330.579C122.621 329.634 123.829 328.987 125.14 328.716C128.752 323.916 131.599 318.57 133.577 312.873C134.659 291.48 160.384 285.73 175.759 285.73V300.015C175.478 300.015 147.638 300.487 147.638 314.301C147.638 315.159 147.488 316.011 147.195 316.816C145.077 322.928 142.245 328.76 138.758 334.187C141.616 335.185 144.615 335.702 147.638 335.716C149.502 335.716 151.29 336.469 152.608 337.808L156.053 341.308L165.586 336.466C166.412 336.046 167.312 335.796 168.233 335.729C169.155 335.663 170.08 335.782 170.956 336.079C171.832 336.376 172.642 336.846 173.34 337.461C174.037 338.077 174.609 338.826 175.021 339.666C175.218 340.03 176.427 341.809 177.833 342.044C178.914 342.088 179.977 341.758 180.849 341.108C176.322 332.201 170.247 317.001 175.541 307.501C177 305.026 179.109 303.014 181.631 301.689C184.153 300.364 186.989 299.78 189.82 300.001C191.126 300.001 192.407 300.37 193.519 301.068C194.63 301.765 195.528 302.764 196.112 303.951C204.053 319.319 213.739 333.688 224.972 346.766C236.192 333.686 245.866 319.317 253.797 303.951C254.383 302.758 255.287 301.756 256.405 301.058C257.523 300.36 258.811 299.994 260.124 300.001C262.959 299.774 265.801 300.356 268.329 301.681C270.856 303.006 272.97 305.022 274.431 307.501C279.725 316.994 273.657 332.187 269.123 341.073C270.007 341.726 271.082 342.056 272.174 342.008C273.531 341.787 274.803 339.866 274.923 339.637C275.335 338.797 275.906 338.048 276.604 337.433C277.301 336.818 278.111 336.348 278.988 336.051C279.864 335.753 280.789 335.635 281.71 335.701C282.632 335.767 283.531 336.017 284.358 336.437L293.891 341.28L297.336 337.78C298.658 336.451 300.446 335.708 302.306 335.716C305.322 335.694 308.314 335.173 311.165 334.173C307.678 328.746 304.846 322.914 302.728 316.801C302.441 315.995 302.299 315.144 302.306 314.287C302.306 300.616 274.466 300.001 274.185 300.001V285.715C289.518 285.715 315.242 291.48 316.332 312.858C318.315 318.555 321.162 323.903 324.768 328.708C326.08 328.976 327.289 329.619 328.254 330.56C329.218 331.502 329.899 332.704 330.215 334.024C330.531 335.345 330.469 336.73 330.037 338.016C329.606 339.303 328.822 340.438 327.777 341.287C321.21 346.186 313.44 349.152 305.322 349.859L300.232 355.03C299.19 356.09 297.845 356.791 296.389 357.032C294.933 357.273 293.439 357.042 292.119 356.373L283.085 351.78C280.669 354.05 277.654 355.556 274.41 356.116C270.781 356.444 267.128 355.866 263.769 354.431C260.411 352.997 257.448 350.751 255.139 347.887C254.032 346.761 253.327 345.291 253.136 343.711C252.945 342.131 253.279 340.531 254.085 339.166C258.133 332.599 260.968 325.337 262.451 317.737C253.507 333.896 242.579 348.835 229.928 362.194C228.614 363.53 226.831 364.283 224.972 364.287Z" fill="#9999FF"/>
<path d="M318.616 350.381L314.172 363.927L356.336 378.206L360.78 364.66L318.616 350.381Z" fill="#9999FF"/>
<path d="M100.451 392.558L96.416 378.873L161.707 358.973V342.858H175.768V364.287C175.768 365.824 175.281 367.319 174.378 368.552C173.474 369.785 172.204 370.689 170.755 371.13L100.451 392.558Z" fill="#9999FF"/>
<path d="M131.368 350.357L89.1816 364.659L93.6301 378.204L135.816 363.902L131.368 350.357Z" fill="#9999FF"/>
<path d="M69.4722 318.047L57.0908 324.821L106.306 417.682L118.687 410.908L69.4722 318.047Z" fill="#9999FF"/>
<path d="M63.2718 328.572H42.1806C41.0234 328.572 39.8841 328.282 38.8638 327.728C37.8434 327.173 36.9735 326.372 36.3313 325.394L22.2705 303.965L33.9691 296.036L45.9418 314.286H58.927L62.7093 306.594L56.607 287.972L69.9647 283.458L76.9951 304.886C77.5866 306.681 77.4526 308.642 76.6225 310.336L69.5921 324.622C69.006 325.814 68.1035 326.815 66.9866 327.513C65.8698 328.211 64.583 328.578 63.2718 328.572Z" fill="#9999FF"/>
<path d="M224.974 450.001C223.817 450.001 222.677 449.711 221.657 449.157C220.636 448.602 219.766 447.801 219.124 446.823L205.061 425.394C204.293 424.219 203.882 422.84 203.88 421.43C203.88 406.865 210.679 351.429 210.967 349.115L224.918 350.887C224.847 351.429 218.554 402.794 217.985 419.33L224.974 430.001L231.963 419.351C231.393 402.808 225.1 351.451 225.03 350.908L238.98 349.137C239.269 351.465 246.068 406.865 246.068 421.43C246.066 422.84 245.655 424.219 244.887 425.394L230.824 446.823C230.182 447.801 229.312 448.602 228.291 449.157C227.271 449.711 226.131 450.001 224.974 450.001Z" fill="#9999FF"/>
<path d="M253.097 442.858C251.926 442.858 250.773 442.561 249.743 441.994C248.714 441.426 247.84 440.606 247.202 439.608C246.563 438.611 246.18 437.467 246.088 436.28C245.995 435.094 246.196 433.903 246.671 432.815C249.036 427.583 250.976 422.162 252.471 416.608L248.127 412.194C247.341 411.394 246.753 410.416 246.412 409.34C246.07 408.265 245.985 407.122 246.163 406.007C246.341 404.891 246.776 403.834 247.434 402.923C248.092 402.012 248.953 401.272 249.947 400.765C249.947 400.694 249.947 400.608 249.947 400.522C243.553 391.635 235.983 383.686 227.45 376.901L236.519 365.972C254.763 381.615 264.015 393.065 264.015 400.008C264.056 402.377 263.647 404.731 262.813 406.944L265.077 409.244C265.822 410.001 266.39 410.918 266.74 411.928C267.089 412.938 267.21 414.015 267.095 415.08C266.471 419.15 265.447 423.146 264.036 427.008C268.65 426.073 272.832 423.622 275.938 420.031C279.043 416.441 280.899 411.912 281.219 407.144C281.219 397.858 247.782 364.286 232.006 364.286V350.001C253.294 350.001 295.279 387.922 295.279 407.144C295.279 427.508 277.148 442.858 253.097 442.858Z" fill="#9999FF"/>
<path d="M196.848 442.858C172.797 442.858 154.666 427.508 154.666 407.144C154.666 387.922 196.652 350.001 217.94 350.001V364.286C202.163 364.286 168.727 397.858 168.727 407.144C169.047 411.908 170.9 416.433 174.002 420.021C177.103 423.61 181.28 426.062 185.888 427.001C184.478 423.139 183.453 419.143 182.83 415.072C182.714 414.008 182.835 412.931 183.185 411.921C183.534 410.911 184.102 409.994 184.847 409.237L187.111 406.937C186.277 404.724 185.869 402.37 185.909 400.001C185.909 393.058 195.161 381.608 213.405 365.965L222.474 376.894C213.942 383.679 206.371 391.628 199.977 400.515C199.977 400.601 199.977 400.687 199.977 400.758C200.971 401.265 201.832 402.005 202.49 402.916C203.148 403.827 203.584 404.884 203.762 406C203.939 407.115 203.854 408.258 203.513 409.333C203.171 410.409 202.583 411.387 201.798 412.187L197.453 416.601C198.947 422.155 200.887 427.576 203.253 432.808C203.729 433.894 203.931 435.084 203.84 436.27C203.75 437.455 203.369 438.599 202.733 439.597C202.097 440.596 201.225 441.417 200.198 441.986C199.17 442.556 198.019 442.855 196.848 442.858Z" fill="#9999FF"/>
</g>
</svg>
