<svg width="125" height="125" viewBox="0 0 125 125" fill="none" xmlns="http://www.w3.org/2000/svg">
<circle cx="62.5" cy="62.5" r="62.5" fill="white"/>
<path d="M61.996 78.1112C61.706 78.1111 61.4279 77.994 61.2228 77.7856L60.3173 76.8656C60.0133 76.5549 59.6517 76.3086 59.2533 76.141C58.855 75.9733 58.4278 75.8877 57.9966 75.8889H56.5279C55.6578 75.8889 54.8233 75.5377 54.208 74.9126C53.5927 74.2875 53.2471 73.4397 53.2471 72.5556V57C53.2471 56.7053 53.3623 56.4227 53.5674 56.2144C53.7725 56.006 54.0506 55.8889 54.3407 55.8889H57.6215V58.1111H55.4343V72.5556C55.4343 72.8503 55.5495 73.1329 55.7546 73.3413C55.9597 73.5496 56.2379 73.6667 56.5279 73.6667H57.9966C58.7151 73.6648 59.4268 73.8077 60.0906 74.0871C60.7544 74.3665 61.357 74.7769 61.8637 75.2945L61.996 75.4289L62.1283 75.2945C62.635 74.7769 63.2376 74.3665 63.9014 74.0871C64.5652 73.8077 65.2769 73.6648 65.9954 73.6667H67.4641C67.7541 73.6667 68.0323 73.5496 68.2374 73.3413C68.4425 73.1329 68.5577 72.8503 68.5577 72.5556V58.1111H59.8088V55.8889H69.6513C69.9414 55.8889 70.2195 56.006 70.4246 56.2144C70.6297 56.4227 70.7449 56.7053 70.7449 57V72.5556C70.7449 73.4397 70.3993 74.2875 69.784 74.9126C69.1687 75.5377 68.3342 75.8889 67.4641 75.8889H65.9954C65.5642 75.8877 65.1371 75.9733 64.7387 76.141C64.3403 76.3086 63.9787 76.5549 63.6747 76.8656L62.7692 77.7856C62.5641 77.994 62.286 78.1111 61.996 78.1112Z" fill="#6339F5"/>
<path d="M65.2763 39.2222H58.7146C58.4245 39.2222 58.1464 39.1051 57.9413 38.8967C57.7362 38.6884 57.621 38.4058 57.621 38.1111V37.3688C56.9453 36.2526 56.5683 34.9764 56.5273 33.6666C56.5273 32.3333 57.0599 29.2222 61.9954 29.2222C66.9309 29.2222 67.4635 32.3333 67.4635 33.6666C67.4226 34.9764 67.0456 36.2526 66.3699 37.3688V38.1111C66.3699 38.4058 66.2547 38.6884 66.0496 38.8967C65.8445 39.1051 65.5663 39.2222 65.2763 39.2222ZM59.8465 37H64.1586C64.154 36.8379 64.1854 36.677 64.2505 36.529C64.3157 36.3811 64.4128 36.25 64.5348 36.1455C64.9927 35.4001 65.2486 34.5449 65.2763 33.6666C65.2763 33.0588 65.2763 31.4444 61.9954 31.4444C58.7146 31.4444 58.7146 33.0588 58.7146 33.6666C58.7423 34.5449 58.9981 35.4001 59.456 36.1455C59.5782 36.2506 59.6765 36.3815 59.7439 36.529C59.8113 36.6766 59.8463 36.8373 59.8465 37Z" fill="#6339F5"/>
<path d="M63.0899 27H60.9023V30.3333H63.0899V27Z" fill="#6339F5"/>
<path d="M67.464 58.111V55.8888C67.8754 55.8884 68.2783 55.7702 68.6265 55.5477C68.9746 55.3253 69.254 55.0075 69.4326 54.631C68.6413 54.5336 67.9064 54.1646 67.3496 53.5851C66.7928 53.0057 66.4473 52.2504 66.3704 51.4444C66.3704 47.8244 70.314 44.4877 72.7593 42.7666C72.2256 42.6266 71.6767 42.5556 71.1255 42.5555H67.9168L68.2372 42.881C68.374 43.0201 68.472 43.1936 68.5212 43.3837C68.5705 43.5738 68.5692 43.7738 68.5175 43.9633C68.4658 44.1527 68.3655 44.3249 68.2269 44.4621C68.0884 44.5993 67.9164 44.6967 67.7287 44.7444C66.4834 45.0545 65.3683 45.7608 64.5459 46.7602C63.7236 47.7596 63.2371 48.9998 63.1574 50.2999C63.1136 50.981 63.0896 51.731 63.0896 52.5555V56.9999H60.9023V52.5555C60.9023 51.7266 60.9264 50.921 60.9734 50.1633C61.0613 48.7068 61.5247 47.2995 62.3171 46.0826C63.1095 44.8656 64.203 43.8818 65.4879 43.2299L64.5036 42.2299C64.3507 42.0745 64.2466 41.8766 64.2044 41.6611C64.1623 41.4456 64.1839 41.2222 64.2667 41.0192C64.3494 40.8162 64.4896 40.6427 64.6694 40.5206C64.8492 40.3985 65.0605 40.3333 65.2768 40.3333H71.1255C72.4833 40.3347 73.8224 40.6561 75.0373 41.2721L75.6071 41.561C75.7843 41.6508 75.9342 41.7878 76.0408 41.9574C76.1473 42.1269 76.2066 42.3227 76.2122 42.5238C76.2178 42.7249 76.1696 42.9238 76.0726 43.0992C75.9757 43.2747 75.8337 43.4201 75.6618 43.5199C73.6856 44.6666 68.5577 48.3333 68.5577 51.4444C68.5577 51.8977 69.4096 52.5555 70.7449 52.5555C71.0349 52.5555 71.3131 52.6725 71.5182 52.8809C71.7233 53.0893 71.8385 53.3719 71.8385 53.6666C71.8385 54.8453 71.3776 55.9758 70.5573 56.8093C69.7369 57.6428 68.6242 58.111 67.464 58.111Z" fill="#6339F5"/>
<path d="M77.3068 47H70.7451V44.7778H76.0918C75.8304 43.7778 75.2333 43.6756 75.089 43.6667L75.1196 41.4445C76.2548 41.4445 78.4004 42.3733 78.4004 45.8889C78.4004 46.1836 78.2852 46.4662 78.0801 46.6746C77.875 46.883 77.5969 47 77.3068 47Z" fill="#6339F5"/>
<path d="M75.036 41.8723L73.0171 41.0168L74.0145 38.5857C74.0265 38.3823 73.728 38.1112 73.238 38.1112H70.4406C69.9506 38.1112 69.6521 38.3823 69.6521 38.5301L70.6615 41.0168L68.6427 41.8723L67.6453 39.4446C67.5261 39.1549 67.4648 38.8441 67.4648 38.5301C67.5187 37.7805 67.8614 37.0828 68.4185 36.5883C68.9756 36.0938 69.7022 35.8425 70.4406 35.889H73.238C73.9764 35.8425 74.703 36.0938 75.2601 36.5883C75.8172 37.0828 76.1599 37.7805 76.2138 38.5301C76.2133 38.8413 76.1527 39.1493 76.0355 39.4368L75.036 41.8723Z" fill="#6339F5"/>
<path d="M72.9326 33.6666H70.7451V37H72.9326V33.6666Z" fill="#6339F5"/>
<path d="M74.0256 65.889C73.8564 65.8908 73.689 65.8528 73.5367 65.7778L71.5802 64.7778H69.6511V62.5556H71.8383C72.0076 62.5537 72.1749 62.5918 72.3272 62.6667L73.8101 63.4201L75.4396 61.7645C75.6456 61.5582 75.9236 61.4431 76.2128 61.4445H77.9757L77.3633 59.5734C77.3086 59.4064 77.2936 59.2287 77.3198 59.0547C77.3459 58.8808 77.4123 58.7156 77.5135 58.5728C77.6147 58.4301 77.7479 58.3138 77.902 58.2335C78.0562 58.1532 78.2268 58.1113 78.4 58.1112C78.8889 58.1112 79.2552 57.0001 79.4116 55.8889H77.3064C77.0599 55.8892 76.8204 55.8048 76.627 55.6494C76.4336 55.494 76.2976 55.2767 76.241 55.0329C76.1844 54.7891 76.2105 54.533 76.3152 54.3062C76.4199 54.0794 76.5969 53.8951 76.8176 53.7834C77.4147 53.4801 77.8357 52.3701 78.0927 51.1056L74.8031 54.4445C74.5277 54.7025 74.3462 55.0474 74.288 55.4234C74.2298 55.7993 74.2985 56.1842 74.4827 56.5156C74.5451 56.6406 74.635 56.7492 74.7453 56.8332C74.8557 56.9172 74.9836 56.9743 75.1192 57.0001C75.4092 57.0001 75.6874 57.1171 75.8925 57.3255C76.0976 57.5339 76.2128 57.8165 76.2128 58.1112C76.2166 58.7178 76.0711 59.3157 75.7893 59.8506C75.5076 60.3854 75.0986 60.8402 74.5997 61.1734C73.2589 61.9445 71.4567 61.6178 69.0879 60.1734L70.2143 58.2689C72.465 59.6412 73.3158 59.3578 73.5225 59.2389C73.6602 59.1525 73.7694 59.0264 73.8364 58.8767C73.3619 58.6028 72.9594 58.2167 72.6629 57.7512C72.1946 56.9932 71.998 56.0942 72.1061 55.2061C72.2143 54.3179 72.6207 53.4948 73.2568 52.8756L78.7248 47.32C78.8783 47.1659 79.0733 47.0613 79.2852 47.0195C79.4971 46.9777 79.7164 47.0005 79.9155 47.0851C80.1146 47.1697 80.2847 47.3123 80.4042 47.4949C80.5238 47.6774 80.5874 47.8919 80.5873 48.1112C80.605 50.0101 80.268 51.8953 79.5943 53.6667H80.5873C80.8773 53.6667 81.1555 53.7838 81.3606 53.9922C81.5657 54.2005 81.6809 54.4831 81.6809 54.7778C81.6809 56.7778 81.1592 59.0301 79.7856 59.9312L80.5304 62.2045C80.5851 62.3715 80.6 62.5492 80.5739 62.7232C80.5478 62.8971 80.4814 63.0623 80.3802 63.2051C80.2789 63.3478 80.1458 63.4641 79.9917 63.5444C79.8375 63.6247 79.6668 63.6666 79.4937 63.6667H76.6656L74.7988 65.5634C74.5937 65.7718 74.3156 65.8889 74.0256 65.889Z" fill="#6339F5"/>
<path d="M78.3993 73.6668C78.2301 73.6687 78.0628 73.6307 77.9105 73.5557C77.1931 73.1901 74.0106 71.4701 73.1478 69.2224H69.6504V67.0001H74.0249C74.3149 67.0001 74.5931 67.1172 74.7982 67.3256C75.0033 67.534 75.1185 67.8166 75.1185 68.1113C75.1185 68.9157 76.5402 70.1424 77.9214 71.009C78.2586 69.3244 78.4188 67.6081 78.3993 65.889C78.3965 65.6365 78.4785 65.3905 78.6318 65.1916C78.785 64.9927 79.0004 64.8528 79.2424 64.795C79.4844 64.7371 79.7386 64.7648 79.9631 64.8734C80.1875 64.982 80.3689 65.165 80.4772 65.3924C80.9059 66.2646 82.6961 67.099 84.4306 67.649C83.7573 66.4846 82.9427 65.4106 82.0061 64.4524C81.8372 64.2805 81.7284 64.0573 81.6963 63.8167C81.6642 63.5761 81.7105 63.3314 81.8282 63.1201C81.9459 62.9088 82.1285 62.7424 82.348 62.6465C82.5676 62.5506 82.812 62.5304 83.0439 62.589C84.61 62.9851 86.1994 63.2798 87.8022 63.4712C86.7637 62.651 85.6504 61.9333 84.4776 61.3279C84.2574 61.2164 84.0806 61.0326 83.9758 60.8064C83.8711 60.5801 83.8445 60.3246 83.9004 60.0811C83.9563 59.8376 84.0914 59.6203 84.2839 59.4645C84.4764 59.3087 84.7149 59.2234 84.961 59.2224C87.4854 59.2531 89.9553 58.4756 92.0203 57.0001H86.0546C85.7807 56.9994 85.517 56.8942 85.3157 56.7054C85.1145 56.5165 84.9903 56.2579 84.9677 55.9805C84.9452 55.7031 85.0259 55.4272 85.194 55.2074C85.362 54.9876 85.6052 54.8399 85.8753 54.7935C88.7624 54.1914 91.3452 52.5671 93.1631 50.2101L86.4035 52.4979C86.1465 52.5835 85.8674 52.5693 85.6201 52.4581C85.3728 52.3469 85.1748 52.1465 85.0644 51.8956C84.954 51.6448 84.939 51.3613 85.0223 51.0999C85.1056 50.8384 85.2813 50.6176 85.5155 50.4801C88.2704 49.057 90.5128 46.7865 91.923 43.9923L87.7585 46.8135C87.5439 46.9613 87.2846 47.0269 87.0268 46.9985C86.769 46.9702 86.5295 46.8496 86.3511 46.6585C86.1727 46.4673 86.0669 46.218 86.0527 45.9549C86.0384 45.6919 86.1166 45.4322 86.2734 45.2223C86.887 44.4195 87.3381 43.5013 87.6009 42.5206C87.8637 41.5398 87.9329 40.5159 87.8044 39.5079L82.7629 46.5423L80.9945 45.2357L87.3571 36.3468C87.4686 36.1934 87.6163 36.0711 87.7866 35.9911C87.9569 35.9111 88.1444 35.876 88.3316 35.889C88.519 35.9046 88.6992 35.9691 88.855 36.0761C89.0107 36.1831 89.1367 36.3292 89.2207 36.5001C90.0776 38.4643 90.2825 40.6583 89.8047 42.7512L93.103 40.5168C93.2679 40.405 93.4597 40.3408 93.6577 40.3312C93.8558 40.3216 94.0527 40.3669 94.2273 40.4622C94.402 40.5575 94.5479 40.6992 94.6494 40.8723C94.7509 41.0453 94.8042 41.2431 94.8036 41.4446C94.575 44.0631 93.4533 46.5183 91.6321 48.3857L95.556 47.0523C95.7618 46.9816 95.9837 46.9748 96.1933 47.0328C96.403 47.0907 96.5909 47.2108 96.7331 47.3777C96.8753 47.5446 96.9654 47.7507 96.9918 47.9698C97.0182 48.1889 96.9798 48.4111 96.8814 48.6079C95.5784 51.0563 93.7386 53.1674 91.5041 54.7779H94.8036C95.0067 54.7779 95.2058 54.8354 95.3785 54.9439C95.5513 55.0523 95.6909 55.2076 95.7817 55.3921C95.8726 55.5767 95.911 55.7833 95.8928 55.9888C95.8745 56.1943 95.8003 56.3906 95.6785 56.5557C93.7767 58.8501 91.1792 60.4383 88.2933 61.0712C89.5609 61.8851 90.6283 62.9832 91.4134 64.2812C91.4969 64.4511 91.5362 64.6399 91.5275 64.8296C91.5188 65.0193 91.4624 65.2035 91.3637 65.3648C91.265 65.526 91.1273 65.6589 90.9637 65.7506C90.8 65.8424 90.616 65.8901 90.4291 65.889C88.8153 65.8508 87.2067 65.6881 85.6172 65.4024C86.473 66.5028 87.004 67.8275 87.1483 69.2224C87.1483 69.3871 87.1122 69.5499 87.0427 69.6988C86.9732 69.8476 86.872 69.979 86.7464 70.0832C86.6208 70.1874 86.4739 70.262 86.3164 70.3014C86.159 70.3408 85.9948 70.3442 85.8359 70.3113C83.9677 69.9436 82.1669 69.2835 80.498 68.3546C80.3624 70.269 80.0157 72.4801 79.1681 73.3413C78.9642 73.5486 78.6878 73.6656 78.3993 73.6668Z" fill="#6339F5"/>
<path d="M83.8685 85.889C82.787 85.889 81.7298 85.5631 80.8306 84.9527C79.9314 84.3422 79.2305 83.4746 78.8166 82.4594C78.4028 81.4443 78.2945 80.3272 78.5055 79.2496C78.7164 78.1719 79.2372 77.182 80.002 76.405C80.7667 75.6281 81.741 75.0989 82.8017 74.8846C83.8624 74.6702 84.9619 74.7802 85.961 75.2007C86.9602 75.6212 87.8142 76.3333 88.415 77.2469C89.0159 78.1605 89.3366 79.2346 89.3366 80.3334C89.3348 81.8063 88.7582 83.2183 87.7331 84.2598C86.708 85.3013 85.3182 85.8872 83.8685 85.889ZM83.8685 77.0001C83.2196 77.0001 82.5853 77.1956 82.0457 77.5618C81.5062 77.9281 81.0857 78.4487 80.8374 79.0578C80.589 79.6669 80.5241 80.3371 80.6507 80.9837C80.7773 81.6303 81.0897 82.2242 81.5486 82.6904C82.0074 83.1566 82.592 83.4741 83.2284 83.6027C83.8648 83.7313 84.5245 83.6653 85.124 83.413C85.7235 83.1607 86.2359 82.7335 86.5964 82.1853C86.9569 81.6371 87.1493 80.9927 87.1493 80.3334C87.1493 79.4493 86.8037 78.6015 86.1884 77.9764C85.5731 77.3513 84.7386 77.0001 83.8685 77.0001Z" fill="#6339F5"/>
<path d="M84.961 71.4446H82.7734V75.889H84.961V71.4446Z" fill="#6339F5"/>
<path d="M86.0567 72.5555H81.6816V74.7778H86.0567V72.5555Z" fill="#6339F5"/>
<path d="M88.2431 79.2222H79.4941V81.4444H88.2431V79.2222Z" fill="#6339F5"/>
<path d="M81.6802 88.1112C81.5739 88.111 81.4682 88.0953 81.3663 88.0645L70.4301 84.7312C70.2048 84.6626 70.0072 84.5219 69.8667 84.3302C69.7262 84.1384 69.6504 83.9057 69.6504 83.6667V80.3334H71.8376V82.84L81.3685 85.7445L83.0942 83.9923L84.6406 85.5634L82.4534 87.7856C82.2483 87.994 81.9702 88.1111 81.6802 88.1112Z" fill="#6339F5"/>
<path d="M56.5283 58.111C55.3682 58.111 54.2555 57.6428 53.4351 56.8093C52.6147 55.9758 52.1539 54.8453 52.1539 53.6666C52.1539 53.3719 52.2691 53.0893 52.4742 52.8809C52.6793 52.6725 52.9574 52.5555 53.2475 52.5555C54.5828 52.5555 55.4347 51.8977 55.4347 51.4444C55.4347 48.3266 50.3067 44.6666 48.3262 43.5199C48.1543 43.4201 48.0123 43.2747 47.9154 43.0992C47.8184 42.9238 47.7702 42.7249 47.7758 42.5238C47.7814 42.3227 47.8407 42.1269 47.9473 41.9574C48.0538 41.7878 48.2037 41.6508 48.3809 41.561L48.9518 41.2721C50.1676 40.6553 51.5079 40.3339 52.8669 40.3333H58.7156C58.9318 40.3333 59.1432 40.3985 59.323 40.5206C59.5028 40.6427 59.643 40.8162 59.7257 41.0192C59.8085 41.2222 59.8301 41.4456 59.788 41.6611C59.7458 41.8766 59.6417 42.0745 59.4888 42.2299L58.5045 43.2299C59.7894 43.8821 60.8829 44.8661 61.6752 46.0832C62.4676 47.3004 62.931 48.7078 63.019 50.1644C63.066 50.921 63.09 51.7266 63.09 52.5555V56.9999H60.9028V52.5555C60.9028 51.731 60.8787 50.981 60.835 50.3044C60.7553 49.0043 60.2688 47.764 59.4464 46.7646C58.6241 45.7652 57.5089 45.0589 56.2637 44.7488C56.0759 44.7012 55.904 44.6037 55.7654 44.4665C55.6269 44.3293 55.5266 44.1572 55.4749 43.9677C55.4232 43.7783 55.4219 43.5783 55.4711 43.3881C55.5204 43.198 55.6184 43.0246 55.7551 42.8855L56.0756 42.5555H52.8669C52.3157 42.5556 51.7667 42.6266 51.233 42.7666C53.6784 44.4877 57.622 47.8244 57.622 51.4444C57.545 52.2504 57.1996 53.0057 56.6428 53.5851C56.086 54.1646 55.3511 54.5336 54.5598 54.631C54.7383 55.0075 55.0177 55.3253 55.3659 55.5477C55.7141 55.7702 56.117 55.8884 56.5283 55.8888V58.111Z" fill="#6339F5"/>
<path d="M53.2471 47H46.6854C46.3954 47 46.1172 46.883 45.9121 46.6746C45.707 46.4662 45.5918 46.1836 45.5918 45.8889C45.5918 42.3733 47.7375 41.4445 48.8726 41.4445L48.9033 43.6667C48.7589 43.6767 48.1618 43.7778 47.9004 44.7778H53.2471V47Z" fill="#6339F5"/>
<path d="M55.3504 41.8723L53.3316 41.0168L54.329 38.5857C54.341 38.3823 54.0424 38.1112 53.5525 38.1112H50.755C50.2651 38.1112 49.9665 38.3823 49.9665 38.5301L50.9759 41.0168L48.9571 41.8723L47.9597 39.4446C47.8405 39.1549 47.7792 38.8441 47.7793 38.5301C47.8332 37.7805 48.1759 37.0828 48.733 36.5883C49.2901 36.0938 50.0167 35.8425 50.755 35.889H53.5525C54.2908 35.8425 55.0174 36.0938 55.5746 36.5883C56.1317 37.0828 56.4744 37.7805 56.5282 38.5301C56.5277 38.8413 56.4672 39.1493 56.35 39.4368L55.3504 41.8723Z" fill="#6339F5"/>
<path d="M53.2471 33.6666H51.0596V37H53.2471V33.6666Z" fill="#6339F5"/>
<path d="M49.9659 65.8889C49.6758 65.8888 49.3977 65.7717 49.1927 65.5634L47.3259 63.6667H44.4978C44.3246 63.6666 44.1539 63.6246 43.9998 63.5444C43.8456 63.4641 43.7125 63.3478 43.6113 63.205C43.51 63.0622 43.4436 62.8971 43.4175 62.7231C43.3914 62.5492 43.4063 62.3714 43.461 62.2045L44.2058 59.9311C42.8322 59.03 42.3105 56.7778 42.3105 54.7778C42.3105 54.4831 42.4258 54.2005 42.6309 53.9921C42.836 53.7837 43.1141 53.6667 43.4042 53.6667H44.3972C43.7234 51.8953 43.3865 50.0101 43.4042 48.1111C43.4042 47.8914 43.4684 47.6766 43.5885 47.4939C43.7087 47.3113 43.8795 47.1689 44.0793 47.0848C44.2791 47.0007 44.499 46.9787 44.7111 47.0216C44.9232 47.0644 45.118 47.1702 45.271 47.3256L50.7391 52.8811C51.3753 53.5001 51.7819 54.3232 51.8903 55.2114C51.9986 56.0996 51.8022 56.9986 51.334 57.7567C51.0366 58.2214 50.6343 58.6073 50.1605 58.8822C50.2288 59.0333 50.3395 59.1605 50.4788 59.2478C50.6877 59.3656 51.5407 59.6411 53.7815 58.2745L54.9079 60.1789C52.5391 61.6234 50.738 61.9489 49.3961 61.1789C48.8956 60.8457 48.4853 60.3903 48.2027 59.8544C47.9202 59.3184 47.7744 58.7191 47.7786 58.1111C47.7786 57.8164 47.8938 57.5338 48.0989 57.3255C48.304 57.1171 48.5822 57 48.8722 57C49.0079 56.9746 49.136 56.9179 49.2467 56.8343C49.3575 56.7507 49.4478 56.6424 49.5109 56.5178C49.6942 56.1862 49.7621 55.8015 49.7036 55.4258C49.645 55.0502 49.4635 54.7056 49.1883 54.4478L45.8987 51.1111C46.1557 52.3756 46.5767 53.4856 47.1739 53.7889C47.3916 53.9022 47.5656 54.0864 47.6682 54.312C47.7707 54.5377 47.7959 54.7917 47.7396 55.0336C47.6833 55.2754 47.5488 55.4911 47.3576 55.6462C47.1664 55.8012 46.9296 55.8867 46.685 55.8889H44.5798C44.734 57.0122 45.0971 58.1111 45.5914 58.1111C45.7646 58.1113 45.9353 58.1532 46.0894 58.2334C46.2435 58.3137 46.3767 58.43 46.4779 58.5728C46.5792 58.7156 46.6456 58.8807 46.6717 59.0547C46.6978 59.2286 46.6829 59.4064 46.6281 59.5734L46.0157 61.4445H47.7786C48.0687 61.4445 48.3468 61.5616 48.5518 61.77L50.1813 63.4256L51.6643 62.6722C51.8161 62.5954 51.9834 62.5554 52.1531 62.5556H54.3403V64.7778H52.4112L50.4547 65.7778C50.3024 65.8528 50.1351 65.8908 49.9659 65.8889Z" fill="#6339F5"/>
<path d="M45.5916 73.6667C45.3016 73.6666 45.0235 73.5495 44.8184 73.3412C43.9709 72.48 43.6242 70.2689 43.4886 68.3545C41.821 69.2829 40.0217 69.943 38.155 70.3111C37.9961 70.3441 37.832 70.3407 37.6745 70.3013C37.517 70.2618 37.3702 70.1873 37.2445 70.0831C37.1189 69.9788 37.0177 69.8475 36.9482 69.6987C36.8787 69.5498 36.8426 69.387 36.8427 69.2223C36.987 67.8274 37.5179 66.5027 38.3737 65.4023C36.7842 65.688 35.1756 65.8507 33.5618 65.8889C33.3754 65.889 33.192 65.8407 33.0291 65.7485C32.8663 65.6563 32.7293 65.5234 32.6312 65.3623C32.5332 65.2012 32.4772 65.0173 32.4688 64.8281C32.4604 64.6389 32.4997 64.4506 32.583 64.2811C33.3666 62.9837 34.432 61.8857 35.6976 61.0711C32.8117 60.4382 30.2142 58.85 28.3125 56.5556C28.1906 56.3905 28.1164 56.1942 28.0982 55.9887C28.0799 55.7832 28.1184 55.5766 28.2092 55.392C28.3 55.2075 28.4396 55.0522 28.6124 54.9437C28.7852 54.8353 28.9843 54.7778 29.1873 54.7778H32.4868C30.2544 53.1667 28.4164 51.0556 27.1149 48.6078C27.0185 48.4112 26.9815 48.19 27.0087 47.9721C27.0359 47.7542 27.126 47.5494 27.2678 47.3836C27.4095 47.2177 27.5964 47.0982 27.8049 47.0402C28.0135 46.9823 28.2342 46.9884 28.4393 47.0578L32.3632 48.3911C30.5393 46.523 29.4158 44.0656 29.1873 41.4445C29.1873 41.2433 29.241 41.0459 29.3428 40.8733C29.4445 40.7008 29.5905 40.5595 29.765 40.4646C29.9396 40.3697 30.1363 40.3247 30.334 40.3345C30.5318 40.3443 30.7232 40.4084 30.8879 40.52L34.1863 42.7545C33.7084 40.6616 33.9134 38.4675 34.7703 36.5033C34.8545 36.3335 34.9802 36.1884 35.1354 36.082C35.2906 35.9756 35.4701 35.9115 35.6566 35.8958C35.8432 35.88 36.0306 35.9133 36.201 35.9922C36.3713 36.0712 36.5188 36.1932 36.6294 36.3467L42.9932 45.2356L41.2292 46.5445L36.1865 39.5C36.056 40.5093 36.1241 41.5349 36.387 42.5172C36.6498 43.4995 37.1021 44.419 37.7176 45.2222C37.8725 45.432 37.9494 45.6907 37.9348 45.9525C37.9201 46.2143 37.8147 46.4624 37.6373 46.6529C37.4599 46.8434 37.2219 46.964 36.9654 46.9934C36.7088 47.0227 36.4504 46.959 36.2357 46.8134L32.0636 43.9878C33.4755 46.7859 35.7226 49.0584 38.4831 50.48C38.7172 50.6175 38.8929 50.8383 38.9763 51.0998C39.0596 51.3612 39.0446 51.6447 38.9342 51.8955C38.8238 52.1464 38.6258 52.3468 38.3785 52.458C38.1312 52.5692 37.8521 52.5834 37.5951 52.4978L30.8278 50.21C32.6449 52.5663 35.2264 54.1906 38.1124 54.7934C38.3822 54.8397 38.6252 54.9872 38.7932 55.2066C38.9613 55.4261 39.0423 55.7016 39.0201 55.9787C38.998 56.2559 38.8744 56.5145 38.6738 56.7036C38.4731 56.8927 38.21 56.9985 37.9363 57H31.9706C34.0356 58.4757 36.5055 59.2532 39.0299 59.2223C39.2765 59.222 39.5159 59.3064 39.7093 59.4618C39.9027 59.6172 40.0387 59.8345 40.0953 60.0783C40.1519 60.3221 40.1258 60.5782 40.0211 60.805C39.9165 61.0318 39.7394 61.2161 39.5187 61.3278C38.3468 61.933 37.2343 62.6503 36.1963 63.47C37.7986 63.2797 39.3872 62.9854 40.9525 62.5889C41.1844 62.5303 41.4288 62.5505 41.6484 62.6464C41.8679 62.7423 42.0505 62.9086 42.1682 63.12C42.2859 63.3313 42.3322 63.5759 42.3001 63.8165C42.268 64.0572 42.1592 64.2804 41.9903 64.4523C41.0543 65.41 40.2402 66.4832 39.5669 67.6467C41.3013 67.0911 43.0927 66.2611 43.5192 65.3923C43.6292 65.1681 43.8105 64.9882 44.0338 64.8818C44.257 64.7755 44.5091 64.7489 44.7491 64.8065C44.989 64.864 45.2028 65.0022 45.3558 65.1987C45.5087 65.3952 45.5918 65.6384 45.5916 65.8889C45.5718 67.608 45.732 69.3243 46.0695 71.0089C47.4507 70.1412 48.8724 68.9156 48.8724 68.1111C48.8724 67.8165 48.9877 67.5338 49.1928 67.3255C49.3979 67.1171 49.676 67 49.9661 67H54.3405V69.2223H50.841C49.9781 71.4645 46.7946 73.1845 46.0783 73.5556C45.9266 73.6302 45.7601 73.6683 45.5916 73.6667Z" fill="#6339F5"/>
<path d="M61.9963 83.6668C61.7062 83.6668 61.4281 83.5496 61.2231 83.3413C59.2514 81.2592 57.5488 78.9304 56.1563 76.4113C56.3899 77.6 56.8346 78.7355 57.4687 79.7624C57.5941 79.9747 57.646 80.2236 57.6163 80.4694C57.5866 80.7152 57.4769 80.9438 57.3046 81.119C56.9454 81.5643 56.4845 81.9137 55.9621 82.1368C55.4397 82.3598 54.8715 82.4499 54.307 82.399C53.8022 82.3123 53.3333 82.0779 52.9575 81.7246L51.5522 82.439C51.3469 82.5431 51.1145 82.579 50.888 82.5415C50.6615 82.504 50.4524 82.3951 50.2902 82.2301L49.4984 81.4257C48.2356 81.3158 47.027 80.8544 46.0054 80.0924C45.8423 79.9608 45.7196 79.7847 45.6517 79.5847C45.5837 79.3848 45.5734 79.1693 45.6218 78.9635C45.6703 78.7578 45.7756 78.5704 45.9253 78.4234C46.075 78.2763 46.2629 78.1757 46.4669 78.1335C47.0287 77.3869 47.4716 76.5553 47.7792 75.669C47.9477 72.3412 51.9492 71.4468 54.3409 71.4468V73.669C54.2972 73.669 49.9665 73.7424 49.9665 75.8912C49.9666 76.0247 49.9433 76.1572 49.8976 76.2824C49.5682 77.2332 49.1276 78.1405 48.5852 78.9846C49.0298 79.1399 49.4964 79.2202 49.9665 79.2224C50.2565 79.2224 50.5346 79.3395 50.7397 79.5479L51.2755 80.0924L52.7585 79.339C52.887 79.2737 53.0269 79.2348 53.1703 79.2245C53.3136 79.2142 53.4575 79.2327 53.5938 79.2789C53.7301 79.3251 53.8561 79.3982 53.9646 79.4939C54.0731 79.5897 54.162 79.7062 54.2261 79.8368C54.2567 79.8935 54.4448 80.1701 54.6636 80.2068C54.8316 80.2136 54.997 80.1623 55.1327 80.0613C54.4284 78.6757 53.4835 76.3113 54.307 74.8335C54.534 74.4485 54.862 74.1354 55.2544 73.9293C55.6467 73.7233 56.0878 73.6324 56.5282 73.6668C56.7314 73.6667 56.9306 73.7241 57.1035 73.8327C57.2764 73.9412 57.4161 74.0965 57.507 74.2813C58.7423 76.6718 60.249 78.907 61.9963 80.9413C63.7416 78.9067 65.2465 76.6715 66.4801 74.2813C66.5713 74.0957 66.7119 73.9398 66.8858 73.8312C67.0598 73.7226 67.2602 73.6657 67.4643 73.6668C67.9054 73.6315 68.3474 73.722 68.7406 73.9281C69.1338 74.1342 69.4626 74.4478 69.6898 74.8335C70.5133 76.3101 69.5696 78.6735 68.8642 80.0557C69.0016 80.1573 69.1689 80.2086 69.3388 80.2013C69.5499 80.1668 69.7478 79.8679 69.7664 79.8324C69.8306 79.7017 69.9194 79.5852 70.0279 79.4895C70.1364 79.3938 70.2624 79.3207 70.3987 79.2745C70.535 79.2282 70.6789 79.2098 70.8223 79.2201C70.9656 79.2304 71.1055 79.2693 71.234 79.3346L72.717 80.0879L73.2529 79.5435C73.4586 79.3367 73.7366 79.2212 74.026 79.2224C74.4951 79.219 74.9606 79.1379 75.404 78.9824C74.8617 78.1382 74.4211 77.231 74.0917 76.2801C74.0471 76.1548 74.0249 76.0223 74.026 75.889C74.026 73.7624 69.6953 73.6668 69.6516 73.6668V71.4446C72.0368 71.4446 76.0383 72.3412 76.2078 75.6668C76.5163 76.553 76.9591 77.3849 77.5201 78.1324C77.7242 78.174 77.9123 78.274 78.0623 78.4204C78.2124 78.5669 78.3182 78.7538 78.3674 78.9593C78.4165 79.1647 78.4069 79.3802 78.3398 79.5803C78.2726 79.7804 78.1507 79.9569 77.9882 80.089C76.9666 80.8511 75.758 81.3124 74.4952 81.4224L73.7034 82.2268C73.5412 82.3918 73.3321 82.5007 73.1056 82.5382C72.8791 82.5757 72.6467 82.5398 72.4414 82.4357L71.0361 81.7213C70.6602 82.0744 70.1913 82.3087 69.6866 82.3957C69.1221 82.4467 68.5539 82.3568 68.0314 82.1337C67.5089 81.9106 67.0481 81.5611 66.689 81.1157C66.5167 80.9405 66.407 80.7118 66.3773 80.466C66.3476 80.2202 66.3996 79.9714 66.5249 79.759C67.1547 78.7376 67.5957 77.608 67.8263 76.4257C66.4351 78.9393 64.7351 81.2631 62.7673 83.3413C62.5627 83.5491 62.2855 83.6662 61.9963 83.6668Z" fill="#6339F5"/>
<path d="M76.5624 81.5036L75.8711 83.6107L82.4299 85.832L83.1212 83.7248L76.5624 81.5036Z" fill="#6339F5"/>
<path d="M42.6258 88.0645L41.998 85.9356L52.1545 82.84V80.3334H54.3417V83.6667C54.3417 83.9057 54.2659 84.1384 54.1254 84.3302C53.9849 84.5219 53.7873 84.6626 53.562 84.7312L42.6258 88.0645Z" fill="#6339F5"/>
<path d="M47.4353 81.4999L40.873 83.7246L41.565 85.8315L48.1273 83.6068L47.4353 81.4999Z" fill="#6339F5"/>
<path d="M37.8068 76.4739L35.8809 77.5276L43.5366 91.9726L45.4625 90.9189L37.8068 76.4739Z" fill="#6339F5"/>
<path d="M36.8418 78.1112H33.561C33.381 78.1112 33.2038 78.0661 33.045 77.9798C32.8863 77.8936 32.751 77.7689 32.6511 77.6167L30.4639 74.2834L32.2836 73.0501L34.1461 75.8889H36.166L36.7544 74.6923L35.8051 71.7956L37.883 71.0934L38.9766 74.4267C39.0686 74.706 39.0477 75.0109 38.9186 75.2745L37.825 77.4967C37.7338 77.6821 37.5934 77.8379 37.4197 77.9465C37.246 78.055 37.0458 78.1121 36.8418 78.1112Z" fill="#6339F5"/>
<path d="M61.9961 97C61.8161 97 61.6389 96.9549 61.4801 96.8686C61.3214 96.7824 61.186 96.6577 61.0861 96.5055L58.8986 93.1722C58.7791 92.9894 58.7152 92.775 58.7148 92.5555C58.7148 90.29 59.7725 81.6666 59.8174 81.3066L61.9874 81.5822C61.9764 81.6666 60.9975 89.6566 60.9089 92.2289L61.9961 93.8889L63.0833 92.2322C62.9947 89.6589 62.0158 81.67 62.0049 81.5855L64.1749 81.31C64.2197 81.6722 65.2774 90.29 65.2774 92.5555C65.2771 92.775 65.2132 92.9894 65.0937 93.1722L62.9061 96.5055C62.8062 96.6577 62.6709 96.7824 62.5121 96.8686C62.3534 96.9549 62.1762 97 61.9961 97Z" fill="#6339F5"/>
<path d="M66.3704 95.8889C66.1882 95.8889 66.0088 95.8427 65.8487 95.7544C65.6885 95.6661 65.5526 95.5386 65.4533 95.3834C65.354 95.2282 65.2945 95.0502 65.28 94.8657C65.2656 94.6811 65.2968 94.4959 65.3708 94.3267C65.7387 93.5127 66.0405 92.6695 66.273 91.8056L65.5972 91.1189C65.475 90.9945 65.3835 90.8424 65.3304 90.6751C65.2773 90.5077 65.2641 90.33 65.2917 90.1565C65.3194 89.983 65.3871 89.8186 65.4895 89.6768C65.5918 89.5351 65.7258 89.42 65.8804 89.3411C65.8804 89.33 65.8804 89.3167 65.8804 89.3034C64.8858 87.9209 63.7082 86.6844 62.3809 85.6289L63.7916 83.9289C66.6296 86.3622 68.0688 88.1434 68.0688 89.2234C68.075 89.5918 68.0115 89.9581 67.8818 90.3022L68.2339 90.66C68.3498 90.7778 68.4382 90.9205 68.4926 91.0776C68.5469 91.2347 68.5658 91.4023 68.5478 91.5678C68.4508 92.201 68.2914 92.8226 68.072 93.4234C68.7897 93.2779 69.4403 92.8966 69.9233 92.3381C70.4064 91.7796 70.6951 91.0751 70.7448 90.3334C70.7448 88.8889 65.5436 83.6667 63.0895 83.6667V81.4445C66.401 81.4445 72.9321 87.3434 72.9321 90.3334C72.9321 93.5011 70.1116 95.8889 66.3704 95.8889Z" fill="#6339F5"/>
<path d="M57.6213 95.8889C53.88 95.8889 51.0596 93.5011 51.0596 90.3334C51.0596 87.3434 57.5907 81.4445 60.9021 81.4445V83.6667C58.448 83.6667 53.2468 88.8889 53.2468 90.3334C53.2966 91.0745 53.5849 91.7784 54.0673 92.3365C54.5497 92.8947 55.1995 93.2762 55.9163 93.4222C55.6969 92.8215 55.5375 92.1999 55.4406 91.5667C55.4226 91.4012 55.4415 91.2336 55.4958 91.0765C55.5501 90.9194 55.6385 90.7766 55.7545 90.6589L56.1066 90.3011C55.9768 89.957 55.9133 89.5907 55.9196 89.2222C55.9196 88.1422 57.3588 86.3611 60.1967 83.9278L61.6075 85.6278C60.2802 86.6833 59.1026 87.9197 58.1079 89.3022C58.1079 89.3156 58.1079 89.3289 58.1079 89.34C58.2625 89.4189 58.3965 89.534 58.4989 89.6757C58.6012 89.8175 58.669 89.9818 58.6966 90.1554C58.7243 90.3289 58.711 90.5066 58.6579 90.6739C58.6048 90.8413 58.5134 90.9934 58.3912 91.1178L57.7153 91.8045C57.9477 92.6685 58.2495 93.5117 58.6176 94.3256C58.6917 94.4945 58.7231 94.6796 58.7089 94.8641C58.6948 95.0485 58.6356 95.2264 58.5366 95.3817C58.4377 95.537 58.3021 95.6647 58.1423 95.7533C57.9824 95.8418 57.8033 95.8885 57.6213 95.8889Z" fill="#6339F5"/>
</svg>
