<svg width="341" height="301" viewBox="0 0 341 301" fill="none" xmlns="http://www.w3.org/2000/svg">
<path d="M0.0855836 259.989C0.0855836 260.331 0 260.588 0 260.844C0 261.101 0 261.272 0.0855836 261.444C0.599085 263.498 3.25218 264.097 9.24303 266.151C19.6842 269.66 40.5666 274.709 41.508 274.195C41.7648 274.024 41.936 273.682 42.1071 273.168C42.1071 273.083 42.1927 272.997 42.1927 272.912C42.1927 272.741 42.2783 272.569 42.2783 272.398C42.5351 270.943 44.6746 267.606 41.7648 265.808C40.1387 264.781 38.0847 263.583 34.0623 261.358C28.5849 258.448 22.2517 255.624 21.3959 254.255C20.2833 252.543 19.2563 250.146 18.4861 248.092C17.7158 246.124 17.2879 244.669 17.2879 244.669C17.2879 244.669 9.75653 239.705 9.4142 239.705C9.15745 239.62 3.08101 250.061 3.08101 250.574C3.08101 250.831 2.82426 251.43 2.22517 252.971C2.13959 253.142 2.05401 253.399 1.96842 253.655C1.62609 254.682 1.19817 256.052 0.599085 257.849C0.342334 258.705 0.171167 259.39 0.0855836 259.989Z" fill="#394C66"/>
<path d="M1.96777 253.655C2.13894 253.998 2.39569 254.34 2.56686 254.682C3.08036 255.538 3.50828 256.394 3.85061 257.25C4.70645 259.218 5.39112 261.358 5.81904 263.498C5.90462 263.84 6.33254 263.754 6.33254 263.412C5.81904 260.93 5.04878 258.534 4.02178 256.309C3.59386 255.282 2.99478 253.998 2.31011 252.971C2.13894 253.142 2.05336 253.399 1.96777 253.655Z" fill="#F4F4F4"/>
<path d="M17.1172 248.435C17.1172 248.435 17.1172 251.601 19.0856 254.854C21.054 258.106 27.3016 260.588 30.8106 261.957C34.3195 263.412 34.0627 261.358 34.0627 261.358C28.5854 258.448 22.2522 255.624 21.3964 254.254C20.2838 252.543 19.2568 250.146 18.4865 248.092L17.1172 248.435Z" fill="#313D56"/>
<path d="M0.0855836 259.989C0.0855836 260.331 0 260.588 0 260.844C0 261.101 0 261.272 0.0855836 261.444C0.599085 263.498 3.16659 264.525 9.24303 266.579C19.6842 270.087 40.5666 274.709 41.5936 274.195C41.8504 274.024 42.0215 273.682 42.1927 273.168C42.1927 273.083 42.2783 272.997 42.2783 272.912C42.3639 272.741 42.3639 272.569 42.3639 272.398C33.3776 270.515 9.15745 264.952 0.0855836 259.989Z" fill="#DAE2EA"/>
<path d="M0 260.844C0 261.101 0 261.272 0.0855836 261.444C11.9817 266.921 33.4632 271.542 42.1927 273.254L42.2783 272.997L42.3639 272.741C33.6344 271.029 12.0673 266.493 0.256751 260.93C0.0855836 260.844 0.0855836 260.844 0 260.844Z" fill="#606E7F"/>
<path d="M28.7566 262.299C29.6125 261.529 30.2116 260.673 30.8962 259.732C31.2386 259.218 31.6665 259.39 31.4953 259.732C31.4953 259.817 31.4097 259.817 31.4097 259.903C30.5539 260.93 30.0404 261.871 29.099 262.727C28.7566 262.984 28.4999 262.556 28.7566 262.299Z" fill="#F4F4F4"/>
<path d="M25.1619 260.245C26.1033 259.475 26.9592 258.705 27.815 257.849C28.0718 257.592 28.4997 257.935 28.2429 258.191C27.3871 259.047 26.4457 259.903 25.5043 260.673C25.1619 260.93 24.9052 260.502 25.1619 260.245Z" fill="#F4F4F4"/>
<path d="M21.3964 257.678C22.3379 257.164 23.2793 256.48 23.964 255.709C24.2207 255.453 24.563 255.795 24.3919 256.052C23.6216 256.908 22.6802 257.678 21.5676 258.191C21.3109 258.363 21.0541 257.849 21.3964 257.678Z" fill="#F4F4F4"/>
<path d="M17.8869 254.768C19.1706 254.597 20.4544 254.255 21.6526 253.827C21.9949 253.741 22.1661 254.169 21.8237 254.34C20.54 254.768 19.2562 255.11 17.9725 255.282C17.6301 255.367 17.5445 254.854 17.8869 254.768Z" fill="#F4F4F4"/>
<path d="M15.7472 252.029C17.2877 251.687 18.9138 251.43 20.4543 251.088C20.7967 251.002 20.8822 251.516 20.5399 251.601C18.9994 251.944 17.3733 252.2 15.8328 252.543C15.4905 252.628 15.4049 252.029 15.7472 252.029Z" fill="#F4F4F4"/>
<path d="M52.6345 72.047L24.8199 62.2048C24.8199 62.2048 17.2029 66.3984 24.8199 59.9797C32.4368 53.5609 34.662 38.327 34.662 38.327C34.662 38.327 56.657 26.8588 50.1526 43.462C49.8103 44.3179 49.5535 45.0881 49.2968 45.944C48.0986 49.7952 47.7563 53.3041 47.8419 56.4707C48.0986 65.9705 52.6345 72.047 52.6345 72.047Z" fill="#FFA594"/>
<path d="M47.8417 56.5563C41.6797 54.3311 38.5131 45.0881 39.0266 44.5746C41.5941 42.1782 45.8733 43.5476 49.3822 46.0295C48.0985 49.8807 47.7562 53.3897 47.8417 56.5563Z" fill="#E07E73"/>
<path d="M46.1302 97.8931C46.1302 97.8931 56.657 113.469 58.6254 114.839C63.5892 118.519 88.922 126.05 90.5481 127.505C93.1156 129.816 97.6515 129.73 98.7641 127.248C99.8767 124.766 100.476 121.6 102.872 123.226C105.268 124.852 109.462 123.654 109.291 123.055C109.12 122.456 108.349 122.456 108.349 122.456C108.349 122.456 110.917 122.712 111.516 122.113C112.03 121.6 111.516 120.83 111.516 120.83C111.516 120.83 111.687 120.145 111.43 119.118C111.088 118.005 108.521 116.636 106.723 116.978C103.471 117.492 99.4488 119.118 91.9174 119.46C89.6922 119.546 69.4945 104.312 68.3819 103.199C67.2693 102.087 62.2199 87.2807 59.738 84.7988C57.1705 82.2313 42.3645 91.6455 46.1302 97.8931Z" fill="#F99487"/>
<path d="M48.1844 60.5787C55.8014 69.3938 62.5625 83.2584 69.0668 98.749C69.0668 98.749 59.9094 106.965 56.7428 106.794C32.6082 104.997 27.2164 87.1097 34.919 81.2044L48.1844 60.5787Z" fill="#E4E9ED"/>
<path d="M102.188 271.457C102.188 271.457 97.909 282.754 102.103 280.186C103.814 279.159 104.242 282.839 106.553 281.213C111.517 277.704 112.03 283.353 114.512 281.812C118.62 279.245 118.107 283.096 121.017 278.903C128.12 268.718 121.359 270.259 121.359 270.259C117.764 270.43 102.188 271.457 102.188 271.457Z" fill="#576777"/>
<path d="M108.521 259.732C104.499 257.763 95.0845 277.277 102.787 277.277C110.404 277.277 117.935 284.722 123.241 269.745C128.633 254.768 108.521 259.732 108.521 259.732Z" fill="#1F2E3A"/>
<path d="M213.018 292.254C213.018 292.254 210.621 298.844 216.27 299.614C217.639 299.785 221.234 294.65 221.319 296.019C221.319 297.389 223.887 300.726 225.085 300.213C226.283 299.699 228.423 296.79 228.423 296.79L233.387 300.127C233.387 300.127 238.008 295.848 240.062 297.902C242.116 299.956 245.625 300.983 245.625 300.983L248.364 297.389L254.697 300.127L258.548 296.191L263.17 300.555C263.17 300.555 269.417 295.934 269.76 297.046C271.557 302.438 274.381 295.677 274.381 295.677C274.381 295.677 277.804 300.384 280.8 297.731C280.8 297.731 283.367 294.393 283.795 295.078C284.223 295.848 288.759 298.587 290.556 296.533C292.354 294.393 293.295 292.168 293.98 293.452C294.664 294.736 300.741 296.276 300.741 296.276L303.736 292.51C303.736 292.51 307.502 295.848 309.727 295.42C311.524 295.078 313.236 290.371 313.322 290.884C313.322 291.398 316.488 294.136 317.43 292.51C318.371 290.884 317.858 288.488 319.74 288.83C321.623 289.087 324.875 291.569 324.447 288.83C323.934 286.177 323.934 286.177 323.934 286.177C323.934 286.177 325.902 289.943 327.871 288.317C329.839 286.691 330.182 284.209 330.182 284.209C330.182 284.209 334.033 283.524 334.803 280.957C335.573 278.389 336.172 278.218 336.515 277.704C336.943 277.191 340.708 277.277 339.339 272.142C338.055 266.835 213.018 292.254 213.018 292.254Z" fill="#EF776D"/>
<path d="M84.0435 279.844C84.0435 279.844 84.2147 286.605 90.0344 282.839C93.0298 280.957 91.147 277.276 91.147 277.276C91.147 277.276 92.6875 276.934 93.201 275.308C93.7145 273.682 91.9172 270.858 91.9172 270.858C91.9172 270.858 94.4847 271.114 94.228 269.232C94.0568 267.349 92.8586 265.124 92.8586 265.124C92.8586 265.124 96.1108 268.376 96.7099 266.151C97.309 263.925 97.3946 262.984 97.3946 262.984C97.3946 262.984 100.304 265.979 101.588 263.669C102.786 261.444 104.498 257.849 104.498 257.849L97.7369 254.511L85.6696 263.07L81.8184 270.002L81.9895 278.132L84.0435 279.844Z" fill="#EF776D"/>
<path d="M102.272 257.507C102.272 257.507 95.6825 259.903 90.3764 263.84C89.6917 264.353 89.2638 265.038 88.9214 265.894C86.6963 271.542 91.5745 283.353 87.7233 283.952C83.2729 284.722 70.9489 274.281 70.9489 274.281C70.1786 267.606 73.5164 261.358 77.8812 256.309C84.3855 248.692 93.115 243.728 93.115 243.728L102.272 257.507Z" fill="#2F4051"/>
<path d="M102.273 257.507C102.273 257.507 95.6829 259.903 90.3767 263.84C89.692 264.353 89.2641 265.038 88.9218 265.894C81.476 266.664 78.6517 262.043 77.7959 256.309C84.3003 248.692 93.0298 243.728 93.0298 243.728L102.273 257.507Z" fill="#1F2E3A"/>
<path d="M308.358 275.308C308.273 275.907 308.273 276.506 308.187 277.105C303.737 279.502 298.687 281.213 293.381 281.984H293.296C293.124 281.984 292.953 282.069 292.868 282.069C291.926 282.24 291.07 282.326 290.129 282.326C290.129 282.326 279.174 282.155 263.855 281.984C227.91 281.556 167.83 280.786 167.744 280.786C143.268 280.443 109.034 272.997 92.8588 253.998C74.3727 232.174 79.7645 202.477 88.7508 177.144C93.7146 163.108 101.332 148.388 111.516 136.748C112.457 135.721 113.399 134.694 114.34 133.667C115.282 132.726 116.309 131.699 117.25 130.843C119.903 128.361 122.727 126.136 125.637 124.168L125.723 124.082C125.808 123.996 125.894 123.996 125.98 123.911C126.75 123.397 127.52 122.884 128.29 122.456C128.547 122.285 128.718 122.199 128.975 122.114C129.403 121.857 129.745 121.686 130.173 121.429C130.601 121.172 131.029 120.915 131.543 120.744C131.885 120.573 132.142 120.402 132.484 120.316C132.741 120.145 133.083 120.06 133.34 119.888C133.597 119.803 133.853 119.632 134.11 119.546C134.196 119.546 134.196 119.46 134.281 119.46C134.367 119.375 134.538 119.375 134.624 119.289C134.624 119.289 134.709 119.289 134.709 119.204C135.137 119.032 135.479 118.861 135.907 118.69C136.421 118.519 136.934 118.262 137.448 118.091C137.961 117.92 138.475 117.749 138.988 117.578C141.042 116.893 143.182 116.379 145.407 115.951C145.749 115.866 146.177 115.78 146.52 115.78C147.29 115.609 148.146 115.524 148.916 115.438C149.43 115.352 149.857 115.352 150.371 115.267L178.271 113.127C209.68 110.645 239.464 118.091 264.197 132.726C267.107 134.438 269.76 136.406 272.156 138.631C273.954 140.343 275.58 142.14 277.035 144.108C279.688 147.617 281.827 151.469 283.282 155.577C283.453 156.09 283.625 156.604 283.796 157.117C286.363 164.905 288.845 172.865 291.242 180.909C291.413 181.423 291.584 181.936 291.669 182.45C293.723 189.468 295.692 196.486 297.489 203.504C297.832 204.787 298.174 206.157 298.516 207.44C305.363 233.287 309.642 257.935 308.358 275.308Z" fill="#606E7F"/>
<path d="M264.454 132.726C240.234 118.433 211.221 110.988 180.583 112.956C179.898 112.956 179.213 113.042 178.529 113.127L159.957 114.582L150.628 115.267C150.372 115.267 150.115 115.352 149.858 115.352C141.043 116.208 133.169 119.289 126.066 123.996C117.422 129.73 118.62 142.825 128.12 146.933C132.228 148.73 136.764 150.27 141.728 151.64C141.728 152.153 141.728 152.667 141.813 153.266C141.899 154.635 142.755 155.833 143.953 156.347C145.237 156.86 146.606 156.518 147.633 155.577C147.804 155.405 148.061 155.234 148.232 155.063C148.66 154.635 148.917 154.122 149.002 153.608C162.867 156.689 179.128 158.315 196.416 157.887C199.411 157.802 202.406 157.631 205.316 157.459C205.659 159 206.942 160.369 208.654 160.198C210.28 160.113 212.077 158.658 211.992 156.86C228.852 155.234 244 151.725 256.238 146.933C257.865 146.334 259.405 145.649 260.86 144.964C263.684 143.68 266.337 142.311 268.819 140.942C270.103 140.257 271.301 139.487 272.414 138.717C270.017 136.406 267.364 134.437 264.454 132.726Z" fill="#2F4051"/>
<path d="M302.025 269.831C301.854 271.371 295.863 278.047 294.494 278.389C283.882 280.957 274.724 282.155 263.941 282.069C262.914 277.276 262.229 272.227 262.143 267.092C261.373 238.079 276.436 213.089 297.917 203.589C298.26 204.873 298.602 206.242 298.944 207.526C305.534 234.142 303.737 252.286 302.025 269.831Z" fill="#1F2E3A"/>
<path d="M293.295 281.984C293.124 281.984 292.953 282.069 292.868 282.069C288.16 281.984 280.971 281.898 272.499 281.812C271.472 277.02 270.787 271.97 270.701 266.835C270.017 241.417 280.544 215.057 297.917 203.589C307.246 215.742 313.921 228.665 318.2 240.732C324.533 259.133 312.637 279.074 293.295 281.984Z" fill="#2F4051"/>
<path d="M292.011 182.45C281.142 189.639 265.566 193.576 245.368 194.089C225.855 194.603 201.977 191.95 173.906 186.215C137.704 178.77 116.651 166.189 112.885 149.842C111.687 144.707 112.286 139.23 114.511 133.753C115.452 132.811 116.479 131.784 117.421 130.928C114.083 137.347 112.97 143.68 114.34 149.586C117.934 165.333 138.56 177.572 174.163 184.846C210.365 192.292 239.805 194.432 261.715 191.35C274.039 189.553 284.052 186.13 291.583 181.08C291.669 181.423 291.84 181.936 292.011 182.45Z" fill="#2F4051"/>
<path d="M210.622 282.668C210.622 282.668 212.334 278.475 216.185 273.596C220.036 268.718 236.297 270.943 246.054 270.002C255.468 269.06 305.962 264.867 318.8 249.719C319.656 248.692 321.025 248.349 322.309 248.777C327.101 250.489 338.056 254.682 336.943 258.619C333.092 272.484 282.256 294.479 210.622 282.668Z" fill="#576777"/>
<path d="M210.621 282.668C212.162 283.524 321.281 290.713 337.028 258.534C337.028 258.534 355.257 275.736 311.781 287.119C268.304 298.501 211.905 295.934 210.963 292.853C209.851 289.772 210.621 282.668 210.621 282.668Z" fill="#1F2E3A"/>
<path d="M197.613 213.773C175.105 213.003 158.758 210.008 150.628 208.211C147.461 207.526 145.578 204.188 146.434 201.107C147.29 198.283 150.2 196.571 153.11 197.17C160.727 198.882 176.474 201.792 198.041 202.476C201.122 202.562 203.518 205.13 203.518 208.211C203.433 211.377 200.78 213.859 197.613 213.773Z" fill="#2F4051"/>
<path d="M113.998 124.339C112.286 121.429 108.863 120.316 105.867 122.028C104.241 122.969 102.957 124.595 101.502 125.793C99.6195 127.42 97.4799 128.874 95.3403 130.158C92.6017 131.784 88.9216 132.811 88.5792 136.491C88.1513 140.599 90.4621 145.82 91.4035 149.842C91.4891 150.099 91.5747 150.27 91.6602 150.527C89.863 152.923 88.4936 154.892 87.9801 156.004C85.5838 161.14 96.8808 166.189 96.8808 166.189C96.8808 166.189 114.511 133.667 139.074 119.118C146.348 114.839 118.191 120.744 113.998 124.339ZM96.025 139.915C95.8538 139.23 95.6827 138.545 95.5115 137.946C96.2818 137.518 97.1376 137.176 97.9078 136.748C100.133 135.464 102.358 134.009 104.327 132.383C105.097 131.784 105.782 131.185 106.466 130.586C106.98 130.158 107.408 129.73 107.921 129.302C108.007 129.217 108.092 129.217 108.178 129.131C108.435 129.388 108.691 129.559 109.034 129.73C105.525 133.667 100.989 138.973 96.8808 143.937C96.6241 142.568 96.2818 141.199 96.025 139.915Z" fill="#2F4051"/>
<path d="M174.334 268.461C174.334 269.66 174.334 270.772 174.248 271.885C173.136 283.096 165.519 292.254 155.334 294.992C153.452 295.506 151.569 295.763 149.515 295.848C136.506 296.19 125.551 286.263 123.583 273.168C123.412 272.056 123.326 270.858 123.326 269.745C123.241 267.606 123.497 265.552 123.84 263.498C126.236 251.601 136.078 242.615 148.145 242.273C162.267 242.016 173.992 253.655 174.334 268.461Z" fill="#465E73"/>
<path d="M170.654 270.943C170.654 272.056 170.654 273.083 170.568 274.195C169.627 283.695 163.636 291.74 155.334 295.078C153.452 295.591 151.569 295.848 149.515 295.934C136.506 296.276 125.551 286.348 123.583 273.254C123.412 272.141 123.326 270.943 123.326 269.831C123.241 267.691 123.497 265.637 123.84 263.583C126.921 253.827 135.565 246.638 146.006 246.381C159.186 246.038 170.226 257.079 170.654 270.943Z" fill="#3B5363"/>
<path d="M145.855 286.525C153.085 286.339 158.786 279.982 158.588 272.327C158.391 264.672 152.37 258.618 145.14 258.805C137.911 258.991 132.21 265.348 132.407 273.003C132.605 280.658 138.626 286.712 145.855 286.525Z" fill="#1F2E3A"/>
<path d="M268.819 140.856C266.422 142.311 263.769 143.595 260.859 144.879C259.319 145.563 257.778 146.162 256.238 146.847C238.18 129.302 189.397 118.861 149.857 115.352C150.114 115.352 150.371 115.267 150.628 115.267L159.956 114.582L178.528 113.127C179.213 113.042 179.897 113.042 180.582 112.956C210.279 115.096 241.09 125.194 263.512 137.518C265.395 138.545 267.193 139.658 268.819 140.856Z" fill="#415668"/>
<path d="M283.539 155.577C281.314 157.459 278.061 159.428 274.552 161.225C271.557 162.68 268.219 164.049 265.138 164.905C258.463 166.702 252.472 166.531 250.675 162.081C248.022 155.491 258.634 149.243 268.733 146.162C271.557 145.307 274.381 144.622 276.778 144.28C276.949 144.28 277.12 144.194 277.291 144.194C279.944 147.617 282.084 151.469 283.539 155.577Z" fill="#2F4051"/>
<path d="M276.778 144.194C276.265 150.185 275.494 156.261 274.553 161.225C271.557 162.68 268.22 164.049 265.139 164.905C266.337 160.198 267.877 153.266 268.733 146.162C271.557 145.135 274.296 144.536 276.778 144.194Z" fill="#415668"/>
<path d="M53.576 49.1105C46.1302 53.732 31.2387 46.0295 31.7522 34.6469C31.9234 30.1965 33.8062 25.8318 36.6305 21.3814C37.8286 19.413 39.2836 17.4446 40.9096 15.4761C45.36 9.74204 48.2698 4.77819 53.576 17.7869C53.576 17.8725 53.6616 17.9581 53.6616 18.0436C57.7696 28.1425 61.9632 43.9755 53.576 49.1105Z" fill="#FFA594"/>
<path d="M53.4907 17.7013C46.7296 20.2689 36.374 24.7192 36.374 24.7192L36.5452 21.3814C37.7434 19.413 39.1983 17.4446 40.8244 15.4762C45.2747 9.74207 48.1846 4.77822 53.4907 17.7013Z" fill="#E07E73"/>
<path d="M21.4834 49.7096C24.0509 59.1238 9.41612 63.0607 9.41612 63.0607C9.41612 63.0607 19.0871 53.6465 11.7269 50.3943C4.45227 47.1421 -3.93493 30.0254 6.67744 19.6698C11.8125 14.6203 18.5736 17.5302 20.7987 18.6428C21.1411 18.8139 21.3978 18.9851 21.4834 18.9851C21.4834 18.9851 21.7402 19.5842 21.9113 20.3544C22.1681 21.3814 22.3392 22.7508 21.4834 23.3499C21.0555 23.6066 20.4564 23.7778 19.6006 23.6922C17.7177 23.4355 16.0061 24.2057 14.7223 25.6606C13.0962 27.4579 12.2404 30.2821 12.6683 33.2776C13.1818 37.2144 18.9159 40.2954 21.4834 49.7096Z" fill="#7C5652"/>
<path d="M21.9109 20.44C21.8253 21.1247 21.7397 21.8949 21.6541 22.6652C21.6541 22.9219 21.5685 23.1787 21.483 23.4354C21.055 23.6922 20.4559 23.8633 19.6001 23.7778C17.7173 23.521 16.0056 24.2913 14.7218 25.7462C14.4651 23.2643 17.3749 18.9851 20.7983 18.8139C21.1406 18.9851 21.3974 19.1562 21.483 19.1562C21.483 19.0707 21.7397 19.6697 21.9109 20.44Z" fill="#684644"/>
<path d="M15.3214 19.1563C10.5287 18.6428 5.82162 21.8094 4.62345 26.5165C2.99736 32.4218 6.50629 37.0433 10.9566 40.4666C11.299 40.7234 11.8125 40.2099 11.4701 39.9531C7.27654 36.8721 3.93878 32.6785 5.13695 27.2012C6.16396 22.4941 10.6143 19.3275 15.3214 19.841C15.7493 19.9265 15.7493 19.2419 15.3214 19.1563Z" fill="#684644"/>
<path d="M12.2408 23.5211C8.98859 25.0616 9.24534 28.9129 9.75884 31.9083C9.84443 32.3362 10.5291 32.1651 10.4435 31.7371C10.0156 29.0841 9.67326 25.5751 12.6687 24.2058C13.011 23.949 12.6687 23.35 12.2408 23.5211Z" fill="#684644"/>
<path d="M49.3834 7.08903C51.3519 8.97187 53.8338 13.2511 51.1807 13.9357C40.3972 16.4176 38.3432 24.2913 38.4287 26.5165C38.5999 31.7371 37.8297 37.2145 36.2036 33.2776C34.5775 29.3408 35.2622 35.7595 34.6631 38.4126C33.4649 44.0612 35.0054 45.7728 31.6676 43.8044C26.1903 40.5522 15.7491 34.5614 18.8301 17.6158C21.0553 5.63411 35.3477 3.40894 40.6539 3.49452C43.5638 3.5801 47.0727 4.77827 49.3834 7.08903Z" fill="#7C5652"/>
<path d="M42.8789 8.7151C38.9421 6.40434 34.4061 6.74668 30.0414 7.1746C29.5279 7.26018 29.5279 8.03043 30.0414 7.94485C34.3206 7.51693 38.6853 7.1746 42.5366 9.39977C42.8789 9.57094 43.3068 8.97185 42.8789 8.7151Z" fill="#684644"/>
<path d="M38.5989 15.305C35.6035 14.0212 32.5225 13.0798 29.2703 12.5663C28.7568 12.4807 28.5856 13.251 29.0991 13.3366C32.2657 13.8501 35.3467 14.7059 38.2566 15.9897C38.6845 16.1608 39.0268 15.5617 38.5989 15.305Z" fill="#684644"/>
<path d="M27.8158 31.7371C24.8204 29.084 23.1087 25.4895 22.7663 21.5527C22.7663 21.0392 21.9961 21.0392 21.9961 21.5527C22.3384 25.7463 24.1357 29.5119 27.2167 32.3362C27.6446 32.593 28.2437 31.9939 27.8158 31.7371Z" fill="#684644"/>
<path d="M36.0322 21.8949C33.9782 21.2103 32.0097 20.44 30.3836 18.9851C30.0413 18.6428 29.4422 19.1563 29.8701 19.4986C31.5818 21.0391 33.7214 21.8093 35.861 22.5796C36.2889 22.7508 36.5457 21.9805 36.0322 21.8949Z" fill="#684644"/>
<path d="M38.8556 34.5614C38.8556 34.5614 37.5719 25.3184 32.7792 27.8859C27.9865 30.539 31.8378 40.4667 35.7746 39.6964C39.7114 38.9262 38.8556 34.5614 38.8556 34.5614Z" fill="#FFA594"/>
<path d="M36.2026 33.3631C36.1171 33.3631 36.0315 33.2776 36.0315 33.192C35.7747 32.4217 35.2612 31.6515 34.6621 31.138C33.8063 30.3677 32.9505 30.111 32.9505 30.111C32.8649 30.111 32.7793 29.9398 32.7793 29.8542C32.7793 29.7686 32.9505 29.683 33.036 29.683C33.036 29.683 33.9775 29.9398 34.9189 30.7956C35.6036 31.3947 36.1171 32.165 36.3738 33.0208C36.4594 33.2776 36.3738 33.3631 36.2026 33.3631Z" fill="#E07E73"/>
<path d="M32.2659 33.0209C32.1803 33.0209 32.1803 33.0209 32.2659 33.0209C32.0947 33.0209 32.0947 32.8497 32.0947 32.7641C32.0947 32.7641 32.6082 30.3678 34.919 30.7957C35.0046 30.7957 35.0902 30.8813 35.0902 31.0524C35.0902 31.138 35.0046 31.2236 34.8334 31.2236C32.9506 30.8813 32.5226 32.7641 32.5226 32.8497C32.4371 33.0209 32.3515 33.0209 32.2659 33.0209Z" fill="#E07E73"/>
<path d="M60.7652 86.7674C60.6796 88.0511 60.0806 90.7042 59.3103 94.042C58.6256 96.8662 57.7698 100.204 56.914 103.627C55.887 107.479 54.86 111.415 54.0897 114.668C53.9185 115.352 53.7474 116.037 53.6618 116.636C53.3194 118.005 53.0627 119.204 52.8915 120.145C52.8059 120.487 52.8059 120.744 52.7204 121.001C52.6348 121.258 52.6348 121.6 52.6348 121.771C52.6348 122.028 52.6348 122.199 52.5492 122.37C52.4636 124.339 52.4636 128.019 52.5492 131.784C52.6348 136.919 52.7204 141.883 52.7204 141.883L42.1936 140.086L8.47363 134.437L10.0141 123.996L10.0997 123.397V123.226L10.7844 118.348L10.87 117.577L11.2123 115.352L11.6402 112.271C12.1537 105.339 12.3249 97.9788 12.924 90.7042C14.2077 74.9568 17.4599 59.6374 30.6398 50.8223C30.6398 50.8223 48.0133 68.8804 49.1258 64.3445L48.27 60.4932C48.6123 61.1779 61.022 81.9747 60.7652 86.7674Z" fill="#F4F4F4"/>
<path d="M59.3106 94.0419C58.6259 96.8662 57.7701 100.204 56.9142 103.627L39.0273 116.122C27.987 104.312 25.0771 86.5962 25.0771 86.5962C25.3339 76.4973 30.9824 68.6236 39.5408 70.2497C46.0451 71.5334 54.7747 85.8259 59.3106 94.0419Z" fill="#D5DBE0"/>
<path d="M105.354 117.15C105.354 117.15 111.516 114.753 114.682 120.402C115.281 121.429 114.169 121.857 111.259 119.717C110.403 119.118 107.835 119.631 107.151 120.059C106.381 120.658 105.354 117.15 105.354 117.15Z" fill="#F99487"/>
<path d="M105.354 119.032C105.354 119.032 111.516 116.636 114.682 122.285C115.281 123.312 114.169 123.739 111.259 121.6C110.403 121.001 107.835 121.514 107.151 121.942C106.381 122.541 105.354 119.032 105.354 119.032Z" fill="#F99487"/>
<path d="M102.786 119.803C102.786 119.803 108.948 117.406 112.115 123.055C112.714 124.082 111.601 124.51 108.691 122.37C107.836 121.771 105.268 122.285 104.583 122.712C103.899 123.312 102.786 119.803 102.786 119.803Z" fill="#F99487"/>
<path d="M9.2429 274.623C9.2429 274.88 9.32848 275.137 9.49965 275.394C9.84198 276.078 10.3555 276.677 11.1257 277.02C18.7427 281.042 42.3638 290.884 48.0979 290.628C52.2059 290.371 54.859 289.173 55.6292 286.947C55.7148 286.605 55.886 286.263 55.886 285.92C55.9715 285.065 55.886 284.123 55.458 283.096C55.2869 282.583 55.0301 281.984 54.7734 281.47C54.6878 281.385 54.6022 281.213 54.5166 281.128C52.805 279.502 45.4448 277.448 37.1432 275.565C36.3729 275.394 35.5171 275.223 34.7468 275.051C22.6795 272.398 9.67082 270.259 9.67082 270.259C9.67082 270.601 9.58523 270.858 9.58523 271.2L9.2429 274.024C9.15732 274.024 9.15732 274.281 9.2429 274.623Z" fill="#DAE2EA"/>
<path d="M9.92808 273.34C10.0137 273.511 10.8695 274.024 12.2388 274.623C12.41 274.709 12.5812 274.795 12.7523 274.88C17.8018 277.276 28.4997 281.556 35.6032 284.294C45.0174 287.974 54.0036 289.344 55.4586 284.38C56.8279 279.758 48.8686 277.619 44.0759 274.709C43.7336 274.452 43.3057 274.195 42.9633 273.939C38.513 270.601 30.3826 266.664 30.6393 258.106H28.4141C22.5945 258.106 17.1171 255.624 13.1803 251.345C13.1803 251.345 13.1803 251.345 13.1803 251.43C13.2658 252.029 14.7208 255.282 11.4686 264.097C11.383 264.439 11.2118 264.781 11.1262 265.038C11.0407 265.38 10.8695 265.637 10.7839 265.894C8.55874 272.398 9.67133 272.826 9.92808 273.34Z" fill="#3E4F6D"/>
<path d="M12.1532 274.709C12.1532 274.88 12.1532 275.051 12.2387 275.137C12.2387 275.479 12.7522 275.394 12.7522 275.051C12.7522 274.966 12.7522 274.966 12.7522 274.88C12.4099 271.542 11.8108 268.29 11.0406 265.124C10.955 265.466 10.7838 265.723 10.6982 265.979C11.2973 268.889 11.8108 271.799 12.1532 274.709Z" fill="#F4F4F4"/>
<path d="M21.9092 257.849C23.0218 266.236 33.035 273.682 35.0891 274.88C36.4584 275.736 41.1655 275.222 43.9897 274.795C43.5618 274.538 43.2195 274.281 42.8772 274.024C38.4268 270.687 30.2964 266.75 30.5531 258.191L21.9092 257.849Z" fill="#313D56"/>
<path d="M31.58 273.425C34.8321 273.083 37.9987 272.741 41.1653 272.398C41.5077 272.313 41.5932 272.912 41.2509 272.997C38.0843 273.425 34.8321 273.768 31.6655 274.024C31.2376 274.024 31.2376 273.425 31.58 273.425Z" fill="#F4F4F4"/>
<path d="M29.2694 270.858C31.9225 270.772 34.49 270.344 36.972 269.403C37.3143 269.317 37.4855 269.831 37.1431 269.916C34.5756 270.858 32.0081 271.371 29.2694 271.457C28.9271 271.457 28.9271 270.858 29.2694 270.858Z" fill="#F4F4F4"/>
<path d="M9.24219 274.623C9.24219 274.88 9.32777 275.137 9.49894 275.394C19.8546 281.384 41.8495 288.402 43.0477 288.745C45.444 289.515 47.6692 289.857 49.7232 289.6C51.007 289.429 52.2907 289.087 53.4033 288.488C54.2592 288.06 55.0294 287.461 55.7141 286.862C55.7997 286.519 55.9708 286.177 55.9708 285.835C55.2006 286.691 54.2592 287.461 53.1466 287.974C50.4079 289.344 47.0701 289.429 43.2189 288.146C43.1333 288.146 33.7191 285.15 24.3049 281.47C16.8591 278.56 12.152 276.335 9.24219 274.623Z" fill="#606E7F"/>
<path d="M25.8461 267.862C28.3281 268.718 32.0082 267.52 34.4045 266.75C34.7468 266.664 34.918 267.178 34.5757 267.263C31.9226 268.119 28.3281 269.317 25.5894 268.376C25.2471 268.205 25.5038 267.691 25.8461 267.862Z" fill="#F4F4F4"/>
<path d="M23.535 265.124C26.7871 265.723 30.0393 265.552 33.2059 264.61C33.5482 264.525 33.7194 265.038 33.3771 265.124C30.1249 266.065 26.7871 266.322 23.4494 265.637C23.107 265.637 23.1926 265.124 23.535 265.124Z" fill="#F4F4F4"/>
<path d="M53.7468 134.438C53.7468 143.852 53.5756 155.662 53.0621 165.847C53.0621 166.275 52.9766 166.703 52.9766 167.13C52.9766 167.558 52.891 167.986 52.891 168.414C52.7198 170.811 52.5486 173.121 52.3775 175.346C52.2919 175.86 52.2919 176.373 52.2063 176.887C52.0351 178.342 51.864 179.797 51.6928 181.081C50.837 186.472 48.4406 194.86 45.3596 204.188C37.4859 228.152 25.3331 258.191 25.3331 258.191C21.9097 257.592 18.4864 257.079 15.063 256.394C13.009 256.052 11.0406 255.538 9.07218 255.025C6.59025 254.34 4.19391 253.399 1.88315 252.286C1.6264 252.115 1.45523 251.773 1.54082 251.43C3.42366 246.124 17.9729 205.215 20.1125 194.517C20.2836 193.49 20.4548 192.72 20.4548 192.206C20.4548 192.121 20.4548 192.121 20.4548 192.035C20.4548 191.95 20.4548 191.95 20.4548 191.864C20.4548 191.436 20.3692 190.923 20.198 190.238C20.198 190.067 20.1125 189.981 20.1125 189.81C20.1125 189.725 20.1125 189.725 20.1125 189.639C20.1125 189.468 20.0269 189.297 20.0269 189.125C19.9413 188.869 19.9413 188.612 19.8557 188.355C19.8557 188.184 19.7701 188.098 19.7701 187.927C19.6845 187.585 19.599 187.157 19.4278 186.729C19.3422 186.387 19.2566 186.044 19.171 185.702C17.545 179.711 14.8063 170.468 12.2388 161.14C12.0676 160.541 11.8964 159.856 11.7253 159.257C11.6397 158.914 11.5541 158.572 11.4685 158.144C11.2118 157.203 10.955 156.347 10.6983 155.406C10.3559 154.122 10.0136 152.924 9.75684 151.64C6.93258 141.199 5.13533 131.699 6.24792 127.848C6.59025 126.735 6.93258 125.622 7.18934 124.595C7.18934 124.51 7.18934 124.51 7.18934 124.51C7.27492 124.339 7.27492 124.253 7.3605 124.082C7.44609 123.825 7.53167 123.568 7.61725 123.312C8.21634 121.429 8.72984 119.803 9.24334 118.348C9.32893 118.091 9.41451 117.834 9.50009 117.578C9.84243 116.636 10.0992 115.866 10.3559 115.181C10.3559 115.181 10.3559 115.181 10.3559 115.096C11.0406 113.213 11.4685 112.271 11.4685 112.271C11.4685 112.271 15.8333 118.262 27.2159 119.974C27.3015 119.974 31.5807 121.857 31.6662 121.857C34.3193 122.285 37.058 120.059 39.9679 119.974C40.5669 119.974 41.166 119.888 41.7651 119.888C45.6164 119.546 49.5532 118.605 53.4045 116.893C53.4045 117.064 53.4045 118.005 53.4901 119.632C53.4901 120.231 53.4901 120.915 53.4901 121.686V122.028C53.4901 123.654 53.5756 125.622 53.5756 127.762C53.7468 129.902 53.7468 132.127 53.7468 134.438Z" fill="#9999FF"/>
<path d="M53.0622 165.932C53.0622 166.36 52.9767 166.788 52.9767 167.216C52.9767 167.644 52.8911 168.072 52.8911 168.5C52.7199 170.896 52.5487 173.207 52.3776 175.432C52.292 175.946 52.292 176.459 52.2064 176.973C52.0352 178.427 51.8641 179.882 51.6929 181.166C50.8371 186.558 48.4407 194.945 45.3597 204.274L19.4279 255.624L15.0631 256.48C13.0091 256.137 11.0407 255.624 9.07227 255.11L25.0764 212.49C26.2746 209.494 26.1034 206.157 24.6485 203.247C23.4503 200.936 21.9098 197.941 20.1981 194.517C20.3693 193.49 20.5405 192.72 20.5405 192.206C20.5405 192.121 20.5405 192.121 20.5405 192.035C20.5405 191.95 20.5405 191.95 20.5405 191.864C20.5405 191.436 20.4549 190.923 20.2837 190.238C20.2837 190.067 20.1981 189.981 20.1981 189.81C20.1981 189.725 20.1981 189.725 20.1981 189.639C20.1981 189.468 20.1125 189.297 20.1125 189.125C20.027 188.869 20.027 188.612 19.9414 188.355C19.9414 188.184 19.8558 188.098 19.8558 187.927C19.7702 187.585 19.6846 187.157 19.5135 186.729C19.4279 186.387 19.3423 186.044 19.2567 185.702C17.6306 179.711 14.892 170.468 12.3244 161.14C12.1533 160.54 11.9821 159.856 11.8109 159.257C11.7254 158.914 11.6398 158.572 11.5542 158.144C11.2974 157.203 11.0407 156.347 10.7839 155.405C10.4416 154.122 10.0993 152.924 9.84252 151.64C19.2567 143.681 43.9904 140.6 46.9858 148.73L53.0622 165.932Z" fill="#7070CD"/>
<path d="M11.1252 115.352C11.1252 115.352 -3.16728 141.969 3.93616 162.081C8.55767 175.09 31.6652 208.553 31.6652 208.553C31.6652 208.553 10.0982 262.984 12.3233 264.439C14.5485 265.979 23.6204 272.141 34.9174 270.601C34.9174 270.601 62.2186 206.67 61.1916 198.882C60.1646 191.094 42.6199 146.676 42.1064 144.023C41.6785 141.284 30.0392 115.267 11.1252 115.352Z" fill="#9999FF"/>
<path d="M38.9398 118.776C37.9128 117.663 36.9713 116.465 36.1155 115.267C33.8903 119.546 32.2642 121.514 31.7507 122.028C34.4038 122.456 37.1425 122.627 40.0524 122.541L40.3947 120.659L38.9398 118.776ZM54.0881 117.321C54.0025 109.276 52.3764 94.7267 52.3764 94.7267C52.3764 94.7267 52.1196 94.3843 51.6917 93.9564L52.2052 91.0466C52.2052 91.0466 51.1782 85.7404 49.1242 79.236C48.5251 77.4388 47.926 75.5559 47.1558 73.6731C44.246 66.1418 39.8812 59.0383 34.575 56.642C17.6295 49.1106 15.0619 92.0736 15.0619 92.0736L12.9224 92.3303H12.8368C12.8368 92.3303 12.4944 92.9294 12.0665 100.118C11.6386 107.735 10.6972 116.636 10.4404 117.663V117.749C10.4404 117.834 10.6972 117.92 11.1251 118.005C14.5484 119.204 29.6112 123.14 40.8226 124.253C41.764 124.339 42.7054 124.424 43.5613 124.424C47.7549 124.681 51.1782 124.339 52.8043 123.055C53.1466 122.798 53.489 122.456 53.6601 122.113C54.0025 121.343 54.0881 119.632 54.0881 117.321ZM31.6652 122.113C31.6652 122.113 27.4716 120.145 27.3004 120.059C26.2734 118.69 24.7329 112.614 22.8501 102.6C22.3366 100.033 20.7105 84.1143 21.224 71.7903C21.4807 65.885 24.5617 62.1193 27.7283 59.8086C28.6697 59.1239 30.1247 58.8671 31.7507 58.9527C37.3993 59.2095 42.1064 63.4887 43.3901 69.2228L44.4171 73.9299L46.5567 83.6008L48.2684 91.3033C47.6693 91.0466 47.0702 90.7898 46.4711 90.8754C45.4441 90.961 44.5883 91.6457 44.0748 93.5285C41.2505 103.97 38.4263 110.902 36.1155 115.267C33.8903 119.546 32.2642 121.514 31.7507 122.028L31.6652 122.113Z" fill="#9999FF"/>
<path d="M62.1332 88.907L59.4801 101.83L53.746 130.158L45.0165 126.136L40.8229 124.167L39.7959 123.74L40.0526 122.456L40.395 120.573L46.3858 90.7898L46.8993 88.0512L46.3858 83.5152L45.4444 75.0425L44.8453 69.9074L46.9849 73.5875L53.8316 85.4837L59.3945 85.9116L48.1831 60.75C52.6334 63.2319 62.1332 88.907 62.1332 88.907Z" fill="#9999FF"/>
<path d="M54.0886 117.321C54.0886 119.632 54.0031 121.429 53.6607 122.113C53.6607 122.713 53.6607 123.397 53.6607 124.167C53.7463 124.253 53.7463 124.424 53.6607 124.51C53.6607 126.136 53.7463 128.019 53.7463 130.244C53.7463 132.212 53.7463 134.437 53.7463 136.748L52.4626 135.208L48.269 130.158C44.1609 130.415 40.1385 130.501 36.0305 130.415C27.2154 130.158 18.4003 129.046 9.75634 127.077C9.24284 126.992 8.72934 126.821 8.21583 126.735C7.8735 126.649 7.61675 126.564 7.27441 126.478C7.36 126.221 7.44558 125.965 7.53117 125.708C8.30142 125.879 9.07167 126.05 9.84192 126.221C10.0131 126.221 10.1843 126.307 10.2698 126.307C18.4003 128.104 26.6163 129.217 34.8323 129.474C39.0259 129.645 43.3051 129.559 47.4987 129.302L44.8456 126.05L44.5033 125.622L43.8186 124.852L43.3907 124.339L41.679 122.285L40.2241 120.573L38.6836 118.776C37.6566 117.663 36.7152 116.465 35.8593 115.267C38.1701 110.816 40.9944 103.97 43.8186 93.5285C44.3321 91.6457 45.188 90.961 46.215 90.8754C46.814 90.8754 47.4131 91.0466 48.0122 91.3033L46.3005 83.6008L44.1609 73.9299C44.5889 74.2722 45.0168 74.7001 45.3591 75.128C46.5573 76.3262 47.6699 77.7811 48.868 79.2361C52.8049 84.4567 56.5706 91.0466 59.0525 95.7537C58.3678 98.7491 57.512 102.172 56.6562 105.681C55.8859 109.704 54.8589 113.812 54.0886 117.321Z" fill="#7070CD"/>
<path d="M53.6595 124.424C53.6595 124.51 53.5739 124.595 53.4027 124.595C53.146 124.595 52.8036 124.681 52.5469 124.681C49.8938 125.023 47.2407 125.366 44.6732 125.622C39.7093 125.965 34.8311 125.965 29.8672 125.109C23.4484 123.996 17.1153 122.541 10.6965 121.086C10.183 121.001 9.75507 120.915 9.32715 120.744C9.41273 120.487 9.49832 120.231 9.5839 119.974C10.0118 120.059 10.4397 120.145 10.8677 120.231C16.7729 121.514 22.6782 122.884 28.669 123.996C33.8896 125.023 38.9391 125.109 44.0741 124.767C46.8983 124.595 49.8082 124.253 52.718 123.825C52.8892 123.825 53.0604 123.74 53.2315 123.74C53.4883 123.74 53.5739 123.825 53.6595 123.996C53.745 124.253 53.745 124.339 53.6595 124.424Z" fill="#7070CD"/>
<path d="M32.7777 134.523C31.4083 138.289 29.5255 141.798 26.958 144.793C25.5887 146.419 24.1337 147.874 22.5932 149.158C22.0797 149.5 21.5662 149.842 21.0527 150.27C21.1383 150.356 21.2239 150.442 21.2239 150.527C21.3095 150.698 21.4807 150.784 21.5662 150.955C22.85 150.014 24.904 148.302 25.2463 147.96C26.5301 146.761 27.6427 145.392 28.7553 144.023C30.8093 141.284 32.4354 138.203 33.5479 134.951C33.8047 134.437 33.0344 134.01 32.7777 134.523Z" fill="#7070CD"/>
<path d="M38.8545 178.684C36.1158 175.346 32.7781 172.693 30.0394 169.356C27.2151 165.932 25.0755 161.995 23.535 157.802C20.1973 148.644 19.9405 138.374 23.1071 129.131C23.2783 128.618 22.508 128.447 22.3369 128.874C17.1163 144.451 21.481 161.91 32.5213 173.207C35.6023 176.373 39.0257 179.369 41.1653 183.477C43.476 187.927 43.7328 193.062 43.2193 197.94C42.7058 203.075 41.5076 208.125 40.395 213.174C39.2824 218.395 38.0842 223.616 36.8005 228.836C33.8907 240.561 30.7241 252.2 27.1295 263.754C26.9584 264.268 27.7286 264.439 27.8998 264.011C31.0664 253.741 33.9762 243.471 36.5437 233.03C39.1113 222.931 41.6788 212.661 43.3904 202.305C44.8454 193.747 44.503 185.445 38.8545 178.684Z" fill="#7070CD"/>
<path d="M37.7419 103.627C37.7419 103.627 49.0389 120.316 51.0929 121.857C56.3991 125.793 81.903 132.383 83.6147 133.838C86.4389 136.32 88.2362 136.32 90.3758 134.266C94.0559 130.757 95.9387 128.96 98.5062 130.757C101.074 132.469 105.524 131.271 105.353 130.586C105.182 129.902 104.411 129.902 104.411 129.902C104.411 129.902 107.236 130.158 107.749 129.559C108.348 128.96 107.749 128.19 107.749 128.19C107.749 128.19 110.488 129.046 110.146 127.847C109.803 126.735 103.042 122.456 101.159 122.113C99.2765 121.771 94.655 122.627 90.3758 125.793C88.4074 127.248 62.5611 110.388 61.4485 109.19C60.3359 107.992 54.8586 92.1591 52.2055 89.506C49.5524 86.9385 33.6338 97.0374 37.7419 103.627Z" fill="#FFA594"/>
<path d="M23.6206 82.1459C23.6206 82.1459 27.9854 99.3482 38.9401 111.159L59.0522 99.0059C59.0522 99.0059 43.3904 62.7184 35.3456 59.4663C27.3007 56.2141 19.5982 71.1912 23.6206 82.1459Z" fill="#F4F4F4"/>
<path d="M18.9999 26.003C19.2567 25.9174 19.5134 25.8319 19.7702 25.7463C19.7702 25.7463 19.7702 25.7463 19.8557 25.7463C20.3692 25.5751 20.8827 25.4039 21.3107 25.3184C22.0809 25.0616 22.8512 24.8049 23.6214 24.5481C24.1349 24.3769 24.6484 24.2058 25.1619 24.0346C25.5898 23.8634 26.0178 23.6923 26.3601 23.5211C26.5313 23.4355 26.7024 23.4355 26.8736 23.3499C26.8736 23.3499 26.9592 23.3499 26.9592 23.2643C44.5038 16.0753 48.783 6.48996 48.783 6.48996C48.783 6.48996 46.3867 4.1792 40.8237 0.841444C38.085 -0.784644 32.5221 -0.0143917 26.9592 2.80987C26.7024 2.89545 26.4457 3.06662 26.2745 3.1522C25.4187 3.58012 24.5628 4.09362 23.7926 4.60712C23.6214 4.69271 23.4503 4.77829 23.2791 4.94946C23.1079 5.12063 22.9367 5.20621 22.8512 5.29179C22.68 5.37738 22.5088 5.54854 22.4232 5.63413C22.2521 5.80529 22.0809 5.89088 21.9097 5.97646C21.7386 6.06204 21.653 6.23321 21.4818 6.3188C21.3107 6.40438 21.2251 6.57555 21.0539 6.66113C20.7972 6.91788 20.5404 7.17463 20.2837 7.43138C19.8557 7.8593 19.5134 8.20163 19.1711 8.62955C15.4054 13.1655 15.9189 18.2149 17.0315 21.6383C17.2882 21.5527 17.6306 21.5527 18.0585 21.3815C18.2297 21.2959 18.4864 21.2959 18.6576 21.2103C18.9143 21.1248 19.0855 21.0392 19.3422 20.9536C19.599 20.868 19.9413 20.6968 20.2837 20.5257L20.626 21.3815L20.7116 21.5527L20.9683 22.3229C20.9683 22.3229 20.626 22.4941 20.1125 22.7508C19.7702 22.922 19.3422 23.0932 18.9143 23.2643C18.572 23.3499 18.2297 23.5211 17.8017 23.6067C17.9729 25.4895 17.545 26.4309 18.9999 26.003Z" fill="#F4F4F4"/>
<path d="M27.1309 23.1787C34.6622 21.9806 42.3647 20.0121 49.3826 17.0167C52.378 15.733 55.1167 14.0213 57.7698 12.0529C59.7382 10.5979 61.7922 8.97186 63.1616 6.91785C63.5895 6.23318 63.8462 5.20618 62.7336 4.69268C61.3643 4.09359 59.567 5.46293 58.4545 6.06202C54.5176 8.28719 48.5268 8.20161 48.5268 8.20161C48.5268 8.20161 43.3062 15.9041 27.1309 23.1787Z" fill="#D0D6DD"/>
<path d="M29.9551 21.8951C29.9551 21.8951 32.5226 21.3816 36.1171 20.4401C42.0224 18.8996 50.7519 16.2465 55.6302 12.5664C63.5038 6.66117 66.4137 3.66575 58.8823 4.00808C55.8869 4.09366 52.4636 5.20625 50.4951 5.89092C50.324 5.89092 50.1528 5.9765 49.9816 5.9765C49.297 6.23325 48.7835 6.49001 48.7835 6.49001C48.7835 6.49001 48.3556 8.20168 44.761 11.5394C42.0224 14.0214 37.4864 17.5303 29.9551 21.8951Z" fill="#F4F4F4"/>
<path d="M43.99 4.35035C44.9314 5.37736 44.3323 7.51695 42.6207 8.97187C40.909 10.5124 38.7694 10.8547 37.7424 9.8277C36.801 8.8007 37.4001 6.66111 39.1117 5.20619C40.8234 3.66569 42.963 3.32335 43.99 4.35035Z" fill="#9999FF"/>
<path d="M18.8287 23.3499C19.4278 24.6337 19.8557 25.6607 19.8557 25.6607C19.8557 25.6607 19.8557 25.6607 19.9413 25.6607C20.4548 25.4895 20.9683 25.3184 21.3962 25.2328C22.1665 24.976 22.9367 24.7193 23.707 24.4625C24.2205 24.2914 24.734 24.1202 25.2475 23.949C25.6754 23.7779 26.1033 23.6067 26.4457 23.4355C26.6168 23.3499 26.788 23.3499 26.9592 23.2644C20.1125 12.8232 27.2159 2.98104 26.9592 2.80988C26.7024 2.89546 26.4457 3.06663 26.2745 3.15221C25.4187 3.58013 24.5628 4.09363 23.7926 4.60713C23.6214 4.69271 23.4503 4.7783 23.2791 4.94947C23.1079 5.12063 22.9367 5.20622 22.8512 5.2918C22.68 5.37738 22.5088 5.54855 22.4232 5.63413C22.2521 5.8053 22.0809 5.89089 21.9097 5.97647C21.7386 6.06205 21.653 6.23322 21.4818 6.3188C21.3107 6.40439 21.2251 6.57555 21.0539 6.66114C20.7972 6.91789 20.5404 7.17464 20.2837 7.43139C19.8557 7.85931 19.5134 8.20164 19.1711 8.62956C15.4054 13.1655 15.9189 18.2149 17.0315 21.6383C17.2882 21.5527 17.6306 21.5527 18.0585 21.3815C18.2297 21.2959 18.4864 21.2959 18.6576 21.2104C18.9143 21.1248 19.0855 21.0392 19.3422 20.9536C19.8557 20.7824 20.3692 20.9536 20.5404 21.4671L20.626 21.6383C20.7972 22.0662 20.5404 22.5797 20.1125 22.8364C19.7702 23.0076 19.3422 23.1788 18.8287 23.3499Z" fill="#DFE4EA"/>
<path d="M29.9551 21.895C29.9551 21.895 32.5226 21.3815 36.1171 20.4401C43.3061 16.5032 48.8691 9.99887 49.9816 5.97644C49.297 6.23319 48.7835 6.48994 48.7835 6.48994C48.7835 6.48994 48.3556 8.20161 44.761 11.5394C42.0224 14.2781 37.4864 17.7014 29.9551 21.895Z" fill="#DFE4EA"/>
<path d="M26.7883 2.89545C26.7883 2.98103 26.7883 2.98103 26.7883 3.06661C25.5901 6.31879 24.3919 9.9133 24.1352 13.4222C23.964 15.3051 24.6487 17.0167 25.2478 18.7284C25.8468 20.2689 26.4459 21.7238 27.1306 23.1788C27.1306 23.1788 27.045 23.1788 27.045 23.2643C26.9594 23.3499 26.7883 23.3499 26.7027 23.4355C25.9324 21.7238 25.1622 19.9266 24.5631 18.1293C24.0496 16.6744 23.6217 15.1339 23.7072 13.5078C23.964 10.0845 25.1622 6.57554 26.3603 3.23778C26.3603 3.06661 26.5315 2.98103 26.7883 2.89545Z" fill="#D0D6DD"/>
</svg>
