<svg width="72" height="65" viewBox="0 0 72 65" fill="none" xmlns="http://www.w3.org/2000/svg">
<path d="M48.9035 58.043H68.8873C70.0541 58.043 71 57.097 71 55.9303V3.11268C71 1.94592 70.0541 1 68.8873 1H17.2676" stroke="#6339F5" stroke-width="2" stroke-miterlimit="10" stroke-linecap="round" stroke-linejoin="round"/>
<path d="M12.338 1H3.11268C1.94592 1 1 1.94592 1 3.11268V55.9303C1 57.097 1.94592 58.043 3.11268 58.043H42.0814" stroke="#6339F5" stroke-width="2" stroke-miterlimit="10" stroke-linecap="round" stroke-linejoin="round"/>
<path d="M44.1631 53.3025H52.7604" stroke="#6339F5" stroke-width="2" stroke-miterlimit="10" stroke-linecap="round" stroke-linejoin="round"/>
<path d="M57.6899 53.3026H65.5552C65.944 53.3026 66.2594 52.9872 66.2594 52.5984V6.4447C66.2594 6.05583 65.944 5.74048 65.5552 5.74048H6.44446C6.05559 5.74048 5.74023 6.05583 5.74023 6.4447V52.5984C5.74023 52.9872 6.05559 53.3026 6.44446 53.3026H37.3408" stroke="#6339F5" stroke-width="2" stroke-miterlimit="10" stroke-linecap="round" stroke-linejoin="round"/>
<path d="M66.2594 19.939H29.2633C29.3092 20.1667 29.2164 20.4188 28.9828 20.5466L26.3757 21.9723C26.2812 22.024 26.2035 22.1018 26.1518 22.1963L24.726 24.8033C24.5123 25.194 23.9511 25.194 23.7374 24.8033L22.3116 22.1963C22.26 22.1018 22.1822 22.024 22.0877 21.9723L19.4807 20.5466C19.2469 20.4187 19.1542 20.1667 19.2001 19.939H5.74023" stroke="#6339F5" stroke-width="2" stroke-miterlimit="10" stroke-linecap="round" stroke-linejoin="round"/>
<path d="M5.74023 39.104H17.2674" stroke="#6339F5" stroke-width="2" stroke-miterlimit="10" stroke-linecap="round" stroke-linejoin="round"/>
<path d="M31.3521 39.104H66.2595" stroke="#6339F5" stroke-width="2" stroke-miterlimit="10" stroke-linecap="round" stroke-linejoin="round"/>
<path d="M47.772 5.74048V53.3026" stroke="#6339F5" stroke-width="2" stroke-miterlimit="10" stroke-linecap="round" stroke-linejoin="round"/>
<path d="M24.228 14.5658V5.74048" stroke="#6339F5" stroke-width="2" stroke-miterlimit="10" stroke-linecap="round" stroke-linejoin="round"/>
<path d="M24.228 32.3122V24.9883" stroke="#6339F5" stroke-width="2" stroke-miterlimit="10" stroke-linecap="round" stroke-linejoin="round"/>
<path d="M24.228 53.3025V44.7065" stroke="#6339F5" stroke-width="2" stroke-miterlimit="10" stroke-linecap="round" stroke-linejoin="round"/>
<path d="M24.7259 15.3013L26.1517 17.9084C26.2033 18.0029 26.2811 18.0806 26.3756 18.1323L28.9826 19.5581C29.3733 19.7718 29.3733 20.333 28.9826 20.5467L26.3756 21.9725C26.2811 22.0241 26.2033 22.1019 26.1517 22.1964L24.7259 24.8034C24.5122 25.1941 23.951 25.1941 23.7373 24.8034L22.3115 22.1964C22.2598 22.1019 22.1821 22.0241 22.0876 21.9725L19.4805 20.5467C19.0898 20.333 19.0898 19.7718 19.4805 19.5581L22.0876 18.1323C22.1821 18.0806 22.2598 18.0029 22.3115 17.9084L23.7373 15.3013C23.9511 14.9106 24.5122 14.9106 24.7259 15.3013Z" stroke="#6339F5" stroke-width="2" stroke-miterlimit="10" stroke-linecap="round" stroke-linejoin="round"/>
<path d="M17.8389 25.4482V29.9391" stroke="#6339F5" stroke-width="2" stroke-miterlimit="10" stroke-linecap="round" stroke-linejoin="round"/>
<path d="M15.5938 27.6936H20.0846" stroke="#6339F5" stroke-width="2" stroke-miterlimit="10" stroke-linecap="round" stroke-linejoin="round"/>
<path d="M34.0361 12.5066V16.9974" stroke="#6339F5" stroke-width="2" stroke-miterlimit="10" stroke-linecap="round" stroke-linejoin="round"/>
<path d="M31.791 14.752H36.2819" stroke="#6339F5" stroke-width="2" stroke-miterlimit="10" stroke-linecap="round" stroke-linejoin="round"/>
<path d="M44.1692 17.9944L34.3101 27.8535" stroke="#6339F5" stroke-width="2" stroke-miterlimit="10" stroke-linecap="round" stroke-linejoin="round"/>
<path d="M59.0984 10.8113L54.5913 15.3183" stroke="#6339F5" stroke-width="2" stroke-miterlimit="10" stroke-linecap="round" stroke-linejoin="round"/>
<path d="M62.6197 24.4731L52.2676 34.8253" stroke="#6339F5" stroke-width="2" stroke-miterlimit="10" stroke-linecap="round" stroke-linejoin="round"/>
<path d="M55.7182 24.614L52.3379 27.9943" stroke="#6339F5" stroke-width="2" stroke-miterlimit="10" stroke-linecap="round" stroke-linejoin="round"/>
<path d="M19.5209 10.6704L14.5913 15.6" stroke="#6339F5" stroke-width="2" stroke-miterlimit="10" stroke-linecap="round" stroke-linejoin="round"/>
<path d="M31.7341 35.8097L36.3281 31.2156C36.8781 30.6656 36.8781 29.7737 36.3281 29.2237L32.9832 25.8788C32.4332 25.3288 31.5413 25.3288 30.9913 25.8788L13.3285 43.5419C12.7785 44.0919 12.7785 44.9837 13.3285 45.5337L16.6734 48.8787C17.2234 49.4287 18.1153 49.4287 18.6653 48.8787L23.2594 44.2846" stroke="#6339F5" stroke-width="2" stroke-miterlimit="10" stroke-linecap="round" stroke-linejoin="round"/>
<path d="M34.5974 27.4931L32.9833 25.8791C32.4333 25.3291 31.5415 25.3291 30.9915 25.8791L13.3285 43.542C12.7785 44.092 12.7785 44.9838 13.3285 45.5338L14.9426 47.1479L34.5974 27.4931Z" stroke="#6339F5" stroke-width="2" stroke-miterlimit="10" stroke-linecap="round" stroke-linejoin="round"/>
<path d="M50.6492 63.1998C49.7073 64.1417 48.1801 64.1417 47.2381 63.1998L36.0105 51.9722C35.7354 51.6971 35.7354 51.2513 36.0105 50.9763L38.4257 48.561C38.7008 48.286 39.1466 48.286 39.4216 48.561L50.6492 59.7886C51.5912 60.7306 51.5912 62.2578 50.6492 63.1998Z" stroke="#6339F5" stroke-width="2" stroke-miterlimit="10" stroke-linecap="round" stroke-linejoin="round"/>
<path d="M33.3615 48.6479L35.8788 51.1652C35.912 51.0973 35.954 51.0326 36.0103 50.9761L38.4255 48.5609C38.482 48.5044 38.5468 48.4626 38.6147 48.4292L31.3191 41.1335C30.7007 40.5152 30.7007 39.5127 31.3191 38.8945C32.3223 37.8913 32.3223 36.2647 31.3191 35.2614L29.0738 33.0164L20.4658 41.6244L22.7109 43.8695C23.7141 44.8727 25.3407 44.8727 26.344 43.8695C26.9623 43.2511 27.9647 43.2511 28.583 43.8695L29.8755 45.162" stroke="#6339F5" stroke-width="2" stroke-miterlimit="10" stroke-linecap="round" stroke-linejoin="round"/>
<path d="M14.0282 31.2339L10.0142 35.248" stroke="#6339F5" stroke-width="2" stroke-miterlimit="10" stroke-linecap="round" stroke-linejoin="round"/>
</svg>
