<svg width="24" height="24" viewBox="0 0 24 24" fill="none" xmlns="http://www.w3.org/2000/svg">
<path d="M12.0496 2.94121C14.4551 2.94201 16.7157 3.87527 18.4158 5.56926C20.116 7.26324 21.0514 9.5143 21.0506 11.9088C21.0485 16.8494 17.0095 20.8699 12.046 20.8699H12.0423C12.0423 20.8699 12.0422 20.8699 12.0422 20.8699C10.4264 20.8692 8.84176 20.437 7.45919 19.6208C7.45917 19.6208 7.45916 19.6207 7.45914 19.6207L7.12687 19.4243L7.09102 19.4031L7.05073 19.4136L3.77242 20.2695L4.64624 17.0929L4.65796 17.0504L4.63437 17.013L4.41782 16.6702L4.33327 16.7236L4.41781 16.6702C3.51655 15.2436 3.04061 13.5947 3.04141 11.9015C3.04327 6.96135 7.08241 2.94121 12.0496 2.94121ZM12.0496 2.94121L12.0497 2.84121L12.0496 2.94121ZM17.6502 14.4502C17.6013 14.3688 17.5175 14.3128 17.4272 14.2635C17.3717 14.2331 17.3042 14.2007 17.23 14.1649C17.1837 14.1427 17.1349 14.1192 17.0847 14.0941C16.9473 14.0257 16.5421 13.8266 16.1397 13.6333C15.7405 13.4416 15.3353 13.2511 15.2038 13.2034L15.2038 13.2034L13.8035 17.0797C14.479 17.2933 15.0923 17.2626 15.5722 17.1912L15.5722 17.1912C15.8539 17.1493 16.2721 16.9772 16.6467 16.7382C17.0188 16.5009 17.3733 16.1815 17.4991 15.8309L17.4992 15.8308C17.6161 15.5044 17.6749 15.2006 17.6956 14.9621C17.7059 14.8429 17.7069 14.7385 17.7002 14.6548C17.6941 14.5765 17.6804 14.5003 17.6502 14.4502ZM17.6502 14.4502L17.5645 14.5017L17.6501 14.4501C17.6502 14.4501 17.6502 14.4502 17.6502 14.4502ZM8.69731 6.7761C8.7089 6.77667 8.72339 6.77651 8.74015 6.77633C8.80974 6.77557 8.91861 6.77438 9.02256 6.82329C9.15979 6.88785 9.28492 7.02885 9.40052 7.3049L9.40055 7.30497C9.47561 7.48455 9.58527 7.75029 9.70098 8.03069C9.76117 8.17655 9.82299 8.32637 9.88244 8.4701C10.0575 8.89329 10.2091 9.25693 10.2413 9.32122C10.3161 9.46996 10.3762 9.66544 10.2643 9.88826C10.2142 9.98799 10.1121 10.1359 9.98988 10.2998C9.86612 10.4658 9.71694 10.6545 9.56844 10.838L9.5684 10.8381C9.55241 10.8578 9.53868 10.874 9.52574 10.8892C9.50931 10.9086 9.49414 10.9265 9.47723 10.9482C9.45033 10.9828 9.43046 11.0136 9.41805 11.0444C9.3967 11.0973 9.39019 11.1663 9.45695 11.2806C9.61513 11.5505 10.158 12.4315 10.9596 13.1431L13.8035 17.0797C13.4044 16.9537 12.8911 16.7851 12.2337 16.5023C9.63765 15.3868 7.88667 12.8842 7.5639 12.4229C7.54164 12.3911 7.52618 12.369 7.51769 12.3577L7.51522 12.3544C7.44174 12.2568 7.16165 11.8847 6.89843 11.3687C6.63288 10.8482 6.38003 10.1727 6.38003 9.47975C6.38003 8.18516 7.02263 7.50282 7.3107 7.19694C7.33029 7.17614 7.34825 7.15707 7.36425 7.13968L7.43785 7.20737M8.69731 6.7761C8.69731 6.7761 8.69732 6.7761 8.69732 6.7761L8.69236 6.87598L8.69731 6.7761ZM8.69731 6.7761C8.5352 6.76805 8.35055 6.76644 8.16778 6.76644C7.9626 6.76644 7.6374 6.84269 7.36425 7.13968L7.43785 7.20737M7.43785 7.20737C7.42174 7.22489 7.40375 7.244 7.38419 7.26477C7.09913 7.56753 6.48003 8.2251 6.48003 9.47975C6.48003 10.8128 7.44951 12.1008 7.59515 12.2943L7.5976 12.2976C7.60656 12.3095 7.62262 12.3324 7.64559 12.3652C7.97338 12.833 9.70748 15.308 12.2732 16.4105L7.43785 7.20737ZM12.0461 0.9H12.046C5.95341 0.9 0.994334 5.83457 0.991883 11.9007C0.991072 13.8256 1.49268 15.7051 2.44653 17.3647L0.903582 22.9735L0.857628 23.1405L1.02526 23.0968L6.79407 21.5907C8.4001 22.4551 10.205 22.9104 12.0415 22.9109H12.0461C18.1381 22.9109 23.0977 17.976 23.1 11.9095C23.1012 8.96986 21.9522 6.20551 19.8652 4.1263C17.7783 2.04696 15.0025 0.901219 12.0461 0.9ZM14.5541 13.4338L14.471 13.3782C14.471 13.3782 14.471 13.3782 14.471 13.3782L14.5541 13.4338Z" fill="white" stroke="white" stroke-width="0.2"/>
</svg>
