<svg width="70" height="70" viewBox="0 0 70 70" fill="none" xmlns="http://www.w3.org/2000/svg">
<path d="M68.4091 66.8182H65.2273V63.6364V60.4545V57.2727V54.0909V50.9091V47.7273V44.5455V41.3636V38.1818V35V31.8182V28.6364V23.8636C65.2273 23.1334 64.7301 22.4972 64.0217 22.3201L52.5 19.4397V1.59091C52.5 0.712336 51.7884 0 50.9091 0H19.0909C18.2123 0 17.5 0.712336 17.5 1.59091V19.4395L5.97756 22.3201C5.26989 22.4972 4.77273 23.1334 4.77273 23.8636V28.6364V31.8182V35V38.1818V41.3636V44.5455V47.7273V50.9091V54.0909V57.2727V60.4545V63.6364V66.8182H1.59091C0.712336 66.8182 0 67.5297 0 68.4091C0 69.2884 0.712336 70 1.59091 70H6.36364H19.0909H28.6364H41.3636H50.9091H63.6364H68.4091C69.2884 70 70 69.2884 70 68.4091C70 67.5297 69.2884 66.8182 68.4091 66.8182ZM17.5 66.8182H7.95455V63.6364H12.7273V60.4545H7.95455V57.2727H12.7273V54.0909H7.95455V50.9091H12.7273V47.7273H7.95455V44.5455H12.7273V41.3636H7.95455V38.1818H12.7273V35H7.95455V31.8182H12.7273V28.6364H7.95455V25.1058L17.5 22.7194V66.8182ZM39.7727 66.8182H30.2273V55.6818H39.7727V66.8182ZM49.3182 20.6818V66.8182H42.9545V54.0909C42.9545 53.2116 42.243 52.5 41.3636 52.5H28.6364C27.7578 52.5 27.0455 53.2116 27.0455 54.0909V66.8182H20.6818V20.6818V3.18182H49.3182V20.6818ZM62.0455 28.6364H57.2727V31.8182H62.0455V35H57.2727V38.1818H62.0455V41.3636H57.2727V44.5455H62.0455V47.7273H57.2727V50.9091H62.0455V54.0909H57.2727V57.2727H62.0455V60.4545H57.2727V63.6364H62.0455V66.8182H52.5V22.7194L62.0455 25.1058V28.6364ZM46.1364 47.7273H23.8636V44.5455H46.1364V47.7273ZM46.1364 41.3636H23.8636V38.1818H46.1364V41.3636ZM46.1364 35H23.8636V31.8182H46.1364V35ZM46.1364 28.6364H23.8636V25.4545H46.1364V28.6364ZM46.1364 22.2727H23.8636V19.0909H46.1364V22.2727ZM46.1364 15.9091H23.8636V12.7273H46.1364V15.9091ZM46.1364 9.54545H23.8636V6.36364H46.1364V9.54545Z" fill="#6339F5"/>
</svg>
