<svg width="70" height="70" viewBox="0 0 70 70" fill="none" xmlns="http://www.w3.org/2000/svg">
<path d="M34.996 51.1112C34.706 51.1111 34.4279 50.994 34.2228 50.7856L33.3173 49.8656C33.0133 49.5549 32.6517 49.3086 32.2533 49.141C31.855 48.9733 31.4278 48.8877 30.9966 48.8889H29.5279C28.6578 48.8889 27.8233 48.5377 27.208 47.9126C26.5927 47.2875 26.2471 46.4397 26.2471 45.5556V30C26.2471 29.7053 26.3623 29.4227 26.5674 29.2144C26.7725 29.006 27.0506 28.8889 27.3407 28.8889H30.6215V31.1111H28.4343V45.5556C28.4343 45.8503 28.5495 46.1329 28.7546 46.3413C28.9597 46.5496 29.2379 46.6667 29.5279 46.6667H30.9966C31.7151 46.6648 32.4268 46.8077 33.0906 47.0871C33.7544 47.3665 34.357 47.7769 34.8637 48.2945L34.996 48.4289L35.1283 48.2945C35.635 47.7769 36.2376 47.3665 36.9014 47.0871C37.5652 46.8077 38.2769 46.6648 38.9954 46.6667H40.4641C40.7541 46.6667 41.0323 46.5496 41.2374 46.3413C41.4425 46.1329 41.5577 45.8503 41.5577 45.5556V31.1111H32.8088V28.8889H42.6513C42.9414 28.8889 43.2195 29.006 43.4246 29.2144C43.6297 29.4227 43.7449 29.7053 43.7449 30V45.5556C43.7449 46.4397 43.3993 47.2875 42.784 47.9126C42.1687 48.5377 41.3342 48.8889 40.4641 48.8889H38.9954C38.5642 48.8877 38.1371 48.9733 37.7387 49.141C37.3403 49.3086 36.9787 49.5549 36.6747 49.8656L35.7692 50.7856C35.5641 50.994 35.286 51.1111 34.996 51.1112Z" fill="#6339F5"/>
<path d="M38.2763 12.2222H31.7146C31.4245 12.2222 31.1464 12.1051 30.9413 11.8967C30.7362 11.6884 30.621 11.4058 30.621 11.1111V10.3688C29.9453 9.2526 29.5683 7.9764 29.5273 6.66662C29.5273 5.33328 30.0599 2.22217 34.9954 2.22217C39.9309 2.22217 40.4635 5.33328 40.4635 6.66662C40.4226 7.9764 40.0456 9.2526 39.3699 10.3688V11.1111C39.3699 11.4058 39.2547 11.6884 39.0496 11.8967C38.8445 12.1051 38.5663 12.2222 38.2763 12.2222ZM32.8465 9.99995H37.1586C37.154 9.83795 37.1854 9.67697 37.2505 9.52902C37.3157 9.38107 37.4128 9.24998 37.5348 9.14551C37.9927 8.40008 38.2486 7.54488 38.2763 6.66662C38.2763 6.05884 38.2763 4.44439 34.9954 4.44439C31.7146 4.44439 31.7146 6.05884 31.7146 6.66662C31.7423 7.54488 31.9981 8.40008 32.456 9.14551C32.5782 9.25062 32.6765 9.3815 32.7439 9.52905C32.8113 9.67659 32.8463 9.83728 32.8465 9.99995Z" fill="#6339F5"/>
<path d="M36.0899 0H33.9023V3.33334H36.0899V0Z" fill="#6339F5"/>
<path d="M40.464 31.111V28.8888C40.8754 28.8884 41.2783 28.7702 41.6265 28.5477C41.9746 28.3253 42.254 28.0075 42.4326 27.631C41.6413 27.5336 40.9064 27.1646 40.3496 26.5851C39.7928 26.0057 39.4473 25.2504 39.3704 24.4444C39.3704 20.8244 43.314 17.4877 45.7593 15.7666C45.2256 15.6266 44.6767 15.5556 44.1255 15.5555H40.9168L41.2372 15.881C41.374 16.0201 41.472 16.1936 41.5212 16.3837C41.5705 16.5738 41.5692 16.7738 41.5175 16.9633C41.4658 17.1527 41.3655 17.3249 41.2269 17.4621C41.0884 17.5993 40.9164 17.6967 40.7287 17.7444C39.4834 18.0545 38.3683 18.7608 37.5459 19.7602C36.7236 20.7596 36.2371 21.9998 36.1574 23.2999C36.1136 23.981 36.0896 24.731 36.0896 25.5555V29.9999H33.9023V25.5555C33.9023 24.7266 33.9264 23.921 33.9734 23.1633C34.0613 21.7068 34.5247 20.2995 35.3171 19.0826C36.1095 17.8656 37.203 16.8818 38.4879 16.2299L37.5036 15.2299C37.3507 15.0745 37.2466 14.8766 37.2044 14.6611C37.1623 14.4456 37.1839 14.2222 37.2667 14.0192C37.3494 13.8162 37.4896 13.6427 37.6694 13.5206C37.8492 13.3985 38.0605 13.3333 38.2768 13.3333H44.1255C45.4833 13.3347 46.8224 13.6561 48.0373 14.2721L48.6071 14.561C48.7843 14.6508 48.9342 14.7878 49.0408 14.9574C49.1473 15.1269 49.2066 15.3227 49.2122 15.5238C49.2178 15.7249 49.1696 15.9238 49.0726 16.0992C48.9757 16.2747 48.8337 16.4201 48.6618 16.5199C46.6856 17.6666 41.5577 21.3333 41.5577 24.4444C41.5577 24.8977 42.4096 25.5555 43.7449 25.5555C44.0349 25.5555 44.3131 25.6725 44.5182 25.8809C44.7233 26.0893 44.8385 26.3719 44.8385 26.6666C44.8385 27.8453 44.3776 28.9758 43.5573 29.8093C42.7369 30.6428 41.6242 31.111 40.464 31.111Z" fill="#6339F5"/>
<path d="M50.3068 20H43.7451V17.7778H49.0918C48.8304 16.7778 48.2333 16.6756 48.089 16.6667L48.1196 14.4445C49.2548 14.4445 51.4004 15.3733 51.4004 18.8889C51.4004 19.1836 51.2852 19.4662 51.0801 19.6746C50.875 19.883 50.5969 20 50.3068 20Z" fill="#6339F5"/>
<path d="M48.036 14.8723L46.0171 14.0168L47.0145 11.5857C47.0265 11.3823 46.728 11.1112 46.238 11.1112H43.4406C42.9506 11.1112 42.6521 11.3823 42.6521 11.5301L43.6615 14.0168L41.6427 14.8723L40.6453 12.4446C40.5261 12.1549 40.4648 11.8441 40.4648 11.5301C40.5187 10.7805 40.8614 10.0828 41.4185 9.58829C41.9756 9.09382 42.7022 8.84254 43.4406 8.88901H46.238C46.9764 8.84254 47.703 9.09382 48.2601 9.58829C48.8172 10.0828 49.1599 10.7805 49.2138 11.5301C49.2133 11.8413 49.1527 12.1493 49.0355 12.4368L48.036 14.8723Z" fill="#6339F5"/>
<path d="M45.9326 6.66663H43.7451V9.99996H45.9326V6.66663Z" fill="#6339F5"/>
<path d="M47.0256 38.889C46.8564 38.8908 46.689 38.8528 46.5367 38.7778L44.5802 37.7778H42.6511V35.5556H44.8383C45.0076 35.5537 45.1749 35.5918 45.3272 35.6667L46.8101 36.4201L48.4396 34.7645C48.6456 34.5582 48.9236 34.4431 49.2128 34.4445H50.9757L50.3633 32.5734C50.3086 32.4064 50.2936 32.2287 50.3198 32.0547C50.3459 31.8808 50.4123 31.7156 50.5135 31.5728C50.6147 31.4301 50.7479 31.3138 50.902 31.2335C51.0562 31.1532 51.2268 31.1113 51.4 31.1112C51.8889 31.1112 52.2552 30.0001 52.4116 28.8889H50.3064C50.0599 28.8892 49.8204 28.8048 49.627 28.6494C49.4336 28.494 49.2976 28.2767 49.241 28.0329C49.1844 27.7891 49.2105 27.533 49.3152 27.3062C49.4199 27.0794 49.5969 26.8951 49.8176 26.7834C50.4147 26.4801 50.8357 25.3701 51.0927 24.1056L47.8031 27.4445C47.5277 27.7025 47.3462 28.0474 47.288 28.4234C47.2298 28.7993 47.2985 29.1842 47.4827 29.5156C47.5451 29.6406 47.635 29.7492 47.7453 29.8332C47.8557 29.9172 47.9836 29.9743 48.1192 30.0001C48.4092 30.0001 48.6874 30.1171 48.8925 30.3255C49.0976 30.5339 49.2128 30.8165 49.2128 31.1112C49.2166 31.7178 49.0711 32.3157 48.7893 32.8506C48.5076 33.3854 48.0986 33.8402 47.5997 34.1734C46.2589 34.9445 44.4567 34.6178 42.0879 33.1734L43.2143 31.2689C45.465 32.6412 46.3158 32.3578 46.5225 32.2389C46.6602 32.1525 46.7694 32.0264 46.8364 31.8767C46.3619 31.6028 45.9594 31.2167 45.6629 30.7512C45.1946 29.9932 44.998 29.0942 45.1061 28.2061C45.2143 27.3179 45.6207 26.4948 46.2568 25.8756L51.7248 20.32C51.8783 20.1659 52.0733 20.0613 52.2852 20.0195C52.4971 19.9777 52.7164 20.0005 52.9155 20.0851C53.1146 20.1697 53.2847 20.3123 53.4042 20.4949C53.5238 20.6774 53.5874 20.8919 53.5873 21.1112C53.605 23.0101 53.268 24.8953 52.5943 26.6667H53.5873C53.8773 26.6667 54.1555 26.7838 54.3606 26.9922C54.5657 27.2005 54.6809 27.4831 54.6809 27.7778C54.6809 29.7778 54.1592 32.0301 52.7856 32.9312L53.5304 35.2045C53.5851 35.3715 53.6 35.5492 53.5739 35.7232C53.5478 35.8971 53.4814 36.0623 53.3802 36.2051C53.2789 36.3478 53.1458 36.4641 52.9917 36.5444C52.8375 36.6247 52.6668 36.6666 52.4937 36.6667H49.6656L47.7988 38.5634C47.5937 38.7718 47.3156 38.8889 47.0256 38.889Z" fill="#6339F5"/>
<path d="M51.3993 46.6668C51.2301 46.6687 51.0628 46.6307 50.9105 46.5557C50.1931 46.1901 47.0106 44.4701 46.1478 42.2224H42.6504V40.0001H47.0249C47.3149 40.0001 47.5931 40.1172 47.7982 40.3256C48.0033 40.534 48.1185 40.8166 48.1185 41.1113C48.1185 41.9157 49.5402 43.1424 50.9214 44.009C51.2586 42.3244 51.4188 40.6081 51.3993 38.889C51.3965 38.6365 51.4785 38.3905 51.6318 38.1916C51.785 37.9927 52.0004 37.8528 52.2424 37.795C52.4844 37.7371 52.7386 37.7648 52.9631 37.8734C53.1875 37.982 53.3689 38.165 53.4772 38.3924C53.9059 39.2646 55.6961 40.099 57.4306 40.649C56.7573 39.4846 55.9427 38.4106 55.0061 37.4524C54.8372 37.2805 54.7284 37.0573 54.6963 36.8167C54.6642 36.5761 54.7105 36.3314 54.8282 36.1201C54.9459 35.9088 55.1285 35.7424 55.348 35.6465C55.5676 35.5506 55.812 35.5304 56.0439 35.589C57.61 35.9851 59.1994 36.2798 60.8022 36.4712C59.7637 35.651 58.6504 34.9333 57.4776 34.3279C57.2574 34.2164 57.0806 34.0326 56.9758 33.8064C56.8711 33.5801 56.8445 33.3246 56.9004 33.0811C56.9563 32.8376 57.0914 32.6203 57.2839 32.4645C57.4764 32.3087 57.7149 32.2234 57.961 32.2224C60.4854 32.2531 62.9553 31.4756 65.0203 30.0001H59.0546C58.7807 29.9994 58.517 29.8942 58.3157 29.7054C58.1145 29.5165 57.9903 29.2579 57.9677 28.9805C57.9452 28.7031 58.0259 28.4272 58.194 28.2074C58.362 27.9876 58.6052 27.8399 58.8753 27.7935C61.7624 27.1914 64.3452 25.5671 66.1631 23.2101L59.4035 25.4979C59.1465 25.5835 58.8674 25.5693 58.6201 25.4581C58.3728 25.3469 58.1748 25.1465 58.0644 24.8956C57.954 24.6448 57.939 24.3613 58.0223 24.0999C58.1056 23.8384 58.2813 23.6176 58.5155 23.4801C61.2704 22.057 63.5128 19.7865 64.923 16.9923L60.7585 19.8135C60.5439 19.9613 60.2846 20.0269 60.0268 19.9985C59.769 19.9702 59.5295 19.8496 59.3511 19.6585C59.1727 19.4673 59.0669 19.218 59.0527 18.9549C59.0384 18.6919 59.1166 18.4322 59.2734 18.2223C59.887 17.4195 60.3381 16.5013 60.6009 15.5206C60.8637 14.5398 60.9329 13.5159 60.8044 12.5079L55.7629 19.5423L53.9945 18.2357L60.3571 9.34678C60.4686 9.19344 60.6163 9.07112 60.7866 8.99111C60.9569 8.9111 61.1444 8.87598 61.3316 8.889C61.519 8.90461 61.6992 8.96905 61.855 9.0761C62.0107 9.18315 62.1367 9.32919 62.2207 9.50011C63.0776 11.4643 63.2825 13.6583 62.8047 15.7512L66.103 13.5168C66.2679 13.405 66.4597 13.3408 66.6577 13.3312C66.8558 13.3216 67.0527 13.3669 67.2273 13.4622C67.402 13.5575 67.5479 13.6992 67.6494 13.8723C67.7509 14.0453 67.8042 14.2431 67.8036 14.4446C67.575 17.0631 66.4533 19.5183 64.6321 21.3857L68.556 20.0523C68.7618 19.9816 68.9837 19.9748 69.1933 20.0328C69.403 20.0907 69.5909 20.2108 69.7331 20.3777C69.8753 20.5446 69.9654 20.7507 69.9918 20.9698C70.0182 21.1889 69.9798 21.4111 69.8814 21.6079C68.5784 24.0563 66.7386 26.1674 64.5041 27.7779H67.8036C68.0067 27.7779 68.2058 27.8354 68.3785 27.9439C68.5513 28.0523 68.6909 28.2076 68.7817 28.3921C68.8726 28.5767 68.911 28.7833 68.8928 28.9888C68.8745 29.1943 68.8003 29.3906 68.6785 29.5557C66.7767 31.8501 64.1792 33.4383 61.2933 34.0712C62.5609 34.8851 63.6283 35.9832 64.4134 37.2812C64.4969 37.4511 64.5362 37.6399 64.5275 37.8296C64.5188 38.0193 64.4624 38.2035 64.3637 38.3648C64.265 38.526 64.1273 38.6589 63.9637 38.7506C63.8 38.8424 63.616 38.8901 63.4291 38.889C61.8153 38.8508 60.2067 38.6881 58.6172 38.4024C59.473 39.5028 60.004 40.8275 60.1483 42.2224C60.1483 42.3871 60.1122 42.5499 60.0427 42.6988C59.9732 42.8476 59.872 42.979 59.7464 43.0832C59.6208 43.1874 59.4739 43.262 59.3164 43.3014C59.159 43.3408 58.9948 43.3442 58.8359 43.3113C56.9677 42.9436 55.1669 42.2835 53.498 41.3546C53.3624 43.269 53.0157 45.4801 52.1681 46.3413C51.9642 46.5486 51.6878 46.6656 51.3993 46.6668Z" fill="#6339F5"/>
<path d="M56.8685 58.889C55.787 58.889 54.7298 58.5631 53.8306 57.9527C52.9314 57.3422 52.2305 56.4746 51.8166 55.4594C51.4028 54.4443 51.2945 53.3272 51.5055 52.2496C51.7164 51.1719 52.2372 50.182 53.002 49.405C53.7667 48.6281 54.741 48.0989 55.8017 47.8846C56.8624 47.6702 57.9619 47.7802 58.961 48.2007C59.9602 48.6212 60.8142 49.3333 61.415 50.2469C62.0159 51.1605 62.3366 52.2346 62.3366 53.3334C62.3348 54.8063 61.7582 56.2183 60.7331 57.2598C59.708 58.3013 58.3182 58.8872 56.8685 58.889ZM56.8685 50.0001C56.2196 50.0001 55.5853 50.1956 55.0457 50.5618C54.5062 50.9281 54.0857 51.4487 53.8374 52.0578C53.589 52.6669 53.5241 53.3371 53.6507 53.9837C53.7773 54.6303 54.0897 55.2242 54.5486 55.6904C55.0074 56.1566 55.592 56.4741 56.2284 56.6027C56.8648 56.7313 57.5245 56.6653 58.124 56.413C58.7235 56.1607 59.2359 55.7335 59.5964 55.1853C59.9569 54.6371 60.1493 53.9927 60.1493 53.3334C60.1493 52.4493 59.8037 51.6015 59.1884 50.9764C58.5731 50.3513 57.7386 50.0001 56.8685 50.0001Z" fill="#6339F5"/>
<path d="M57.961 44.4446H55.7734V48.889H57.961V44.4446Z" fill="#6339F5"/>
<path d="M59.0567 45.5555H54.6816V47.7778H59.0567V45.5555Z" fill="#6339F5"/>
<path d="M61.2431 52.2222H52.4941V54.4444H61.2431V52.2222Z" fill="#6339F5"/>
<path d="M54.6802 61.1112C54.5739 61.111 54.4682 61.0953 54.3663 61.0645L43.4301 57.7312C43.2048 57.6626 43.0072 57.5219 42.8667 57.3302C42.7262 57.1384 42.6504 56.9057 42.6504 56.6667V53.3334H44.8376V55.84L54.3685 58.7445L56.0942 56.9923L57.6406 58.5634L55.4534 60.7856C55.2483 60.994 54.9702 61.1111 54.6802 61.1112Z" fill="#6339F5"/>
<path d="M29.5283 31.111C28.3682 31.111 27.2555 30.6428 26.4351 29.8093C25.6147 28.9758 25.1539 27.8453 25.1539 26.6666C25.1539 26.3719 25.2691 26.0893 25.4742 25.8809C25.6793 25.6725 25.9574 25.5555 26.2475 25.5555C27.5828 25.5555 28.4347 24.8977 28.4347 24.4444C28.4347 21.3266 23.3067 17.6666 21.3262 16.5199C21.1543 16.4201 21.0123 16.2747 20.9154 16.0992C20.8184 15.9238 20.7702 15.7249 20.7758 15.5238C20.7814 15.3227 20.8407 15.1269 20.9473 14.9574C21.0538 14.7878 21.2037 14.6508 21.3809 14.561L21.9518 14.2721C23.1676 13.6553 24.5079 13.3339 25.8669 13.3333H31.7156C31.9318 13.3333 32.1432 13.3985 32.323 13.5206C32.5028 13.6427 32.643 13.8162 32.7257 14.0192C32.8085 14.2222 32.8301 14.4456 32.788 14.6611C32.7458 14.8766 32.6417 15.0745 32.4888 15.2299L31.5045 16.2299C32.7894 16.8821 33.8829 17.8661 34.6752 19.0832C35.4676 20.3004 35.931 21.7078 36.019 23.1644C36.066 23.921 36.09 24.7266 36.09 25.5555V29.9999H33.9028V25.5555C33.9028 24.731 33.8787 23.981 33.835 23.3044C33.7553 22.0043 33.2688 20.764 32.4464 19.7646C31.6241 18.7652 30.5089 18.0589 29.2637 17.7488C29.0759 17.7012 28.904 17.6037 28.7654 17.4665C28.6269 17.3293 28.5266 17.1572 28.4749 16.9677C28.4232 16.7783 28.4219 16.5783 28.4711 16.3881C28.5204 16.198 28.6184 16.0246 28.7551 15.8855L29.0756 15.5555H25.8669C25.3157 15.5556 24.7667 15.6266 24.233 15.7666C26.6784 17.4877 30.622 20.8244 30.622 24.4444C30.545 25.2504 30.1996 26.0057 29.6428 26.5851C29.086 27.1646 28.3511 27.5336 27.5598 27.631C27.7383 28.0075 28.0177 28.3253 28.3659 28.5477C28.7141 28.7702 29.117 28.8884 29.5283 28.8888V31.111Z" fill="#6339F5"/>
<path d="M26.2471 20H19.6854C19.3954 20 19.1172 19.883 18.9121 19.6746C18.707 19.4662 18.5918 19.1836 18.5918 18.8889C18.5918 15.3733 20.7375 14.4445 21.8726 14.4445L21.9033 16.6667C21.7589 16.6767 21.1618 16.7778 20.9004 17.7778H26.2471V20Z" fill="#6339F5"/>
<path d="M28.3504 14.8723L26.3316 14.0168L27.329 11.5857C27.341 11.3823 27.0424 11.1112 26.5525 11.1112H23.755C23.2651 11.1112 22.9665 11.3823 22.9665 11.5301L23.9759 14.0168L21.9571 14.8723L20.9597 12.4446C20.8405 12.1549 20.7792 11.8441 20.7793 11.5301C20.8332 10.7805 21.1759 10.0828 21.733 9.58829C22.2901 9.09382 23.0167 8.84254 23.755 8.88901H26.5525C27.2908 8.84254 28.0174 9.09382 28.5746 9.58829C29.1317 10.0828 29.4744 10.7805 29.5282 11.5301C29.5277 11.8413 29.4672 12.1493 29.35 12.4368L28.3504 14.8723Z" fill="#6339F5"/>
<path d="M26.2471 6.66663H24.0596V9.99996H26.2471V6.66663Z" fill="#6339F5"/>
<path d="M22.9659 38.8889C22.6758 38.8888 22.3977 38.7717 22.1927 38.5634L20.3259 36.6667H17.4978C17.3246 36.6666 17.1539 36.6246 16.9998 36.5444C16.8456 36.4641 16.7125 36.3478 16.6113 36.205C16.51 36.0622 16.4436 35.8971 16.4175 35.7231C16.3914 35.5492 16.4063 35.3714 16.461 35.2045L17.2058 32.9311C15.8322 32.03 15.3105 29.7778 15.3105 27.7778C15.3105 27.4831 15.4258 27.2005 15.6309 26.9921C15.836 26.7837 16.1141 26.6667 16.4042 26.6667H17.3972C16.7234 24.8953 16.3865 23.0101 16.4042 21.1111C16.4042 20.8914 16.4684 20.6766 16.5885 20.4939C16.7087 20.3113 16.8795 20.1689 17.0793 20.0848C17.2791 20.0007 17.499 19.9787 17.7111 20.0216C17.9232 20.0644 18.118 20.1702 18.271 20.3256L23.7391 25.8811C24.3753 26.5001 24.7819 27.3232 24.8903 28.2114C24.9986 29.0996 24.8022 29.9986 24.334 30.7567C24.0366 31.2214 23.6343 31.6073 23.1605 31.8822C23.2288 32.0333 23.3395 32.1605 23.4788 32.2478C23.6877 32.3656 24.5407 32.6411 26.7815 31.2745L27.9079 33.1789C25.5391 34.6234 23.738 34.9489 22.3961 34.1789C21.8956 33.8457 21.4853 33.3903 21.2027 32.8544C20.9202 32.3184 20.7744 31.7191 20.7786 31.1111C20.7786 30.8164 20.8938 30.5338 21.0989 30.3255C21.304 30.1171 21.5822 30 21.8722 30C22.0079 29.9746 22.136 29.9179 22.2467 29.8343C22.3575 29.7507 22.4478 29.6424 22.5109 29.5178C22.6942 29.1862 22.7621 28.8015 22.7036 28.4258C22.645 28.0502 22.4635 27.7056 22.1883 27.4478L18.8987 24.1111C19.1557 25.3756 19.5767 26.4856 20.1739 26.7889C20.3916 26.9022 20.5656 27.0864 20.6682 27.312C20.7707 27.5377 20.7959 27.7917 20.7396 28.0336C20.6833 28.2754 20.5488 28.4911 20.3576 28.6462C20.1664 28.8012 19.9296 28.8867 19.685 28.8889H17.5798C17.734 30.0122 18.0971 31.1111 18.5914 31.1111C18.7646 31.1113 18.9353 31.1532 19.0894 31.2334C19.2435 31.3137 19.3767 31.43 19.4779 31.5728C19.5792 31.7156 19.6456 31.8807 19.6717 32.0547C19.6978 32.2286 19.6829 32.4064 19.6281 32.5734L19.0157 34.4445H20.7786C21.0687 34.4445 21.3468 34.5616 21.5518 34.77L23.1813 36.4256L24.6643 35.6722C24.8161 35.5954 24.9834 35.5554 25.1531 35.5556H27.3403V37.7778H25.4112L23.4547 38.7778C23.3024 38.8528 23.1351 38.8908 22.9659 38.8889Z" fill="#6339F5"/>
<path d="M18.5916 46.6667C18.3016 46.6666 18.0235 46.5495 17.8184 46.3412C16.9709 45.48 16.6242 43.2689 16.4886 41.3545C14.821 42.2829 13.0217 42.943 11.155 43.3111C10.9961 43.3441 10.832 43.3407 10.6745 43.3013C10.517 43.2618 10.3702 43.1873 10.2445 43.0831C10.1189 42.9788 10.0177 42.8475 9.94818 42.6987C9.87867 42.5498 9.84263 42.387 9.84267 42.2223C9.98696 40.8274 10.5179 39.5027 11.3737 38.4023C9.7842 38.688 8.1756 38.8507 6.56182 38.8889C6.37538 38.889 6.19202 38.8407 6.02914 38.7485C5.86627 38.6563 5.72929 38.5234 5.63122 38.3623C5.53315 38.2012 5.47724 38.0173 5.46881 37.8281C5.46037 37.6389 5.49969 37.4506 5.58303 37.2811C6.36655 35.9837 7.43196 34.8857 8.69765 34.0711C5.81175 33.4382 3.21423 31.85 1.31246 29.5556C1.1906 29.3905 1.11639 29.1942 1.09815 28.9887C1.07991 28.7832 1.11836 28.5766 1.20919 28.392C1.30002 28.2075 1.43963 28.0522 1.6124 27.9437C1.78517 27.8353 1.98425 27.7778 2.18735 27.7778H5.48679C3.25435 26.1667 1.41639 24.0556 0.114945 21.6078C0.0184657 21.4112 -0.018509 21.19 0.00869177 20.9721C0.0358925 20.7542 0.126048 20.5494 0.26777 20.3836C0.409491 20.2177 0.596419 20.0982 0.804938 20.0402C1.01346 19.9823 1.23421 19.9884 1.43931 20.0578L5.36321 21.3911C3.53929 19.523 2.41582 17.0656 2.18735 14.4445C2.18732 14.2433 2.24104 14.0459 2.34278 13.8733C2.44452 13.7008 2.59046 13.5595 2.76503 13.4646C2.93961 13.3697 3.13627 13.3247 3.33402 13.3345C3.53178 13.3443 3.72322 13.4084 3.88792 13.52L7.18627 15.7545C6.70838 13.6616 6.91335 11.4675 7.77026 9.50335C7.85446 9.33346 7.98018 9.18838 8.13538 9.082C8.29058 8.97561 8.47006 8.91149 8.65663 8.89577C8.84321 8.88005 9.03063 8.91325 9.20096 8.9922C9.37128 9.07116 9.51881 9.19321 9.62941 9.34668L15.9932 18.2356L14.2292 19.5445L9.18649 12.5C9.05599 13.5093 9.12413 14.5349 9.38696 15.5172C9.6498 16.4995 10.1021 17.419 10.7176 18.2222C10.8725 18.432 10.9494 18.6907 10.9348 18.9525C10.9201 19.2143 10.8147 19.4624 10.6373 19.6529C10.4599 19.8434 10.2219 19.964 9.96535 19.9934C9.70885 20.0227 9.45039 19.959 9.23571 19.8134L5.06356 16.9878C6.47555 19.7859 8.7226 22.0584 11.4831 23.48C11.7172 23.6175 11.8929 23.8383 11.9763 24.0998C12.0596 24.3612 12.0446 24.6447 11.9342 24.8955C11.8238 25.1464 11.6258 25.3468 11.3785 25.458C11.1312 25.5692 10.8521 25.5834 10.5951 25.4978L3.82777 23.21C5.64489 25.5663 8.22643 27.1906 11.1124 27.7934C11.3822 27.8397 11.6252 27.9872 11.7932 28.2066C11.9613 28.4261 12.0423 28.7016 12.0201 28.9787C11.998 29.2559 11.8744 29.5145 11.6738 29.7036C11.4731 29.8927 11.21 29.9985 10.9363 30H4.9706C7.03558 31.4757 9.50548 32.2532 12.0299 32.2223C12.2765 32.222 12.5159 32.3064 12.7093 32.4618C12.9027 32.6172 13.0387 32.8345 13.0953 33.0783C13.1519 33.3221 13.1258 33.5782 13.0211 33.805C12.9165 34.0318 12.7394 34.2161 12.5187 34.3278C11.3468 34.933 10.2343 35.6503 9.19634 36.47C10.7986 36.2797 12.3872 35.9854 13.9525 35.5889C14.1844 35.5303 14.4288 35.5505 14.6484 35.6464C14.8679 35.7423 15.0505 35.9086 15.1682 36.12C15.2859 36.3313 15.3322 36.5759 15.3001 36.8165C15.268 37.0572 15.1592 37.2804 14.9903 37.4523C14.0543 38.41 13.2402 39.4832 12.5669 40.6467C14.3013 40.0911 16.0927 39.2611 16.5192 38.3923C16.6292 38.1681 16.8105 37.9882 17.0338 37.8818C17.257 37.7755 17.5091 37.7489 17.7491 37.8065C17.989 37.864 18.2028 38.0022 18.3558 38.1987C18.5087 38.3952 18.5918 38.6384 18.5916 38.8889C18.5718 40.608 18.732 42.3243 19.0695 44.0089C20.4507 43.1412 21.8724 41.9156 21.8724 41.1111C21.8724 40.8165 21.9877 40.5338 22.1928 40.3255C22.3979 40.1171 22.676 40 22.9661 40H27.3405V42.2223H23.841C22.9781 44.4645 19.7946 46.1845 19.0783 46.5556C18.9266 46.6302 18.7601 46.6683 18.5916 46.6667Z" fill="#6339F5"/>
<path d="M34.9963 56.6668C34.7062 56.6668 34.4281 56.5496 34.2231 56.3413C32.2514 54.2592 30.5488 51.9304 29.1563 49.4113C29.3899 50.6 29.8346 51.7355 30.4687 52.7624C30.5941 52.9747 30.646 53.2236 30.6163 53.4694C30.5866 53.7152 30.4769 53.9438 30.3046 54.119C29.9454 54.5643 29.4845 54.9137 28.9621 55.1368C28.4397 55.3598 27.8715 55.4499 27.307 55.399C26.8022 55.3123 26.3333 55.0779 25.9575 54.7246L24.5522 55.439C24.3469 55.5431 24.1145 55.579 23.888 55.5415C23.6615 55.504 23.4524 55.3951 23.2902 55.2301L22.4984 54.4257C21.2356 54.3158 20.027 53.8544 19.0054 53.0924C18.8423 52.9608 18.7196 52.7847 18.6517 52.5847C18.5837 52.3848 18.5734 52.1693 18.6218 51.9635C18.6703 51.7578 18.7756 51.5704 18.9253 51.4234C19.075 51.2763 19.2629 51.1757 19.4669 51.1335C20.0287 50.3869 20.4716 49.5553 20.7792 48.669C20.9477 45.3412 24.9492 44.4468 27.3409 44.4468V46.669C27.2972 46.669 22.9665 46.7424 22.9665 48.8912C22.9666 49.0247 22.9433 49.1572 22.8976 49.2824C22.5682 50.2332 22.1276 51.1405 21.5852 51.9846C22.0298 52.1399 22.4964 52.2202 22.9665 52.2224C23.2565 52.2224 23.5346 52.3395 23.7397 52.5479L24.2755 53.0924L25.7585 52.339C25.887 52.2737 26.0269 52.2348 26.1703 52.2245C26.3136 52.2142 26.4575 52.2327 26.5938 52.2789C26.7301 52.3251 26.8561 52.3982 26.9646 52.4939C27.0731 52.5897 27.162 52.7062 27.2261 52.8368C27.2567 52.8935 27.4448 53.1701 27.6636 53.2068C27.8316 53.2136 27.997 53.1623 28.1327 53.0613C27.4284 51.6757 26.4835 49.3113 27.307 47.8335C27.534 47.4485 27.862 47.1354 28.2544 46.9293C28.6467 46.7233 29.0878 46.6324 29.5282 46.6668C29.7314 46.6667 29.9306 46.7241 30.1035 46.8327C30.2764 46.9412 30.4161 47.0965 30.507 47.2813C31.7423 49.6718 33.249 51.907 34.9963 53.9413C36.7416 51.9067 38.2465 49.6715 39.4801 47.2813C39.5713 47.0957 39.7119 46.9398 39.8858 46.8312C40.0598 46.7226 40.2602 46.6657 40.4643 46.6668C40.9054 46.6315 41.3474 46.722 41.7406 46.9281C42.1338 47.1342 42.4626 47.4478 42.6898 47.8335C43.5133 49.3101 42.5696 51.6735 41.8642 53.0557C42.0016 53.1573 42.1689 53.2086 42.3388 53.2013C42.5499 53.1668 42.7478 52.8679 42.7664 52.8324C42.8306 52.7017 42.9194 52.5852 43.0279 52.4895C43.1364 52.3938 43.2624 52.3207 43.3987 52.2745C43.535 52.2282 43.6789 52.2098 43.8223 52.2201C43.9656 52.2304 44.1055 52.2693 44.234 52.3346L45.717 53.0879L46.2529 52.5435C46.4586 52.3367 46.7366 52.2212 47.026 52.2224C47.4951 52.219 47.9606 52.1379 48.404 51.9824C47.8617 51.1382 47.4211 50.231 47.0917 49.2801C47.0471 49.1548 47.0249 49.0223 47.026 48.889C47.026 46.7624 42.6953 46.6668 42.6516 46.6668V44.4446C45.0368 44.4446 49.0383 45.3412 49.2078 48.6668C49.5163 49.553 49.9591 50.3849 50.5201 51.1324C50.7242 51.174 50.9123 51.274 51.0623 51.4204C51.2124 51.5669 51.3182 51.7538 51.3674 51.9593C51.4165 52.1647 51.4069 52.3802 51.3398 52.5803C51.2726 52.7804 51.1507 52.9569 50.9882 53.089C49.9666 53.8511 48.758 54.3124 47.4952 54.4224L46.7034 55.2268C46.5412 55.3918 46.3321 55.5007 46.1056 55.5382C45.8791 55.5757 45.6467 55.5398 45.4414 55.4357L44.0361 54.7213C43.6602 55.0744 43.1913 55.3087 42.6866 55.3957C42.1221 55.4467 41.5539 55.3568 41.0314 55.1337C40.5089 54.9106 40.0481 54.5611 39.689 54.1157C39.5167 53.9405 39.407 53.7118 39.3773 53.466C39.3476 53.2202 39.3996 52.9714 39.5249 52.759C40.1547 51.7376 40.5957 50.608 40.8263 49.4257C39.4351 51.9393 37.7351 54.2631 35.7673 56.3413C35.5627 56.5491 35.2855 56.6662 34.9963 56.6668Z" fill="#6339F5"/>
<path d="M49.5624 54.5036L48.8711 56.6107L55.4299 58.832L56.1212 56.7248L49.5624 54.5036Z" fill="#6339F5"/>
<path d="M15.6258 61.0645L14.998 58.9356L25.1545 55.84V53.3334H27.3417V56.6667C27.3417 56.9057 27.2659 57.1384 27.1254 57.3302C26.9849 57.5219 26.7873 57.6626 26.562 57.7312L15.6258 61.0645Z" fill="#6339F5"/>
<path d="M20.4353 54.4999L13.873 56.7246L14.565 58.8315L21.1273 56.6068L20.4353 54.4999Z" fill="#6339F5"/>
<path d="M10.8068 49.4739L8.88086 50.5276L16.5366 64.9726L18.4625 63.9189L10.8068 49.4739Z" fill="#6339F5"/>
<path d="M9.84184 51.1112H6.56099C6.38099 51.1112 6.20376 51.0661 6.04504 50.9798C5.88632 50.8936 5.751 50.7689 5.6511 50.6167L3.46387 47.2834L5.28365 46.0501L7.14608 48.8889H9.16599L9.75435 47.6923L8.80509 44.7956L10.883 44.0934L11.9766 47.4267C12.0686 47.706 12.0477 48.0109 11.9186 48.2745L10.825 50.4967C10.7338 50.6821 10.5934 50.8379 10.4197 50.9465C10.246 51.055 10.0458 51.1121 9.84184 51.1112Z" fill="#6339F5"/>
<path d="M34.9961 70C34.8161 70 34.6389 69.9549 34.4801 69.8686C34.3214 69.7824 34.186 69.6577 34.0861 69.5055L31.8986 66.1722C31.7791 65.9894 31.7152 65.775 31.7148 65.5555C31.7148 63.29 32.7725 54.6666 32.8174 54.3066L34.9874 54.5822C34.9764 54.6666 33.9975 62.6566 33.9089 65.2289L34.9961 66.8889L36.0833 65.2322C35.9947 62.6589 35.0158 54.67 35.0049 54.5855L37.1749 54.31C37.2197 54.6722 38.2774 63.29 38.2774 65.5555C38.2771 65.775 38.2132 65.9894 38.0937 66.1722L35.9061 69.5055C35.8062 69.6577 35.6709 69.7824 35.5121 69.8686C35.3534 69.9549 35.1762 70 34.9961 70Z" fill="#6339F5"/>
<path d="M39.3704 68.8889C39.1882 68.8889 39.0088 68.8427 38.8487 68.7544C38.6885 68.6661 38.5526 68.5386 38.4533 68.3834C38.354 68.2282 38.2945 68.0502 38.28 67.8657C38.2656 67.6811 38.2968 67.4959 38.3708 67.3267C38.7387 66.5127 39.0405 65.6695 39.273 64.8056L38.5972 64.1189C38.475 63.9945 38.3835 63.8424 38.3304 63.6751C38.2773 63.5077 38.2641 63.33 38.2917 63.1565C38.3194 62.983 38.3871 62.8186 38.4895 62.6768C38.5918 62.5351 38.7258 62.42 38.8804 62.3411C38.8804 62.33 38.8804 62.3167 38.8804 62.3034C37.8858 60.9209 36.7082 59.6844 35.3809 58.6289L36.7916 56.9289C39.6296 59.3622 41.0688 61.1434 41.0688 62.2234C41.075 62.5918 41.0115 62.9581 40.8818 63.3022L41.2339 63.66C41.3498 63.7778 41.4382 63.9205 41.4926 64.0776C41.5469 64.2347 41.5658 64.4023 41.5478 64.5678C41.4508 65.201 41.2914 65.8226 41.072 66.4234C41.7897 66.2779 42.4403 65.8966 42.9233 65.3381C43.4064 64.7796 43.6951 64.0751 43.7448 63.3334C43.7448 61.8889 38.5436 56.6667 36.0895 56.6667V54.4445C39.401 54.4445 45.9321 60.3434 45.9321 63.3334C45.9321 66.5011 43.1116 68.8889 39.3704 68.8889Z" fill="#6339F5"/>
<path d="M30.6213 68.8889C26.88 68.8889 24.0596 66.5011 24.0596 63.3334C24.0596 60.3434 30.5907 54.4445 33.9021 54.4445V56.6667C31.448 56.6667 26.2468 61.8889 26.2468 63.3334C26.2966 64.0745 26.5849 64.7784 27.0673 65.3365C27.5497 65.8947 28.1995 66.2762 28.9163 66.4222C28.6969 65.8215 28.5375 65.1999 28.4406 64.5667C28.4226 64.4012 28.4415 64.2336 28.4958 64.0765C28.5501 63.9194 28.6385 63.7766 28.7545 63.6589L29.1066 63.3011C28.9768 62.957 28.9133 62.5907 28.9196 62.2222C28.9196 61.1422 30.3588 59.3611 33.1967 56.9278L34.6075 58.6278C33.2802 59.6833 32.1026 60.9197 31.1079 62.3022C31.1079 62.3156 31.1079 62.3289 31.1079 62.34C31.2625 62.4189 31.3965 62.534 31.4989 62.6757C31.6012 62.8175 31.669 62.9818 31.6966 63.1554C31.7243 63.3289 31.711 63.5066 31.6579 63.6739C31.6048 63.8413 31.5134 63.9934 31.3912 64.1178L30.7153 64.8045C30.9477 65.6685 31.2495 66.5117 31.6176 67.3256C31.6917 67.4945 31.7231 67.6796 31.7089 67.8641C31.6948 68.0485 31.6356 68.2264 31.5366 68.3817C31.4377 68.537 31.3021 68.6647 31.1423 68.7533C30.9824 68.8418 30.8033 68.8885 30.6213 68.8889Z" fill="#6339F5"/>
</svg>
