<svg width="12" height="11" viewBox="0 0 12 11" fill="none" xmlns="http://www.w3.org/2000/svg">
<path d="M5.99951 7.72974C5.66403 7.72974 5.38281 8.01172 5.38281 8.34813C5.38281 8.68454 5.66403 8.96653 5.99951 8.96653C6.32266 8.96653 6.6162 8.68454 6.6014 8.36297C6.6162 8.00925 6.33746 7.72974 5.99951 7.72974Z" fill="#FA6363"/>
<path d="M11.708 9.92152C12.0953 9.25118 12.0977 8.45222 11.7129 7.78435L7.84994 1.07601C7.46759 0.40072 6.77689 0 6.00231 0C5.22774 0 4.53705 0.403193 4.15469 1.07353L0.286775 7.7893C-0.0980429 8.46458 -0.0955761 9.2685 0.294176 9.93884C0.678994 10.6018 1.36723 11 2.13686 11H9.85297C10.6251 11 11.3182 10.5968 11.708 9.92152ZM10.8693 9.4367C10.6547 9.80774 10.2748 10.0279 9.8505 10.0279H2.1344C1.71504 10.0279 1.33763 9.81268 1.12795 9.44907C0.915805 9.0805 0.913339 8.64021 1.12548 8.26917L4.9934 1.55588C5.20308 1.18732 5.57803 0.969642 6.00231 0.969642C6.42413 0.969642 6.80155 1.18979 7.01123 1.55835L10.8767 8.27164C11.0839 8.63279 11.0814 9.06814 10.8693 9.4367Z" fill="#FA6363"/>
<path d="M5.84718 3.3888C5.55364 3.4729 5.37109 3.74004 5.37109 4.06408C5.38589 4.2595 5.39823 4.45738 5.41303 4.65279C5.45496 5.39734 5.4969 6.12705 5.53883 6.87159C5.55364 7.1239 5.74851 7.30694 6.00012 7.30694C6.25174 7.30694 6.44908 7.11153 6.46141 6.85675C6.46141 6.70339 6.46141 6.5624 6.47621 6.40656C6.50335 5.92916 6.53295 5.45176 6.56008 4.97436C6.57488 4.66516 6.60202 4.35596 6.61682 4.04677C6.61682 3.93546 6.60202 3.83651 6.56008 3.73757C6.43428 3.46053 6.14073 3.31954 5.84718 3.3888Z" fill="#FA6363"/>
</svg>
