<svg width="288" height="63" viewBox="0 0 288 63" fill="none" xmlns="http://www.w3.org/2000/svg">
<rect y="45" width="18" height="18" fill="#9999FF"/>
<rect x="19" y="45" width="18" height="18" fill="#9999FF"/>
<rect x="38" y="45" width="18" height="18" fill="#9999FF"/>
<rect x="38" y="26" width="18" height="18" fill="#CCCCFF"/>
<rect x="38" y="7" width="18" height="18" fill="#9999FF"/>
<rect y="26" width="18" height="18" fill="#9999FF"/>
<rect y="7" width="18" height="18" fill="#9999FF"/>
<rect x="19" y="7" width="18" height="18" fill="#9999FF"/>
<path d="M95.154 30.678C94.6727 33.4393 93.5453 35.5547 91.772 37.024C89.9987 38.4933 87.82 39.228 85.236 39.228C82.348 39.228 79.9287 38.278 77.978 36.378C76.7367 35.1367 75.964 33.7813 75.66 32.312C75.3813 30.8173 75.242 28.5373 75.242 25.472C75.242 22.4067 75.3813 20.1393 75.66 18.67C75.964 17.1753 76.7367 15.8073 77.978 14.566C79.9287 12.666 82.348 11.716 85.236 11.716C87.82 11.716 89.9987 12.4507 91.772 13.92C93.5453 15.3893 94.6727 17.5047 95.154 20.266H89.758C89.15 17.7073 87.6427 16.428 85.236 16.428C83.792 16.428 82.6647 16.8967 81.854 17.834C81.3473 18.4167 80.9927 19.2147 80.79 20.228C80.6127 21.216 80.524 22.964 80.524 25.472C80.524 27.98 80.6127 29.7407 80.79 30.754C80.9927 31.742 81.3473 32.5273 81.854 33.11C82.6647 34.0473 83.792 34.516 85.236 34.516C87.668 34.516 89.188 33.2367 89.796 30.678H95.154ZM115.45 39H110.472V26.916L103.518 39H98.5405V19.202H103.518V30.982L110.472 19.202H115.45V39ZM133.96 23.572H128.26V39H123.282V23.572H117.468V19.202H133.96V23.572ZM153.266 39H148.288V26.916L141.334 39H136.356V19.202H141.334V30.982L148.288 19.202H153.266V39ZM185.463 30.678C184.982 33.4393 183.855 35.5547 182.081 37.024C180.308 38.4933 178.129 39.228 175.545 39.228C172.657 39.228 170.238 38.278 168.287 36.378C167.046 35.1367 166.273 33.7813 165.969 32.312C165.691 30.8173 165.551 28.5373 165.551 25.472C165.551 22.4067 165.691 20.1393 165.969 18.67C166.273 17.1753 167.046 15.8073 168.287 14.566C170.238 12.666 172.657 11.716 175.545 11.716C178.129 11.716 180.308 12.4507 182.081 13.92C183.855 15.3893 184.982 17.5047 185.463 20.266H180.067C179.459 17.7073 177.952 16.428 175.545 16.428C174.101 16.428 172.974 16.8967 172.163 17.834C171.657 18.4167 171.302 19.2147 171.099 20.228C170.922 21.216 170.833 22.964 170.833 25.472C170.833 27.98 170.922 29.7407 171.099 30.754C171.302 31.742 171.657 32.5273 172.163 33.11C172.974 34.0473 174.101 34.516 175.545 34.516C177.977 34.516 179.497 33.2367 180.105 30.678H185.463ZM205.152 30.64H192.764C192.764 31.9573 193.144 33.0213 193.904 33.832C194.664 34.6427 195.728 35.048 197.096 35.048C198.109 35.048 198.932 34.9087 199.566 34.63C200.224 34.326 200.896 33.8447 201.58 33.186L204.582 36.112C203.518 37.2013 202.416 37.9993 201.276 38.506C200.161 38.9873 198.755 39.228 197.058 39.228C195.791 39.228 194.638 39.076 193.6 38.772C192.586 38.4427 191.636 37.9107 190.75 37.176C189.863 36.4413 189.166 35.39 188.66 34.022C188.153 32.654 187.9 31.0073 187.9 29.082C187.9 25.9153 188.685 23.4453 190.256 21.672C191.826 19.8733 193.916 18.974 196.526 18.974C199.236 18.974 201.352 19.8607 202.872 21.634C204.392 23.382 205.152 25.6873 205.152 28.55V30.64ZM200.288 27.258C200.262 26.3967 200.11 25.6873 199.832 25.13C199.224 23.762 198.122 23.078 196.526 23.078C194.93 23.078 193.828 23.762 193.22 25.13C192.941 25.6873 192.789 26.3967 192.764 27.258H200.288ZM225.514 29.082C225.514 31.134 225.388 32.8187 225.134 34.136C224.881 35.4533 224.324 36.5553 223.462 37.442C222.322 38.6327 220.726 39.228 218.674 39.228C216.622 39.228 215.026 38.5693 213.886 37.252V46.258H208.946V19.202H213.734V21.064C214.976 19.6707 216.622 18.974 218.674 18.974C220.726 18.974 222.322 19.5693 223.462 20.76C224.324 21.6467 224.881 22.7487 225.134 24.066C225.388 25.3833 225.514 27.0553 225.514 29.082ZM220.46 31.362C220.536 30.754 220.574 29.994 220.574 29.082C220.574 28.17 220.536 27.4227 220.46 26.84C220.384 26.232 220.232 25.6493 220.004 25.092C219.802 24.5347 219.46 24.1167 218.978 23.838C218.522 23.5593 217.94 23.42 217.23 23.42C216.521 23.42 215.926 23.5593 215.444 23.838C214.988 24.1167 214.646 24.5347 214.418 25.092C214.216 25.6493 214.076 26.232 214 26.84C213.924 27.4227 213.886 28.17 213.886 29.082C213.886 29.994 213.924 30.754 214 31.362C214.076 31.9447 214.216 32.5273 214.418 33.11C214.646 33.6673 214.988 34.0853 215.444 34.364C215.926 34.6427 216.521 34.782 217.23 34.782C217.94 34.782 218.522 34.6427 218.978 34.364C219.46 34.0853 219.802 33.6673 220.004 33.11C220.232 32.5273 220.384 31.9447 220.46 31.362ZM245.6 33.3C245.6 35.048 245.055 36.4413 243.966 37.48C242.877 38.4933 241.395 39 239.52 39H229.412V19.202H239.178C241.027 19.202 242.509 19.696 243.624 20.684C244.739 21.672 245.296 22.9893 245.296 24.636C245.296 26.46 244.46 27.8533 242.788 28.816C244.663 29.7787 245.6 31.2733 245.6 33.3ZM238 22.85H234.314V27.106H238C239.596 27.106 240.394 26.384 240.394 24.94C240.394 23.5467 239.596 22.85 238 22.85ZM240.698 33.034C240.698 32.2993 240.483 31.7293 240.052 31.324C239.621 30.9187 239.013 30.716 238.228 30.716H234.314V35.352H238.228C238.988 35.352 239.583 35.1493 240.014 34.744C240.47 34.3133 240.698 33.7433 240.698 33.034ZM266.454 39H261.476V26.916L254.522 39H249.544V19.202H254.522V30.982L261.476 19.202H266.454V39ZM285.601 36.53C283.879 38.3287 281.7 39.228 279.065 39.228C278.229 39.228 277.419 39.1393 276.633 38.962C275.848 38.7593 275.05 38.43 274.239 37.974C273.454 37.4927 272.77 36.8847 272.187 36.15C271.605 35.39 271.123 34.4147 270.743 33.224C270.389 32.008 270.211 30.6273 270.211 29.082C270.211 27.5367 270.389 26.1687 270.743 24.978C271.123 23.762 271.605 22.7867 272.187 22.052C272.77 21.3173 273.454 20.7093 274.239 20.228C275.05 19.7467 275.848 19.4173 276.633 19.24C277.419 19.0627 278.229 18.974 279.065 18.974C281.725 18.974 283.904 19.8607 285.601 21.634L282.257 24.978C281.295 23.9393 280.231 23.42 279.065 23.42C277.9 23.42 276.963 23.8507 276.253 24.712C275.519 25.624 275.151 27.0807 275.151 29.082C275.151 31.1087 275.519 32.578 276.253 33.49C276.963 34.3513 277.9 34.782 279.065 34.782C280.231 34.782 281.295 34.2627 282.257 33.224L285.601 36.53Z" fill="#2C2D36"/>
<path d="M79.115 59H77.525V56.405C77.24 56.45 76.94 56.465 76.625 56.465C75.245 56.465 74.54 55.94 74.54 54.44V51.095H76.13V54.215C76.13 54.875 76.37 55.07 76.88 55.07C77.09 55.07 77.3 55.04 77.525 54.995V51.095H79.115V59ZM85.7687 59H84.1787V54.5L82.3787 59H80.9687V51.095H82.5587V55.595L84.3587 51.095H85.7687V59ZM92.1861 56.675C92.1411 57.425 91.9311 58.1 91.4961 58.535C91.0911 58.94 90.5211 59.12 89.8161 59.12C89.0661 59.12 88.4061 58.925 87.9411 58.28C87.4461 57.605 87.3861 56.375 87.3861 55.04C87.3861 53.705 87.4461 52.49 87.9411 51.8C88.4061 51.155 89.0661 50.975 89.8161 50.975C90.4911 50.975 91.0161 51.11 91.4811 51.545C91.9761 52.025 92.1411 52.7 92.1861 53.405H90.6111C90.5961 53.15 90.5661 52.88 90.4011 52.67C90.2811 52.49 90.0711 52.385 89.8161 52.385C89.5761 52.385 89.3361 52.505 89.2011 52.715C88.9911 53.075 88.9761 53.87 88.9761 55.04C88.9761 56.21 88.9911 57.005 89.2011 57.38C89.3361 57.59 89.5761 57.695 89.8161 57.695C90.0711 57.695 90.2811 57.59 90.4011 57.425C90.5661 57.2 90.5961 56.96 90.6111 56.675H92.1861ZM97.555 52.52H96.115V59H94.525V52.52H93.07V51.095H97.555V52.52ZM103.496 55.04C103.496 56.375 103.436 57.59 102.941 58.28C102.476 58.925 101.831 59.12 101.066 59.12C100.301 59.12 99.6555 58.925 99.1905 58.28C98.6955 57.59 98.6355 56.375 98.6355 55.04C98.6355 53.705 98.6955 52.49 99.1905 51.8C99.6555 51.155 100.301 50.975 101.066 50.975C101.831 50.975 102.476 51.155 102.941 51.8C103.436 52.49 103.496 53.705 103.496 55.04ZM101.906 55.04C101.906 53.87 101.891 53.075 101.681 52.715C101.546 52.505 101.306 52.385 101.066 52.385C100.826 52.385 100.586 52.505 100.451 52.715C100.241 53.075 100.226 53.87 100.226 55.04C100.226 56.21 100.241 57.02 100.451 57.38C100.586 57.59 100.826 57.695 101.066 57.695C101.306 57.695 101.546 57.59 101.681 57.38C101.891 57.02 101.906 56.21 101.906 55.04ZM109.713 55.505H106.443C106.443 56.405 106.488 57.08 106.683 57.38C106.803 57.56 107.013 57.695 107.298 57.695C107.553 57.695 107.763 57.59 107.898 57.395C108.033 57.23 108.093 56.945 108.093 56.675H109.683C109.653 57.38 109.488 57.98 109.008 58.49C108.588 58.94 108.033 59.12 107.298 59.12C106.593 59.12 106.068 58.97 105.588 58.475C104.928 57.785 104.853 56.48 104.853 55.04C104.853 53.615 104.928 52.295 105.588 51.605C106.068 51.11 106.638 50.975 107.283 50.975C107.943 50.975 108.483 51.11 108.978 51.605C109.608 52.235 109.713 53.615 109.713 55.505ZM108.123 54.335C108.123 53.405 108.063 52.94 107.898 52.7C107.763 52.505 107.583 52.385 107.283 52.385C106.983 52.385 106.803 52.505 106.668 52.7C106.503 52.94 106.443 53.405 106.443 54.335H108.123ZM119.077 55.04C119.077 56.75 119.032 57.86 118.522 58.505C118.162 58.955 117.727 59.12 117.127 59.12C116.842 59.12 116.557 59.045 116.332 58.91C116.167 58.805 116.002 58.655 115.867 58.49V61.775H114.277V51.095H115.807V51.68C115.882 51.53 116.167 51.29 116.332 51.185C116.557 51.05 116.842 50.975 117.127 50.975C117.727 50.975 118.162 51.14 118.522 51.59C119.032 52.235 119.077 53.33 119.077 55.04ZM117.487 55.04C117.487 53.54 117.442 52.97 117.232 52.7C117.097 52.505 116.887 52.385 116.647 52.385C116.422 52.385 116.242 52.46 116.107 52.61C115.957 52.775 115.867 53 115.867 53.345V56.75C115.867 57.095 115.942 57.32 116.107 57.485C116.242 57.62 116.422 57.695 116.647 57.695C116.887 57.695 117.097 57.59 117.232 57.395C117.442 57.125 117.487 56.54 117.487 55.04ZM125.306 55.505H122.036C122.036 56.405 122.081 57.08 122.276 57.38C122.396 57.56 122.606 57.695 122.891 57.695C123.146 57.695 123.356 57.59 123.491 57.395C123.626 57.23 123.686 56.945 123.686 56.675H125.276C125.246 57.38 125.081 57.98 124.601 58.49C124.181 58.94 123.626 59.12 122.891 59.12C122.186 59.12 121.661 58.97 121.181 58.475C120.521 57.785 120.446 56.48 120.446 55.04C120.446 53.615 120.521 52.295 121.181 51.605C121.661 51.11 122.231 50.975 122.876 50.975C123.536 50.975 124.076 51.11 124.571 51.605C125.201 52.235 125.306 53.615 125.306 55.505ZM123.716 54.335C123.716 53.405 123.656 52.94 123.491 52.7C123.356 52.505 123.176 52.385 122.876 52.385C122.576 52.385 122.396 52.505 122.261 52.7C122.096 52.94 122.036 53.405 122.036 54.335H123.716ZM134.239 59H126.889V51.095H128.479V57.59H129.769V51.095H131.359V57.59H132.649V51.095H134.239V59ZM140.715 55.505H137.445C137.445 56.405 137.49 57.08 137.685 57.38C137.805 57.56 138.015 57.695 138.3 57.695C138.555 57.695 138.765 57.59 138.9 57.395C139.035 57.23 139.095 56.945 139.095 56.675H140.685C140.655 57.38 140.49 57.98 140.01 58.49C139.59 58.94 139.035 59.12 138.3 59.12C137.595 59.12 137.07 58.97 136.59 58.475C135.93 57.785 135.855 56.48 135.855 55.04C135.855 53.615 135.93 52.295 136.59 51.605C137.07 51.11 137.64 50.975 138.285 50.975C138.945 50.975 139.485 51.11 139.98 51.605C140.61 52.235 140.715 53.615 140.715 55.505ZM139.125 54.335C139.125 53.405 139.065 52.94 138.9 52.7C138.765 52.505 138.585 52.385 138.285 52.385C137.985 52.385 137.805 52.505 137.67 52.7C137.505 52.94 137.445 53.405 137.445 54.335H139.125ZM146.964 59H145.374V55.67H143.889V59H142.299V51.095H143.889V54.26H145.374V51.095H146.964V59ZM153.624 59H152.034V54.5L150.234 59H148.824V51.095H150.414V55.595L152.214 51.095H153.624V59ZM160.102 55.505H156.832C156.832 56.405 156.877 57.08 157.072 57.38C157.192 57.56 157.402 57.695 157.687 57.695C157.942 57.695 158.152 57.59 158.287 57.395C158.422 57.23 158.482 56.945 158.482 56.675H160.072C160.042 57.38 159.877 57.98 159.397 58.49C158.977 58.94 158.422 59.12 157.687 59.12C156.982 59.12 156.457 58.97 155.977 58.475C155.317 57.785 155.242 56.48 155.242 55.04C155.242 53.615 155.317 52.295 155.977 51.605C156.457 51.11 157.027 50.975 157.672 50.975C158.332 50.975 158.872 51.11 159.367 51.605C159.997 52.235 160.102 53.615 160.102 55.505ZM158.512 54.335C158.512 53.405 158.452 52.94 158.287 52.7C158.152 52.505 157.972 52.385 157.672 52.385C157.372 52.385 157.192 52.505 157.057 52.7C156.892 52.94 156.832 53.405 156.832 54.335H158.512ZM170.636 61.01H169.121V59H165.596V61.01H164.081V57.59H164.741C165.176 56.51 165.431 55.4 165.431 53.57V51.095H169.901V57.59H170.636V61.01ZM168.311 57.59V52.505H166.961V53.855C166.961 55.58 166.751 56.585 166.376 57.59H168.311ZM177.096 59H175.506V52.52H174.246V55.745C174.246 58.325 173.481 59 171.966 59H171.456V57.59H171.696C172.206 57.59 172.716 57.455 172.716 55.505V51.095H177.096V59ZM183.417 59H181.827V55.985H181.212L180.162 59H178.512L179.757 55.655C178.992 55.235 178.767 54.455 178.767 53.525C178.767 51.995 179.322 51.095 181.092 51.095H183.417V59ZM181.827 54.575V52.505H181.107C180.477 52.505 180.357 52.94 180.357 53.525C180.357 54.125 180.492 54.575 181.107 54.575H181.827ZM193.048 56.705C193.048 57.605 192.883 58.055 192.463 58.46C192.088 58.82 191.503 59 190.663 59H188.263V51.095H190.663C191.503 51.095 192.073 51.23 192.448 51.59C192.853 51.965 193.018 52.415 193.018 53.225C193.018 53.9 192.808 54.32 192.523 54.575C192.403 54.695 192.178 54.83 192.028 54.89C192.193 54.95 192.433 55.085 192.538 55.19C192.868 55.475 193.048 55.925 193.048 56.705ZM191.458 56.6C191.458 55.835 191.158 55.55 190.498 55.55H189.808V57.635H190.498C191.158 57.635 191.458 57.41 191.458 56.6ZM191.428 53.375C191.428 52.685 191.128 52.445 190.543 52.445H189.808V54.32H190.543C191.128 54.32 191.428 54.065 191.428 53.375ZM199.156 59H197.656V58.325C197.521 58.52 197.356 58.73 197.176 58.85C196.936 59.015 196.681 59.12 196.276 59.12C195.616 59.12 195.196 58.925 194.791 58.46C194.476 58.085 194.311 57.485 194.311 56.69C194.311 55.97 194.566 55.34 195.046 54.92C195.436 54.575 195.946 54.38 196.861 54.38H197.566V53.285C197.566 52.7 197.296 52.37 196.801 52.37C196.561 52.37 196.396 52.46 196.276 52.595C196.111 52.775 196.036 53 196.036 53.33H194.446C194.446 52.7 194.626 52.115 195.121 51.62C195.496 51.245 196.141 50.975 196.786 50.975C197.446 50.975 198.061 51.14 198.466 51.56C198.886 51.98 199.156 52.565 199.156 53.42V59ZM197.566 56.675V55.505H197.041C196.696 55.505 196.441 55.535 196.216 55.745C196.021 55.925 195.901 56.315 195.901 56.63C195.901 57.335 196.186 57.725 196.726 57.725C197.206 57.725 197.566 57.32 197.566 56.675ZM208.327 59H200.977V51.095H202.567V57.59H203.857V51.095H205.447V57.59H206.737V51.095H208.327V59ZM214.984 59H213.394V54.5L211.594 59H210.184V51.095H211.774V55.595L213.574 51.095H214.984V59ZM221.791 59H220.021L218.986 56.54L217.951 59H216.196L218.056 54.98L216.286 51.095H218.041L218.986 53.495L219.931 51.095H221.701L219.901 54.98L221.791 59ZM230.632 59H229.042V52.52H227.557V59H225.967V51.095H230.632V59ZM237.112 55.04C237.112 56.375 237.052 57.59 236.557 58.28C236.092 58.925 235.447 59.12 234.682 59.12C233.917 59.12 233.272 58.925 232.807 58.28C232.312 57.59 232.252 56.375 232.252 55.04C232.252 53.705 232.312 52.49 232.807 51.8C233.272 51.155 233.917 50.975 234.682 50.975C235.447 50.975 236.092 51.155 236.557 51.8C237.052 52.49 237.112 53.705 237.112 55.04ZM235.522 55.04C235.522 53.87 235.507 53.075 235.297 52.715C235.162 52.505 234.922 52.385 234.682 52.385C234.442 52.385 234.202 52.505 234.067 52.715C233.857 53.075 233.842 53.87 233.842 55.04C233.842 56.21 233.857 57.02 234.067 57.38C234.202 57.59 234.442 57.695 234.682 57.695C234.922 57.695 235.162 57.59 235.297 57.38C235.507 57.02 235.522 56.21 235.522 55.04ZM244.905 59H243.315V54.455L242.235 57.035H241.38L240.3 54.455V59H238.71V51.095H240.165L241.815 55.01L243.465 51.095H244.905V59ZM251.379 55.505H248.109C248.109 56.405 248.154 57.08 248.349 57.38C248.469 57.56 248.679 57.695 248.964 57.695C249.219 57.695 249.429 57.59 249.564 57.395C249.699 57.23 249.759 56.945 249.759 56.675H251.349C251.319 57.38 251.154 57.98 250.674 58.49C250.254 58.94 249.699 59.12 248.964 59.12C248.259 59.12 247.734 58.97 247.254 58.475C246.594 57.785 246.519 56.48 246.519 55.04C246.519 53.615 246.594 52.295 247.254 51.605C247.734 51.11 248.304 50.975 248.949 50.975C249.609 50.975 250.149 51.11 250.644 51.605C251.274 52.235 251.379 53.615 251.379 55.505ZM249.789 54.335C249.789 53.405 249.729 52.94 249.564 52.7C249.429 52.505 249.249 52.385 248.949 52.385C248.649 52.385 248.469 52.505 248.334 52.7C248.169 52.94 248.109 53.405 248.109 54.335H249.789ZM260.312 51.095V57.575H260.957V61.01H259.517V59H252.962V51.095H254.552V57.59H255.842V51.095H257.432V57.59H258.722V51.095H260.312ZM266.715 55.505H263.445C263.445 56.405 263.49 57.08 263.685 57.38C263.805 57.56 264.015 57.695 264.3 57.695C264.555 57.695 264.765 57.59 264.9 57.395C265.035 57.23 265.095 56.945 265.095 56.675H266.685C266.655 57.38 266.49 57.98 266.01 58.49C265.59 58.94 265.035 59.12 264.3 59.12C263.595 59.12 263.07 58.97 262.59 58.475C261.93 57.785 261.855 56.48 261.855 55.04C261.855 53.615 261.93 52.295 262.59 51.605C263.07 51.11 263.64 50.975 264.285 50.975C264.945 50.975 265.485 51.11 265.98 51.605C266.61 52.235 266.715 53.615 266.715 55.505ZM265.125 54.335C265.125 53.405 265.065 52.94 264.9 52.7C264.765 52.505 264.585 52.385 264.285 52.385C263.985 52.385 263.805 52.505 263.67 52.7C263.505 52.94 263.445 53.405 263.445 54.335H265.125ZM272.964 59H271.374V55.67H269.889V59H268.299V51.095H269.889V54.26H271.374V51.095H272.964V59ZM279.624 59H278.034V54.5L276.234 59H274.824V51.095H276.414V55.595L278.214 51.095H279.624V59ZM286.282 59H284.692V54.5L282.892 59H281.482V51.095H283.072V55.595L284.872 51.095H286.282V59ZM285.757 48.455C285.712 49.745 284.857 50.24 283.882 50.24C282.907 50.24 282.067 49.745 282.007 48.455H283.087C283.132 48.95 283.492 49.145 283.882 49.145C284.272 49.145 284.632 48.95 284.677 48.455H285.757Z" fill="#2C2D36"/>
</svg>
