<svg width="34" height="35" viewBox="0 0 34 35" fill="none" xmlns="http://www.w3.org/2000/svg">
<path d="M7.02246 7.48413H16.7024V9.55436H7.02246V7.48413Z" fill="#6339F5"/>
<path d="M7.02246 13.4712H16.7024V15.5414H7.02246V13.4712Z" fill="#6339F5"/>
<path d="M7.02246 19.4585H12.387V21.5287H7.02246V19.4585Z" fill="#6339F5"/>
<path d="M32.0064 25.6718V15.0935C35.3433 10.9394 32.7626 4.54395 27.516 3.81847V0H0V30.2229C0 32.857 2.14303 35 4.77719 35H27.2292C29.8634 35 32.0064 32.857 32.0064 30.2229V27.691H27.516V24.175L32.0064 25.6718ZM26.4809 21.6477L23.0256 22.7994V16.8759C25.0367 18.0781 27.9251 18.0781 29.9362 16.8759V22.7994L26.4809 21.6477ZM31.433 10.7644C31.433 13.4949 29.2115 15.7165 26.4809 15.7165C19.9112 15.4445 19.9131 6.0833 26.4809 5.81224C29.2114 5.81224 31.433 8.03374 31.433 10.7644ZM29.9361 30.2229C29.9361 31.7154 28.7218 32.9298 27.2292 32.9298H8.70366C9.34902 32.0152 9.60725 30.9263 9.55425 29.7611H29.9361V30.2229ZM7.48402 27.691V30.2098C7.48402 31.7038 6.269 32.9236 4.77519 32.9298C3.28345 32.9287 2.07023 31.7149 2.07023 30.2229V2.07023H25.4457V3.81847C20.1969 4.54484 17.6195 10.9408 20.9554 15.0935V25.6717L25.4457 24.175V27.691H7.48402Z" fill="#6339F5"/>
<path d="M24.9463 9.79907H28.1896V11.8693H24.9463V9.79907Z" fill="#6339F5"/>
</svg>
