<svg width="46" height="43" viewBox="0 0 46 43" fill="none" xmlns="http://www.w3.org/2000/svg">
<mask id="mask0_1301_6" style="mask-type:luminance" maskUnits="userSpaceOnUse" x="0" y="0" width="35" height="35">
<path d="M0 0H35V35H0V0Z" fill="white"/>
</mask>
<g mask="url(#mask0_1301_6)">
<path d="M7.17773 27.7539V31.8555H33.9746V5.19531H7.17773V11.3477H33.9746" stroke="#6339F5" stroke-width="2" stroke-miterlimit="10" stroke-linecap="round" stroke-linejoin="round"/>
<path d="M13.3984 3.14453V7.24609" stroke="#6339F5" stroke-width="2" stroke-miterlimit="10" stroke-linecap="round" stroke-linejoin="round"/>
<path d="M27.8223 3.14453V7.24609" stroke="#6339F5" stroke-width="2" stroke-miterlimit="10" stroke-linecap="round" stroke-linejoin="round"/>
<path d="M20.5762 3.14453V7.24609" stroke="#6339F5" stroke-width="2" stroke-miterlimit="10" stroke-linecap="round" stroke-linejoin="round"/>
<path d="M7.17773 11.3477C7.17773 22.627 1.02539 27.7539 1.02539 27.7539H27.8223C27.8223 27.7539 33.9746 22.627 33.9746 11.3477" stroke="#6339F5" stroke-width="2" stroke-miterlimit="10" stroke-linecap="round" stroke-linejoin="round"/>
</g>
<path d="M41.2484 28.1159V19.7731C41.2484 18.7939 40.4545 18 39.4753 18C38.496 18 37.7021 18.7939 37.7021 19.7731V28.1159" stroke="#6339F5" stroke-width="2" stroke-miterlimit="10"/>
<path d="M33.9502 31.5082V28.116H44.9995V31.5082C44.9995 35.0507 45.0008 37.1979 44.1059 41.0855H31.1182C32.026 39.373 33.9502 36.0692 33.9502 31.5082Z" stroke="#6339F5" stroke-width="2" stroke-miterlimit="10"/>
<path d="M41.6465 31.5081C41.6465 35.0506 41.6478 37.1978 40.7529 41.0854" stroke="#6339F5" stroke-width="2" stroke-miterlimit="10"/>
<path d="M34.4707 41.0854C35.3785 39.3729 37.3027 36.0691 37.3027 31.5081" stroke="#6339F5" stroke-width="2" stroke-miterlimit="10"/>
<path d="M41.2484 21.3865H37.7021" stroke="#6339F5" stroke-width="2" stroke-miterlimit="10"/>
<path d="M33.9502 31.5081L44.9995 31.5081" stroke="#6339F5" stroke-width="2" stroke-miterlimit="10"/>
<path d="M25 34.8591V36.296" stroke="#6339F5" stroke-width="2" stroke-miterlimit="10"/>
<path d="M26.4365 39.1697V40.6065" stroke="#6339F5" stroke-width="2" stroke-miterlimit="10"/>
<path d="M29.3105 36.2959V37.7328" stroke="#6339F5" stroke-width="2" stroke-miterlimit="10"/>
</svg>
