<svg width="806" height="507" viewBox="0 0 806 507" fill="none" xmlns="http://www.w3.org/2000/svg">
<g clip-path="url(#clip0_179_2677)">
<path d="M777.589 197.495C777.589 197.495 759.762 106.438 632.188 50.2652C504.614 -5.90712 445.562 50.0423 381.385 73.336C317.208 96.6297 282.446 64.5312 175.373 49.3736C68.2997 34.216 -24.5117 185.012 5.79403 302.818C36.0998 420.624 103.062 462.53 249.354 489.39C395.647 516.139 482.219 427.757 585.726 443.917C689.234 460.078 812.463 369.801 777.589 197.495Z" fill="#9999FF"/>
<path opacity="0.7" d="M777.589 197.495C777.589 197.495 759.762 106.438 632.188 50.2652C504.614 -5.90712 445.562 50.0423 381.385 73.336C317.208 96.6297 282.446 64.5312 175.373 49.3736C68.2997 34.216 -24.5117 185.012 5.79403 302.818C36.0998 420.624 103.062 462.53 249.354 489.39C395.647 516.139 482.219 427.757 585.726 443.917C689.234 460.078 812.463 369.801 777.589 197.495Z" fill="white"/>
<g opacity="0.3">
<path d="M365.452 45.5844C369.686 55.0579 372.025 65.5345 372.025 76.5684V302.372H220.051V76.5684C220.051 34.5506 254.033 0.557373 296.038 0.557373C324.673 0.557373 349.63 16.3837 362.555 39.7889" stroke="#2C2D36" stroke-miterlimit="10" stroke-linecap="round" stroke-linejoin="round"/>
<path d="M273.086 24.8542C280.105 21.845 287.905 20.2847 296.038 20.2847C328.572 20.2847 354.867 46.5876 354.867 79.1319V301.704" stroke="#2C2D36" stroke-miterlimit="10" stroke-linecap="round" stroke-linejoin="round"/>
<path d="M237.209 301.592V79.0204C237.209 56.0611 250.356 36.111 269.632 26.4146" stroke="#2C2D36" stroke-miterlimit="10" stroke-linecap="round" stroke-linejoin="round"/>
<path d="M296.038 91.7261V302.038" stroke="#2C2D36" stroke-miterlimit="10" stroke-linecap="round" stroke-linejoin="round"/>
<path d="M296.038 0.557373V85.1503" stroke="#2C2D36" stroke-miterlimit="10" stroke-linecap="round" stroke-linejoin="round"/>
<path d="M220.831 67.7637H371.023" stroke="#2C2D36" stroke-miterlimit="10" stroke-linecap="round" stroke-linejoin="round"/>
<path d="M244.34 115.02H371.022" stroke="#2C2D36" stroke-miterlimit="10" stroke-linecap="round" stroke-linejoin="round"/>
<path d="M220.831 115.02H239.438" stroke="#2C2D36" stroke-miterlimit="10" stroke-linecap="round" stroke-linejoin="round"/>
<path d="M220.831 162.387H371.023" stroke="#2C2D36" stroke-miterlimit="10" stroke-linecap="round" stroke-linejoin="round"/>
<path d="M347.848 209.866H371.023" stroke="#2C2D36" stroke-miterlimit="10" stroke-linecap="round" stroke-linejoin="round"/>
<path d="M220.831 209.866H340.829" stroke="#2C2D36" stroke-miterlimit="10" stroke-linecap="round" stroke-linejoin="round"/>
<path d="M273.978 257.234H371.023" stroke="#2C2D36" stroke-miterlimit="10" stroke-linecap="round" stroke-linejoin="round"/>
<path d="M220.831 257.234H267.85" stroke="#2C2D36" stroke-miterlimit="10" stroke-linecap="round" stroke-linejoin="round"/>
<path d="M240.886 24.2969L254.59 36.6682" stroke="#2C2D36" stroke-miterlimit="10" stroke-linecap="round" stroke-linejoin="round"/>
<path d="M350.522 24.2969L336.929 36.6682" stroke="#2C2D36" stroke-miterlimit="10" stroke-linecap="round" stroke-linejoin="round"/>
</g>
<g opacity="0.3">
<path d="M559.208 45.5844C563.442 55.0579 565.782 65.5345 565.782 76.5684V302.372H413.808V76.5684C413.808 34.5506 447.79 0.557373 489.795 0.557373C518.429 0.557373 543.387 16.3837 556.312 39.7889" stroke="#2C2D36" stroke-miterlimit="10" stroke-linecap="round" stroke-linejoin="round"/>
<path d="M466.843 24.8542C473.862 21.845 481.661 20.2847 489.795 20.2847C522.329 20.2847 548.624 46.5876 548.624 79.1319V301.704" stroke="#2C2D36" stroke-miterlimit="10" stroke-linecap="round" stroke-linejoin="round"/>
<path d="M430.966 301.592V79.0204C430.966 56.0611 444.113 36.111 463.389 26.4146" stroke="#2C2D36" stroke-miterlimit="10" stroke-linecap="round" stroke-linejoin="round"/>
<path d="M489.795 91.7261V302.038" stroke="#2C2D36" stroke-miterlimit="10" stroke-linecap="round" stroke-linejoin="round"/>
<path d="M489.795 0.557373V85.1503" stroke="#2C2D36" stroke-miterlimit="10" stroke-linecap="round" stroke-linejoin="round"/>
<path d="M414.588 67.7637H564.78" stroke="#2C2D36" stroke-miterlimit="10" stroke-linecap="round" stroke-linejoin="round"/>
<path d="M438.097 115.02H564.779" stroke="#2C2D36" stroke-miterlimit="10" stroke-linecap="round" stroke-linejoin="round"/>
<path d="M414.588 115.02H433.083" stroke="#2C2D36" stroke-miterlimit="10" stroke-linecap="round" stroke-linejoin="round"/>
<path d="M414.588 162.387H564.78" stroke="#2C2D36" stroke-miterlimit="10" stroke-linecap="round" stroke-linejoin="round"/>
<path d="M541.493 209.866H564.78" stroke="#2C2D36" stroke-miterlimit="10" stroke-linecap="round" stroke-linejoin="round"/>
<path d="M414.588 209.866H534.585" stroke="#2C2D36" stroke-miterlimit="10" stroke-linecap="round" stroke-linejoin="round"/>
<path d="M467.734 257.234H564.78" stroke="#2C2D36" stroke-miterlimit="10" stroke-linecap="round" stroke-linejoin="round"/>
<path d="M414.588 257.234H461.606" stroke="#2C2D36" stroke-miterlimit="10" stroke-linecap="round" stroke-linejoin="round"/>
<path d="M434.643 24.2969L448.236 36.6682" stroke="#2C2D36" stroke-miterlimit="10" stroke-linecap="round" stroke-linejoin="round"/>
<path d="M544.279 24.2969L530.686 36.6682" stroke="#2C2D36" stroke-miterlimit="10" stroke-linecap="round" stroke-linejoin="round"/>
</g>
<path d="M7.24219 406.246H805.443" stroke="#2C2D36" stroke-miterlimit="10" stroke-linecap="round" stroke-linejoin="round"/>
<path d="M769.121 151.799L772.909 141.657L770.903 143.886V140.431L766.669 146.895L770.458 123.824L765.444 136.418L764.998 125.273L764.218 128.951L763.215 116.357L761.433 135.638L758.982 128.951L759.539 137.644L752.742 117.806L755.973 142.66L751.294 139.205L754.079 143.663L750.514 141.1L754.525 152.579L768.898 152.802" fill="#34D399"/>
<path d="M753.299 176.876H768.786L772.909 150.016H749.065L753.299 176.876Z" fill="#2C2D36" stroke="#2C2D36" stroke-miterlimit="10" stroke-linecap="round" stroke-linejoin="round"/>
<path d="M47.4642 269.271C47.4642 269.159 47.4642 269.159 47.4642 269.271C47.3527 269.159 47.3527 269.159 47.3527 269.159C45.1244 274.175 43.6759 279.413 42.3389 284.763C41.1133 290.112 40.222 295.462 39.5535 300.923L39.2192 305.047C39.1078 305.716 39.1078 306.385 38.9964 307.053L38.8849 309.059C38.7735 310.397 38.7735 311.846 38.6621 313.183V317.307V319.313C38.6621 319.982 38.7735 320.65 38.7735 321.319C38.8849 322.657 38.9964 324.106 39.1078 325.443C39.3306 328.118 39.7763 330.904 40.222 333.579C40.222 333.579 40.222 333.69 40.3334 333.69C40.3334 333.69 40.4448 333.69 40.4448 333.579C40.4448 332.242 40.3334 330.793 40.3334 329.455C40.3334 328.118 40.222 326.78 40.222 325.332C40.222 323.994 40.222 322.657 40.222 321.208V319.202V317.195V313.072L40.3334 308.948V306.942C40.3334 306.273 40.4448 305.604 40.4448 304.936L40.6676 300.812C41.1133 295.351 41.8932 290.001 43.0074 284.651C44.1216 279.636 45.4586 274.286 47.4642 269.271Z" fill="#2C2D36"/>
<path d="M48.021 290.558C47.9096 290.447 47.9096 290.447 47.9096 290.558C46.684 293.902 45.7927 297.357 45.0127 300.923C44.2328 304.378 43.6757 307.945 43.3415 311.511C43.0072 315.078 42.5615 318.644 42.5615 322.211C42.5615 325.777 42.5615 329.344 42.8958 332.91C42.8958 332.91 42.8958 333.022 43.0072 333.022C43.0072 333.022 43.1186 333.022 43.1186 332.91C43.5643 329.344 43.7871 325.777 44.01 322.211C44.2328 318.644 44.3442 315.078 44.5671 311.511C44.7899 307.945 45.2356 304.378 45.7927 300.923C46.2383 297.468 47.0183 294.013 48.021 290.558Z" fill="#2C2D36"/>
<path d="M59.8318 298.026C56.8235 299.92 54.1495 302.261 51.8097 304.936C50.6955 306.273 49.5814 307.722 48.69 309.282L48.0215 310.508L47.5758 311.734C47.353 312.18 47.2416 312.626 47.1302 312.96C47.0187 313.406 46.9073 313.852 46.7959 314.186C45.9046 317.641 45.3475 321.096 45.1246 324.551C45.0132 328.007 45.0132 331.573 45.5703 335.028C45.5703 335.028 45.5703 335.14 45.6817 335.14C45.6817 335.14 45.7931 335.14 45.7931 335.028L46.6845 324.663C47.0187 321.208 47.2416 317.753 48.0215 314.409C48.1329 313.963 48.2443 313.629 48.3558 313.183C48.4672 312.737 48.5786 312.403 48.69 311.957L49.1357 310.731L49.6928 309.617C50.4727 308.168 51.4755 306.719 52.4782 305.27C54.4838 302.595 56.935 300.143 59.8318 298.026C59.8318 298.137 59.8318 298.137 59.8318 298.026Z" fill="#2C2D36"/>
<path d="M54.1498 311.4C52.59 312.403 51.4758 314.075 50.5845 315.747C49.6931 317.418 49.0246 319.202 48.5789 320.985C48.4675 321.431 48.3561 321.877 48.2447 322.322L47.9104 323.66C47.799 324.551 47.5762 325.554 47.5762 326.446C47.5762 327.338 47.5762 328.341 47.5762 329.232C47.6876 330.124 47.799 331.127 47.9104 332.019C47.9104 332.019 47.9104 332.019 48.0218 332.13C48.0218 332.13 48.1333 332.13 48.1333 332.019C48.3561 331.127 48.4675 330.124 48.5789 329.232C48.6904 328.341 48.9132 327.449 49.0246 326.446C49.136 325.554 49.2474 324.663 49.3589 323.771C49.4703 322.88 49.5817 321.988 49.8045 321.096C50.1388 319.313 50.6959 317.53 51.3644 315.858C52.0329 314.186 52.9242 312.514 54.3727 311.4C54.2613 311.511 54.2613 311.4 54.1498 311.4Z" fill="#2C2D36"/>
<path d="M37.5479 321.765C37.2136 317.195 36.4337 312.626 35.6537 308.056C34.9852 303.487 34.0939 298.917 33.314 294.348C32.4226 289.778 31.5313 285.32 30.5285 280.75C30.5285 280.75 30.5285 280.639 30.4171 280.75C30.4171 280.75 30.3057 280.75 30.3057 280.862C31.0856 285.431 31.7541 290.001 32.534 294.57C33.2025 299.14 33.871 303.71 34.4281 308.279C34.9852 312.849 35.4309 317.418 35.988 321.988L37.6593 335.697C37.6593 335.697 37.6593 335.808 37.7707 335.808C37.7707 335.808 37.8821 335.808 37.8821 335.697C37.8821 334.582 37.8821 333.356 37.9935 332.242C37.9935 331.127 37.9935 329.901 37.8821 328.786C37.8821 326.446 37.6593 324.105 37.5479 321.765Z" fill="#2C2D36"/>
<path d="M34.7625 321.765C34.5397 319.982 34.2054 318.087 33.8711 316.304L33.2026 313.629C32.9798 312.737 32.757 311.846 32.5341 310.954C31.6428 307.388 30.4172 303.821 28.9687 300.478L28.4116 299.252L27.7431 298.026C27.2975 297.134 26.8518 296.354 26.4061 295.574C25.4034 294.013 24.4006 292.453 23.0636 291.115H22.9521V291.227C24.1777 292.564 25.1805 294.125 25.9604 295.685C26.4061 296.465 26.7404 297.357 27.0746 298.137L27.6317 299.363L28.0774 300.589C29.303 304.044 30.4172 307.499 31.1971 311.066C31.6428 312.849 31.8656 314.632 32.1999 316.415L32.6455 319.09C32.757 319.982 32.9798 320.873 33.0912 321.765C33.4255 323.548 33.7597 325.332 33.9826 327.226C34.3168 329.01 34.5396 330.793 34.9853 332.687C34.9853 332.687 34.9853 332.799 35.0967 332.799C35.0967 332.799 35.2082 332.799 35.2082 332.687C35.2082 330.793 35.2082 329.01 35.0967 327.115C35.2082 325.443 34.9853 323.548 34.7625 321.765Z" fill="#2C2D36"/>
<path d="M30.9742 321.988C30.0828 319.536 29.0801 317.195 28.0773 314.855C26.9631 312.514 25.7375 310.285 24.4005 308.168H24.2891V308.279C25.5147 310.508 26.5174 312.849 27.4088 315.189C28.3001 317.53 29.1915 319.982 29.86 322.322C30.5285 324.774 31.0856 327.226 31.7541 329.678C32.4226 332.13 32.9797 334.582 33.7596 337.034C33.7596 337.034 33.7596 337.034 33.871 337.034C33.871 337.034 33.9825 337.034 33.9825 336.923C33.9825 334.359 33.7596 331.796 33.3139 329.232C32.6454 326.78 31.7541 324.44 30.9742 321.988Z" fill="#2C2D36"/>
<path d="M30.7515 330.013C30.3059 328.452 29.5259 327.115 28.746 325.777C27.9661 324.44 26.9633 323.214 25.7377 322.099C25.1806 321.542 24.5121 321.096 23.8436 320.651C23.1751 320.205 22.5066 319.87 21.7267 319.647H21.6152V319.759C22.9523 320.428 24.1779 321.431 25.1806 322.545C26.1834 323.66 26.9633 324.997 27.6318 326.223C28.3003 327.561 28.746 329.01 29.3031 330.347C29.5259 331.016 29.8602 331.796 30.1944 332.465C30.4173 333.133 30.7515 333.913 31.0858 334.582C31.0858 334.582 31.0858 334.582 31.1972 334.582C31.1972 334.582 31.3086 334.582 31.3086 334.471C31.3086 333.691 31.3086 332.91 31.1972 332.13C31.1972 331.573 30.9744 330.793 30.7515 330.013Z" fill="#2C2D36"/>
<path d="M31.0857 287.437C31.0857 287.437 23.5093 285.654 21.838 277.518C20.1668 269.382 25.7377 272.837 20.7238 260.131C15.5986 247.314 16.7128 244.417 18.4955 240.739C20.2782 237.061 21.1695 238.175 22.7294 243.079C24.2892 247.872 29.8601 255.45 31.9771 269.605C34.2055 283.76 31.0857 287.437 31.0857 287.437Z" fill="#34D399"/>
<path d="M46.0154 273.729C46.0154 273.729 41.0016 271.945 40.7787 262.472C40.5559 252.998 44.4555 254.893 45.0126 243.079C45.5697 231.265 46.3496 222.906 48.4666 222.683C50.5835 222.46 56.2659 228.479 58.16 241.63C60.0541 254.782 55.5974 263.475 51.8091 267.376C47.9095 271.388 46.0154 273.729 46.0154 273.729Z" fill="#34D399"/>
<path d="M28.4114 298.917C28.4114 298.917 27.2972 291.895 24.9574 288.663C22.6176 285.32 17.6038 282.422 14.2612 276.069C10.9187 269.716 7.24189 266.596 7.46473 275.735C7.68757 284.874 11.6986 289.444 16.7124 292.564C21.8377 295.573 28.4114 298.917 28.4114 298.917Z" fill="#34D399"/>
<path d="M26.183 310.842C26.183 310.842 21.5035 301.926 14.707 295.351C7.91044 288.775 2.45094 285.431 4.45647 288.775C6.35058 292.118 8.69037 291.895 12.0329 297.691C15.3755 303.487 14.3727 307.722 19.0523 311.065C23.7318 314.409 26.183 310.842 26.183 310.842Z" fill="#34D399"/>
<path d="M25.6256 322.322C25.4027 321.765 25.2913 317.53 18.6062 313.963C12.0325 310.508 5.7931 311.846 6.57302 313.629C7.35295 315.412 11.364 318.31 15.4865 319.982C19.609 321.765 25.6256 322.322 25.6256 322.322Z" fill="#34D399"/>
<path d="M45.5697 299.251C45.5697 299.251 42.6729 295.573 44.2327 287.772C45.7926 279.97 49.2465 281.976 53.1462 277.852C57.0458 273.729 56.2659 273.171 60.1655 268.936C64.0652 264.701 67.5191 262.36 69.079 264.144C70.6388 265.927 68.2991 271.277 65.9593 274.397C63.6195 277.518 59.9427 279.078 58.16 282.868C56.3773 286.769 57.1572 292.899 52.7005 295.796C48.3552 298.917 45.5697 299.251 45.5697 299.251Z" fill="#34D399"/>
<path d="M55.2637 301.369C55.2637 301.369 62.283 293.456 67.2969 287.66C72.3107 281.865 74.3162 277.407 74.4276 281.308C74.6505 285.208 76.2103 288.329 72.0878 293.345C68.0768 298.249 55.2637 301.369 55.2637 301.369Z" fill="#34D399"/>
<path d="M51.5863 314.186C51.5863 314.186 51.3634 311.066 62.3938 303.933C73.4243 296.8 78.1038 295.462 76.8782 298.36C75.764 301.258 70.8616 304.156 65.625 309.394C60.4997 314.521 51.5863 314.186 51.5863 314.186Z" fill="#34D399"/>
<path d="M31.5314 286.657C31.5314 286.657 28.9688 272.726 26.1833 262.918C23.5093 252.998 21.7266 246.98 21.7266 246.98" stroke="#2C2D36" stroke-miterlimit="10" stroke-linecap="round" stroke-linejoin="round"/>
<path d="M46 274.135C46 274.135 50.6796 259.089 52.2394 249.95C53.7993 240.811 52.0166 234.012 51.2367 230" stroke="#2C2D36" stroke-miterlimit="10" stroke-linecap="round" stroke-linejoin="round"/>
<path d="M27.7429 298.583C27.7429 298.583 24.8461 293.456 20.6122 288.441C16.3783 283.425 13.0357 280.639 11.1416 275.846" stroke="#2C2D36" stroke-miterlimit="10" stroke-linecap="round" stroke-linejoin="round"/>
<path d="M45.5693 299.252C45.5693 299.252 47.1292 290.001 50.806 285.097C54.4828 280.305 61.8364 272.726 64.7333 267.822" stroke="#2C2D36" stroke-miterlimit="10" stroke-linecap="round" stroke-linejoin="round"/>
<path d="M25.1799 322.099C25.1799 322.099 18.7177 317.864 14.0381 315.524" stroke="#2C2D36" stroke-miterlimit="10" stroke-linecap="round" stroke-linejoin="round"/>
<path d="M62.5056 361.108C62.06 349.405 49.024 341.604 49.024 341.604H40.7791H37.3251H28.9687C28.9687 341.604 15.9328 349.405 15.4871 361.219C15.0414 372.922 30.3057 416.054 30.3057 416.054H37.2137H40.6676H47.5756C47.687 416.054 62.9513 372.922 62.5056 361.108Z" fill="#2C2D36" stroke="#2C2D36" stroke-miterlimit="10" stroke-linecap="round" stroke-linejoin="round"/>
<path d="M51.5871 330.012H26.0723L28.9691 341.604H48.6902L51.5871 330.012Z" fill="#2C2D36" stroke="#2C2D36" stroke-miterlimit="10" stroke-linecap="round" stroke-linejoin="round"/>
<g opacity="0.3">
<path d="M705.501 38.7856H610.016V161.607H705.501V38.7856Z" stroke="#2C2D36" stroke-miterlimit="10" stroke-linecap="round" stroke-linejoin="round"/>
<path d="M700.264 45.5842H615.252V154.92H700.264V45.5842Z" stroke="#2C2D36" stroke-miterlimit="10" stroke-linecap="round" stroke-linejoin="round"/>
<path d="M678.984 73.0017H636.533V127.502H678.984V73.0017Z" stroke="#2C2D36" stroke-miterlimit="10" stroke-linecap="round" stroke-linejoin="round"/>
</g>
<g opacity="0.3">
<path d="M170.916 38.7856H75.4307V161.607H170.916V38.7856Z" stroke="#2C2D36" stroke-miterlimit="10" stroke-linecap="round" stroke-linejoin="round"/>
<path d="M165.679 45.5842H80.667V154.92H165.679V45.5842Z" stroke="#2C2D36" stroke-miterlimit="10" stroke-linecap="round" stroke-linejoin="round"/>
<path d="M144.399 73.0017H101.948V127.502H144.399V73.0017Z" stroke="#2C2D36" stroke-miterlimit="10" stroke-linecap="round" stroke-linejoin="round"/>
</g>
<path d="M725.814 417.256H794.671V176.741H725.814V417.256Z" fill="white" stroke="#2C2D36" stroke-miterlimit="10" stroke-linecap="round" stroke-linejoin="round"/>
<path d="M730.494 242.565H790.66V184.61H730.494V242.565Z" fill="white" stroke="#2C2D36" stroke-miterlimit="10" stroke-linecap="round" stroke-linejoin="round"/>
<path d="M748.544 218.826H772.61V208.238H748.544V218.826Z" fill="#2C2D36"/>
<path d="M730.494 310.091H790.66V252.135H730.494V310.091Z" fill="white" stroke="#2C2D36" stroke-miterlimit="10" stroke-linecap="round" stroke-linejoin="round"/>
<path d="M748.544 286.463H772.61V275.875H748.544V286.463Z" fill="#2C2D36"/>
<path d="M730.494 377.728H790.66V319.773H730.494V377.728Z" fill="white" stroke="#2C2D36" stroke-miterlimit="10" stroke-linecap="round" stroke-linejoin="round"/>
<path d="M748.544 353.989H772.61V343.401H748.544V353.989Z" fill="#2C2D36"/>
<path d="M571.131 415.943L575.81 316.415" stroke="#2C2D36" stroke-width="4" stroke-miterlimit="10" stroke-linecap="round"/>
<path d="M578.484 415.943L584.724 284.874" stroke="#2C2D36" stroke-width="4" stroke-miterlimit="10" stroke-linecap="round"/>
<path d="M664.833 415.943L658.26 286.435" stroke="#2C2D36" stroke-width="4" stroke-miterlimit="10" stroke-linecap="round"/>
<path d="M671.518 415.943L666.839 316.415" stroke="#2C2D36" stroke-width="4" stroke-miterlimit="10" stroke-linecap="round"/>
<path d="M657.591 289.778H584.277C581.492 289.778 579.264 287.549 579.264 284.763V219.005C579.264 216.219 581.492 213.99 584.277 213.99H657.591C660.376 213.99 662.605 216.219 662.605 219.005V284.763C662.605 287.549 660.376 289.778 657.591 289.778Z" fill="#C4C4C4" stroke="#2C2D36" stroke-miterlimit="10" stroke-linecap="round" stroke-linejoin="round"/>
<path d="M671.964 322.322H573.916C571.353 322.322 569.125 320.205 569.125 317.53C569.125 314.966 571.242 312.737 573.916 312.737H671.964C674.527 312.737 676.755 314.855 676.755 317.53C676.644 320.205 674.527 322.322 671.964 322.322Z" fill="#C4C4C4" stroke="#2C2D36" stroke-miterlimit="10" stroke-linecap="round" stroke-linejoin="round"/>
<path d="M651.463 259.24H583.832V262.249H651.463V259.24Z" fill="white" stroke="#2C2D36" stroke-miterlimit="10" stroke-linecap="round" stroke-linejoin="round"/>
<path d="M596.423 190.919H523.221V247.314H596.423V190.919Z" fill="white" stroke="#2C2D36" stroke-miterlimit="10" stroke-linecap="round" stroke-linejoin="round"/>
<path d="M594.528 190.919H521.326V247.314H594.528V190.919Z" fill="white" stroke="#2C2D36" stroke-miterlimit="10" stroke-linecap="round" stroke-linejoin="round"/>
<path d="M574.027 259.017H555.865L550.852 261.803H574.027V259.017Z" fill="#C7C7C7" stroke="#2C2D36" stroke-miterlimit="10" stroke-linecap="round" stroke-linejoin="round"/>
<path d="M563.553 261.803H545.838L550.963 211.092H568.679L563.553 261.803Z" fill="#C7C7C7" stroke="#2C2D36" stroke-miterlimit="10" stroke-linecap="round" stroke-linejoin="round"/>
<path d="M697.924 273.84L709.846 415.386C709.957 416.277 710.848 416.835 711.74 416.723C712.52 416.5 712.965 415.832 712.854 415.051L704.72 273.84H697.924Z" fill="#2C2D36" stroke="#2C2D36" stroke-miterlimit="10" stroke-linecap="round" stroke-linejoin="round"/>
<path d="M690.236 273.84L702.158 415.832C702.27 416.723 703.161 417.28 704.052 417.169C704.832 416.946 705.278 416.277 705.166 415.497L697.033 273.84H690.236Z" fill="#2C2D36" stroke="#2C2D36" stroke-miterlimit="10" stroke-linecap="round" stroke-linejoin="round"/>
<path d="M488.458 273.84L482.218 414.16C482.107 414.94 482.664 415.609 483.333 415.832C484.224 416.054 485.004 415.497 485.227 414.606L495.254 273.952H488.458V273.84Z" fill="#2C2D36" stroke="#2C2D36" stroke-miterlimit="10" stroke-linecap="round" stroke-linejoin="round"/>
<path d="M478.987 273.84L472.748 413.714C472.636 414.494 473.193 415.163 473.862 415.386C474.753 415.609 475.533 415.051 475.756 414.16L485.784 273.952H478.987V273.84Z" fill="#2C2D36" stroke="#2C2D36" stroke-miterlimit="10" stroke-linecap="round" stroke-linejoin="round"/>
<path d="M714.86 266.039H474.53V278.187H714.86V266.039Z" fill="white" stroke="#2C2D36" stroke-miterlimit="10" stroke-linecap="round" stroke-linejoin="round"/>
<path d="M714.86 266.039H474.53V270.162H714.86V266.039Z" fill="#2C2D36" stroke="#2C2D36" stroke-miterlimit="10" stroke-linecap="round" stroke-linejoin="round"/>
<path d="M718.536 262.026H470.742V266.707H718.536V262.026Z" fill="#9999FF" stroke="#2C2D36" stroke-miterlimit="10" stroke-linecap="round" stroke-linejoin="round"/>
<path d="M171.695 415.943L176.375 316.415" stroke="#2C2D36" stroke-width="4" stroke-miterlimit="10" stroke-linecap="round"/>
<path d="M179.16 415.943L185.4 284.874" stroke="#2C2D36" stroke-width="4" stroke-miterlimit="10" stroke-linecap="round"/>
<path d="M265.509 415.943L258.936 286.435" stroke="#2C2D36" stroke-width="4" stroke-miterlimit="10" stroke-linecap="round"/>
<path d="M272.083 415.943L267.515 316.415" stroke="#2C2D36" stroke-width="4" stroke-miterlimit="10" stroke-linecap="round"/>
<path d="M258.267 289.778H184.953C182.168 289.778 179.939 287.549 179.939 284.763V219.005C179.939 216.219 182.168 213.99 184.953 213.99H258.267C261.052 213.99 263.28 216.219 263.28 219.005V284.763C263.28 287.549 260.941 289.778 258.267 289.778Z" fill="#C4C4C4" stroke="#2C2D36" stroke-miterlimit="10" stroke-linecap="round" stroke-linejoin="round"/>
<path d="M272.529 322.322H174.48C171.918 322.322 169.689 320.205 169.689 317.53C169.689 314.966 171.806 312.737 174.48 312.737H272.529C275.091 312.737 277.32 314.855 277.32 317.53C277.32 320.205 275.203 322.322 272.529 322.322Z" fill="#C4C4C4" stroke="#2C2D36" stroke-miterlimit="10" stroke-linecap="round" stroke-linejoin="round"/>
<path d="M252.028 259.24H184.397V262.249H252.028V259.24Z" fill="white" stroke="#2C2D36" stroke-miterlimit="10" stroke-linecap="round" stroke-linejoin="round"/>
<path d="M196.987 190.919H123.785V247.314H196.987V190.919Z" fill="white" stroke="#2C2D36" stroke-miterlimit="10" stroke-linecap="round" stroke-linejoin="round"/>
<path d="M195.205 190.919H122.003V247.314H195.205V190.919Z" fill="white" stroke="#2C2D36" stroke-miterlimit="10" stroke-linecap="round" stroke-linejoin="round"/>
<path d="M174.703 259.017H156.542L151.417 261.803H174.703V259.017Z" fill="#C7C7C7" stroke="#2C2D36" stroke-miterlimit="10" stroke-linecap="round" stroke-linejoin="round"/>
<path d="M164.23 261.803H146.515L151.64 211.092H169.355L164.23 261.803Z" fill="#C7C7C7" stroke="#2C2D36" stroke-miterlimit="10" stroke-linecap="round" stroke-linejoin="round"/>
<path d="M298.601 273.84L310.522 415.386C310.634 416.277 311.525 416.835 312.416 416.723C313.196 416.5 313.642 415.832 313.531 415.051L305.397 273.84H298.601Z" fill="#2C2D36" stroke="#2C2D36" stroke-miterlimit="10" stroke-linecap="round" stroke-linejoin="round"/>
<path d="M290.802 273.84L302.724 415.832C302.835 416.723 303.726 417.28 304.618 417.169C305.398 416.946 305.843 416.277 305.732 415.497L297.598 273.84H290.802Z" fill="#2C2D36" stroke="#2C2D36" stroke-miterlimit="10" stroke-linecap="round" stroke-linejoin="round"/>
<path d="M89.1345 273.84L82.8951 414.16C82.7837 414.94 83.3408 415.609 84.0093 415.832C84.9007 416.054 85.6806 415.497 85.9034 414.606L95.9311 273.952H89.1345V273.84Z" fill="#2C2D36" stroke="#2C2D36" stroke-miterlimit="10" stroke-linecap="round" stroke-linejoin="round"/>
<path d="M79.6638 273.84L73.4244 413.714C73.313 414.494 73.8701 415.163 74.5386 415.386C75.43 415.609 76.2099 415.051 76.4327 414.16L86.4604 273.952H79.6638V273.84Z" fill="#2C2D36" stroke="#2C2D36" stroke-miterlimit="10" stroke-linecap="round" stroke-linejoin="round"/>
<path d="M315.536 266.039H75.207V278.187H315.536V266.039Z" fill="white" stroke="#2C2D36" stroke-miterlimit="10" stroke-linecap="round" stroke-linejoin="round"/>
<path d="M315.536 266.039H75.207V270.162H315.536V266.039Z" fill="#2C2D36" stroke="#2C2D36" stroke-miterlimit="10" stroke-linecap="round" stroke-linejoin="round"/>
<path d="M319.213 262.026H71.4189V266.707H319.213V262.026Z" fill="#9999FF" stroke="#2C2D36" stroke-miterlimit="10" stroke-linecap="round" stroke-linejoin="round"/>
<path d="M520.101 203.959L525.226 181.668L528.234 194.151L520.101 203.959Z" fill="#2C2D36" stroke="#2C2D36" stroke-miterlimit="10" stroke-linecap="round" stroke-linejoin="round"/>
<path d="M528.234 194.151L520.101 203.959L536.925 217.779L528.234 194.151Z" fill="#9999FF" stroke="#2C2D36" stroke-miterlimit="10" stroke-linecap="round" stroke-linejoin="round"/>
<path d="M490.687 124.605C490.687 124.605 474.42 125.273 468.292 133.298C462.164 141.323 461.941 146.338 462.832 153.582C463.724 160.715 467.623 162.722 467.623 162.722C467.623 162.722 470.075 171.415 473.194 174.313C476.203 177.099 481.328 177.991 482.219 180.331C482.776 182.003 483.333 185.569 484.559 187.018C485.785 188.467 489.016 188.579 490.13 187.018C490.13 187.018 500.826 191.699 504.28 189.024C507.734 186.461 510.185 178.994 510.185 178.994C510.185 178.994 515.422 179.885 518.43 179.885C521.438 179.885 525.338 181.669 525.338 181.669C525.338 181.669 522.33 169.074 520.993 162.499C519.656 155.923 515.756 141.991 511.634 134.19C507.4 126.388 497.372 123.379 490.687 124.605Z" fill="white" stroke="#2C2D36" stroke-miterlimit="10" stroke-linecap="round" stroke-linejoin="round"/>
<path d="M471.969 165.062C473.751 163.725 474.531 159.378 477.205 159.155C479.768 158.932 484.113 163.279 492.692 163.056C501.16 162.833 502.943 159.601 502.943 159.601C502.943 159.601 504.28 160.715 505.506 158.04C506.843 155.477 505.728 151.688 509.182 151.13C512.636 150.462 515.31 158.263 515.31 160.269C515.31 161.718 518.319 162.276 520.77 161.607C519.321 154.808 515.533 141.657 511.634 134.078C507.511 126.276 497.483 123.156 490.798 124.493C490.798 124.493 474.531 125.162 468.403 133.186C462.275 141.211 462.052 146.226 462.944 153.471C463.835 160.604 467.735 162.61 467.735 162.61C467.735 162.61 470.186 166.399 471.969 165.062Z" fill="#2C2D36" stroke="#2C2D36" stroke-miterlimit="10" stroke-linecap="round" stroke-linejoin="round"/>
<path d="M482.999 175.761C482.999 175.761 487.122 170.969 491.467 170.746" stroke="#2C2D36" stroke-miterlimit="10" stroke-linecap="round" stroke-linejoin="round"/>
<path d="M487.344 176.876C487.344 176.876 491.021 177.991 493.026 172.307" stroke="#2C2D36" stroke-miterlimit="10" stroke-linecap="round" stroke-linejoin="round"/>
<path d="M493.249 185.792C493.249 185.792 495.589 186.015 497.594 182.783" stroke="#2C2D36" stroke-miterlimit="10" stroke-linecap="round" stroke-linejoin="round"/>
<path d="M515.199 160.27C515.199 160.27 515.422 164.616 512.971 165.508L515.199 160.27Z" fill="white"/>
<path d="M515.199 160.27C515.199 160.27 515.422 164.616 512.971 165.508" stroke="#2C2D36" stroke-miterlimit="10" stroke-linecap="round" stroke-linejoin="round"/>
<path d="M466.62 502.319L373.475 477.019L405.897 466.877L499.043 492.288L466.62 502.319Z" fill="white" stroke="#2C2D36" stroke-miterlimit="10" stroke-linecap="round" stroke-linejoin="round"/>
<path d="M459.155 497.972L389.073 478.914L413.474 471.335L483.556 490.393L459.155 497.972Z" fill="#9999FF" stroke="#2C2D36" stroke-miterlimit="10" stroke-linecap="round" stroke-linejoin="round"/>
<path d="M432.303 483.818C431.635 483.818 430.855 483.595 430.186 483.149C428.515 482.035 428.069 479.694 429.183 478.022L586.729 248.095C587.843 246.423 590.183 245.977 591.854 247.092C593.525 248.206 593.971 250.547 592.857 252.218L435.311 482.258C434.643 483.261 433.417 483.818 432.303 483.818Z" fill="white" stroke="#2C2D36" stroke-miterlimit="10" stroke-linecap="round" stroke-linejoin="round"/>
<path d="M429.295 478.022C428.181 479.694 428.626 481.923 430.297 483.149C430.966 483.595 431.634 483.818 432.414 483.818C433.529 483.818 434.754 483.261 435.423 482.258L462.72 442.357L455.255 440.24L429.295 478.022Z" fill="#2C2D36" stroke="#2C2D36" stroke-miterlimit="10" stroke-linecap="round" stroke-linejoin="round"/>
<path d="M578.818 278.298C578.818 278.298 581.27 276.292 581.492 274.732C581.715 273.171 580.712 269.716 579.933 269.828C579.153 269.939 579.041 272.391 579.041 272.391C579.041 272.391 579.71 273.952 579.598 275.4" fill="#9999FF"/>
<path d="M578.818 278.298C578.818 278.298 581.27 276.292 581.492 274.732C581.715 273.171 580.712 269.716 579.933 269.828C579.153 269.939 579.041 272.391 579.041 272.391C579.041 272.391 579.71 273.952 579.598 275.4" stroke="#2C2D36" stroke-miterlimit="10" stroke-linecap="round" stroke-linejoin="round"/>
<path d="M569.348 286.1C569.348 286.1 571.687 285.654 572.69 285.431C573.693 285.208 576.701 281.642 576.701 279.636C576.701 277.629 575.364 277.295 574.473 278.633C573.47 279.859 569.348 286.1 569.348 286.1Z" fill="#9999FF" stroke="#2C2D36" stroke-miterlimit="10" stroke-linecap="round" stroke-linejoin="round"/>
<path d="M575.81 282.088C575.81 282.088 578.373 279.859 578.818 278.41C579.264 276.849 580.155 272.503 578.93 272.503C577.704 272.503 577.147 271.5 576.701 273.394C576.367 275.289 576.033 277.518 576.033 277.518C576.033 277.518 575.476 281.196 575.81 282.088Z" fill="#9999FF" stroke="#2C2D36" stroke-miterlimit="10" stroke-linecap="round" stroke-linejoin="round"/>
<path d="M537.817 236.838L533.806 268.713C533.806 268.713 531.02 280.082 529.572 286.212C528.012 292.342 522.887 310.731 522.887 310.731L539.154 311.623L554.195 269.048L557.872 237.172L537.817 236.838Z" fill="white" stroke="#2C2D36" stroke-miterlimit="10" stroke-linecap="round" stroke-linejoin="round"/>
<path d="M523.109 300.812L546.061 311.4L531.688 333.579C531.688 333.579 534.251 343.387 534.251 344.725C534.251 346.062 533.583 346.842 532.803 347.288C532.023 347.734 531.131 348.291 531.131 348.737C531.131 349.183 531.577 351.858 530.686 352.972C529.683 354.087 526.786 354.309 526.786 354.309C526.786 354.309 529.237 357.876 526.118 359.882C522.998 361.888 520.547 356.316 519.432 357.319C518.318 358.322 518.764 369.244 517.427 370.693C516.09 372.142 513.973 370.582 513.862 369.244C513.75 367.907 512.413 356.984 512.413 354.087C512.413 351.189 514.084 333.356 515.533 328.675C517.093 323.771 523.109 300.812 523.109 300.812Z" fill="#9999FF" stroke="#2C2D36" stroke-miterlimit="10" stroke-linecap="round" stroke-linejoin="round"/>
<path d="M583.386 376.489L589.737 463.533C589.737 463.533 577.147 471.335 572.356 474.01C567.565 476.685 559.209 479.137 558.206 481.254C557.315 483.372 557.983 488.387 566.339 489.836C574.696 491.174 589.069 489.056 589.069 489.056C589.069 489.056 605.559 493.514 608.901 492.623C612.244 491.731 612.801 486.047 613.135 482.369C613.469 478.803 609.236 457.515 609.236 457.515C609.236 457.515 614.361 396.885 612.801 386.742C611.352 376.489 609.793 355.201 609.793 355.201L611.91 341.715L580.378 340.266L583.386 376.489Z" fill="#2C2D36" stroke="#2C2D36" stroke-miterlimit="10" stroke-linecap="round" stroke-linejoin="round"/>
<path d="M609.236 457.515C609.236 457.515 609.236 456.958 609.347 456.066C601.882 458.964 593.526 457.849 589.292 456.958L589.737 463.422C589.737 463.422 577.147 471.224 572.356 473.899C567.565 476.574 559.209 479.025 558.206 481.143C557.315 483.261 557.983 488.276 566.339 489.725C574.696 491.062 589.069 488.945 589.069 488.945C589.069 488.945 605.559 493.403 608.901 492.511C612.244 491.62 612.801 485.936 613.135 482.258C613.358 478.803 609.236 457.515 609.236 457.515Z" fill="white" stroke="#2C2D36" stroke-miterlimit="10" stroke-linecap="round" stroke-linejoin="round"/>
<path d="M609.236 457.515C609.236 457.515 609.236 456.958 609.347 456.066C601.882 458.964 593.526 457.849 589.292 456.958L589.737 463.422C589.737 463.422 577.147 471.224 572.356 473.899C567.565 476.574 559.209 479.025 558.206 481.143C557.315 483.261 557.983 488.276 566.339 489.725C574.696 491.062 589.069 488.945 589.069 488.945C589.069 488.945 605.559 493.403 608.901 492.511C612.244 491.62 612.801 485.936 613.135 482.258C613.358 478.803 609.236 457.515 609.236 457.515Z" fill="white" stroke="#2C2D36" stroke-miterlimit="10" stroke-linecap="round" stroke-linejoin="round"/>
<path d="M609.236 457.515C609.236 457.515 609.236 456.958 609.347 456.066C601.882 458.964 593.526 457.849 589.292 456.958L589.737 463.422C589.737 463.422 577.147 471.224 572.356 473.899C567.565 476.574 559.209 479.025 558.206 481.143C557.315 483.261 557.983 488.276 566.339 489.725C574.696 491.062 589.069 488.945 589.069 488.945C589.069 488.945 605.559 493.403 608.901 492.511C612.244 491.62 612.801 485.936 613.135 482.258C613.358 478.803 609.236 457.515 609.236 457.515Z" fill="white" stroke="#2C2D36" stroke-miterlimit="10" stroke-linecap="round" stroke-linejoin="round"/>
<path d="M583.387 467.323C579.487 469.663 574.807 472.561 572.245 474.01C567.454 476.685 559.097 479.137 558.095 481.254C557.203 483.372 557.872 488.387 566.228 489.836C574.585 491.174 588.957 489.056 588.957 489.056C588.957 489.056 605.447 493.514 608.79 492.623C612.133 491.731 612.69 486.047 613.024 482.369C613.135 480.809 612.467 476.128 611.687 471.224C608.679 472.227 604.445 473.564 599.319 474.567C591.297 476.128 585.726 470.443 583.387 467.323Z" fill="white" stroke="#2C2D36" stroke-miterlimit="10" stroke-linecap="round" stroke-linejoin="round"/>
<path d="M608.901 492.623C610.907 492.065 611.91 489.836 612.467 487.384C608.121 489.168 600.099 487.496 595.42 486.381C590.629 485.155 586.729 486.939 571.687 487.607C565.002 487.83 560.88 486.716 558.429 485.378C559.431 487.273 561.66 489.168 566.228 489.948C574.584 491.285 588.957 489.168 588.957 489.168C588.957 489.168 605.559 493.514 608.901 492.623Z" fill="#9999FF" stroke="#2C2D36" stroke-miterlimit="10" stroke-linecap="round" stroke-linejoin="round"/>
<path d="M645.781 246.311C645.781 246.311 651.129 263.698 649.123 273.952C647.006 284.205 591.854 363.337 591.854 363.337C591.854 363.337 586.729 399.671 581.381 420.29C576.033 441.02 566.674 460.747 566.117 466.543C565.56 472.227 566.674 490.282 566.451 493.514C566.117 496.858 542.719 500.759 533.471 502.765C524.224 504.882 503.834 500.09 503.834 496.189C503.834 492.288 523.332 486.27 529.014 482.035C537.037 476.128 549.738 458.741 549.404 455.62C549.07 452.165 559.32 388.08 559.32 379.386C559.32 370.693 560.212 358.433 561.772 354.532C563.22 350.631 569.237 334.136 569.237 334.136C569.237 334.136 603.776 270.274 604.333 253.444C604.89 236.615 609.459 237.841 613.915 236.615C618.149 235.5 640.433 238.844 645.781 246.311Z" fill="#2C2D36" stroke="#2C2D36" stroke-miterlimit="10" stroke-linecap="round" stroke-linejoin="round"/>
<path d="M634.082 217.556C634.082 217.556 647.007 243.971 647.007 248.763C647.007 253.556 637.425 257.791 637.425 257.791L624.277 218.782L634.082 217.556Z" fill="white" stroke="#2C2D36" stroke-miterlimit="10" stroke-linecap="round" stroke-linejoin="round"/>
<path d="M568.234 458.853C559.655 459.075 553.192 457.069 549.181 455.397C549.181 455.509 549.181 455.62 549.181 455.62C549.516 458.741 536.814 476.128 528.792 482.035C523.11 486.159 503.611 492.288 503.611 496.189C503.611 500.09 524.001 504.883 533.249 502.765C542.496 500.647 565.894 496.747 566.228 493.514C566.563 490.171 565.337 472.227 565.894 466.543C566.117 464.982 567.008 462.308 568.234 458.853Z" fill="white" stroke="#2C2D36" stroke-miterlimit="10" stroke-linecap="round" stroke-linejoin="round"/>
<path d="M566.34 493.514C566.563 491.62 566.228 484.821 566.006 478.245C562.552 480.363 558.541 482.146 554.975 481.477C547.176 480.029 548.401 476.685 546.285 474.01C544.836 472.115 541.605 471.447 539.599 471.112C536.034 475.459 532.023 479.694 528.792 482.035C523.11 486.158 503.611 492.288 503.611 496.189C503.611 500.09 524.001 504.883 533.249 502.765C542.608 500.759 566.006 496.858 566.34 493.514Z" fill="white" stroke="#2C2D36" stroke-miterlimit="10" stroke-linecap="round" stroke-linejoin="round"/>
<path d="M566.34 493.514C566.451 492.846 566.451 491.508 566.34 489.725C558.763 492.846 543.499 498.307 527.678 498.864C511.522 499.533 506.397 496.301 504.725 494.406C504.057 494.963 503.723 495.632 503.723 496.189C503.723 500.09 524.112 504.882 533.36 502.765C542.608 500.759 566.005 496.858 566.34 493.514Z" fill="#9999FF" stroke="#2C2D36" stroke-miterlimit="10" stroke-linecap="round" stroke-linejoin="round"/>
<path d="M570.24 236.392L563.666 267.599C563.666 267.599 558.318 277.518 559.432 278.744C560.658 279.97 564.891 282.199 564.891 282.199L574.139 270.497L583.721 249.321L570.24 236.392Z" fill="#9999FF" stroke="#2C2D36" stroke-miterlimit="10" stroke-linecap="round" stroke-linejoin="round"/>
<path d="M566.339 267.599C566.339 267.599 564.891 275.401 562.997 278.076C561.214 280.75 557.871 283.425 560.88 284.428C563.888 285.32 570.127 276.627 571.687 274.175C573.136 271.723 573.804 264.924 573.804 264.924" fill="#9999FF"/>
<path d="M566.339 267.599C566.339 267.599 564.891 275.401 562.997 278.076C561.214 280.75 557.871 283.425 560.88 284.428C563.888 285.32 570.127 276.627 571.687 274.175C573.136 271.723 573.804 264.924 573.804 264.924" stroke="#2C2D36" stroke-miterlimit="10" stroke-linecap="round" stroke-linejoin="round"/>
<path d="M564.557 229.816C564.557 229.816 575.03 242.968 578.707 248.986C582.272 255.005 584.389 269.048 583.164 279.301C581.938 289.555 567.008 339.04 567.008 339.04C567.008 339.04 578.707 344.724 597.871 346.285C617.035 347.734 634.193 348.402 634.193 348.402C634.193 348.402 644.444 279.079 642.549 260.8C640.767 242.522 631.742 220.566 631.742 220.566L634.193 217.556L632.299 215.55L571.019 218.782L564.557 229.816Z" fill="#9999FF" stroke="#2C2D36" stroke-miterlimit="10" stroke-linecap="round" stroke-linejoin="round"/>
<path d="M624.5 244.863C626.283 244.417 628.065 243.86 629.96 243.302" stroke="#2C2D36" stroke-miterlimit="10" stroke-linecap="round" stroke-linejoin="round"/>
<path d="M591.074 249.655C591.074 249.655 603.107 249.767 619.374 246.089" stroke="#2C2D36" stroke-miterlimit="10" stroke-linecap="round" stroke-linejoin="round"/>
<path d="M583.721 249.321C583.721 249.321 588.066 254.336 606.116 257.568" stroke="#2C2D36" stroke-miterlimit="10" stroke-linecap="round" stroke-linejoin="round"/>
<path d="M629.179 220.677L620.043 227.364" stroke="#2C2D36" stroke-miterlimit="10" stroke-linecap="round" stroke-linejoin="round"/>
<path d="M627.953 225.024L620.377 234.163" stroke="#2C2D36" stroke-miterlimit="10" stroke-linecap="round" stroke-linejoin="round"/>
<path d="M587.063 261.581C587.063 261.581 594.974 274.286 602.885 278.633" stroke="#2C2D36" stroke-miterlimit="10" stroke-linecap="round" stroke-linejoin="round"/>
<path d="M632.188 215.439C632.188 215.439 633.19 204.293 635.641 204.293C638.093 204.293 643.775 210.646 642.215 211.204C640.767 211.761 634.75 215.439 634.75 215.439L651.24 236.726L645.892 241.853L632.188 215.439Z" fill="#9999FF" stroke="#2C2D36" stroke-miterlimit="10" stroke-linecap="round" stroke-linejoin="round"/>
<path d="M525.226 181.668C525.226 181.668 528.123 197.606 531.465 206.968C534.808 216.219 535.142 240.627 535.142 240.627L565.337 241.853L571.242 220.677L632.188 215.439C632.188 215.439 603.665 181.78 585.949 166.734C568.234 151.688 529.571 149.013 525.337 149.57C521.104 150.127 517.427 152.579 517.427 152.579L525.226 181.668Z" fill="white" stroke="#2C2D36" stroke-miterlimit="10" stroke-linecap="round" stroke-linejoin="round"/>
<path d="M571.242 220.677L577.593 203.625L574.028 241.742L567.677 234.163L571.242 220.677Z" fill="#2C2D36" stroke="#2C2D36" stroke-miterlimit="10" stroke-linecap="round" stroke-linejoin="round"/>
<path d="M495.032 123.936C495.032 123.936 497.261 117.137 503.5 113.905C509.851 110.673 520.213 113.236 523.778 117.583C527.232 121.93 529.238 127.614 532.246 129.731C535.254 131.961 541.382 126.053 546.842 128.84C552.301 131.626 554.418 137.979 554.864 140.988C555.31 143.997 562.217 135.973 571.131 140.097C580.044 144.22 581.604 157.037 579.599 160.938C577.593 164.839 568.457 171.192 557.872 163.502C547.287 155.811 540.491 149.793 538.708 151.799C536.926 153.805 536.926 163.725 529.572 158.598C522.218 153.359 515.199 135.081 510.408 129.62C505.617 124.159 498.932 124.159 498.932 124.159L495.032 123.936Z" fill="#2C2D36" stroke="#2C2D36" stroke-miterlimit="10" stroke-linecap="round" stroke-linejoin="round"/>
<path d="M520.435 150.907C520.435 150.907 529.126 168.294 530.351 174.87C531.577 181.446 528.234 194.04 528.234 194.04L517.315 152.579L520.435 150.907Z" fill="#9999FF" stroke="#2C2D36" stroke-miterlimit="10" stroke-linecap="round" stroke-linejoin="round"/>
<path d="M358.989 110.673C358.989 110.673 356.427 116.803 356.984 119.143C357.541 121.372 357.318 123.602 356.092 125.05C354.978 126.499 353.864 127.837 354.978 128.951C356.092 130.066 356.092 130.066 356.092 130.066C356.092 130.066 357.206 139.316 358.655 140.765C360.103 142.214 363.669 142.214 363.669 142.214L364.003 149.236C364.003 149.236 370.799 148.344 374.699 148.901C378.599 149.459 383.724 149.459 383.724 149.459C383.724 149.459 382.053 142.994 382.61 138.202C383.167 133.409 385.395 124.716 383.501 119.701C381.496 114.685 370.911 109.001 367.234 109.558C363.446 110.116 358.989 110.673 358.989 110.673Z" fill="white" stroke="#2C2D36" stroke-miterlimit="10" stroke-linecap="round" stroke-linejoin="round"/>
<path d="M369.351 102.871C369.351 102.871 366.232 102.537 364.337 101.422C362.332 100.308 358.432 99.9734 359.546 102.314C360.661 104.543 361.552 107.329 361.552 107.329C361.552 107.329 354.533 103.986 355.981 106.438C357.429 109.001 359.101 110.673 359.101 110.673C359.101 110.673 359.435 118.029 361.106 118.809C362.778 119.701 361.998 122.153 361.663 124.382C361.329 126.611 361.663 128.617 362.778 128.617C363.892 128.617 363.892 128.617 363.892 128.617C363.892 128.617 365.563 126.388 367.011 129.508C368.46 132.629 368.683 134.858 369.017 137.087C369.351 139.316 373.808 141.322 376.593 141.545C379.379 141.88 382.721 140.988 383.39 140.097C384.058 139.205 388.961 132.518 390.744 126.053C392.415 119.589 390.744 111.453 387.401 108.109C384.058 104.766 377.819 102.537 377.819 102.537C377.819 102.537 372.471 95.7382 371.357 97.7443C370.243 99.7505 369.351 102.871 369.351 102.871Z" fill="#2C2D36" stroke="#2C2D36" stroke-miterlimit="10" stroke-linecap="round" stroke-linejoin="round"/>
<path d="M278.07 132.726L276.698 133.192L284.906 157.357L286.278 156.891L278.07 132.726Z" fill="white" stroke="#2C2D36" stroke-miterlimit="10" stroke-linecap="round" stroke-linejoin="round"/>
<path d="M284.005 134.078L272.752 137.867C269.855 138.87 266.624 137.31 265.732 134.412L254.033 91.1686C253.253 88.9395 254.479 86.599 256.596 85.8188L265.064 82.9211C267.292 82.1409 269.632 83.3669 270.412 85.4845L287.459 126.834C288.462 129.843 286.902 133.075 284.005 134.078Z" fill="#CCCCFF" stroke="#2C2D36" stroke-miterlimit="10" stroke-linecap="round" stroke-linejoin="round"/>
<path d="M289.911 171.526L293.81 171.303L291.025 166.399C291.025 166.288 289.242 168.963 289.911 171.526Z" fill="white" stroke="#2C2D36" stroke-miterlimit="10" stroke-linecap="round" stroke-linejoin="round"/>
<path d="M323.336 162.164L309.855 164.95L289.354 155.143L285.677 159.935C285.677 159.935 296.596 177.322 299.715 178.994C302.835 180.665 329.464 179.328 329.464 179.328L323.336 162.164Z" fill="white" stroke="#2C2D36" stroke-miterlimit="10" stroke-linecap="round" stroke-linejoin="round"/>
<path d="M283.114 147.787C283.114 147.787 277.654 144.889 276.986 145C276.317 145.112 275.426 145.669 275.649 146.784C275.872 147.898 276.317 149.124 276.317 149.124C276.317 149.124 274.2 155.477 274.757 157.149C275.315 158.709 277.543 161.384 278.88 161.941C280.217 162.499 282.111 162.833 282.111 162.833L289.91 171.526C289.91 171.526 291.47 166.511 293.364 164.393C295.258 162.276 298.601 159.601 298.601 159.601C298.601 159.601 292.473 154.251 292.139 154.028C291.693 153.805 290.579 151.242 290.022 150.127C289.465 149.013 288.016 148.567 286.345 147.452C284.562 146.338 284.228 145.892 283.56 146.226C282.78 146.561 283.114 147.787 283.114 147.787Z" fill="#9999FF" stroke="#2C2D36" stroke-miterlimit="10" stroke-linecap="round" stroke-linejoin="round"/>
<path d="M392.526 403.46C392.526 403.46 392.303 413.268 392.972 414.383C393.64 415.608 398.208 416.277 401.551 415.609C404.893 414.94 406.565 414.16 406.565 412.488C406.565 410.816 405.116 397.219 405.116 397.219L391.969 398.222L392.526 403.46Z" fill="white" stroke="#2C2D36" stroke-miterlimit="10" stroke-linecap="round" stroke-linejoin="round"/>
<path d="M401.55 415.608C404.893 414.94 406.564 414.16 406.564 412.488C406.564 412.265 406.564 411.819 406.453 411.262C400.548 413.714 395.199 412.711 392.525 411.93C392.637 413.156 392.748 414.048 392.86 414.382C393.64 415.608 398.208 416.389 401.55 415.608Z" fill="#9999FF" stroke="#2C2D36" stroke-miterlimit="10" stroke-linecap="round" stroke-linejoin="round"/>
<path d="M338.823 403.46C338.823 403.46 333.364 406.135 330.021 407.472C326.678 408.921 316.874 411.262 316.205 412.488C315.537 413.714 315.759 416.723 316.651 417.726C317.654 418.729 350.968 420.624 354.979 420.066C358.99 419.621 360.884 418.84 360.884 416.723C360.884 414.605 360.884 408.81 360.884 408.81L338.823 403.46Z" fill="white" stroke="#2C2D36" stroke-miterlimit="10" stroke-linecap="round" stroke-linejoin="round"/>
<path d="M360.996 416.834C360.996 416.388 360.996 415.831 360.996 415.162C358.544 416.723 355.09 417.837 355.09 417.837L315.871 415.051C315.983 416.166 316.205 417.28 316.762 417.837C317.765 418.84 351.079 420.735 355.09 420.178C359.101 419.732 360.996 418.952 360.996 416.834Z" fill="#9999FF" stroke="#2C2D36" stroke-miterlimit="10" stroke-linecap="round" stroke-linejoin="round"/>
<path d="M415.033 181.557L421.718 230.262L417.261 257.791L409.796 258.348L408.682 225.804L402.22 191.031L415.033 181.557Z" fill="white" stroke="#2C2D36" stroke-miterlimit="10" stroke-linecap="round" stroke-linejoin="round"/>
<path d="M406.454 252.776L420.047 254.67L416.704 275.512C416.704 275.512 418.041 283.314 417.261 285.543C416.481 287.772 413.362 291.115 411.133 292.453C408.905 293.79 406.677 295.797 405.34 293.01C404.003 290.224 401.44 278.298 401.997 276.627C402.554 274.955 405.34 268.045 405.34 268.045L406.454 252.776Z" fill="#9999FF" stroke="#2C2D36" stroke-miterlimit="10" stroke-linecap="round" stroke-linejoin="round"/>
<path d="M410.354 273.283C410.354 273.283 409.574 279.636 410.354 281.085C411.134 282.422 412.582 284.428 412.582 284.428L409.017 290.001" stroke="#2C2D36" stroke-miterlimit="10" stroke-linecap="round" stroke-linejoin="round"/>
<path d="M345.062 261.915L347.736 345.059L344.616 398.445L339.379 400.562L338.934 403.46C338.934 403.46 349.407 408.921 352.527 409.701C355.646 410.37 360.437 411.15 360.437 411.15C360.437 411.15 365.451 380.612 365.897 378.049C366.342 375.374 369.685 337.257 369.685 337.257L374.922 298.137L378.933 297.468L387.512 348.96L392.526 403.572C392.526 403.572 393.194 405.02 397.762 405.689C402.331 406.358 405.339 405.02 405.339 405.02L405.562 385.182L407.01 331.35L403.222 259.797L345.062 261.915Z" fill="#2C2D36" stroke="#2C2D36" stroke-miterlimit="10" stroke-linecap="round" stroke-linejoin="round"/>
<path d="M396.538 233.271L403.223 259.686C403.223 259.686 393.195 262.806 372.471 264.255C351.748 265.704 345.062 261.915 345.062 261.915L349.074 226.918C349.074 226.918 368.126 232.825 380.716 232.157C393.307 231.488 395.201 231.488 395.201 231.488L396.538 233.271Z" fill="white" stroke="#2C2D36" stroke-miterlimit="10" stroke-linecap="round" stroke-linejoin="round"/>
<path d="M343.279 220.008C343.279 220.008 339.825 266.15 339.825 274.286C339.825 282.422 340.494 304.601 340.494 304.601L346.176 307.722C346.176 307.722 347.402 268.156 348.85 257.456C350.299 246.757 353.864 231.488 353.864 231.488C353.864 231.488 377.93 234.163 380.604 234.163C383.278 234.163 394.643 233.16 394.643 233.16L396.537 233.383L396.426 226.027C396.426 226.027 378.264 226.918 365.34 224.355C352.527 221.68 342.276 216.999 342.276 216.999L343.279 220.008Z" fill="#9999FF" stroke="#2C2D36" stroke-miterlimit="10" stroke-linecap="round" stroke-linejoin="round"/>
<path d="M377.93 233.048C377.93 233.048 368.348 228.813 367.68 229.928C367.011 231.154 365.34 236.615 366.454 237.061C367.68 237.506 376.036 235.835 376.036 235.835C376.036 235.835 375.034 243.19 375.591 251.772C376.036 260.354 377.039 272.726 377.039 272.726L382.053 271.5C382.053 271.5 380.382 250.769 379.936 248.429C379.49 246.088 380.382 237.172 380.382 237.172C380.382 237.172 382.499 245.085 383.278 246.757C383.947 248.429 385.173 266.596 385.173 266.596L390.186 265.927C390.186 265.927 388.961 251.104 387.29 247.314C385.618 243.525 383.056 238.064 383.056 238.064C383.056 238.064 385.73 239.513 386.398 239.735C387.067 239.958 389.741 242.633 389.741 242.633C389.741 242.633 390.966 237.395 390.409 235.5C389.964 233.606 389.406 233.828 386.621 233.383C383.613 232.825 377.93 233.048 377.93 233.048Z" fill="#9999FF" stroke="#2C2D36" stroke-miterlimit="10" stroke-linecap="round" stroke-linejoin="round"/>
<path d="M364.115 149.236L338.043 153.471L323.447 162.164L330.467 181.78L340.606 180.331C340.606 180.331 341.163 217.111 343.391 220.008C345.62 222.795 357.764 227.364 366.12 228.144C374.588 229.036 389.741 230.151 392.192 229.816C394.755 229.482 395.535 227.81 396.426 225.915C397.318 223.909 402.554 202.622 402.554 202.622L406.454 191.142L419.713 185.235C419.713 185.235 412.916 167.514 410.465 164.951C407.902 162.387 388.293 151.688 387.401 150.907C386.51 150.016 383.725 149.459 383.725 149.459C383.725 149.459 369.352 146.672 364.115 149.236Z" fill="white" stroke="#2C2D36" stroke-miterlimit="10" stroke-linecap="round" stroke-linejoin="round"/>
<path d="M360.104 160.492C360.104 160.492 363.446 168.406 367.68 177.322" stroke="#2C2D36" stroke-miterlimit="10" stroke-linecap="round" stroke-linejoin="round"/>
<path d="M366.344 168.294C366.344 168.294 372.806 180.665 375.591 183.786" stroke="#2C2D36" stroke-miterlimit="10" stroke-linecap="round" stroke-linejoin="round"/>
<path d="M406.454 191.03L409.24 178.659" stroke="#2C2D36" stroke-miterlimit="10" stroke-linecap="round" stroke-linejoin="round"/>
<path d="M340.495 180.443L338.823 170.523" stroke="#2C2D36" stroke-miterlimit="10" stroke-linecap="round" stroke-linejoin="round"/>
<path d="M676.086 443.583C674.192 441.131 672.744 440.908 672.744 440.908L665.502 426.642L664.722 425.082L658.482 412.711C658.482 412.711 659.151 411.373 658.371 408.364C657.591 405.355 654.248 403.126 654.248 403.126L645.892 406.469L638.316 411.15C638.316 411.15 638.204 415.163 640.098 417.615C641.992 420.067 643.441 420.289 643.441 420.289L649.68 432.661L650.46 434.221L657.702 448.487C657.702 448.487 657.034 449.825 657.814 452.834C657.814 453.057 657.925 453.168 658.037 453.391C660.488 459.967 670.516 457.626 675.195 452.722C677.535 450.27 678.426 447.15 676.532 444.14C676.309 443.918 676.198 443.695 676.086 443.583Z" fill="#2C2D36" stroke="#2C2D36" stroke-miterlimit="10" stroke-linecap="round" stroke-linejoin="round"/>
<path d="M652.341 400.078L636.919 407.854L638.474 410.939L653.896 403.164L652.341 400.078Z" fill="white" stroke="#2C2D36" stroke-miterlimit="10" stroke-linecap="round" stroke-linejoin="round"/>
<path d="M708.885 396.373L682.688 414.91L697.488 435.838L723.685 417.301L708.885 396.373Z" fill="#9999FF" stroke="#2C2D36" stroke-miterlimit="10" stroke-linecap="round" stroke-linejoin="round"/>
<path d="M706.504 395.881L708.955 396.327L723.774 417.28L721.323 416.835L706.504 395.881Z" fill="#9999FF" stroke="#2C2D36" stroke-miterlimit="10" stroke-linecap="round" stroke-linejoin="round"/>
<path d="M706.506 395.884L680.309 414.421L695.108 435.349L721.305 416.812L706.506 395.884Z" fill="white" stroke="#2C2D36" stroke-miterlimit="10" stroke-linecap="round" stroke-linejoin="round"/>
<path d="M687.34 390.977C687.34 390.977 690.682 391.312 691.128 391.646C691.574 392.092 692.688 394.21 693.691 395.324C694.693 396.327 696.142 396.884 696.142 396.55C696.142 396.216 693.579 391.869 692.688 389.863C691.908 387.857 691.017 387.411 690.682 387.411C690.237 387.411 687.34 390.977 687.34 390.977Z" fill="white" stroke="#2C2D36" stroke-miterlimit="10" stroke-linecap="round" stroke-linejoin="round"/>
<path d="M694.47 383.51C694.47 383.51 682.772 383.956 682.214 384.179C681.546 384.29 676.644 387.299 676.644 387.299L677.869 391.869H680.432L680.209 392.649H687.674L691.239 387.857L694.805 387.522L694.47 383.51Z" fill="white" stroke="#2C2D36" stroke-miterlimit="10" stroke-linecap="round" stroke-linejoin="round"/>
<path d="M698.259 383.064H694.248V388.08H698.259V383.064Z" fill="#2C2D36" stroke="#2C2D36" stroke-miterlimit="10" stroke-linecap="round" stroke-linejoin="round"/>
<path d="M687.674 392.649H680.209V398.445H687.674V392.649Z" fill="white" stroke="#2C2D36" stroke-miterlimit="10" stroke-linecap="round" stroke-linejoin="round"/>
<path d="M690.125 410.482L689.902 401.788L687.563 398.333L683.997 398.445L680.432 398.333L678.092 401.788L677.869 410.482L674.192 427.534H683.997H693.802L690.125 410.482Z" fill="#2C2D36" stroke="#2C2D36" stroke-miterlimit="10" stroke-linecap="round" stroke-linejoin="round"/>
<path d="M690.125 410.37L689.902 401.788L687.562 398.333L683.997 398.445L680.432 398.333L678.092 401.788L677.869 410.37H690.125Z" fill="white" stroke="#2C2D36" stroke-miterlimit="10" stroke-linecap="round" stroke-linejoin="round"/>
<path d="M678.872 393.095H670.404V389.529C670.404 388.191 671.407 387.188 672.744 387.188H676.532C677.869 387.188 678.872 388.191 678.872 389.529V393.095Z" fill="#2C2D36" stroke="#2C2D36" stroke-miterlimit="10" stroke-linecap="round" stroke-linejoin="round"/>
<path d="M684.331 398.445C683.663 395.658 678.537 393.095 678.537 393.095H674.192H669.847C669.847 393.095 664.721 395.77 664.053 398.445C663.384 401.231 664.053 405.912 664.053 405.912H674.192H684.331C684.331 405.912 685 401.12 684.331 398.445Z" fill="white" stroke="#2C2D36" stroke-miterlimit="10" stroke-linecap="round" stroke-linejoin="round"/>
<path d="M684.666 433.441H663.607V415.274C663.607 414.16 664.499 413.268 665.613 413.268H682.771C683.886 413.268 684.777 414.16 684.777 415.274V433.441H684.666Z" fill="white" stroke="#2C2D36" stroke-miterlimit="10" stroke-linecap="round" stroke-linejoin="round"/>
<path d="M684.219 405.912H674.192H664.164C664.164 405.912 665.724 407.361 666.281 409.256C666.727 411.15 664.498 413.491 664.498 413.491H674.303H684.108C684.108 413.491 681.88 411.15 682.325 409.256C682.66 407.361 684.219 405.912 684.219 405.912Z" fill="white" stroke="#2C2D36" stroke-miterlimit="10" stroke-linecap="round" stroke-linejoin="round"/>
<path d="M715.306 438.568H722.214C722.214 438.568 724.888 456.623 725.557 464.425C726.225 472.227 720.209 482.48 714.861 484.041C709.513 485.601 709.513 485.601 709.513 485.601" stroke="#2C2D36" stroke-miterlimit="10" stroke-linecap="round" stroke-linejoin="round"/>
<path d="M718.559 435.235L713.9 434.798L713.15 442.787L717.809 443.225L718.559 435.235Z" fill="#9999FF" stroke="#2C2D36" stroke-miterlimit="10" stroke-linecap="round" stroke-linejoin="round"/>
<path d="M702.827 506.443H656.143C654.583 506.443 653.246 505.328 653.023 503.656L642.216 425.751H716.755L705.947 503.656C705.724 505.217 704.387 506.443 702.827 506.443Z" fill="#9999FF" stroke="#2C2D36" stroke-miterlimit="10" stroke-linecap="round" stroke-linejoin="round"/>
<path d="M720.32 425.751H638.762V429.317H720.32V425.751Z" fill="#9999FF" stroke="#2C2D36" stroke-miterlimit="10" stroke-linecap="round" stroke-linejoin="round"/>
<path d="M690.46 438.01H701.045" stroke="#2C2D36" stroke-miterlimit="10" stroke-linecap="round" stroke-linejoin="round"/>
<path d="M646.115 438.01H686.337" stroke="#2C2D36" stroke-miterlimit="10" stroke-linecap="round" stroke-linejoin="round"/>
</g>
<defs>
<clipPath id="clip0_179_2677">
<rect width="806" height="507" fill="white"/>
</clipPath>
</defs>
</svg>
