<svg width="20" height="22" viewBox="0 0 20 22" fill="none" xmlns="http://www.w3.org/2000/svg">
<path d="M19.3323 8.15753H17.9117V0H6.32951L1.42055 4.90901V8.15753H0V18.7451H1.42059V22H17.9118V18.7451H19.3324V8.15753H19.3323ZM6.12124 2.03135V4.69795H3.45464L6.12124 2.03135ZM2.70961 5.98696H7.41031V1.28906H16.6227V8.15753H2.70961V5.98696ZM16.6227 20.7109H2.70961V18.7451H16.6227V20.7109ZM18.0433 17.4561H1.28906V9.44659H18.0433V17.4561H18.0433Z" fill="#6339F5"/>
<path d="M4.13574 14.4518H4.89771C5.9397 14.4518 6.78743 13.6041 6.78743 12.5621C6.78743 11.5201 5.9397 10.6724 4.89771 10.6724H2.84668V16.2977H4.13574V14.4518ZM4.13574 11.9614H4.89771C5.22891 11.9614 5.49837 12.2309 5.49837 12.5621C5.49837 12.8933 5.22891 13.1627 4.89771 13.1627H4.13574V11.9614Z" fill="#6339F5"/>
<path d="M14.168 14.4518H15.9434V13.1627H14.168V11.9614H16.4018V10.6724H12.8789V16.2977H14.168V14.4518Z" fill="#6339F5"/>
<path d="M11.7371 14.3862V12.5657C11.7371 11.5217 10.8878 10.6724 9.8438 10.6724H7.79639V16.2795H9.8438C10.8878 16.2795 11.7371 15.4302 11.7371 14.3862ZM9.08541 11.9614H9.84376C10.1769 11.9614 10.448 12.2325 10.448 12.5657V14.3862C10.448 14.7194 10.1769 14.9905 9.84376 14.9905H9.08541V11.9614Z" fill="#6339F5"/>
</svg>
