<svg width="60" height="60" viewBox="0 0 60 60" fill="none" xmlns="http://www.w3.org/2000/svg">
<path d="M53.9272 10.8885L30.4897 0.107227C30.1789 -0.0357422 29.8211 -0.0357422 29.5103 0.107227L6.07277 10.8885C5.65699 11.0797 5.39062 11.4954 5.39062 11.9531V29.5875C5.39062 29.5965 5.39074 29.6054 5.39086 29.6143C5.51543 35.0496 5.87285 39.9457 8.99695 44.8214C12.4752 50.2499 18.993 55.0387 29.5089 59.8922C29.6646 59.964 29.8323 60 29.9999 60C30.1675 60 30.3352 59.964 30.4909 59.8922C41.0067 55.0387 47.5246 50.25 51.0028 44.8214C54.127 39.9457 54.4843 35.0496 54.6089 29.6143C54.609 29.6054 54.6091 29.5965 54.6091 29.5875V11.9531C54.6094 11.4954 54.343 11.0797 53.9272 10.8885ZM52.2656 29.5741C52.1449 34.8246 51.8283 39.1891 49.0296 43.557C45.8559 48.51 39.8026 52.9589 30 57.536C20.1974 52.9588 14.1441 48.51 10.9704 43.557C8.17172 39.1891 7.85508 34.8246 7.73438 29.5741V12.7039L30 2.46176L52.2656 12.7039V29.5741Z" fill="#6339F5"/>
<path d="M48.3022 14.4926L45.3168 13.1193C44.7288 12.8491 44.0329 13.1063 43.7624 13.6942C43.4919 14.2823 43.7493 14.9781 44.3373 15.2486L46.6406 16.3081V29.5094C46.5486 33.5221 46.467 36.9883 44.3741 40.3886C42.2201 43.8882 38.0027 47.1877 31.1719 50.7016V45.9897C31.1719 45.3426 30.6472 44.8178 30 44.8178C29.3528 44.8178 28.8281 45.3426 28.8281 45.9897V50.7016C21.9973 47.1877 17.7799 43.8882 15.6259 40.3886C13.533 36.9883 13.4514 33.5221 13.3594 29.5094V16.3081L30 8.65341L34.1873 10.5796C34.7755 10.8502 35.4714 10.5927 35.7417 10.0047C36.0122 9.41665 35.7547 8.72079 35.1668 8.45032L30.4897 6.29888C30.1789 6.15591 29.8211 6.15591 29.5103 6.29888L11.6978 14.4926C11.2821 14.6839 11.0156 15.0997 11.0156 15.5573V29.5229C11.0156 29.5319 11.0157 29.5408 11.0159 29.5497C11.1117 33.727 11.2022 37.6727 13.63 41.6172C16.1987 45.7907 21.2367 49.6155 29.4847 53.6536C29.6473 53.7332 29.8236 53.7731 30 53.7731C30.1764 53.7731 30.3527 53.7332 30.5153 53.6536C38.7633 49.6155 43.8013 45.7907 46.37 41.6172C48.7978 37.6728 48.8883 33.7271 48.9841 29.5497C48.9843 29.5407 48.9844 29.5318 48.9844 29.5229V15.5573C48.9844 15.0997 48.718 14.6839 48.3022 14.4926Z" fill="#6339F5"/>
<path d="M30.8285 41.0005C30.6105 40.7825 30.3082 40.657 30 40.657C29.6918 40.657 29.3895 40.7825 29.1715 41.0005C28.9535 41.2183 28.8281 41.5207 28.8281 41.8289C28.8281 42.1371 28.9535 42.4394 29.1715 42.6574C29.3895 42.8753 29.6918 43.0007 30 43.0007C30.3082 43.0007 30.6105 42.8755 30.8285 42.6574C31.0465 42.4393 31.1719 42.1371 31.1719 41.8289C31.1719 41.5207 31.0465 41.2183 30.8285 41.0005Z" fill="#6339F5"/>
<path d="M41.7044 24.3317L30.7623 14.9678C30.3236 14.5924 29.677 14.5924 29.2384 14.9678L18.2962 24.3317C17.9234 24.6506 17.7889 25.168 17.9589 25.6281C18.129 26.0883 18.5676 26.3938 19.0582 26.3938H20.1835V37.0493C20.1835 37.6964 20.7082 38.2212 21.3554 38.2212H38.6452C39.2925 38.2212 39.8171 37.6964 39.8171 37.0493V26.3938H40.9425C41.433 26.3938 41.8716 26.0883 42.0417 25.6281C42.2117 25.1679 42.0771 24.6505 41.7044 24.3317ZM37.4734 25.2221V35.8776H22.5273V25.2221C22.5273 24.814 22.3188 24.4547 22.0024 24.2448L30.0003 17.4006L37.9982 24.2449C37.6818 24.4547 37.4734 24.814 37.4734 25.2221Z" fill="#6339F5"/>
<path d="M35.0662 25.9089C34.6086 25.4513 33.8665 25.4513 33.4089 25.9089L29.2376 30.0803L28.0552 28.8979C27.5976 28.4403 26.8556 28.4403 26.3979 28.8979C25.9403 29.3555 25.9402 30.0975 26.3979 30.5551L28.4089 32.5662C28.6286 32.7859 28.9267 32.9094 29.2375 32.9094C29.5483 32.9094 29.8464 32.7859 30.0661 32.5662L35.0662 27.5662C35.5238 27.1085 35.5238 26.3665 35.0662 25.9089Z" fill="#6339F5"/>
<path d="M40.4542 10.8823L40.4109 10.8624C39.8228 10.5916 39.127 10.8488 38.8562 11.4367C38.5855 12.0246 38.8427 12.7206 39.4306 12.9913L39.4739 13.0112C39.6326 13.0843 39.7993 13.1189 39.9633 13.1189C40.4068 13.1189 40.831 12.866 41.0286 12.4369C41.2993 11.849 41.042 11.153 40.4542 10.8823Z" fill="#6339F5"/>
</svg>
