<svg width="60" height="60" viewBox="0 0 60 60" fill="none" xmlns="http://www.w3.org/2000/svg">
<g clip-path="url(#clip0_278_19329)">
<path d="M29.9998 33.0476C29.3483 33.0476 28.8203 33.5757 28.8203 34.2271V41.4575C28.8203 42.1088 29.3484 42.6369 29.9998 42.6369H34.5636C35.2151 42.6369 35.7431 42.1088 35.7431 41.4575C35.7431 40.8061 35.215 40.278 34.5636 40.278H31.1793V34.2271C31.1794 33.5756 30.6513 33.0476 29.9998 33.0476Z" fill="#6339F5"/>
<path d="M54.2736 5.79052H48.9421V4.39031C48.9421 2.00166 46.9952 0.0583496 44.6022 0.0583496C42.2091 0.0583496 40.2622 2.00166 40.2622 4.39031V5.79052H34.3397V4.39031C34.3397 2.00166 32.3929 0.0583496 29.9998 0.0583496C27.6067 0.0583496 25.6602 2.00177 25.6602 4.39031V5.79052H19.7376V4.39031C19.7376 2.00166 17.7908 0.0583496 15.3977 0.0583496C13.0029 0.0583496 11.0544 2.00166 11.0544 4.39031V5.79052H5.72645C2.56882 5.79052 0 8.3542 0 11.5054V26.3085C0 26.9598 0.528122 27.488 1.17948 27.488C1.83083 27.488 2.35895 26.9598 2.35895 26.3085V20.1423H57.6409V44.8843C57.6409 46.7348 56.1303 48.2402 54.2736 48.2402H47.2353C48.0689 46.1392 48.5275 43.8506 48.5275 41.4572C48.5275 31.2649 40.2161 22.973 29.9999 22.973C19.7838 22.973 11.4725 31.265 11.4725 41.4573C11.4725 43.8507 11.931 46.1392 12.7647 48.2403H5.72645C3.86966 48.2403 2.35907 46.7349 2.35907 44.8844V37.0473C2.35907 36.396 1.83095 35.8679 1.17959 35.8679C0.528239 35.8679 0 36.3958 0 37.0472V44.8843C0 48.0355 2.56882 50.5992 5.72645 50.5992H13.9019C17.0956 56.1749 23.1149 59.9413 30.0001 59.9413C36.8852 59.9413 42.9045 56.1749 46.0982 50.5992H54.2737C57.4312 50.5992 60.0001 48.0355 60.0001 44.8843V11.5054C60 8.3542 57.4312 5.79052 54.2736 5.79052ZM29.9999 57.5824C21.0847 57.5824 13.8315 50.3486 13.8315 41.4572C13.8315 32.5657 21.0847 25.332 29.9999 25.332C38.9152 25.332 46.1684 32.5657 46.1684 41.4572C46.1684 50.3486 38.9153 57.5824 29.9999 57.5824ZM42.6214 4.39031C42.6214 3.30238 43.51 2.4173 44.6023 2.4173C45.6945 2.4173 46.5831 3.30238 46.5831 4.39031V9.54946C46.5831 10.6374 45.6945 11.5225 44.6023 11.5225C43.51 11.5225 42.6214 10.6374 42.6214 9.54946V4.39031ZM28.0191 4.39031C28.0191 3.30238 28.9077 2.4173 29.9999 2.4173C31.0922 2.4173 31.9808 3.30238 31.9808 4.39031V9.54946C31.9808 10.6374 31.0922 11.5225 29.9999 11.5225C28.9077 11.5225 28.0191 10.6374 28.0191 9.54946V4.39031ZM13.4135 4.39031C13.4135 3.30238 14.3036 2.4173 15.3977 2.4173C16.49 2.4173 17.3786 3.30238 17.3786 4.39031V9.54946C17.3786 10.6374 16.49 11.5225 15.3977 11.5225C14.3036 11.5225 13.4135 10.6374 13.4135 9.54946V4.39031ZM2.35907 17.7833V11.5054C2.35907 9.65492 3.86966 8.14948 5.72645 8.14948H11.0545V9.54958C11.0545 11.9382 13.003 13.8815 15.3978 13.8815C17.7908 13.8815 19.7377 11.9382 19.7377 9.54958V8.14948H25.6603V9.54958C25.6603 11.9382 27.6071 13.8815 30.0002 13.8815C32.3933 13.8815 34.3401 11.9382 34.3401 9.54958V8.14948H40.2626V9.54958C40.2626 11.9382 42.2094 13.8815 44.6025 13.8815C46.9956 13.8815 48.9424 11.9382 48.9424 9.54958V8.14948H54.2739C56.1303 8.14948 57.6409 9.65492 57.6409 11.5054V17.7833H2.35907Z" fill="#6339F5"/>
<path d="M1.17948 32.8675C1.83095 32.8675 2.35895 32.3394 2.35895 31.6881V31.6643C2.35895 31.013 1.83083 30.4849 1.17948 30.4849C0.528122 30.4849 0 31.0129 0 31.6643V31.6881C0 32.3394 0.528122 32.8675 1.17948 32.8675Z" fill="#6339F5"/>
<path d="M43.4323 39.5895C43.3424 38.9444 42.7463 38.4943 42.1014 38.5839C41.4563 38.6738 41.006 39.2696 41.0959 39.9149C41.6824 44.1262 39.7711 48.3752 36.2271 50.7399C34.3184 52.0122 32.1568 52.621 30.0165 52.6209C26.3989 52.6207 22.8441 50.8807 20.6866 47.665C19.0267 45.1873 18.4321 42.2128 19.0123 39.2896C19.5939 36.3603 21.2846 33.8321 23.7726 32.1711C27.3271 29.8026 32.0047 29.67 35.6894 31.8338C36.2511 32.1634 36.9737 31.9756 37.3038 31.414C37.6336 30.8522 37.4457 30.1295 36.8839 29.7996C34.7183 28.5277 32.2418 27.8788 29.7245 27.9298C27.1367 27.9797 24.6262 28.7675 22.4637 30.2085C19.4503 32.2202 17.4028 35.2822 16.6985 38.8302C15.9955 42.3722 16.7157 45.976 18.7272 48.9786C21.3395 52.8721 25.6417 54.9785 30.0208 54.9784C32.6102 54.9782 35.2267 54.2415 37.5359 52.7023C39.693 51.263 41.3811 49.2544 42.4176 46.8932C43.4267 44.5949 43.7776 42.0692 43.4323 39.5895Z" fill="#6339F5"/>
<path d="M39.3213 35.2664C39.5485 35.6081 39.923 35.793 40.3046 35.793C40.5289 35.793 40.7557 35.7291 40.9566 35.5956C41.4991 35.2349 41.6465 34.5028 41.2858 33.9604L41.2722 33.9399C40.9117 33.3974 40.1795 33.2501 39.637 33.6107C39.0945 33.9714 38.9471 34.7035 39.3078 35.2459L39.3213 35.2664Z" fill="#6339F5"/>
</g>
<defs>
<clipPath id="clip0_278_19329">
<rect width="60" height="60" fill="white"/>
</clipPath>
</defs>
</svg>
