<svg width="70" height="70" viewBox="0 0 70 70" fill="none" xmlns="http://www.w3.org/2000/svg">
<mask id="mask0_278_19231" style="mask-type:luminance" maskUnits="userSpaceOnUse" x="0" y="0" width="70" height="70">
<path d="M0 0H70V70H0V0Z" fill="white"/>
</mask>
<g mask="url(#mask0_278_19231)">
<path d="M22.98 42.6714C22.98 43.4263 22.3679 44.0386 21.6128 44.0386C20.8578 44.0386 20.2456 43.4263 20.2456 42.6714C20.2456 41.9163 20.8578 41.3042 21.6128 41.3042C22.3679 41.3042 22.98 41.9163 22.98 42.6714Z" fill="#6339F5"/>
<path d="M53.1062 48.9159C53.1062 53.7735 50.4926 58.1362 46.3417 61.1276V68.6328H39.828V64.2852C37.6751 64.9204 35.3496 65.2672 32.9249 65.2672C30.5002 65.2672 28.1748 64.9204 26.0218 64.2852V68.6328H19.5081V61.1276C17.3358 59.5628 15.5853 57.6216 14.4079 55.4297H10.2378V42.4021H14.4079C15.5299 40.3096 17.1763 38.445 19.2134 36.9176L20.0798 27.7624L26.9958 33.2813C28.8701 32.8155 30.8617 32.5646 32.9249 32.5646C44.0716 32.5646 53.1062 39.8862 53.1062 48.9159Z" stroke="#6339F5" stroke-width="2.5" stroke-miterlimit="10" stroke-linejoin="round"/>
<path d="M28.7373 39.5581C29.8803 39.2997 31.3656 39.0725 33.1044 39.0797C34.7704 39.0867 36.1987 39.3068 37.3103 39.5581" stroke="#6339F5" stroke-width="2.5" stroke-miterlimit="10" stroke-linecap="round" stroke-linejoin="round"/>
<path d="M53.106 48.9158C55.7672 49.315 58.3051 47.9865 59.3134 45.7684C60.4967 43.1653 58.9767 40.6494 58.8509 40.4487" stroke="#6339F5" stroke-width="2.5" stroke-miterlimit="10" stroke-linecap="round" stroke-linejoin="round"/>
<path d="M38.7803 2.73427C42.9447 4.83974 45.7994 9.15869 45.7994 14.1435C45.7994 21.1981 40.0805 26.9185 33.0243 26.9185C25.9684 26.9185 20.248 21.1981 20.248 14.1435C20.248 9.15732 23.1041 4.83838 27.2686 2.73427" stroke="#6339F5" stroke-width="2.5" stroke-miterlimit="10" stroke-linecap="round" stroke-linejoin="round"/>
<path d="M36.5236 10.6432L29.5244 17.6423" stroke="#6339F5" stroke-width="2.5" stroke-miterlimit="10" stroke-linecap="round" stroke-linejoin="round"/>
<path d="M30.1234 11.2427C29.5896 11.7765 28.7239 11.7765 28.19 11.2427C27.6561 10.7088 27.6561 9.84306 28.19 9.30904C28.7239 8.77515 29.5896 8.77515 30.1234 9.30904C30.6573 9.84306 30.6573 10.7088 30.1234 11.2427Z" fill="#6339F5"/>
<path d="M37.8578 18.9765C37.3239 19.5104 36.4582 19.5104 35.9243 18.9765C35.3905 18.4427 35.3905 17.5769 35.9243 17.0431C36.4582 16.5092 37.3239 16.5092 37.8578 17.0431C38.3917 17.5769 38.3917 18.4427 37.8578 18.9765Z" fill="#6339F5"/>
<path d="M33.0239 2.73438C33.7789 2.73438 34.3911 2.12215 34.3911 1.36719C34.3911 0.612226 33.7789 -2.38419e-07 33.0239 -2.38419e-07C32.2688 -2.38419e-07 31.6567 0.612226 31.6567 1.36719C31.6567 2.12215 32.2688 2.73438 33.0239 2.73438Z" fill="#6339F5"/>
</g>
</svg>
