<svg width="1920" height="678" viewBox="0 0 1920 678" fill="none" xmlns="http://www.w3.org/2000/svg">
<path fill-rule="evenodd" clip-rule="evenodd" d="M58.4837 114.076C128.659 112.203 199.36 144.803 222.387 211.066C246.718 281.084 217.671 357.129 158.461 401.776C112.371 436.53 53.0589 455.866 0.0025951 444.954C0.0025951 433.5 0.00317276 434 0.00305287 417.5C0.00261688 357.5 -0.00194905 299 0.00105778 222.5C0.0025951 182 0.0025951 160 0.0025951 128.149C17.8209 119.609 37.5291 114.636 58.4837 114.076Z" fill="#E0E0FF"/>
<path fill-rule="evenodd" clip-rule="evenodd" d="M1920 400.741C1920 401.74 1920 440.697 1920 501.631C1920 573.553 1920 592.532 1920 647.472C1920 663.741 1920 674.942 1920 677.939C1917.5 678.938 1899.72 667.713 1864.33 644.805C1790.38 596.934 1680.81 549.114 1706.94 465.191C1733.37 380.322 1831.01 394.921 1920 400.741Z" fill="#E0E0FF"/>
<g clip-path="url(#clip0_57_416)">
<path d="M1685.59 197.495C1685.59 197.495 1667.76 106.438 1540.19 50.2655C1412.62 -5.90687 1353.57 50.0426 1289.39 73.3363C1225.21 96.63 1190.45 64.5315 1083.38 49.3739C976.303 34.2162 883.491 185.012 913.797 302.818C944.103 420.624 1011.07 462.53 1157.36 489.391C1303.65 516.139 1390.22 427.757 1493.73 443.918C1597.24 460.078 1720.47 369.801 1685.59 197.495Z" fill="#9999FF"/>
<path opacity="0.7" d="M1685.59 197.495C1685.59 197.495 1667.76 106.438 1540.19 50.2655C1412.62 -5.90687 1353.57 50.0426 1289.39 73.3363C1225.21 96.63 1190.45 64.5315 1083.38 49.3739C976.303 34.2162 883.491 185.012 913.797 302.818C944.103 420.624 1011.07 462.53 1157.36 489.391C1303.65 516.139 1390.22 427.757 1493.73 443.918C1597.24 460.078 1720.47 369.801 1685.59 197.495Z" fill="white"/>
<g opacity="0.3">
<path d="M1273.45 45.5847C1277.69 55.0582 1280.03 65.5348 1280.03 76.5686V302.373H1128.05V76.5686C1128.05 34.5508 1162.04 0.557617 1204.04 0.557617C1232.68 0.557617 1257.63 16.384 1270.56 39.7891" stroke="#2C2D36" stroke-miterlimit="10" stroke-linecap="round" stroke-linejoin="round"/>
<path d="M1181.09 24.8542C1188.11 21.845 1195.91 20.2847 1204.04 20.2847C1236.58 20.2847 1262.87 46.5876 1262.87 79.1319V301.704" stroke="#2C2D36" stroke-miterlimit="10" stroke-linecap="round" stroke-linejoin="round"/>
<path d="M1145.21 301.592V79.0204C1145.21 56.0611 1158.36 36.111 1177.63 26.4146" stroke="#2C2D36" stroke-miterlimit="10" stroke-linecap="round" stroke-linejoin="round"/>
<path d="M1204.04 91.7261V302.038" stroke="#2C2D36" stroke-miterlimit="10" stroke-linecap="round" stroke-linejoin="round"/>
<path d="M1204.04 0.557617V85.1505" stroke="#2C2D36" stroke-miterlimit="10" stroke-linecap="round" stroke-linejoin="round"/>
<path d="M1128.83 67.7637H1279.03" stroke="#2C2D36" stroke-miterlimit="10" stroke-linecap="round" stroke-linejoin="round"/>
<path d="M1152.34 115.02H1279.03" stroke="#2C2D36" stroke-miterlimit="10" stroke-linecap="round" stroke-linejoin="round"/>
<path d="M1128.83 115.02H1147.44" stroke="#2C2D36" stroke-miterlimit="10" stroke-linecap="round" stroke-linejoin="round"/>
<path d="M1128.83 162.388H1279.03" stroke="#2C2D36" stroke-miterlimit="10" stroke-linecap="round" stroke-linejoin="round"/>
<path d="M1255.85 209.867H1279.03" stroke="#2C2D36" stroke-miterlimit="10" stroke-linecap="round" stroke-linejoin="round"/>
<path d="M1128.83 209.866H1248.83" stroke="#2C2D36" stroke-miterlimit="10" stroke-linecap="round" stroke-linejoin="round"/>
<path d="M1181.98 257.234H1279.03" stroke="#2C2D36" stroke-miterlimit="10" stroke-linecap="round" stroke-linejoin="round"/>
<path d="M1128.83 257.234H1175.85" stroke="#2C2D36" stroke-miterlimit="10" stroke-linecap="round" stroke-linejoin="round"/>
<path d="M1148.89 24.2969L1162.59 36.6682" stroke="#2C2D36" stroke-miterlimit="10" stroke-linecap="round" stroke-linejoin="round"/>
<path d="M1258.52 24.2969L1244.93 36.6682" stroke="#2C2D36" stroke-miterlimit="10" stroke-linecap="round" stroke-linejoin="round"/>
</g>
<g opacity="0.3">
<path d="M1467.21 45.5842C1471.45 55.0577 1473.79 65.5343 1473.79 76.5681V302.372H1321.81V76.5681C1321.81 34.5503 1355.79 0.557129 1397.8 0.557129C1426.43 0.557129 1451.39 16.3835 1464.31 39.7886" stroke="#2C2D36" stroke-miterlimit="10" stroke-linecap="round" stroke-linejoin="round"/>
<path d="M1374.85 24.8538C1381.87 21.8445 1389.66 20.2842 1397.8 20.2842C1430.33 20.2842 1456.63 46.5871 1456.63 79.1314V301.703" stroke="#2C2D36" stroke-miterlimit="10" stroke-linecap="round" stroke-linejoin="round"/>
<path d="M1338.97 301.592V79.0199C1338.97 56.0606 1352.12 36.1105 1371.39 26.4141" stroke="#2C2D36" stroke-miterlimit="10" stroke-linecap="round" stroke-linejoin="round"/>
<path d="M1397.8 91.7256V302.038" stroke="#2C2D36" stroke-miterlimit="10" stroke-linecap="round" stroke-linejoin="round"/>
<path d="M1397.8 0.557129V85.15" stroke="#2C2D36" stroke-miterlimit="10" stroke-linecap="round" stroke-linejoin="round"/>
<path d="M1322.59 67.7637H1472.78" stroke="#2C2D36" stroke-miterlimit="10" stroke-linecap="round" stroke-linejoin="round"/>
<path d="M1346.1 115.02H1472.78" stroke="#2C2D36" stroke-miterlimit="10" stroke-linecap="round" stroke-linejoin="round"/>
<path d="M1322.59 115.02H1341.09" stroke="#2C2D36" stroke-miterlimit="10" stroke-linecap="round" stroke-linejoin="round"/>
<path d="M1322.59 162.387H1472.78" stroke="#2C2D36" stroke-miterlimit="10" stroke-linecap="round" stroke-linejoin="round"/>
<path d="M1449.5 209.866H1472.78" stroke="#2C2D36" stroke-miterlimit="10" stroke-linecap="round" stroke-linejoin="round"/>
<path d="M1322.59 209.866H1442.59" stroke="#2C2D36" stroke-miterlimit="10" stroke-linecap="round" stroke-linejoin="round"/>
<path d="M1375.74 257.233H1472.78" stroke="#2C2D36" stroke-miterlimit="10" stroke-linecap="round" stroke-linejoin="round"/>
<path d="M1322.59 257.233H1369.61" stroke="#2C2D36" stroke-miterlimit="10" stroke-linecap="round" stroke-linejoin="round"/>
<path d="M1342.65 24.2969L1356.24 36.6682" stroke="#2C2D36" stroke-miterlimit="10" stroke-linecap="round" stroke-linejoin="round"/>
<path d="M1452.28 24.2969L1438.69 36.6682" stroke="#2C2D36" stroke-miterlimit="10" stroke-linecap="round" stroke-linejoin="round"/>
</g>
<path d="M915.245 406.247H1713.45" stroke="#2C2D36" stroke-miterlimit="10" stroke-linecap="round" stroke-linejoin="round"/>
<path d="M1677.12 151.799L1680.91 141.657L1678.91 143.886V140.431L1674.67 146.895L1678.46 123.824L1673.45 136.418L1673 125.273L1672.22 128.951L1671.22 116.357L1669.44 135.638L1666.98 128.951L1667.54 137.644L1660.74 117.806L1663.98 142.66L1659.3 139.205L1662.08 143.663L1658.52 141.1L1662.53 152.579L1676.9 152.802" fill="#34D399"/>
<path d="M1661.3 176.876H1676.79L1680.91 150.016H1657.07L1661.3 176.876Z" fill="#2C2D36" stroke="#2C2D36" stroke-miterlimit="10" stroke-linecap="round" stroke-linejoin="round"/>
<path d="M955.467 269.271C955.467 269.159 955.467 269.159 955.467 269.271C955.356 269.159 955.356 269.159 955.356 269.159C953.127 274.175 951.679 279.413 950.342 284.763C949.116 290.112 948.225 295.462 947.556 300.923L947.222 305.047C947.111 305.716 947.111 306.385 946.999 307.053L946.888 309.059C946.776 310.397 946.776 311.846 946.665 313.183V317.307V319.313C946.665 319.982 946.776 320.65 946.776 321.319C946.888 322.657 946.999 324.106 947.111 325.443C947.334 328.118 947.779 330.904 948.225 333.579C948.225 333.579 948.225 333.69 948.336 333.69C948.336 333.69 948.448 333.69 948.448 333.579C948.448 332.242 948.336 330.793 948.336 329.455C948.336 328.118 948.225 326.78 948.225 325.332C948.225 323.994 948.225 322.657 948.225 321.208V319.202V317.195V313.072L948.336 308.948V306.942C948.336 306.273 948.448 305.604 948.448 304.936L948.671 300.812C949.116 295.351 949.896 290.001 951.01 284.651C952.125 279.636 953.462 274.286 955.467 269.271Z" fill="#2C2D36"/>
<path d="M956.024 290.558C955.913 290.447 955.913 290.447 955.913 290.558C954.687 293.902 953.796 297.357 953.016 300.923C952.236 304.378 951.679 307.945 951.344 311.511C951.01 315.078 950.564 318.644 950.564 322.211C950.564 325.777 950.564 329.344 950.899 332.91C950.899 332.91 950.899 333.022 951.01 333.022C951.01 333.022 951.122 333.022 951.122 332.91C951.567 329.344 951.79 325.777 952.013 322.211C952.236 318.644 952.347 315.078 952.57 311.511C952.793 307.945 953.238 304.378 953.796 300.923C954.241 297.468 955.021 294.013 956.024 290.558Z" fill="#2C2D36"/>
<path d="M967.835 298.025C964.826 299.92 962.152 302.261 959.813 304.935C958.698 306.273 957.584 307.722 956.693 309.282L956.024 310.508L955.579 311.734C955.356 312.18 955.245 312.626 955.133 312.96C955.022 313.406 954.91 313.852 954.799 314.186C953.907 317.641 953.35 321.096 953.128 324.551C953.016 328.006 953.016 331.573 953.573 335.028C953.573 335.028 953.573 335.139 953.685 335.139C953.685 335.139 953.796 335.139 953.796 335.028L954.687 324.663C955.022 321.208 955.245 317.753 956.024 314.409C956.136 313.963 956.247 313.629 956.359 313.183C956.47 312.737 956.582 312.403 956.693 311.957L957.139 310.731L957.696 309.617C958.476 308.168 959.478 306.719 960.481 305.27C962.487 302.595 964.938 300.143 967.835 298.025C967.835 298.137 967.835 298.137 967.835 298.025Z" fill="#2C2D36"/>
<path d="M962.153 311.4C960.593 312.403 959.479 314.075 958.587 315.747C957.696 317.418 957.028 319.202 956.582 320.985C956.47 321.431 956.359 321.877 956.248 322.322L955.913 323.66C955.802 324.551 955.579 325.554 955.579 326.446C955.579 327.338 955.579 328.341 955.579 329.232C955.691 330.124 955.802 331.127 955.913 332.019C955.913 332.019 955.913 332.019 956.025 332.13C956.025 332.13 956.136 332.13 956.136 332.019C956.359 331.127 956.47 330.124 956.582 329.232C956.693 328.341 956.916 327.449 957.028 326.446C957.139 325.554 957.25 324.663 957.362 323.771C957.473 322.88 957.585 321.988 957.807 321.096C958.142 319.313 958.699 317.53 959.367 315.858C960.036 314.186 960.927 312.514 962.376 311.4C962.264 311.511 962.264 311.4 962.153 311.4Z" fill="#2C2D36"/>
<path d="M945.551 321.765C945.217 317.195 944.437 312.626 943.657 308.056C942.988 303.487 942.097 298.917 941.317 294.348C940.426 289.778 939.534 285.32 938.531 280.75C938.531 280.75 938.531 280.639 938.42 280.75C938.42 280.75 938.309 280.75 938.309 280.862C939.089 285.431 939.757 290.001 940.537 294.57C941.205 299.14 941.874 303.71 942.431 308.279C942.988 312.849 943.434 317.418 943.991 321.988L945.662 335.697C945.662 335.697 945.662 335.808 945.774 335.808C945.774 335.808 945.885 335.808 945.885 335.697C945.885 334.582 945.885 333.356 945.996 332.242C945.996 331.127 945.996 329.901 945.885 328.786C945.885 326.446 945.662 324.105 945.551 321.765Z" fill="#2C2D36"/>
<path d="M942.765 321.765C942.543 319.982 942.208 318.087 941.874 316.304L941.206 313.629C940.983 312.737 940.76 311.845 940.537 310.954C939.646 307.387 938.42 303.821 936.972 300.477L936.415 299.251L935.746 298.025C935.3 297.134 934.855 296.354 934.409 295.573C933.406 294.013 932.404 292.453 931.066 291.115H930.955V291.227C932.181 292.564 933.183 294.124 933.963 295.685C934.409 296.465 934.743 297.357 935.078 298.137L935.635 299.363L936.08 300.589C937.306 304.044 938.42 307.499 939.2 311.065C939.646 312.849 939.869 314.632 940.203 316.415L940.648 319.09C940.76 319.982 940.983 320.873 941.094 321.765C941.428 323.548 941.763 325.331 941.985 327.226C942.32 329.009 942.543 330.793 942.988 332.687C942.988 332.687 942.988 332.799 943.1 332.799C943.1 332.799 943.211 332.799 943.211 332.687C943.211 330.793 943.211 329.009 943.1 327.115C943.211 325.443 942.988 323.548 942.765 321.765Z" fill="#2C2D36"/>
<path d="M938.977 321.988C938.086 319.536 937.083 317.196 936.08 314.855C934.966 312.515 933.74 310.286 932.403 308.168H932.292V308.279C933.518 310.508 934.52 312.849 935.412 315.189C936.303 317.53 937.194 319.982 937.863 322.323C938.531 324.774 939.089 327.226 939.757 329.678C940.426 332.13 940.983 334.582 941.763 337.034C941.763 337.034 941.763 337.034 941.874 337.034C941.874 337.034 941.985 337.034 941.985 336.923C941.985 334.359 941.763 331.796 941.317 329.233C940.648 326.781 939.757 324.44 938.977 321.988Z" fill="#2C2D36"/>
<path d="M938.754 330.013C938.309 328.452 937.529 327.115 936.749 325.777C935.969 324.44 934.966 323.214 933.741 322.099C933.184 321.542 932.515 321.096 931.847 320.651C931.178 320.205 930.51 319.87 929.73 319.647H929.618V319.759C930.955 320.428 932.181 321.431 933.184 322.545C934.186 323.66 934.966 324.997 935.635 326.223C936.303 327.561 936.749 329.01 937.306 330.347C937.529 331.016 937.863 331.796 938.197 332.465C938.42 333.133 938.754 333.913 939.089 334.582C939.089 334.582 939.089 334.582 939.2 334.582C939.2 334.582 939.312 334.582 939.312 334.471C939.312 333.691 939.312 332.91 939.2 332.13C939.2 331.573 938.977 330.793 938.754 330.013Z" fill="#2C2D36"/>
<path d="M939.089 287.438C939.089 287.438 931.512 285.654 929.841 277.518C928.17 269.382 933.741 272.837 928.727 260.132C923.602 247.315 924.716 244.417 926.498 240.739C928.281 237.061 929.172 238.175 930.732 243.079C932.292 247.872 937.863 255.451 939.98 269.605C942.208 283.76 939.089 287.438 939.089 287.438Z" fill="#34D399"/>
<path d="M954.018 273.729C954.018 273.729 949.004 271.945 948.782 262.472C948.559 252.998 952.458 254.893 953.016 243.079C953.573 231.265 954.353 222.906 956.47 222.683C958.586 222.46 964.269 228.479 966.163 241.63C968.057 254.782 963.6 263.475 959.812 267.376C955.912 271.388 954.018 273.729 954.018 273.729Z" fill="#34D399"/>
<path d="M936.414 298.917C936.414 298.917 935.3 291.896 932.96 288.664C930.621 285.32 925.607 282.422 922.264 276.069C918.922 269.717 915.245 266.596 915.468 275.735C915.69 284.874 919.702 289.444 924.715 292.564C929.841 295.574 936.414 298.917 936.414 298.917Z" fill="#34D399"/>
<path d="M934.186 310.842C934.186 310.842 929.506 301.926 922.71 295.351C915.913 288.775 910.454 285.431 912.459 288.775C914.354 292.118 916.693 291.895 920.036 297.691C923.378 303.487 922.376 307.722 927.055 311.065C931.735 314.409 934.186 310.842 934.186 310.842Z" fill="#34D399"/>
<path d="M933.628 322.323C933.406 321.765 933.294 317.53 926.609 313.964C920.035 310.509 913.796 311.846 914.576 313.629C915.356 315.412 919.367 318.31 923.489 319.982C927.612 321.765 933.628 322.323 933.628 322.323Z" fill="#34D399"/>
<path d="M953.573 299.251C953.573 299.251 950.676 295.573 952.236 287.772C953.795 279.97 957.249 281.976 961.149 277.852C965.049 273.729 964.269 273.171 968.168 268.936C972.068 264.701 975.522 262.36 977.082 264.144C978.642 265.927 976.302 271.277 973.962 274.397C971.622 277.518 967.946 279.078 966.163 282.868C964.38 286.769 965.16 292.899 960.703 295.796C956.358 298.917 953.573 299.251 953.573 299.251Z" fill="#34D399"/>
<path d="M963.267 301.369C963.267 301.369 970.286 293.456 975.3 287.661C980.314 281.865 982.319 277.407 982.431 281.308C982.653 285.209 984.213 288.329 980.091 293.345C976.08 298.249 963.267 301.369 963.267 301.369Z" fill="#34D399"/>
<path d="M959.589 314.186C959.589 314.186 959.366 311.066 970.397 303.933C981.427 296.8 986.107 295.462 984.881 298.36C983.767 301.258 978.865 304.156 973.628 309.394C968.503 314.521 959.589 314.186 959.589 314.186Z" fill="#34D399"/>
<path d="M939.534 286.657C939.534 286.657 936.972 272.726 934.186 262.918C931.512 252.998 929.729 246.98 929.729 246.98" stroke="#2C2D36" stroke-miterlimit="10" stroke-linecap="round" stroke-linejoin="round"/>
<path d="M954.003 274.135C954.003 274.135 958.682 259.089 960.242 249.95C961.802 240.811 960.02 234.012 959.24 230" stroke="#2C2D36" stroke-miterlimit="10" stroke-linecap="round" stroke-linejoin="round"/>
<path d="M935.746 298.583C935.746 298.583 932.849 293.456 928.615 288.44C924.381 283.425 921.039 280.639 919.145 275.846" stroke="#2C2D36" stroke-miterlimit="10" stroke-linecap="round" stroke-linejoin="round"/>
<path d="M953.572 299.252C953.572 299.252 955.132 290.001 958.809 285.097C962.486 280.305 969.839 272.726 972.736 267.822" stroke="#2C2D36" stroke-miterlimit="10" stroke-linecap="round" stroke-linejoin="round"/>
<path d="M933.183 322.099C933.183 322.099 926.721 317.864 922.041 315.523" stroke="#2C2D36" stroke-miterlimit="10" stroke-linecap="round" stroke-linejoin="round"/>
<path d="M970.509 361.108C970.063 349.406 957.027 341.604 957.027 341.604H948.782H945.328H936.972C936.972 341.604 923.936 349.406 923.49 361.22C923.044 372.922 938.309 416.055 938.309 416.055H945.217H948.671H955.579C955.69 416.055 970.954 372.922 970.509 361.108Z" fill="#2C2D36" stroke="#2C2D36" stroke-miterlimit="10" stroke-linecap="round" stroke-linejoin="round"/>
<path d="M959.59 330.013H934.075L936.972 341.604H956.693L959.59 330.013Z" fill="#2C2D36" stroke="#2C2D36" stroke-miterlimit="10" stroke-linecap="round" stroke-linejoin="round"/>
<g opacity="0.3">
<path d="M1613.5 38.7856H1518.02V161.607H1613.5V38.7856Z" stroke="#2C2D36" stroke-miterlimit="10" stroke-linecap="round" stroke-linejoin="round"/>
<path d="M1608.27 45.584H1523.25V154.919H1608.27V45.584Z" stroke="#2C2D36" stroke-miterlimit="10" stroke-linecap="round" stroke-linejoin="round"/>
<path d="M1586.99 73.002H1544.54V127.503H1586.99V73.002Z" stroke="#2C2D36" stroke-miterlimit="10" stroke-linecap="round" stroke-linejoin="round"/>
</g>
<g opacity="0.3">
<path d="M1078.92 38.7856H983.434V161.607H1078.92V38.7856Z" stroke="#2C2D36" stroke-miterlimit="10" stroke-linecap="round" stroke-linejoin="round"/>
<path d="M1073.68 45.584H988.67V154.919H1073.68V45.584Z" stroke="#2C2D36" stroke-miterlimit="10" stroke-linecap="round" stroke-linejoin="round"/>
<path d="M1052.4 73.002H1009.95V127.503H1052.4V73.002Z" stroke="#2C2D36" stroke-miterlimit="10" stroke-linecap="round" stroke-linejoin="round"/>
</g>
<path d="M1633.82 417.256H1702.67V176.741H1633.82V417.256Z" fill="white" stroke="#2C2D36" stroke-miterlimit="10" stroke-linecap="round" stroke-linejoin="round"/>
<path d="M1638.5 242.565H1698.66V184.61H1638.5V242.565Z" fill="white" stroke="#2C2D36" stroke-miterlimit="10" stroke-linecap="round" stroke-linejoin="round"/>
<path d="M1656.55 218.826H1680.61V208.238H1656.55V218.826Z" fill="#2C2D36"/>
<path d="M1638.5 310.091H1698.66V252.136H1638.5V310.091Z" fill="white" stroke="#2C2D36" stroke-miterlimit="10" stroke-linecap="round" stroke-linejoin="round"/>
<path d="M1656.55 286.463H1680.61V275.875H1656.55V286.463Z" fill="#2C2D36"/>
<path d="M1638.5 377.729H1698.66V319.773H1638.5V377.729Z" fill="white" stroke="#2C2D36" stroke-miterlimit="10" stroke-linecap="round" stroke-linejoin="round"/>
<path d="M1656.55 353.989H1680.61V343.401H1656.55V353.989Z" fill="#2C2D36"/>
<path d="M1479.13 415.943L1483.81 316.415" stroke="#2C2D36" stroke-width="4" stroke-miterlimit="10" stroke-linecap="round"/>
<path d="M1486.49 415.943L1492.73 284.874" stroke="#2C2D36" stroke-width="4" stroke-miterlimit="10" stroke-linecap="round"/>
<path d="M1572.84 415.943L1566.26 286.434" stroke="#2C2D36" stroke-width="4" stroke-miterlimit="10" stroke-linecap="round"/>
<path d="M1579.52 415.943L1574.84 316.415" stroke="#2C2D36" stroke-width="4" stroke-miterlimit="10" stroke-linecap="round"/>
<path d="M1565.59 289.778H1492.28C1489.49 289.778 1487.27 287.549 1487.27 284.762V219.005C1487.27 216.219 1489.49 213.99 1492.28 213.99H1565.59C1568.38 213.99 1570.61 216.219 1570.61 219.005V284.762C1570.61 287.549 1568.38 289.778 1565.59 289.778Z" fill="#C4C4C4" stroke="#2C2D36" stroke-miterlimit="10" stroke-linecap="round" stroke-linejoin="round"/>
<path d="M1579.97 322.322H1481.92C1479.36 322.322 1477.13 320.205 1477.13 317.53C1477.13 314.966 1479.24 312.737 1481.92 312.737H1579.97C1582.53 312.737 1584.76 314.855 1584.76 317.53C1584.65 320.205 1582.53 322.322 1579.97 322.322Z" fill="#C4C4C4" stroke="#2C2D36" stroke-miterlimit="10" stroke-linecap="round" stroke-linejoin="round"/>
<path d="M1559.47 259.24H1491.83V262.249H1559.47V259.24Z" fill="white" stroke="#2C2D36" stroke-miterlimit="10" stroke-linecap="round" stroke-linejoin="round"/>
<path d="M1504.43 190.919H1431.22V247.314H1504.43V190.919Z" fill="white" stroke="#2C2D36" stroke-miterlimit="10" stroke-linecap="round" stroke-linejoin="round"/>
<path d="M1502.53 190.919H1429.33V247.314H1502.53V190.919Z" fill="white" stroke="#2C2D36" stroke-miterlimit="10" stroke-linecap="round" stroke-linejoin="round"/>
<path d="M1482.03 259.017H1463.87L1458.85 261.803H1482.03V259.017Z" fill="#C7C7C7" stroke="#2C2D36" stroke-miterlimit="10" stroke-linecap="round" stroke-linejoin="round"/>
<path d="M1471.56 261.803H1453.84L1458.97 211.092H1476.68L1471.56 261.803Z" fill="#C7C7C7" stroke="#2C2D36" stroke-miterlimit="10" stroke-linecap="round" stroke-linejoin="round"/>
<path d="M1605.93 273.84L1617.85 415.385C1617.96 416.277 1618.85 416.834 1619.74 416.723C1620.52 416.5 1620.97 415.831 1620.86 415.051L1612.72 273.84H1605.93Z" fill="#2C2D36" stroke="#2C2D36" stroke-miterlimit="10" stroke-linecap="round" stroke-linejoin="round"/>
<path d="M1598.24 273.84L1610.16 415.831C1610.27 416.723 1611.16 417.28 1612.06 417.168C1612.84 416.946 1613.28 416.277 1613.17 415.497L1605.04 273.84H1598.24Z" fill="#2C2D36" stroke="#2C2D36" stroke-miterlimit="10" stroke-linecap="round" stroke-linejoin="round"/>
<path d="M1396.46 273.84L1390.22 414.159C1390.11 414.939 1390.67 415.608 1391.34 415.831C1392.23 416.054 1393.01 415.497 1393.23 414.605L1403.26 273.951H1396.46V273.84Z" fill="#2C2D36" stroke="#2C2D36" stroke-miterlimit="10" stroke-linecap="round" stroke-linejoin="round"/>
<path d="M1386.99 273.84L1380.75 413.713C1380.64 414.494 1381.2 415.162 1381.86 415.385C1382.76 415.608 1383.54 415.051 1383.76 414.159L1393.79 273.951H1386.99V273.84Z" fill="#2C2D36" stroke="#2C2D36" stroke-miterlimit="10" stroke-linecap="round" stroke-linejoin="round"/>
<path d="M1622.86 266.038H1382.53V278.186H1622.86V266.038Z" fill="white" stroke="#2C2D36" stroke-miterlimit="10" stroke-linecap="round" stroke-linejoin="round"/>
<path d="M1622.86 266.038H1382.53V270.162H1622.86V266.038Z" fill="#2C2D36" stroke="#2C2D36" stroke-miterlimit="10" stroke-linecap="round" stroke-linejoin="round"/>
<path d="M1626.54 262.026H1378.75V266.707H1626.54V262.026Z" fill="#9999FF" stroke="#2C2D36" stroke-miterlimit="10" stroke-linecap="round" stroke-linejoin="round"/>
<path d="M1079.7 415.943L1084.38 316.415" stroke="#2C2D36" stroke-width="4" stroke-miterlimit="10" stroke-linecap="round"/>
<path d="M1087.16 415.943L1093.4 284.874" stroke="#2C2D36" stroke-width="4" stroke-miterlimit="10" stroke-linecap="round"/>
<path d="M1173.51 415.943L1166.94 286.434" stroke="#2C2D36" stroke-width="4" stroke-miterlimit="10" stroke-linecap="round"/>
<path d="M1180.09 415.943L1175.52 316.415" stroke="#2C2D36" stroke-width="4" stroke-miterlimit="10" stroke-linecap="round"/>
<path d="M1166.27 289.778H1092.96C1090.17 289.778 1087.94 287.549 1087.94 284.762V219.005C1087.94 216.219 1090.17 213.99 1092.96 213.99H1166.27C1169.05 213.99 1171.28 216.219 1171.28 219.005V284.762C1171.28 287.549 1168.94 289.778 1166.27 289.778Z" fill="#C4C4C4" stroke="#2C2D36" stroke-miterlimit="10" stroke-linecap="round" stroke-linejoin="round"/>
<path d="M1180.53 322.322H1082.48C1079.92 322.322 1077.69 320.205 1077.69 317.53C1077.69 314.966 1079.81 312.737 1082.48 312.737H1180.53C1183.09 312.737 1185.32 314.855 1185.32 317.53C1185.32 320.205 1183.21 322.322 1180.53 322.322Z" fill="#C4C4C4" stroke="#2C2D36" stroke-miterlimit="10" stroke-linecap="round" stroke-linejoin="round"/>
<path d="M1160.03 259.24H1092.4V262.249H1160.03V259.24Z" fill="white" stroke="#2C2D36" stroke-miterlimit="10" stroke-linecap="round" stroke-linejoin="round"/>
<path d="M1104.99 190.919H1031.79V247.314H1104.99V190.919Z" fill="white" stroke="#2C2D36" stroke-miterlimit="10" stroke-linecap="round" stroke-linejoin="round"/>
<path d="M1103.21 190.919H1030.01V247.314H1103.21V190.919Z" fill="white" stroke="#2C2D36" stroke-miterlimit="10" stroke-linecap="round" stroke-linejoin="round"/>
<path d="M1082.71 259.017H1064.55L1059.42 261.803H1082.71V259.017Z" fill="#C7C7C7" stroke="#2C2D36" stroke-miterlimit="10" stroke-linecap="round" stroke-linejoin="round"/>
<path d="M1072.23 261.803H1054.52L1059.64 211.092H1077.36L1072.23 261.803Z" fill="#C7C7C7" stroke="#2C2D36" stroke-miterlimit="10" stroke-linecap="round" stroke-linejoin="round"/>
<path d="M1206.6 273.84L1218.53 415.385C1218.64 416.277 1219.53 416.834 1220.42 416.723C1221.2 416.5 1221.64 415.831 1221.53 415.051L1213.4 273.84H1206.6Z" fill="#2C2D36" stroke="#2C2D36" stroke-miterlimit="10" stroke-linecap="round" stroke-linejoin="round"/>
<path d="M1198.8 273.84L1210.73 415.831C1210.84 416.723 1211.73 417.28 1212.62 417.168C1213.4 416.946 1213.85 416.277 1213.73 415.497L1205.6 273.84H1198.8Z" fill="#2C2D36" stroke="#2C2D36" stroke-miterlimit="10" stroke-linecap="round" stroke-linejoin="round"/>
<path d="M997.137 273.84L990.898 414.159C990.787 414.939 991.344 415.608 992.012 415.831C992.904 416.054 993.684 415.497 993.906 414.605L1003.93 273.951H997.137V273.84Z" fill="#2C2D36" stroke="#2C2D36" stroke-miterlimit="10" stroke-linecap="round" stroke-linejoin="round"/>
<path d="M987.667 273.84L981.427 413.713C981.316 414.494 981.873 415.162 982.542 415.385C983.433 415.608 984.213 415.051 984.436 414.159L994.463 273.951H987.667V273.84Z" fill="#2C2D36" stroke="#2C2D36" stroke-miterlimit="10" stroke-linecap="round" stroke-linejoin="round"/>
<path d="M1223.54 266.038H983.21V278.186H1223.54V266.038Z" fill="white" stroke="#2C2D36" stroke-miterlimit="10" stroke-linecap="round" stroke-linejoin="round"/>
<path d="M1223.54 266.038H983.21V270.162H1223.54V266.038Z" fill="#2C2D36" stroke="#2C2D36" stroke-miterlimit="10" stroke-linecap="round" stroke-linejoin="round"/>
<path d="M1227.22 262.026H979.422V266.707H1227.22V262.026Z" fill="#9999FF" stroke="#2C2D36" stroke-miterlimit="10" stroke-linecap="round" stroke-linejoin="round"/>
<path d="M1428.1 203.959L1433.23 181.668L1436.24 194.151L1428.1 203.959Z" fill="#2C2D36" stroke="#2C2D36" stroke-miterlimit="10" stroke-linecap="round" stroke-linejoin="round"/>
<path d="M1436.24 194.151L1428.1 203.959L1444.93 217.779L1436.24 194.151Z" fill="#9999FF" stroke="#2C2D36" stroke-miterlimit="10" stroke-linecap="round" stroke-linejoin="round"/>
<path d="M1398.69 124.604C1398.69 124.604 1382.42 125.273 1376.29 133.298C1370.17 141.322 1369.94 146.338 1370.84 153.582C1371.73 160.715 1375.63 162.721 1375.63 162.721C1375.63 162.721 1378.08 171.415 1381.2 174.312C1384.21 177.099 1389.33 177.99 1390.22 180.331C1390.78 182.003 1391.34 185.569 1392.56 187.018C1393.79 188.467 1397.02 188.578 1398.13 187.018C1398.13 187.018 1408.83 191.699 1412.28 189.024C1415.74 186.461 1418.19 178.993 1418.19 178.993C1418.19 178.993 1423.42 179.885 1426.43 179.885C1429.44 179.885 1433.34 181.668 1433.34 181.668C1433.34 181.668 1430.33 169.074 1429 162.498C1427.66 155.923 1423.76 141.991 1419.64 134.189C1415.4 126.388 1405.38 123.378 1398.69 124.604Z" fill="white" stroke="#2C2D36" stroke-miterlimit="10" stroke-linecap="round" stroke-linejoin="round"/>
<path d="M1379.97 165.061C1381.75 163.724 1382.53 159.377 1385.21 159.154C1387.77 158.932 1392.12 163.278 1400.7 163.055C1409.16 162.832 1410.95 159.6 1410.95 159.6C1410.95 159.6 1412.28 160.715 1413.51 158.04C1414.85 155.477 1413.73 151.687 1417.19 151.13C1420.64 150.461 1423.31 158.263 1423.31 160.269C1423.31 161.718 1426.32 162.275 1428.77 161.606C1427.32 154.808 1423.54 141.656 1419.64 134.078C1415.51 126.276 1405.49 123.155 1398.8 124.493C1398.8 124.493 1382.53 125.161 1376.41 133.186C1370.28 141.211 1370.06 146.226 1370.95 153.47C1371.84 160.603 1375.74 162.61 1375.74 162.61C1375.74 162.61 1378.19 166.399 1379.97 165.061Z" fill="#2C2D36" stroke="#2C2D36" stroke-miterlimit="10" stroke-linecap="round" stroke-linejoin="round"/>
<path d="M1391 175.761C1391 175.761 1395.12 170.969 1399.47 170.746" stroke="#2C2D36" stroke-miterlimit="10" stroke-linecap="round" stroke-linejoin="round"/>
<path d="M1395.35 176.876C1395.35 176.876 1399.02 177.991 1401.03 172.307" stroke="#2C2D36" stroke-miterlimit="10" stroke-linecap="round" stroke-linejoin="round"/>
<path d="M1401.25 185.792C1401.25 185.792 1403.59 186.015 1405.6 182.783" stroke="#2C2D36" stroke-miterlimit="10" stroke-linecap="round" stroke-linejoin="round"/>
<path d="M1423.2 160.27C1423.2 160.27 1423.42 164.616 1420.97 165.508Z" fill="white"/>
<path d="M1423.2 160.27C1423.2 160.27 1423.42 164.616 1420.97 165.508" stroke="#2C2D36" stroke-miterlimit="10" stroke-linecap="round" stroke-linejoin="round"/>
<path d="M1374.62 502.319L1281.48 477.019L1313.9 466.877L1407.05 492.288L1374.62 502.319Z" fill="white" stroke="#2C2D36" stroke-miterlimit="10" stroke-linecap="round" stroke-linejoin="round"/>
<path d="M1367.16 497.972L1297.08 478.914L1321.48 471.335L1391.56 490.393L1367.16 497.972Z" fill="#9999FF" stroke="#2C2D36" stroke-miterlimit="10" stroke-linecap="round" stroke-linejoin="round"/>
<path d="M1340.31 483.818C1339.64 483.818 1338.86 483.595 1338.19 483.149C1336.52 482.034 1336.07 479.694 1337.19 478.022L1494.73 248.094C1495.85 246.423 1498.19 245.977 1499.86 247.091C1501.53 248.206 1501.97 250.546 1500.86 252.218L1343.31 482.257C1342.65 483.26 1341.42 483.818 1340.31 483.818Z" fill="white" stroke="#2C2D36" stroke-miterlimit="10" stroke-linecap="round" stroke-linejoin="round"/>
<path d="M1337.3 478.022C1336.18 479.694 1336.63 481.923 1338.3 483.149C1338.97 483.595 1339.64 483.817 1340.42 483.817C1341.53 483.817 1342.76 483.26 1343.43 482.257L1370.72 442.357L1363.26 440.239L1337.3 478.022Z" fill="#2C2D36" stroke="#2C2D36" stroke-miterlimit="10" stroke-linecap="round" stroke-linejoin="round"/>
<path d="M1486.82 278.298C1486.82 278.298 1489.27 276.292 1489.5 274.732C1489.72 273.171 1488.72 269.716 1487.94 269.828C1487.16 269.939 1487.04 272.391 1487.04 272.391C1487.04 272.391 1487.71 273.952 1487.6 275.4" fill="#9999FF"/>
<path d="M1486.82 278.298C1486.82 278.298 1489.27 276.292 1489.5 274.732C1489.72 273.171 1488.72 269.716 1487.94 269.828C1487.16 269.939 1487.04 272.391 1487.04 272.391C1487.04 272.391 1487.71 273.952 1487.6 275.4" stroke="#2C2D36" stroke-miterlimit="10" stroke-linecap="round" stroke-linejoin="round"/>
<path d="M1477.35 286.1C1477.35 286.1 1479.69 285.654 1480.69 285.431C1481.7 285.208 1484.7 281.642 1484.7 279.636C1484.7 277.629 1483.37 277.295 1482.48 278.633C1481.47 279.859 1477.35 286.1 1477.35 286.1Z" fill="#9999FF" stroke="#2C2D36" stroke-miterlimit="10" stroke-linecap="round" stroke-linejoin="round"/>
<path d="M1483.81 282.088C1483.81 282.088 1486.38 279.859 1486.82 278.41C1487.27 276.849 1488.16 272.503 1486.93 272.503C1485.71 272.503 1485.15 271.5 1484.7 273.394C1484.37 275.289 1484.04 277.518 1484.04 277.518C1484.04 277.518 1483.48 281.196 1483.81 282.088Z" fill="#9999FF" stroke="#2C2D36" stroke-miterlimit="10" stroke-linecap="round" stroke-linejoin="round"/>
<path d="M1445.82 236.837L1441.81 268.713C1441.81 268.713 1439.02 280.081 1437.57 286.211C1436.01 292.341 1430.89 310.731 1430.89 310.731L1447.16 311.622L1462.2 269.047L1465.88 237.172L1445.82 236.837Z" fill="white" stroke="#2C2D36" stroke-miterlimit="10" stroke-linecap="round" stroke-linejoin="round"/>
<path d="M1431.11 300.812L1454.06 311.4L1439.69 333.579C1439.69 333.579 1442.25 343.387 1442.25 344.724C1442.25 346.061 1441.59 346.842 1440.81 347.287C1440.03 347.733 1439.13 348.291 1439.13 348.736C1439.13 349.182 1439.58 351.857 1438.69 352.972C1437.69 354.086 1434.79 354.309 1434.79 354.309C1434.79 354.309 1437.24 357.875 1434.12 359.882C1431 361.888 1428.55 356.315 1427.44 357.318C1426.32 358.321 1426.77 369.244 1425.43 370.693C1424.09 372.142 1421.98 370.581 1421.86 369.244C1421.75 367.906 1420.42 356.984 1420.42 354.086C1420.42 351.188 1422.09 333.356 1423.54 328.675C1425.1 323.771 1431.11 300.812 1431.11 300.812Z" fill="#9999FF" stroke="#2C2D36" stroke-miterlimit="10" stroke-linecap="round" stroke-linejoin="round"/>
<path d="M1491.39 376.488L1497.74 463.533C1497.74 463.533 1485.15 471.335 1480.36 474.01C1475.57 476.685 1467.21 479.137 1466.21 481.254C1465.32 483.372 1465.99 488.387 1474.34 489.836C1482.7 491.174 1497.07 489.056 1497.07 489.056C1497.07 489.056 1513.56 493.514 1516.9 492.622C1520.25 491.731 1520.8 486.047 1521.14 482.369C1521.47 478.802 1517.24 457.515 1517.24 457.515C1517.24 457.515 1522.36 396.884 1520.8 386.742C1519.36 376.488 1517.8 355.201 1517.8 355.201L1519.91 341.715L1488.38 340.266L1491.39 376.488Z" fill="#2C2D36" stroke="#2C2D36" stroke-miterlimit="10" stroke-linecap="round" stroke-linejoin="round"/>
<path d="M1517.24 457.515C1517.24 457.515 1517.24 456.958 1517.35 456.066C1509.88 458.964 1501.53 457.849 1497.29 456.958L1497.74 463.422C1497.74 463.422 1485.15 471.224 1480.36 473.898C1475.57 476.573 1467.21 479.025 1466.21 481.143C1465.32 483.26 1465.99 488.276 1474.34 489.725C1482.7 491.062 1497.07 488.945 1497.07 488.945C1497.07 488.945 1513.56 493.403 1516.9 492.511C1520.25 491.619 1520.8 485.935 1521.14 482.257C1521.36 478.802 1517.24 457.515 1517.24 457.515Z" fill="white" stroke="#2C2D36" stroke-miterlimit="10" stroke-linecap="round" stroke-linejoin="round"/>
<path d="M1517.24 457.515C1517.24 457.515 1517.24 456.958 1517.35 456.066C1509.88 458.964 1501.53 457.849 1497.29 456.958L1497.74 463.422C1497.74 463.422 1485.15 471.224 1480.36 473.898C1475.57 476.573 1467.21 479.025 1466.21 481.143C1465.32 483.26 1465.99 488.276 1474.34 489.725C1482.7 491.062 1497.07 488.945 1497.07 488.945C1497.07 488.945 1513.56 493.403 1516.9 492.511C1520.25 491.619 1520.8 485.935 1521.14 482.257C1521.36 478.802 1517.24 457.515 1517.24 457.515Z" fill="white" stroke="#2C2D36" stroke-miterlimit="10" stroke-linecap="round" stroke-linejoin="round"/>
<path d="M1517.24 457.515C1517.24 457.515 1517.24 456.958 1517.35 456.066C1509.88 458.964 1501.53 457.849 1497.29 456.958L1497.74 463.422C1497.74 463.422 1485.15 471.224 1480.36 473.898C1475.57 476.573 1467.21 479.025 1466.21 481.143C1465.32 483.26 1465.99 488.276 1474.34 489.725C1482.7 491.062 1497.07 488.945 1497.07 488.945C1497.07 488.945 1513.56 493.403 1516.9 492.511C1520.25 491.619 1520.8 485.935 1521.14 482.257C1521.36 478.802 1517.24 457.515 1517.24 457.515Z" fill="white" stroke="#2C2D36" stroke-miterlimit="10" stroke-linecap="round" stroke-linejoin="round"/>
<path d="M1491.39 467.323C1487.49 469.663 1482.81 472.561 1480.25 474.01C1475.46 476.685 1467.1 479.137 1466.1 481.254C1465.21 483.372 1465.87 488.387 1474.23 489.836C1482.59 491.174 1496.96 489.056 1496.96 489.056C1496.96 489.056 1513.45 493.514 1516.79 492.623C1520.14 491.731 1520.69 486.047 1521.03 482.369C1521.14 480.809 1520.47 476.128 1519.69 471.224C1516.68 472.227 1512.45 473.564 1507.32 474.567C1499.3 476.128 1493.73 470.443 1491.39 467.323Z" fill="white" stroke="#2C2D36" stroke-miterlimit="10" stroke-linecap="round" stroke-linejoin="round"/>
<path d="M1516.9 492.622C1518.91 492.065 1519.91 489.836 1520.47 487.384C1516.12 489.167 1508.1 487.496 1503.42 486.381C1498.63 485.155 1494.73 486.938 1479.69 487.607C1473.01 487.83 1468.88 486.715 1466.43 485.378C1467.43 487.273 1469.66 489.167 1474.23 489.948C1482.59 491.285 1496.96 489.167 1496.96 489.167C1496.96 489.167 1513.56 493.514 1516.9 492.622Z" fill="#9999FF" stroke="#2C2D36" stroke-miterlimit="10" stroke-linecap="round" stroke-linejoin="round"/>
<path d="M1553.78 246.311C1553.78 246.311 1559.13 263.698 1557.13 273.952C1555.01 284.205 1499.86 363.337 1499.86 363.337C1499.86 363.337 1494.73 399.671 1489.38 420.29C1484.04 441.02 1474.68 460.747 1474.12 466.543C1473.56 472.227 1474.68 490.282 1474.45 493.514C1474.12 496.858 1450.72 500.759 1441.47 502.765C1432.23 504.882 1411.84 500.09 1411.84 496.189C1411.84 492.288 1431.34 486.27 1437.02 482.035C1445.04 476.128 1457.74 458.741 1457.41 455.62C1457.07 452.165 1467.32 388.08 1467.32 379.386C1467.32 370.693 1468.21 358.433 1469.77 354.532C1471.22 350.631 1477.24 334.136 1477.24 334.136C1477.24 334.136 1511.78 270.274 1512.34 253.444C1512.89 236.615 1517.46 237.841 1521.92 236.615C1526.15 235.5 1548.44 238.844 1553.78 246.311Z" fill="#2C2D36" stroke="#2C2D36" stroke-miterlimit="10" stroke-linecap="round" stroke-linejoin="round"/>
<path d="M1542.09 217.556C1542.09 217.556 1555.01 243.971 1555.01 248.763C1555.01 253.555 1545.43 257.791 1545.43 257.791L1532.28 218.782L1542.09 217.556Z" fill="white" stroke="#2C2D36" stroke-miterlimit="10" stroke-linecap="round" stroke-linejoin="round"/>
<path d="M1476.24 458.852C1467.66 459.075 1461.2 457.069 1457.18 455.397C1457.18 455.508 1457.18 455.62 1457.18 455.62C1457.52 458.741 1444.82 476.127 1436.79 482.034C1431.11 486.158 1411.61 492.288 1411.61 496.189C1411.61 500.09 1432 504.882 1441.25 502.765C1450.5 500.647 1473.9 496.746 1474.23 493.514C1474.57 490.17 1473.34 472.226 1473.9 466.542C1474.12 464.982 1475.01 462.307 1476.24 458.852Z" fill="white" stroke="#2C2D36" stroke-miterlimit="10" stroke-linecap="round" stroke-linejoin="round"/>
<path d="M1474.34 493.514C1474.57 491.619 1474.23 484.821 1474.01 478.245C1470.55 480.362 1466.54 482.146 1462.98 481.477C1455.18 480.028 1456.4 476.684 1454.29 474.01C1452.84 472.115 1449.61 471.446 1447.6 471.112C1444.04 475.458 1440.03 479.694 1436.79 482.034C1431.11 486.158 1411.61 492.288 1411.61 496.189C1411.61 500.09 1432 504.882 1441.25 502.764C1450.61 500.758 1474.01 496.857 1474.34 493.514Z" fill="white" stroke="#2C2D36" stroke-miterlimit="10" stroke-linecap="round" stroke-linejoin="round"/>
<path d="M1474.34 493.514C1474.45 492.845 1474.45 491.508 1474.34 489.725C1466.77 492.845 1451.5 498.307 1435.68 498.864C1419.52 499.532 1414.4 496.3 1412.73 494.406C1412.06 494.963 1411.73 495.632 1411.73 496.189C1411.73 500.09 1432.12 504.882 1441.36 502.765C1450.61 500.758 1474.01 496.858 1474.34 493.514Z" fill="#9999FF" stroke="#2C2D36" stroke-miterlimit="10" stroke-linecap="round" stroke-linejoin="round"/>
<path d="M1478.24 236.392L1471.67 267.598C1471.67 267.598 1466.32 277.518 1467.43 278.744C1468.66 279.97 1472.89 282.199 1472.89 282.199L1482.14 270.496L1491.72 249.32L1478.24 236.392Z" fill="#9999FF" stroke="#2C2D36" stroke-miterlimit="10" stroke-linecap="round" stroke-linejoin="round"/>
<path d="M1474.34 267.599C1474.34 267.599 1472.89 275.4 1471 278.075C1469.22 280.75 1465.87 283.425 1468.88 284.428C1471.89 285.32 1478.13 276.626 1479.69 274.174C1481.14 271.722 1481.81 264.924 1481.81 264.924" fill="#9999FF"/>
<path d="M1474.34 267.599C1474.34 267.599 1472.89 275.4 1471 278.075C1469.22 280.75 1465.87 283.425 1468.88 284.428C1471.89 285.32 1478.13 276.626 1479.69 274.174C1481.14 271.722 1481.81 264.924 1481.81 264.924" stroke="#2C2D36" stroke-miterlimit="10" stroke-linecap="round" stroke-linejoin="round"/>
<path d="M1472.56 229.816C1472.56 229.816 1483.03 242.967 1486.71 248.986C1490.28 255.004 1492.39 269.047 1491.17 279.301C1489.94 289.555 1475.01 339.04 1475.01 339.04C1475.01 339.04 1486.71 344.724 1505.87 346.284C1525.04 347.733 1542.2 348.402 1542.2 348.402C1542.2 348.402 1552.45 279.078 1550.55 260.8C1548.77 242.521 1539.74 220.565 1539.74 220.565L1542.2 217.556L1540.3 215.55L1479.02 218.782L1472.56 229.816Z" fill="#9999FF" stroke="#2C2D36" stroke-miterlimit="10" stroke-linecap="round" stroke-linejoin="round"/>
<path d="M1532.5 244.862C1534.29 244.416 1536.07 243.859 1537.96 243.302" stroke="#2C2D36" stroke-miterlimit="10" stroke-linecap="round" stroke-linejoin="round"/>
<path d="M1499.08 249.654C1499.08 249.654 1511.11 249.766 1527.38 246.088" stroke="#2C2D36" stroke-miterlimit="10" stroke-linecap="round" stroke-linejoin="round"/>
<path d="M1491.72 249.32C1491.72 249.32 1496.07 254.336 1514.12 257.568" stroke="#2C2D36" stroke-miterlimit="10" stroke-linecap="round" stroke-linejoin="round"/>
<path d="M1537.18 220.677L1528.05 227.364" stroke="#2C2D36" stroke-miterlimit="10" stroke-linecap="round" stroke-linejoin="round"/>
<path d="M1535.96 225.023L1528.38 234.163" stroke="#2C2D36" stroke-miterlimit="10" stroke-linecap="round" stroke-linejoin="round"/>
<path d="M1495.07 261.58C1495.07 261.58 1502.98 274.286 1510.89 278.632" stroke="#2C2D36" stroke-miterlimit="10" stroke-linecap="round" stroke-linejoin="round"/>
<path d="M1540.19 215.438C1540.19 215.438 1541.19 204.293 1543.64 204.293C1546.1 204.293 1551.78 210.646 1550.22 211.203C1548.77 211.76 1542.75 215.438 1542.75 215.438L1559.24 236.726L1553.89 241.853L1540.19 215.438Z" fill="#9999FF" stroke="#2C2D36" stroke-miterlimit="10" stroke-linecap="round" stroke-linejoin="round"/>
<path d="M1433.23 181.668C1433.23 181.668 1436.13 197.606 1439.47 206.968C1442.81 216.219 1443.15 240.627 1443.15 240.627L1473.34 241.853L1479.24 220.677L1540.19 215.439C1540.19 215.439 1511.67 181.78 1493.95 166.734C1476.24 151.688 1437.57 149.013 1433.34 149.57C1429.11 150.127 1425.43 152.579 1425.43 152.579L1433.23 181.668Z" fill="white" stroke="#2C2D36" stroke-miterlimit="10" stroke-linecap="round" stroke-linejoin="round"/>
<path d="M1479.25 220.677L1485.6 203.625L1482.03 241.741L1475.68 234.163L1479.25 220.677Z" fill="#2C2D36" stroke="#2C2D36" stroke-miterlimit="10" stroke-linecap="round" stroke-linejoin="round"/>
<path d="M1403.04 123.936C1403.04 123.936 1405.26 117.137 1411.5 113.905C1417.85 110.673 1428.22 113.236 1431.78 117.583C1435.24 121.929 1437.24 127.614 1440.25 129.731C1443.26 131.96 1449.39 126.053 1454.84 128.84C1460.3 131.626 1462.42 137.979 1462.87 140.988C1463.31 143.997 1470.22 135.973 1479.13 140.096C1488.05 144.22 1489.61 157.037 1487.6 160.938C1485.6 164.839 1476.46 171.192 1465.88 163.501C1455.29 155.811 1448.49 149.793 1446.71 151.799C1444.93 153.805 1444.93 163.724 1437.57 158.598C1430.22 153.359 1423.2 135.081 1418.41 129.62C1413.62 124.159 1406.93 124.159 1406.93 124.159L1403.04 123.936Z" fill="#2C2D36" stroke="#2C2D36" stroke-miterlimit="10" stroke-linecap="round" stroke-linejoin="round"/>
<path d="M1428.44 150.907C1428.44 150.907 1437.13 168.294 1438.35 174.87C1439.58 181.445 1436.24 194.04 1436.24 194.04L1425.32 152.579L1428.44 150.907Z" fill="#9999FF" stroke="#2C2D36" stroke-miterlimit="10" stroke-linecap="round" stroke-linejoin="round"/>
<path d="M1266.99 110.673C1266.99 110.673 1264.43 116.803 1264.99 119.143C1265.54 121.372 1265.32 123.602 1264.1 125.05C1262.98 126.499 1261.87 127.837 1262.98 128.951C1264.1 130.066 1264.1 130.066 1264.1 130.066C1264.1 130.066 1265.21 139.316 1266.66 140.765C1268.11 142.214 1271.67 142.214 1271.67 142.214L1272.01 149.236C1272.01 149.236 1278.8 148.344 1282.7 148.901C1286.6 149.459 1291.73 149.459 1291.73 149.459C1291.73 149.459 1290.06 142.994 1290.61 138.202C1291.17 133.409 1293.4 124.716 1291.5 119.701C1289.5 114.685 1278.91 109.001 1275.24 109.558C1271.45 110.116 1266.99 110.673 1266.99 110.673Z" fill="white" stroke="#2C2D36" stroke-miterlimit="10" stroke-linecap="round" stroke-linejoin="round"/>
<path d="M1277.35 102.871C1277.35 102.871 1274.23 102.537 1272.34 101.422C1270.33 100.308 1266.44 99.9734 1267.55 102.314C1268.66 104.543 1269.55 107.329 1269.55 107.329C1269.55 107.329 1262.54 103.986 1263.98 106.438C1265.43 109.001 1267.1 110.673 1267.1 110.673C1267.1 110.673 1267.44 118.029 1269.11 118.809C1270.78 119.701 1270 122.153 1269.67 124.382C1269.33 126.611 1269.67 128.617 1270.78 128.617C1271.89 128.617 1271.89 128.617 1271.89 128.617C1271.89 128.617 1273.57 126.388 1275.01 129.508C1276.46 132.629 1276.69 134.858 1277.02 137.087C1277.35 139.316 1281.81 141.322 1284.6 141.545C1287.38 141.88 1290.72 140.988 1291.39 140.097C1292.06 139.205 1296.96 132.518 1298.75 126.053C1300.42 119.589 1298.75 111.453 1295.4 108.109C1292.06 104.766 1285.82 102.537 1285.82 102.537C1285.82 102.537 1280.47 95.7382 1279.36 97.7443C1278.25 99.7505 1277.35 102.871 1277.35 102.871Z" fill="#2C2D36" stroke="#2C2D36" stroke-miterlimit="10" stroke-linecap="round" stroke-linejoin="round"/>
<path d="M1186.07 132.726L1184.7 133.192L1192.91 157.357L1194.28 156.891L1186.07 132.726Z" fill="white" stroke="#2C2D36" stroke-miterlimit="10" stroke-linecap="round" stroke-linejoin="round"/>
<path d="M1192.01 134.078L1180.75 137.867C1177.86 138.87 1174.63 137.31 1173.74 134.412L1162.04 91.1686C1161.26 88.9395 1162.48 86.599 1164.6 85.8188L1173.07 82.9211C1175.29 82.1409 1177.63 83.3669 1178.41 85.4845L1195.46 126.834C1196.46 129.843 1194.9 133.075 1192.01 134.078Z" fill="#CCCCFF" stroke="#2C2D36" stroke-miterlimit="10" stroke-linecap="round" stroke-linejoin="round"/>
<path d="M1197.91 171.526L1201.81 171.303L1199.03 166.399C1199.03 166.287 1197.25 168.962 1197.91 171.526Z" fill="white" stroke="#2C2D36" stroke-miterlimit="10" stroke-linecap="round" stroke-linejoin="round"/>
<path d="M1231.34 162.164L1217.86 164.95L1197.36 155.143L1193.68 159.935C1193.68 159.935 1204.6 177.322 1207.72 178.994C1210.84 180.665 1237.47 179.328 1237.47 179.328L1231.34 162.164Z" fill="white" stroke="#2C2D36" stroke-miterlimit="10" stroke-linecap="round" stroke-linejoin="round"/>
<path d="M1191.12 147.787C1191.12 147.787 1185.66 144.889 1184.99 145C1184.32 145.112 1183.43 145.669 1183.65 146.783C1183.87 147.898 1184.32 149.124 1184.32 149.124C1184.32 149.124 1182.2 155.477 1182.76 157.149C1183.32 158.709 1185.55 161.384 1186.88 161.941C1188.22 162.498 1190.11 162.833 1190.11 162.833L1197.91 171.526C1197.91 171.526 1199.47 166.511 1201.37 164.393C1203.26 162.275 1206.6 159.601 1206.6 159.601C1206.6 159.601 1200.48 154.251 1200.14 154.028C1199.7 153.805 1198.58 151.242 1198.02 150.127C1197.47 149.013 1196.02 148.567 1194.35 147.452C1192.57 146.338 1192.23 145.892 1191.56 146.226C1190.78 146.561 1191.12 147.787 1191.12 147.787Z" fill="#9999FF" stroke="#2C2D36" stroke-miterlimit="10" stroke-linecap="round" stroke-linejoin="round"/>
<path d="M1300.53 403.46C1300.53 403.46 1300.31 413.268 1300.97 414.383C1301.64 415.608 1306.21 416.277 1309.55 415.609C1312.9 414.94 1314.57 414.16 1314.57 412.488C1314.57 410.816 1313.12 397.219 1313.12 397.219L1299.97 398.222L1300.53 403.46Z" fill="white" stroke="#2C2D36" stroke-miterlimit="10" stroke-linecap="round" stroke-linejoin="round"/>
<path d="M1309.55 415.608C1312.9 414.94 1314.57 414.16 1314.57 412.488C1314.57 412.265 1314.57 411.819 1314.46 411.262C1308.55 413.714 1303.2 412.711 1300.53 411.93C1300.64 413.156 1300.75 414.048 1300.86 414.382C1301.64 415.608 1306.21 416.389 1309.55 415.608Z" fill="#9999FF" stroke="#2C2D36" stroke-miterlimit="10" stroke-linecap="round" stroke-linejoin="round"/>
<path d="M1246.83 403.46C1246.83 403.46 1241.37 406.135 1238.02 407.472C1234.68 408.921 1224.88 411.262 1224.21 412.488C1223.54 413.714 1223.76 416.723 1224.65 417.726C1225.66 418.729 1258.97 420.624 1262.98 420.066C1266.99 419.621 1268.89 418.84 1268.89 416.723C1268.89 414.605 1268.89 408.81 1268.89 408.81L1246.83 403.46Z" fill="white" stroke="#2C2D36" stroke-miterlimit="10" stroke-linecap="round" stroke-linejoin="round"/>
<path d="M1269 416.834C1269 416.388 1269 415.831 1269 415.162C1266.55 416.723 1263.09 417.837 1263.09 417.837L1223.87 415.051C1223.99 416.165 1224.21 417.28 1224.77 417.837C1225.77 418.84 1259.08 420.735 1263.09 420.178C1267.1 419.732 1269 418.952 1269 416.834Z" fill="#9999FF" stroke="#2C2D36" stroke-miterlimit="10" stroke-linecap="round" stroke-linejoin="round"/>
<path d="M1323.04 181.557L1329.72 230.262L1325.26 257.791L1317.8 258.348L1316.68 225.804L1310.22 191.031L1323.04 181.557Z" fill="white" stroke="#2C2D36" stroke-miterlimit="10" stroke-linecap="round" stroke-linejoin="round"/>
<path d="M1314.46 252.776L1328.05 254.671L1324.71 275.512C1324.71 275.512 1326.04 283.314 1325.26 285.543C1324.48 287.772 1321.36 291.116 1319.14 292.453C1316.91 293.791 1314.68 295.797 1313.34 293.01C1312.01 290.224 1309.44 278.299 1310 276.627C1310.56 274.955 1313.34 268.045 1313.34 268.045L1314.46 252.776Z" fill="#9999FF" stroke="#2C2D36" stroke-miterlimit="10" stroke-linecap="round" stroke-linejoin="round"/>
<path d="M1318.36 273.283C1318.36 273.283 1317.58 279.636 1318.36 281.085C1319.14 282.422 1320.58 284.429 1320.58 284.429L1317.02 290.001" stroke="#2C2D36" stroke-miterlimit="10" stroke-linecap="round" stroke-linejoin="round"/>
<path d="M1253.06 261.914L1255.74 345.058L1252.62 398.444L1247.38 400.562L1246.94 403.46C1246.94 403.46 1257.41 408.921 1260.53 409.701C1263.65 410.37 1268.44 411.15 1268.44 411.15C1268.44 411.15 1273.45 380.612 1273.9 378.049C1274.35 375.374 1277.69 337.257 1277.69 337.257L1282.92 298.137L1286.94 297.468L1295.51 348.959L1300.53 403.571C1300.53 403.571 1301.2 405.02 1305.77 405.689C1310.33 406.358 1313.34 405.02 1313.34 405.02L1313.56 385.182L1315.01 331.35L1311.22 259.797L1253.06 261.914Z" fill="#2C2D36" stroke="#2C2D36" stroke-miterlimit="10" stroke-linecap="round" stroke-linejoin="round"/>
<path d="M1304.54 233.271L1311.23 259.686C1311.23 259.686 1301.2 262.806 1280.47 264.255C1259.75 265.704 1253.07 261.915 1253.07 261.915L1257.08 226.918C1257.08 226.918 1276.13 232.825 1288.72 232.157C1301.31 231.488 1303.2 231.488 1303.2 231.488L1304.54 233.271Z" fill="white" stroke="#2C2D36" stroke-miterlimit="10" stroke-linecap="round" stroke-linejoin="round"/>
<path d="M1251.28 220.008C1251.28 220.008 1247.83 266.15 1247.83 274.286C1247.83 282.422 1248.5 304.601 1248.5 304.601L1254.18 307.722C1254.18 307.722 1255.4 268.156 1256.85 257.456C1258.3 246.757 1261.87 231.488 1261.87 231.488C1261.87 231.488 1285.93 234.163 1288.61 234.163C1291.28 234.163 1302.65 233.16 1302.65 233.16L1304.54 233.383L1304.43 226.027C1304.43 226.027 1286.27 226.918 1273.34 224.355C1260.53 221.68 1250.28 216.999 1250.28 216.999L1251.28 220.008Z" fill="#9999FF" stroke="#2C2D36" stroke-miterlimit="10" stroke-linecap="round" stroke-linejoin="round"/>
<path d="M1285.93 233.048C1285.93 233.048 1276.35 228.813 1275.68 229.928C1275.01 231.154 1273.34 236.615 1274.46 237.061C1275.68 237.506 1284.04 235.835 1284.04 235.835C1284.04 235.835 1283.04 243.19 1283.59 251.772C1284.04 260.354 1285.04 272.726 1285.04 272.726L1290.06 271.5C1290.06 271.5 1288.38 250.769 1287.94 248.429C1287.49 246.088 1288.38 237.172 1288.38 237.172C1288.38 237.172 1290.5 245.085 1291.28 246.757C1291.95 248.429 1293.18 266.596 1293.18 266.596L1298.19 265.927C1298.19 265.927 1296.96 251.104 1295.29 247.314C1293.62 243.525 1291.06 238.064 1291.06 238.064C1291.06 238.064 1293.73 239.513 1294.4 239.735C1295.07 239.958 1297.74 242.633 1297.74 242.633C1297.74 242.633 1298.97 237.395 1298.41 235.5C1297.97 233.606 1297.41 233.828 1294.62 233.383C1291.62 232.825 1285.93 233.048 1285.93 233.048Z" fill="#9999FF" stroke="#2C2D36" stroke-miterlimit="10" stroke-linecap="round" stroke-linejoin="round"/>
<path d="M1272.12 149.236L1246.05 153.471L1231.45 162.164L1238.47 181.78L1248.61 180.331C1248.61 180.331 1249.17 217.111 1251.39 220.008C1253.62 222.795 1265.77 227.364 1274.12 228.144C1282.59 229.036 1297.74 230.151 1300.2 229.816C1302.76 229.482 1303.54 227.81 1304.43 225.915C1305.32 223.909 1310.56 202.622 1310.56 202.622L1314.46 191.142L1327.72 185.235C1327.72 185.235 1320.92 167.514 1318.47 164.95C1315.91 162.387 1296.3 151.688 1295.4 150.907C1294.51 150.016 1291.73 149.459 1291.73 149.459C1291.73 149.459 1277.35 146.672 1272.12 149.236Z" fill="white" stroke="#2C2D36" stroke-miterlimit="10" stroke-linecap="round" stroke-linejoin="round"/>
<path d="M1268.11 160.492C1268.11 160.492 1271.45 168.405 1275.68 177.322" stroke="#2C2D36" stroke-miterlimit="10" stroke-linecap="round" stroke-linejoin="round"/>
<path d="M1274.35 168.294C1274.35 168.294 1280.81 180.665 1283.59 183.786" stroke="#2C2D36" stroke-miterlimit="10" stroke-linecap="round" stroke-linejoin="round"/>
<path d="M1314.46 191.03L1317.24 178.659" stroke="#2C2D36" stroke-miterlimit="10" stroke-linecap="round" stroke-linejoin="round"/>
<path d="M1248.5 180.442L1246.83 170.523" stroke="#2C2D36" stroke-miterlimit="10" stroke-linecap="round" stroke-linejoin="round"/>
<path d="M1584.09 443.583C1582.2 441.131 1580.75 440.909 1580.75 440.909L1573.5 426.643L1572.72 425.082L1566.49 412.711C1566.49 412.711 1567.15 411.373 1566.37 408.364C1565.59 405.355 1562.25 403.126 1562.25 403.126L1553.9 406.47L1546.32 411.151C1546.32 411.151 1546.21 415.163 1548.1 417.615C1550 420.067 1551.44 420.29 1551.44 420.29L1557.68 432.661L1558.46 434.221L1565.71 448.487C1565.71 448.487 1565.04 449.825 1565.82 452.834C1565.82 453.057 1565.93 453.168 1566.04 453.391C1568.49 459.967 1578.52 457.627 1583.2 452.723C1585.54 450.271 1586.43 447.15 1584.54 444.141C1584.31 443.918 1584.2 443.695 1584.09 443.583Z" fill="#2C2D36" stroke="#2C2D36" stroke-miterlimit="10" stroke-linecap="round" stroke-linejoin="round"/>
<path d="M1560.34 400.078L1544.92 407.854L1546.48 410.939L1561.9 403.164L1560.34 400.078Z" fill="white" stroke="#2C2D36" stroke-miterlimit="10" stroke-linecap="round" stroke-linejoin="round"/>
<path d="M1616.89 396.373L1590.69 414.91L1605.49 435.838L1631.69 417.301L1616.89 396.373Z" fill="#9999FF" stroke="#2C2D36" stroke-miterlimit="10" stroke-linecap="round" stroke-linejoin="round"/>
<path d="M1614.51 395.881L1616.96 396.327L1631.78 417.28L1629.33 416.835L1614.51 395.881Z" fill="#9999FF" stroke="#2C2D36" stroke-miterlimit="10" stroke-linecap="round" stroke-linejoin="round"/>
<path d="M1614.51 395.884L1588.31 414.421L1603.11 435.349L1629.31 416.812L1614.51 395.884Z" fill="white" stroke="#2C2D36" stroke-miterlimit="10" stroke-linecap="round" stroke-linejoin="round"/>
<path d="M1595.34 390.978C1595.34 390.978 1598.69 391.312 1599.13 391.646C1599.58 392.092 1600.69 394.21 1601.69 395.324C1602.7 396.327 1604.14 396.885 1604.14 396.55C1604.14 396.216 1601.58 391.869 1600.69 389.863C1599.91 387.857 1599.02 387.411 1598.69 387.411C1598.24 387.411 1595.34 390.978 1595.34 390.978Z" fill="white" stroke="#2C2D36" stroke-miterlimit="10" stroke-linecap="round" stroke-linejoin="round"/>
<path d="M1602.47 383.51C1602.47 383.51 1590.77 383.956 1590.22 384.179C1589.55 384.29 1584.65 387.3 1584.65 387.3L1585.87 391.869H1588.43L1588.21 392.649H1595.68L1599.24 387.857L1602.81 387.523L1602.47 383.51Z" fill="white" stroke="#2C2D36" stroke-miterlimit="10" stroke-linecap="round" stroke-linejoin="round"/>
<path d="M1606.26 383.064H1602.25V388.08H1606.26V383.064Z" fill="#2C2D36" stroke="#2C2D36" stroke-miterlimit="10" stroke-linecap="round" stroke-linejoin="round"/>
<path d="M1595.68 392.649H1588.21V398.445H1595.68V392.649Z" fill="white" stroke="#2C2D36" stroke-miterlimit="10" stroke-linecap="round" stroke-linejoin="round"/>
<path d="M1598.13 410.482L1597.91 401.789L1595.57 398.333L1592 398.445L1588.43 398.333L1586.09 401.789L1585.87 410.482L1582.2 427.534H1592H1601.8L1598.13 410.482Z" fill="#2C2D36" stroke="#2C2D36" stroke-miterlimit="10" stroke-linecap="round" stroke-linejoin="round"/>
<path d="M1598.13 410.37L1597.91 401.789L1595.57 398.333L1592 398.445L1588.43 398.333L1586.09 401.789L1585.87 410.37H1598.13Z" fill="white" stroke="#2C2D36" stroke-miterlimit="10" stroke-linecap="round" stroke-linejoin="round"/>
<path d="M1586.87 393.096H1578.41V389.529C1578.41 388.192 1579.41 387.188 1580.75 387.188H1584.54C1585.87 387.188 1586.87 388.192 1586.87 389.529V393.096Z" fill="#2C2D36" stroke="#2C2D36" stroke-miterlimit="10" stroke-linecap="round" stroke-linejoin="round"/>
<path d="M1592.33 398.445C1591.67 395.659 1586.54 393.096 1586.54 393.096H1582.19H1577.85C1577.85 393.096 1572.72 395.771 1572.06 398.445C1571.39 401.232 1572.06 405.913 1572.06 405.913H1582.19H1592.33C1592.33 405.913 1593 401.12 1592.33 398.445Z" fill="white" stroke="#2C2D36" stroke-miterlimit="10" stroke-linecap="round" stroke-linejoin="round"/>
<path d="M1592.67 433.442H1571.61V415.275C1571.61 414.16 1572.5 413.269 1573.62 413.269H1590.77C1591.89 413.269 1592.78 414.16 1592.78 415.275V433.442H1592.67Z" fill="white" stroke="#2C2D36" stroke-miterlimit="10" stroke-linecap="round" stroke-linejoin="round"/>
<path d="M1592.22 405.913H1582.19H1572.17C1572.17 405.913 1573.73 407.361 1574.28 409.256C1574.73 411.151 1572.5 413.491 1572.5 413.491H1582.31H1592.11C1592.11 413.491 1589.88 411.151 1590.33 409.256C1590.66 407.361 1592.22 405.913 1592.22 405.913Z" fill="white" stroke="#2C2D36" stroke-miterlimit="10" stroke-linecap="round" stroke-linejoin="round"/>
<path d="M1623.31 438.568H1630.22C1630.22 438.568 1632.89 456.624 1633.56 464.425C1634.23 472.227 1628.21 482.481 1622.86 484.041C1617.52 485.602 1617.52 485.602 1617.52 485.602" stroke="#2C2D36" stroke-miterlimit="10" stroke-linecap="round" stroke-linejoin="round"/>
<path d="M1626.56 435.236L1621.9 434.798L1621.15 442.787L1625.81 443.225L1626.56 435.236Z" fill="#9999FF" stroke="#2C2D36" stroke-miterlimit="10" stroke-linecap="round" stroke-linejoin="round"/>
<path d="M1610.83 506.443H1564.15C1562.59 506.443 1561.25 505.328 1561.03 503.657L1550.22 425.751H1624.76L1613.95 503.657C1613.73 505.217 1612.39 506.443 1610.83 506.443Z" fill="#9999FF" stroke="#2C2D36" stroke-miterlimit="10" stroke-linecap="round" stroke-linejoin="round"/>
<path d="M1628.32 425.751H1546.76V429.317H1628.32V425.751Z" fill="#9999FF" stroke="#2C2D36" stroke-miterlimit="10" stroke-linecap="round" stroke-linejoin="round"/>
<path d="M1598.46 438.011H1609.05" stroke="#2C2D36" stroke-miterlimit="10" stroke-linecap="round" stroke-linejoin="round"/>
<path d="M1554.12 438.011H1594.34" stroke="#2C2D36" stroke-miterlimit="10" stroke-linecap="round" stroke-linejoin="round"/>
</g>
<defs>
<clipPath id="clip0_57_416">
<rect width="806" height="507" fill="white" transform="translate(908.003)"/>
</clipPath>
</defs>
</svg>
