<svg width="526" height="486" viewBox="0 0 526 486" fill="none" xmlns="http://www.w3.org/2000/svg">
<g clip-path="url(#clip0_262_2525)">
<path opacity="0.2" d="M526 163.414L505.124 151.319L483.779 163.649V196.53L462.434 184.2L448.126 192.42V113.858L419.744 97.4175L405.436 105.638V134.878L384.091 147.209V163.297L362.746 150.966L341.401 163.297V486H526V163.414Z" fill="#9999FF"/>
<path d="M341.402 -28H0V486H341.402V-28Z" fill="#9999FF"/>
<path opacity="0.85" d="M341.402 -28H0V486H341.402V-28Z" fill="white"/>
<path d="M11.8452 460.282V448.304L329.791 264.523V276.501L11.8452 460.282Z" fill="#F0F0F0"/>
<path d="M319.47 270.512L329.791 276.501V36.2354L319.47 42.2244V270.512Z" fill="#E0E0E0"/>
<path d="M241.01 144.508V315.841L251.331 321.83V138.519L241.01 144.508ZM155.982 365.045L166.303 371.034V187.723L155.982 193.712V365.045ZM76.4663 410.961L86.7869 416.95V233.639L76.4663 239.628V410.961Z" fill="#E0E0E0"/>
<path d="M11.8452 270.395V258.417L319.47 80.6248L329.791 86.4964L11.8452 270.395Z" fill="#F0F0F0"/>
<path d="M241.01 87.5532V125.836L251.331 131.825V81.6816L241.01 87.5532ZM155.982 175.158L166.303 181.147V130.886L155.982 136.875V175.158ZM76.4663 221.073L86.7869 227.062V176.802L76.4663 182.791V221.073Z" fill="#E0E0E0"/>
<path opacity="0.3" d="M329.791 276.501V36.2354L11.8452 220.016V460.282L329.791 276.501Z" fill="#9999FF"/>
<path opacity="0.3" d="M87.0215 416.832L141.908 385.126L283.582 63.0098L228.696 94.7164L87.0215 416.832Z" fill="white"/>
<path opacity="0.3" d="M122.909 155.781L11.8452 408.378V328.406L75.7627 183.143L122.909 155.781Z" fill="white"/>
<path opacity="0.3" d="M329.791 123.957V217.081L294.724 296.7L239.837 328.406L329.791 123.957Z" fill="white"/>
<path opacity="0.2" d="M224.122 264.171C221.541 270.277 218.961 276.266 216.616 282.49L212.98 291.65C211.807 294.703 210.634 297.874 209.579 300.927C211.103 297.991 212.511 295.055 213.918 292.002L218.14 283.077C220.955 277.088 223.535 271.099 226.115 264.993C228.695 258.886 231.276 252.897 233.621 246.673C236.084 240.567 238.43 234.461 240.658 228.119C237.609 233.991 234.911 239.98 232.097 245.969C229.282 252.075 226.702 258.064 224.122 264.171ZM191.166 250.196C193.981 244.207 196.561 238.218 199.141 232.112C201.721 226.005 204.301 220.016 206.647 213.792C209.11 207.686 211.455 201.462 213.684 195.238C210.634 201.11 207.937 207.099 205.122 213.088C202.307 219.077 199.727 225.066 197.147 231.172C194.567 237.279 191.987 243.268 189.641 249.492L186.006 258.652C184.833 261.705 183.66 264.875 182.604 267.929C184.129 264.993 185.536 262.057 186.944 259.004L191.166 250.196ZM224.122 220.486C227.992 210.857 231.862 201.227 235.498 191.598C231.041 200.992 226.702 210.387 222.48 219.899C218.258 229.411 214.153 238.923 210.048 248.435C206.06 257.947 201.956 267.576 198.085 277.088L192.221 291.532C190.345 296.347 188.468 301.162 186.592 306.094C188.82 301.397 191.049 296.699 193.16 292.002L199.61 277.793C203.832 268.281 207.937 258.769 212.042 249.257C216.029 239.628 220.134 230.116 224.122 220.486ZM270.447 202.989C273.262 197 275.842 191.011 278.422 184.904C281.002 178.798 283.582 172.809 285.928 166.585C288.391 160.478 290.737 154.372 292.965 148.031C289.916 153.902 287.218 159.891 284.403 165.88C281.589 171.869 279.009 177.858 276.428 183.965C273.848 190.071 271.268 196.06 268.922 202.284L265.287 211.444C264.114 214.497 262.941 217.668 261.886 220.721C263.41 217.785 264.818 214.849 266.225 211.796L270.447 202.989ZM311.378 198.996C308.563 204.985 305.983 210.974 303.403 217.081C300.823 223.187 298.242 229.176 295.897 235.4L292.261 244.56C291.088 247.613 289.916 250.784 288.86 253.837C290.385 250.901 291.792 247.965 293.199 244.912L297.421 235.987C300.236 229.998 302.816 224.009 305.396 217.903C307.977 211.796 310.557 205.807 312.902 199.583C315.365 193.477 317.711 187.37 319.939 181.029C316.89 187.018 314.192 193.007 311.378 198.996ZM303.403 173.396C307.273 163.766 311.143 154.137 314.779 144.508C310.322 153.902 305.983 163.297 301.761 172.809C297.539 182.321 293.434 191.833 289.329 201.345C285.342 210.857 281.237 220.486 277.367 229.998L271.503 244.442C269.626 249.257 267.75 254.072 265.873 259.004C268.101 254.307 270.33 249.609 272.441 244.912L278.891 230.703C283.113 221.191 287.218 211.679 291.323 202.167C295.428 192.537 299.533 183.025 303.403 173.396ZM60.9853 315.254C64.8556 305.624 68.7258 295.995 72.3615 286.365C67.9048 295.76 63.5655 305.155 59.3434 314.667C55.1213 324.179 51.0165 333.691 46.9117 343.203C42.9242 352.715 38.8194 362.344 34.9492 371.856L29.0852 386.3C27.2087 391.115 25.3323 395.93 23.4558 400.862C25.6841 396.164 27.9124 391.467 30.0234 386.77L36.4738 372.561C40.6959 363.049 44.8007 353.537 48.9055 344.025C52.893 334.278 56.9978 324.766 60.9853 315.254ZM60.9853 358.821C58.4052 364.927 55.825 370.917 53.4794 377.14L49.8437 386.3C48.6709 389.353 47.4981 392.524 46.4426 395.577C47.9673 392.641 49.3746 389.706 50.782 386.652L55.0041 377.728C57.8188 371.739 60.3989 365.75 62.9791 359.643C65.5592 353.537 68.1394 347.548 70.485 341.324C72.9479 335.217 75.2935 329.111 77.5218 322.769C74.4725 328.641 71.7751 334.63 68.9603 340.619C66.1456 346.726 63.5655 352.832 60.9853 358.821ZM28.0297 344.847C30.8444 338.858 33.4246 332.869 36.0047 326.762C38.5849 320.656 41.165 314.667 43.5106 308.443C45.9735 302.336 48.3191 296.23 50.5474 289.888C47.4981 295.76 44.8007 301.749 41.986 307.738C39.1713 313.727 36.5911 319.716 34.011 325.823C31.4308 331.929 28.8506 337.918 26.5051 344.142L22.8694 353.302C21.6966 356.355 20.5238 359.526 19.4683 362.579C20.9929 359.643 22.4003 356.707 23.8076 353.654L28.0297 344.847ZM140.266 268.046C144.137 258.417 148.007 248.787 151.643 239.158C147.186 248.552 142.847 257.947 138.625 267.459C134.402 276.971 130.298 286.483 126.193 295.995C122.205 305.507 118.101 315.136 114.23 324.648L108.366 339.092C106.49 343.907 104.613 348.722 102.737 353.654C104.965 348.957 107.194 344.259 109.305 339.562L115.755 325.353C119.977 315.841 124.082 306.329 128.187 296.817C132.291 287.187 136.396 277.675 140.266 268.046ZM140.266 311.731C137.686 317.837 135.106 323.826 132.761 330.05L129.125 339.21C127.952 342.263 126.779 345.434 125.724 348.487C127.248 345.551 128.656 342.615 130.063 339.562L134.285 330.637C137.1 324.648 139.68 318.659 142.26 312.553C144.84 306.446 147.421 300.457 149.766 294.233C152.229 288.127 154.575 282.02 156.803 275.679C153.754 281.551 151.056 287.54 148.242 293.529C145.544 299.635 142.847 305.742 140.266 311.731ZM107.311 297.756C110.126 291.767 112.706 285.778 115.286 279.672C117.866 273.565 120.446 267.576 122.792 261.352C125.255 255.246 127.6 249.14 129.829 242.798C126.779 248.67 124.082 254.659 121.267 260.648C118.452 266.637 115.872 272.626 113.292 278.732C110.712 284.839 108.132 290.828 105.786 297.052L102.151 306.211C100.978 309.265 99.8049 312.435 98.7494 315.489C100.274 312.553 101.681 309.617 103.089 306.564L107.311 297.756Z" fill="#9999FF"/>
<path d="M251.331 321.83L231.51 333.221L251.331 321.83Z" fill="#FAFAFA"/>
<path d="M329.791 86.4964L255.905 129.242V78.9807L251.331 81.6817V131.943L170.877 178.446V128.185L166.303 130.768V181.029L91.3609 224.362V174.101L86.787 176.684V227.062L11.8452 270.277V276.971L86.787 233.639V416.95L91.3609 414.367V231.055L166.303 187.723V371.034L170.877 368.333V185.022L251.331 138.519V321.83L255.905 319.247V135.935L329.791 93.19V86.4964Z" fill="#FAFAFA"/>
<path d="M0 208.038V486L341.402 288.714V10.7527L0 208.038ZM329.791 276.501L11.9625 460.283V220.017L329.791 36.2354V276.501Z" fill="#FAFAFA"/>
<path d="M329.791 486V295.408L319.47 301.397V486H329.791Z" fill="#E0E0E0"/>
<path d="M251.33 486V397.573L241.01 403.563V486H251.33Z" fill="#E0E0E0"/>
<path d="M166.303 486V446.778L155.982 452.767V486H166.303Z" fill="#E0E0E0"/>
<path d="M87.0215 486L329.791 345.669L319.47 339.68L66.4976 486H87.0215Z" fill="#F0F0F0"/>
<path d="M86.5524 486H86.7869V435.856L76.4663 441.845V480.128L86.5524 486Z" fill="#E0E0E0"/>
<path d="M251.33 390.997V340.737L241.01 346.726V385.008L251.33 390.997Z" fill="#E0E0E0"/>
<path d="M166.303 440.201V389.94L155.982 395.929V434.212L166.303 440.201Z" fill="#E0E0E0"/>
<path opacity="0.3" d="M329.791 486V295.408L11.8452 479.071V486H329.791Z" fill="#9999FF"/>
<path opacity="0.3" d="M211.456 486L283.583 322.065L228.696 353.771L170.525 486H211.456Z" fill="white"/>
<path opacity="0.3" d="M91.7127 486L122.909 414.954L53.3622 455.115L39.875 486H91.7127Z" fill="white"/>
<path opacity="0.3" d="M329.791 486V304.802L250.041 486H329.791Z" fill="white"/>
<path opacity="0.2" d="M280.533 486C284.169 477.78 287.805 469.442 291.323 461.222C295.311 451.71 299.415 442.08 303.286 432.568C307.156 422.939 311.026 413.31 314.662 403.68C310.205 413.075 305.866 422.469 301.644 431.981C297.422 441.493 293.317 451.005 289.212 460.517C285.694 469.09 282.058 477.662 278.422 486.235H280.533V486Z" fill="#9999FF"/>
<path opacity="0.2" d="M201.369 486C203.246 481.655 205.005 477.31 206.764 472.965C209.227 466.858 211.573 460.635 213.801 454.411C210.752 460.282 208.054 466.271 205.24 472.26C203.129 476.84 201.135 481.42 199.141 486H201.369Z" fill="#9999FF"/>
<path opacity="0.2" d="M301.526 486C302.816 483.064 304.106 480.011 305.396 477.075C307.977 470.969 310.557 464.98 312.902 458.756C315.365 452.649 317.711 446.543 319.939 440.201C316.89 446.073 314.192 452.062 311.378 458.051C308.563 464.04 305.983 470.029 303.403 476.136C301.995 479.424 300.588 482.712 299.298 486H301.526Z" fill="#9999FF"/>
<path opacity="0.2" d="M270.447 462.161C273.262 456.172 275.842 450.183 278.422 444.077C281.002 437.97 283.583 431.981 285.928 425.757C288.391 419.651 290.737 413.544 292.965 407.203C289.916 413.075 287.218 419.064 284.403 425.053C281.589 431.042 279.009 437.031 276.428 443.137C273.848 449.244 271.268 455.233 268.923 461.457L265.287 470.616C264.114 473.67 262.941 476.84 261.886 479.894C263.41 476.958 264.818 474.022 266.225 470.969L270.447 462.161Z" fill="#9999FF"/>
<path opacity="0.2" d="M221.424 486C222.362 483.886 223.183 481.772 224.004 479.659C227.875 470.029 231.745 460.4 235.38 450.77C230.924 460.165 226.584 469.559 222.362 479.071C221.307 481.42 220.251 483.769 219.196 486.117H221.424V486Z" fill="#9999FF"/>
<path d="M98.5151 486L166.303 446.778V486H170.877V444.194L251.331 397.574V486H255.905V394.99L329.791 352.245V345.669L255.905 388.414V338.036L251.331 340.737V390.997L170.877 437.501V387.24L166.303 389.823V440.202L91.361 483.534V433.156L86.7871 435.857V486H98.5151Z" fill="#FAFAFA"/>
<path d="M11.8453 486V479.071L329.791 295.408V486H341.402V269.69L0 467.093V486H11.8453Z" fill="#FAFAFA"/>
<path d="M11.8452 201.227V189.367L329.791 5.58545V17.4461L11.8452 201.227Z" fill="#F0F0F0"/>
<path d="M319.47 -28V11.4572L329.791 17.4462V-28H319.47Z" fill="#E0E0E0"/>
<path d="M155.982 -28V105.99L166.303 111.979V-28H155.982Z" fill="#E0E0E0"/>
<path d="M76.4663 152.023L86.7869 157.895V-25.2991L76.4663 -19.4275V152.023Z" fill="#E0E0E0"/>
<path d="M241.01 -28V56.7859L251.33 62.775V-28H241.01Z" fill="#E0E0E0"/>
<path d="M59.3435 -28L11.8452 -0.520906V11.3397L79.8675 -28H59.3435Z" fill="#F0F0F0"/>
<path opacity="0.3" d="M11.8452 -28V201.227L329.791 17.4462V-28H11.8452Z" fill="#9999FF"/>
<path opacity="0.3" d="M168.766 -28L87.0215 157.777L141.908 126.071L209.696 -28H168.766Z" fill="white"/>
<path opacity="0.3" d="M37.9986 -28L11.8452 31.4206V149.44L89.8363 -28H37.9986Z" fill="white"/>
<path opacity="0.3" d="M323.575 -28L294.724 37.7619L239.72 69.4686L282.644 -28H323.575Z" fill="white"/>
<path opacity="0.2" d="M60.9856 99.766C58.4054 105.872 55.8253 111.861 53.4797 118.085L49.844 127.245C48.6712 130.298 47.4984 133.469 46.4429 136.522C47.9675 133.586 49.3749 130.651 50.7822 127.597L55.0043 118.673C57.819 112.684 60.3992 106.694 62.9793 100.588C65.5595 94.4816 68.1396 88.4925 70.4852 82.2686C72.9481 76.1622 75.2937 70.0557 77.522 63.7144C74.4727 69.586 71.7753 75.575 68.9606 81.564C66.1459 87.7879 63.5657 93.777 60.9856 99.766Z" fill="#9999FF"/>
<path opacity="0.2" d="M107.311 38.7014C110.126 32.7123 112.706 26.7233 115.286 20.6168C117.866 14.5104 120.446 8.52132 122.792 2.29742C125.255 -3.80904 127.6 -9.91551 129.829 -16.2568C126.779 -10.3852 124.082 -4.3962 121.267 1.59283C118.453 7.58187 115.872 13.5709 113.292 19.6774C110.712 25.7838 108.132 31.7729 105.786 37.9968L102.151 47.1565C100.978 50.2097 99.805 53.3804 98.7495 56.4336C100.274 53.4978 101.682 50.562 103.089 47.5088L107.311 38.7014Z" fill="#9999FF"/>
<path opacity="0.2" d="M28.0297 85.7917C30.8444 79.8027 33.4246 73.8136 36.0047 67.7072C38.5849 61.6007 41.165 55.6117 43.5106 49.3878C45.9735 43.2813 48.3191 37.1748 50.5474 30.8335C47.4981 36.7051 44.8007 42.6941 41.986 48.6832C39.1713 54.6722 36.5911 60.6612 34.011 66.7677C31.4308 72.8742 28.8506 78.8632 26.5051 85.0871L22.8694 94.2468C21.6966 97.3 20.5238 100.471 19.4683 103.524C20.9929 100.588 22.4003 97.6523 23.8076 94.5991L28.0297 85.7917Z" fill="#9999FF"/>
<path opacity="0.2" d="M60.9856 56.1988C64.8558 46.5694 68.7261 36.94 72.3617 27.3105C67.9051 36.7051 63.5658 46.0997 59.3437 55.6117C55.1216 65.0062 51.0168 74.5182 46.912 84.0302C42.9245 93.5422 38.8197 103.172 34.9495 112.684L29.0855 127.128C27.209 131.942 25.3325 136.757 23.4561 141.689C25.6844 136.992 27.9127 132.295 30.0237 127.598L36.4741 113.388C40.6962 103.876 44.801 94.3642 48.9058 84.8522C52.8933 75.3402 56.9981 65.8283 60.9856 56.1988Z" fill="#9999FF"/>
<path opacity="0.2" d="M140.267 9.10849C144.137 -0.520933 148.007 -10.1504 151.643 -19.7798C147.186 -10.3852 142.847 -0.990662 138.625 8.52133C134.403 18.0333 130.298 27.5453 126.193 37.0573C122.206 46.5693 118.101 56.1987 114.231 65.7107L108.367 80.1549C106.49 84.9696 104.614 89.7843 102.737 94.7164C104.966 90.0192 107.194 85.3219 109.305 80.6246L115.755 66.4153C119.977 56.9033 124.082 47.3913 128.187 37.8793C132.292 28.2499 136.397 18.7379 140.267 9.10849Z" fill="#9999FF"/>
<path opacity="0.2" d="M217.554 -28C215.091 -22.2458 212.511 -16.4917 210.048 -10.7375C206.061 -1.2255 201.956 8.40392 198.086 17.9159L192.222 32.3601C190.345 37.1748 188.469 41.9895 186.592 46.9216C188.821 42.2243 191.049 37.5271 193.16 32.8298L199.61 18.6205C203.832 9.10852 207.937 -0.403475 212.042 -9.91547C214.622 -16.0219 217.085 -22.011 219.665 -28.1174H217.554V-28Z" fill="#9999FF"/>
<path opacity="0.2" d="M197.147 -28C197.147 -28 197.147 -27.8826 197.03 -27.8826C194.45 -21.7761 191.87 -15.7871 189.524 -9.56317L185.888 -0.403471C184.716 2.64976 183.543 5.82043 182.487 8.87366C184.012 5.93786 185.419 3.00206 186.827 -0.0511761L191.049 -8.97601C193.863 -14.965 196.444 -20.9541 199.024 -27.0605C199.141 -27.4128 199.376 -27.7651 199.493 -28.1174H197.147V-28Z" fill="#9999FF"/>
<path opacity="0.2" d="M140.267 52.6759C137.687 58.7824 135.107 64.7714 132.761 70.9953L129.125 80.155C127.952 83.2082 126.78 86.3789 125.724 89.4321C127.249 86.4963 128.656 83.5605 130.063 80.5073L134.286 71.5825C137.1 65.5934 139.68 59.6044 142.261 53.4979C144.841 47.3915 147.421 41.4024 149.766 35.1785C152.229 29.0721 154.575 22.9656 156.803 16.6243C153.754 22.4959 151.057 28.4849 148.242 34.4739C145.544 40.5804 142.847 46.6869 140.267 52.6759Z" fill="#9999FF"/>
<path opacity="0.2" d="M239.251 -28C236.788 -23.0679 234.442 -18.0183 232.097 -12.9687C229.282 -6.97967 226.702 -0.990633 224.122 5.11583C221.542 11.2223 218.961 17.2113 216.616 23.4352L212.98 32.5949C211.807 35.6482 210.635 38.8188 209.579 41.8721C211.104 38.9362 212.511 36.0005 213.918 32.9472L218.141 24.0224C220.955 18.0334 223.535 12.0443 226.116 5.93785C228.696 -0.168612 231.276 -6.15764 233.621 -12.3815C235.733 -17.4311 237.726 -22.7156 239.603 -28H239.251Z" fill="#9999FF"/>
<path d="M251.331 62.7749L231.51 74.2832L251.331 62.7749Z" fill="#FAFAFA"/>
<path d="M166.303 -28V111.979L170.877 109.395V-28H166.303Z" fill="#FAFAFA"/>
<path d="M79.8675 -28L11.8452 11.3397V17.9159L86.787 -25.4165V157.895L91.3609 155.311V-28H79.8675Z" fill="#FAFAFA"/>
<path d="M251.331 -28V62.775L255.904 60.1915V-28H251.331Z" fill="#FAFAFA"/>
<path d="M329.791 -28V17.4462L11.8453 201.227V-28H0V226.945L341.402 29.6591V-28H329.791Z" fill="#FAFAFA"/>
<path d="M193.042 -28H188.82V486H193.042V-28Z" fill="#263238"/>
<path d="M259.321 294.865L218.625 294.278L218.273 327.629C218.273 330.682 220.149 333.735 224.137 336.084C231.995 340.781 244.895 340.898 252.988 336.436C256.975 334.205 259.086 331.151 259.086 328.098L259.321 294.865Z" fill="#37474F"/>
<path d="M224.723 286.058C216.748 290.52 216.631 298.036 224.489 302.733C232.346 307.43 245.247 307.548 253.34 303.085C261.315 298.623 261.432 291.107 253.574 286.41C245.599 281.713 232.698 281.595 224.723 286.058Z" fill="#455A64"/>
<path d="M257.561 294.748C257.561 295.335 257.444 295.804 257.327 296.392C256.741 298.271 255.099 300.032 252.401 301.559C248.765 303.555 243.957 304.612 238.797 304.612C233.636 304.494 228.828 303.32 225.31 301.206C222.847 299.68 221.205 297.918 220.618 296.039C220.384 295.452 220.384 294.865 220.384 294.278C220.384 291.812 222.26 289.346 225.544 287.584C229.18 285.588 233.988 284.414 239.149 284.531C244.309 284.531 249.117 285.823 252.636 287.937C255.802 289.933 257.679 292.281 257.561 294.748Z" fill="#263238"/>
<path d="M257.327 296.392C256.741 298.271 255.099 300.032 252.401 301.559C248.766 303.555 243.957 304.612 238.797 304.612C233.637 304.494 228.828 303.32 225.31 301.206C222.847 299.68 221.205 297.918 220.619 296.039C221.205 294.16 222.847 292.399 225.544 290.872C229.18 288.876 233.989 287.702 239.149 287.819C244.309 287.937 249.118 289.111 252.636 291.225C255.099 292.751 256.741 294.513 257.327 296.392Z" fill="#FAFAFA"/>
<path d="M252.401 301.559C253.105 301.206 253.692 300.737 254.278 300.384C246.889 304.377 233.989 302.733 230.001 299.562C226.014 296.392 225.427 291.107 231.995 288.641C229.532 289.111 227.421 289.933 225.544 290.99C222.964 292.399 221.322 294.16 220.619 296.157C221.205 298.036 222.847 299.797 225.31 301.324C228.828 303.438 233.637 304.612 238.797 304.729C244.075 304.612 248.883 303.555 252.401 301.559Z" fill="#EBEBEB"/>
<path d="M247.71 307.43C248.649 306.96 249.352 307.313 249.352 308.37C249.352 309.427 248.649 310.601 247.71 311.188C246.772 311.658 246.068 311.305 246.068 310.249C246.068 309.192 246.772 307.9 247.71 307.43Z" fill="#263238"/>
<path d="M248.531 309.074C248.531 309.544 248.179 309.896 247.71 309.896C247.241 309.896 246.889 309.544 246.889 309.074C246.889 308.135 246.889 306.843 246.889 305.434C246.772 299.68 246.537 290.872 244.895 283.239C243.605 277.015 241.377 271.613 237.624 269.265C235.982 268.208 234.575 268.09 233.285 268.795C229.884 270.674 228.007 277.837 227.069 284.883C226.482 285.118 225.779 285.353 225.192 285.705C226.013 278.19 228.124 269.617 232.464 267.268C234.34 266.211 236.334 266.446 238.562 267.738C242.784 270.439 245.365 276.311 246.772 283.474C248.062 290.168 248.531 297.918 248.648 304.847C248.531 306.491 248.531 307.782 248.531 309.074Z" fill="#E0E0E0"/>
<path d="M215.224 309.544C216.162 314.828 217.1 320.935 217.452 323.166C217.804 325.75 219.446 327.394 219.798 328.685C220.149 329.977 216.983 335.262 212.057 337.14C207.131 339.019 202.909 337.962 202.323 335.262C201.619 332.561 195.403 315.298 195.403 315.298L215.224 309.544Z" fill="#FFA8A7"/>
<path d="M227.303 338.08C226.952 343.599 219.211 347.944 216.631 352.876C214.051 357.808 211.119 362.388 207.131 364.854C203.027 367.438 194.113 369.434 189.891 366.851C188.249 363.093 189.657 358.161 192.237 355.342C196.811 350.293 199.156 346.652 199.977 345.126C202.088 341.251 202.206 337.493 201.736 335.262C201.267 332.913 200.798 332.678 201.854 332.208C202.909 331.739 203.73 331.386 203.848 332.326C205.959 330.682 209.829 334.439 210.298 332.208C210.767 329.977 212.174 326.102 215.575 324.458C217.921 323.401 220.032 325.984 221.322 328.568C222.378 331.386 227.538 334.909 227.303 338.08Z" fill="#455A64"/>
<path d="M227.538 337.14C227.421 337.14 226.834 336.083 226.483 335.496C222.964 334.087 218.038 338.55 215.927 342.894C213.816 347.357 212.409 350.41 204.903 354.403C197.397 358.396 190.008 364.737 189.774 366.968C189.891 367.673 190.126 368.142 190.829 368.612C195.052 371.078 203.965 369.082 208.07 366.616C212.174 364.032 215.106 359.57 217.569 354.638C220.149 349.588 227.89 345.243 228.242 339.841C228.359 338.902 228.007 337.962 227.538 337.14Z" fill="#263238"/>
<path d="M208.07 366.616C212.175 364.032 215.107 359.57 217.569 354.638C220.15 349.588 227.89 345.243 228.242 339.841C228.359 339.019 228.007 338.197 227.538 337.258C224.02 335.849 219.094 340.311 216.983 344.656C214.872 349.118 213.465 352.172 205.959 356.164C198.453 360.157 191.064 366.498 190.83 368.73C195.052 371.078 203.965 369.082 208.07 366.616Z" fill="black"/>
<path d="M206.78 278.307C206.78 278.307 206.897 277.955 207.014 277.485H179.571C179.923 285.001 182.855 289.346 187.194 300.619C192.472 314.476 199.86 329.273 199.86 329.273C199.86 329.273 204.903 322.227 217.569 321.874C215.928 311.775 214.637 304.26 212.761 294.865C210.415 281.948 206.78 278.307 206.78 278.307Z" fill="#455A64"/>
<path d="M146.732 318.821C146.732 318.821 142.041 329.977 140.517 334.087C138.054 341.016 137.702 342.777 137.702 342.777C137.702 342.777 127.968 347.357 123.863 345.009C119.758 342.66 117.647 333.853 117.647 333.853C117.647 333.853 120.462 332.678 122.573 325.045C123.628 320.935 126.56 308.605 126.56 308.605L146.732 318.821Z" fill="#FFA8A7"/>
<path d="M84.105 339.724C83.2841 339.959 82.6977 342.308 83.1668 343.6C83.5186 344.422 85.3951 348.884 93.9566 352.172C102.518 355.343 109.789 354.403 113.19 355.225C116.709 356.047 116.826 356.282 120.696 357.926C124.567 359.453 129.492 361.449 132.893 360.51C133.832 359.688 134.535 356.752 134.535 356.752L84.105 339.724Z" fill="#263238"/>
<path d="M139.579 340.429C139.696 340.077 139.696 339.607 139.461 339.255C139.11 338.785 138.171 338.785 137.585 338.667C136.764 338.55 136.06 338.433 135.239 338.433C133.715 338.55 132.073 339.02 130.9 339.959C129.844 340.781 128.789 341.838 127.499 341.721C125.27 341.486 124.684 338.667 124.215 336.906C123.863 335.497 123.159 334.088 122.221 332.913C121.752 332.326 121.283 331.739 120.697 331.269C120.345 330.917 119.876 329.977 119.172 330.212C118.82 330.33 118.703 330.565 118.468 330.799C118.234 331.034 118.116 331.152 117.882 331.387C116.123 333.031 114.012 333.735 111.666 334.205C109.086 334.792 106.506 334.91 103.808 335.027C101.815 335.027 99.4689 334.91 97.4752 334.675C91.6112 333.853 85.9818 333.383 83.7534 340.194C83.5189 342.543 86.92 347.945 97.0061 350.88C103.456 352.759 111.783 351.937 118.937 354.873C126.091 357.926 130.079 358.748 133.715 358.044C136.178 355.93 137.116 352.642 137.585 349.589C137.819 348.062 137.937 346.535 138.171 345.126C138.406 343.6 138.875 342.19 139.227 340.781C139.579 340.664 139.579 340.546 139.579 340.429Z" fill="#455A64"/>
<path opacity="0.15" d="M117.999 336.671C116.591 337.258 115.067 337.728 113.542 338.198C112.018 338.55 110.493 338.902 108.968 339.02C107.444 339.137 105.802 339.02 104.277 338.902C102.752 338.785 101.228 338.55 99.7031 338.08C101.228 338.315 102.752 338.433 104.277 338.433C105.802 338.55 107.326 338.55 108.851 338.433C112.018 338.198 114.95 337.376 117.999 336.671Z" fill="black"/>
<path d="M102.87 336.084C102.635 335.732 102.401 335.379 102.049 335.027C101.814 334.792 101.697 334.675 101.462 334.675C101.228 334.675 100.993 334.557 100.759 334.675C100.641 334.675 100.29 335.027 100.524 335.144C100.759 335.262 100.876 335.379 100.993 335.497C101.111 335.614 101.345 335.849 101.462 335.967C101.697 336.319 101.932 336.671 102.166 337.023C102.401 337.376 102.518 337.728 102.635 338.08C102.635 338.315 102.753 338.433 102.753 338.667C102.753 338.785 102.753 338.902 102.87 339.02L102.987 339.137C103.104 339.137 103.222 339.137 103.222 339.02C103.925 338.08 103.339 336.789 102.87 336.084Z" fill="#E0E0E0"/>
<path d="M107.326 336.436C107.092 336.084 106.857 335.614 106.623 335.262C106.505 335.027 106.271 334.91 106.036 334.792C105.802 334.675 105.567 334.675 105.333 334.675C105.215 334.675 104.863 334.91 105.098 335.027C105.333 335.145 105.45 335.262 105.567 335.379C105.684 335.497 105.802 335.732 105.919 335.967C106.153 336.319 106.388 336.671 106.505 337.023C106.623 337.376 106.74 337.728 106.857 338.08C106.857 338.315 106.857 338.433 106.974 338.667C106.974 338.785 106.974 338.902 107.092 339.02C107.092 339.137 107.209 339.137 107.209 339.137C107.326 339.137 107.444 339.137 107.444 339.02C108.265 338.433 107.795 337.141 107.326 336.436Z" fill="#E0E0E0"/>
<path d="M111.9 335.967C111.666 335.614 111.431 335.262 111.197 334.91C110.962 334.675 110.845 334.557 110.61 334.557C110.376 334.44 110.141 334.44 109.907 334.557C109.789 334.557 109.438 334.91 109.672 334.91C109.907 335.027 110.024 335.144 110.141 335.262C110.259 335.379 110.493 335.614 110.61 335.732C110.845 336.084 111.08 336.436 111.314 336.789C111.549 337.141 111.666 337.493 111.783 337.845C111.783 338.08 111.9 338.198 111.9 338.433C111.9 338.55 111.9 338.667 112.018 338.785L112.135 338.902C112.252 338.902 112.37 338.902 112.37 338.785C112.956 337.845 112.252 336.671 111.9 335.967Z" fill="#E0E0E0"/>
<path d="M115.653 335.027C115.419 334.675 115.184 334.322 114.95 333.97C114.715 333.735 114.598 333.618 114.363 333.618C114.129 333.618 113.894 333.5 113.66 333.618C113.542 333.618 113.191 333.97 113.425 333.97C113.542 334.088 113.777 334.205 113.894 334.322C114.011 334.44 114.129 334.675 114.363 334.792C114.598 335.144 114.832 335.497 115.067 335.849C115.184 336.201 115.419 336.554 115.536 336.906C115.536 337.023 115.653 337.258 115.653 337.376C115.653 337.493 115.653 337.611 115.771 337.611L115.888 337.728C116.005 337.728 116.123 337.728 116.123 337.611C116.709 336.789 116.005 335.614 115.653 335.027Z" fill="#E0E0E0"/>
<path d="M161.392 281.243L138.406 254.234C134.535 258.461 133.011 263.863 130.079 278.542C126.091 298.388 121.283 326.689 121.283 326.689C121.283 326.689 121.752 331.974 130.313 334.675C138.875 337.493 141.689 334.909 141.689 334.909C141.689 334.909 144.973 328.686 149.078 319.056C154.004 307.43 160.806 289.581 161.392 281.243Z" fill="#455A64"/>
<path d="M149.547 272.436C150.837 279.834 157.053 283.709 160.806 285.236C161.041 283.826 161.275 282.417 161.393 281.36C155.177 279.481 150.837 275.254 149.547 272.436Z" fill="#37474F"/>
<path d="M222.847 252.12L175.466 199.51L252.05 269.147" stroke="#37474F" stroke-width="1.4486" stroke-miterlimit="10" stroke-linecap="round" stroke-linejoin="round"/>
<path d="M154.473 284.883L187.781 304.142L254.278 265.625L220.971 246.483L154.473 284.883Z" fill="#9999FF"/>
<path opacity="0.5" d="M154.473 284.883L187.781 304.142L254.278 265.625L220.971 246.483L154.473 284.883Z" fill="white"/>
<path d="M154.473 284.884L187.781 304.142V309.662L154.473 290.403V284.884Z" fill="#9999FF"/>
<path d="M254.278 265.625V271.144L187.781 309.662V304.142L254.278 265.625Z" fill="#9999FF"/>
<path opacity="0.3" d="M254.278 265.625V271.144L187.781 309.662V304.142L254.278 265.625Z" fill="white"/>
<path d="M215.928 276.78C226.6 276.898 239.149 271.026 242.902 261.514C245.482 254.703 245.013 249.066 242.55 241.316H216.28L215.928 276.78Z" fill="#37474F"/>
<path d="M226.952 241.903L185.318 233.683C185.318 239.554 184.262 240.494 178.281 241.786C154.239 246.953 144.622 248.832 138.406 254.233L160.923 281.125C160.923 281.125 166.436 280.891 181.447 282.887C184.966 283.357 190.126 283.826 195.404 284.414C207.718 285.705 212.761 283.239 217.218 281.243C228.008 276.428 233.872 262.571 226.952 241.903Z" fill="#455A64"/>
<path d="M240.791 232.156C240.791 232.156 240.673 232.391 240.556 232.626C240.439 231.569 240.439 230.512 240.439 229.338C240.439 227.107 240.439 224.875 240.673 222.879H183.91C184.145 226.637 184.379 229.69 184.496 232.978C184.379 234.387 184.496 237.206 184.496 237.206C184.145 238.263 183.675 239.085 182.854 240.024C184.379 242.843 192.002 250.123 202.557 252.824C213.113 255.525 227.421 256.465 235.396 253.177C243.371 249.889 244.426 246.483 244.426 246.483C244.426 246.483 243.371 243.547 242.315 240.024C241.143 236.501 240.791 232.156 240.791 232.156Z" fill="#9999FF"/>
<path d="M230.588 273.492C232.23 272.67 233.754 271.848 235.162 270.791C237.625 267.856 239.267 263.276 239.853 260.575C241.026 254.703 240.205 247.422 237.156 243.077L235.162 244.956C237.742 248.479 238.797 255.055 237.156 261.045C236.217 264.45 233.285 270.791 230.588 273.492Z" fill="#263238"/>
<path d="M236.804 261.866C237.038 266.211 238.563 270.439 240.205 272.318C240.205 272.318 241.612 272.2 242.668 271.378C241.143 270.439 239.149 265.037 239.267 262.336L236.804 261.866Z" fill="#455A64"/>
<path d="M237.859 255.29C236.804 255.643 237.273 256.699 237.156 258.696C236.921 260.575 236.335 261.397 236.804 261.866C237.39 262.219 239.267 262.689 240.088 262.101C240.791 261.514 241.026 259.048 241.026 257.404C240.909 255.76 241.026 255.29 240.439 255.29C240.439 256.23 237.859 256.347 237.859 255.29Z" fill="#9999FF"/>
<path d="M220.736 250.828C220.502 255.878 218.156 260.105 211.706 266.212C203.965 273.493 176.17 275.606 176.17 275.606L174.997 273.023C174.997 273.023 203.144 270.439 209.595 264.333C216.045 258.226 217.804 255.056 218.156 250.828H220.736Z" fill="#263238"/>
<path d="M210.415 263.628C208.656 265.977 207.835 269.97 208.304 275.019C209.125 275.724 210.767 275.606 210.767 275.606C210.767 275.606 210.533 272.201 210.65 270.204C210.767 267.973 211.94 266.094 212.527 265.39L210.415 263.628Z" fill="#37474F"/>
<path d="M215.107 258.579C214.051 258.226 213.934 259.518 212.527 260.927C211.237 262.336 210.181 262.806 210.298 263.393C210.416 263.981 212.175 265.742 213.113 265.507C214.051 265.155 215.342 263.628 216.28 262.336C217.218 261.045 217.57 260.692 217.101 260.223C216.632 261.045 214.403 259.401 215.107 258.579Z" fill="#9999FF"/>
<path d="M188.953 283.826L186.373 283.591C176.404 278.659 171.361 267.151 171.596 257.756C171.713 248.362 173.472 243.077 173.472 243.077L175.232 242.608C175.232 242.608 174.645 241.433 172.534 242.138C168.078 243.43 164.911 244.017 163.855 245.896C160.454 252.12 161.275 263.041 162.565 268.325C165.028 277.837 170.54 281.478 173.238 282.652C175.935 283.826 179.454 284.531 183.207 284.648C188.015 284.883 189.071 285.001 188.953 283.826Z" fill="#37474F"/>
<path d="M184.262 230.865C184.262 230.865 190.712 234.505 203.73 235.21C216.866 235.914 227.186 234.505 232.933 232.743C238.562 230.982 240.322 229.221 240.322 229.221V227.224C240.322 227.224 241.143 226.52 241.377 228.516C241.494 230.512 241.26 233.918 241.964 236.149C242.667 238.498 243.606 240.142 243.723 242.021C243.84 243.9 241.846 246.953 234.106 249.889C226.365 252.824 209.243 251.65 203.613 249.536C197.984 247.422 193.41 241.433 190.126 239.907C186.842 238.263 184.966 237.793 184.262 237.441C183.558 237.088 183.558 236.149 183.558 233.683C183.558 232.039 183.206 229.455 184.262 229.338V230.865Z" fill="#263238"/>
<path d="M242.785 238.732C242.198 239.32 241.495 239.907 240.674 240.376C239.149 241.081 237.859 240.846 236.334 240.494C234.458 240.024 232.464 239.554 229.415 240.494C227.538 241.081 226.131 242.02 224.841 243.077C222.613 244.604 220.384 246.248 215.928 246.366C209.829 246.6 202.792 244.252 194.7 241.551C193.175 241.081 191.651 240.494 190.009 240.024H190.126C190.947 240.494 191.885 241.198 192.941 242.021C193.41 242.138 193.879 242.373 194.348 242.49C202.206 245.074 209.008 247.422 215.107 247.422C215.341 247.422 215.693 247.422 215.928 247.422C220.736 247.305 223.199 245.426 225.427 243.899C226.835 242.96 228.007 242.021 229.767 241.433C232.581 240.611 234.458 240.964 236.217 241.433C237.859 241.786 239.384 242.138 241.26 241.316C242.081 240.964 242.667 240.376 243.254 239.907C243.019 239.437 242.902 239.085 242.785 238.732Z" fill="#37474F"/>
<path d="M237.624 232.861C237.272 232.978 236.921 233.331 237.038 233.8C238.328 240.024 236.217 244.722 231.526 246.248C227.773 247.422 224.958 246.366 223.199 245.191C220.853 243.665 219.211 241.199 218.86 238.85C218.86 238.498 218.39 238.145 218.039 238.263C217.569 238.263 217.335 238.732 217.452 239.085C217.804 241.903 219.798 244.722 222.495 246.483C224.254 247.657 226.365 248.244 228.476 248.244C229.649 248.244 230.822 248.01 231.995 247.657C237.39 246.013 239.97 240.377 238.563 233.565C238.445 232.978 237.976 232.743 237.624 232.861ZM216.749 246.131C216.397 246.013 215.928 246.248 215.81 246.6C214.755 249.771 211.588 252.824 205.841 251.415C203.613 250.828 202.089 249.771 201.385 248.244C200.564 246.6 200.916 244.839 201.385 243.782C201.502 243.43 201.385 242.96 201.033 242.725C200.681 242.608 200.212 242.725 200.095 243.077C199.508 244.369 199.157 246.718 200.095 248.832C200.681 250.241 202.206 252.002 205.49 252.824C206.545 253.059 207.601 253.177 208.539 253.177C213.113 253.177 216.162 250.241 217.218 246.953C217.335 246.718 217.1 246.248 216.749 246.131ZM247.71 243.077C247.476 242.725 247.007 242.608 246.655 242.843C245.599 243.43 243.957 243.782 241.26 239.907C241.025 239.555 240.556 239.437 240.204 239.789C239.853 240.024 239.735 240.494 240.087 240.846C241.964 243.547 243.723 244.839 245.482 244.839C246.186 244.839 246.772 244.604 247.476 244.252C247.828 243.899 247.945 243.43 247.71 243.077Z" fill="#FAFAFA"/>
<path d="M156.35 288.876L175.466 199.51L185.552 305.904" stroke="#37474F" stroke-width="1.4486" stroke-miterlimit="10" stroke-linecap="round" stroke-linejoin="round"/>
<path d="M190.712 334.322L150.016 333.735L149.665 367.086C149.665 370.139 151.541 373.192 155.529 375.541C163.386 380.238 176.287 380.355 184.379 375.893C188.367 373.662 190.478 370.609 190.478 367.555L190.712 334.322Z" fill="#37474F"/>
<path d="M156.115 325.515C148.14 329.977 148.023 337.493 155.88 342.19C163.738 346.887 176.639 347.005 184.731 342.542C192.706 338.08 192.823 330.564 184.966 325.867C176.991 321.17 164.09 320.935 156.115 325.515Z" fill="#455A64"/>
<path d="M189.071 334.205C189.071 334.792 188.953 335.262 188.836 335.849C188.25 337.728 186.608 339.489 183.91 341.016C180.275 343.012 175.466 344.069 170.306 344.069C165.146 343.951 160.337 342.777 156.819 340.663C154.356 339.137 152.714 337.375 152.128 335.496C151.893 334.909 151.893 334.322 151.893 333.735C151.893 331.269 153.77 328.803 157.053 327.041C160.689 325.045 165.498 323.871 170.658 323.988C175.818 323.988 180.627 325.28 184.145 327.394C187.312 329.273 189.071 331.739 189.071 334.205Z" fill="#263238"/>
<path d="M188.719 335.731C188.132 337.61 186.491 339.372 183.793 340.898C180.157 342.895 175.349 343.951 170.189 343.951C165.028 343.834 160.22 342.66 156.701 340.546C154.239 339.019 152.597 337.258 152.01 335.379C152.597 333.5 154.239 331.739 156.936 330.212C160.572 328.216 165.38 327.041 170.54 327.159C175.701 327.276 180.509 328.45 184.028 330.564C186.491 332.091 188.132 333.852 188.719 335.731Z" fill="#9999FF"/>
<path opacity="0.15" d="M183.793 340.898C184.497 340.546 185.083 340.076 185.67 339.724C178.281 343.717 165.38 342.073 161.393 338.902C157.405 335.731 156.819 330.447 163.386 327.981C160.924 328.45 158.812 329.272 156.936 330.329C154.356 331.739 152.714 333.5 152.01 335.496C152.597 337.375 154.239 339.137 156.701 340.663C160.22 342.777 165.028 343.951 170.189 344.069C175.466 344.069 180.275 342.895 183.793 340.898Z" fill="black"/>
<path d="M179.102 346.77C180.04 346.3 180.744 346.652 180.744 347.709C180.744 348.766 180.04 349.94 179.102 350.528C178.164 350.997 177.46 350.645 177.46 349.588C177.46 348.531 178.164 347.24 179.102 346.77Z" fill="#263238"/>
<path d="M179.923 348.531C179.923 349.001 179.571 349.353 179.102 349.353C178.633 349.353 178.281 349.001 178.281 348.531C178.281 347.592 178.281 346.3 178.281 344.891C178.163 339.137 177.929 330.33 176.287 322.696C174.997 316.473 172.769 311.071 169.016 308.722C167.374 307.665 165.966 307.548 164.676 308.252C161.275 310.131 159.399 317.295 158.46 324.34C157.874 324.575 157.17 324.81 156.584 325.162C157.405 317.647 159.516 309.074 163.855 306.726C165.732 305.669 167.726 305.904 169.954 307.195C174.176 309.896 176.756 315.768 178.163 322.931C179.454 329.625 179.923 337.375 180.04 344.304C179.923 345.831 179.923 347.24 179.923 348.531Z" fill="#E0E0E0"/>
<path d="M169.367 311.071C167.022 311.658 164.793 310.483 163.855 308.252L161.861 303.203C160.923 300.971 161.861 298.505 163.855 297.331L166.084 296.039C167.491 295.217 169.133 295.217 170.54 295.804C171.948 296.509 173.003 297.801 173.238 299.445L173.941 304.377C174.293 307.548 172.299 310.366 169.367 311.071ZM167.843 297.566C167.608 297.683 167.374 297.683 167.139 297.918L164.911 299.21C163.738 299.914 163.269 301.324 163.738 302.498L165.732 307.548C166.201 308.722 167.491 309.426 168.781 309.074C170.657 308.604 171.948 306.843 171.596 304.847L170.892 299.914C170.775 298.975 170.188 298.27 169.367 297.918C169.016 297.448 168.429 297.448 167.843 297.566Z" fill="#263238"/>
<path d="M179.923 344.421C179.805 337.493 179.453 329.742 178.046 323.049C176.639 315.885 174.059 309.896 169.837 307.313C168.898 306.726 168.077 306.373 167.256 306.256V308.017C167.843 308.135 168.429 308.37 169.016 308.722C172.651 311.071 174.88 316.472 176.287 322.696C177.929 330.329 178.281 339.137 178.281 344.891C178.281 346.3 178.281 347.475 178.281 348.531C178.281 349.001 178.632 349.353 179.102 349.353C179.571 349.353 179.923 349.001 179.923 348.531C179.923 347.24 179.923 345.83 179.923 344.421Z" fill="#E0E0E0"/>
<path d="M247.241 186.945C249.118 178.02 251.698 167.686 246.186 159.231C242.902 154.181 238.563 151.598 232.933 148.192C224.372 142.908 199.626 127.29 199.626 127.29C199.626 127.29 187.663 90.2984 186.49 87.0103C186.021 85.6011 181.33 85.836 179.805 85.7186C178.281 85.6011 176.873 85.9534 175.466 86.4232C174.997 86.5406 174.528 86.7755 174.176 87.1278C173.355 87.8324 173.121 89.0067 173.238 90.0636C174.645 99.4581 178.398 124.119 179.219 130.108C180.275 138.093 181.682 140.794 186.49 144.435C193.058 149.484 220.267 169.8 220.267 169.8L247.241 186.945Z" fill="#F28F8F"/>
<path d="M173.941 96.8745C176.756 98.8709 186.021 96.1699 188.953 92.7644L200.447 127.524C200.447 127.524 228.125 144.669 233.989 148.427C239.853 152.185 254.63 159.701 247.476 185.771L224.606 186.24L207.601 160.992C207.601 160.992 193.058 150.306 188.836 147.135C182.386 142.321 180.275 140.09 179.336 134.57C177.929 125.293 173.941 96.8745 173.941 96.8745Z" fill="#455A64"/>
<path d="M187.898 90.8856C188.015 90.8856 186.021 83.2525 185.787 82.6653C185.2 80.1993 184.614 77.7332 183.91 75.2671C183.207 73.0359 181.565 71.6267 179.688 70.4524C177.577 69.1606 175.349 67.9863 173.121 67.0469C171.596 66.4597 170.071 65.99 168.547 65.8726C167.843 65.8726 167.139 65.7551 166.553 66.1074C165.849 66.4597 165.263 67.1643 165.146 67.9863C164.911 68.8084 165.028 69.6304 165.263 70.4524C165.38 71.0396 165.615 71.6267 165.497 72.2139C165.38 73.0359 164.559 73.6231 164.325 74.3277C163.973 75.1497 164.207 76.2066 164.677 77.0286C164.794 77.2635 164.911 77.4983 165.028 77.8506C165.146 78.7901 164.207 79.4947 164.207 80.4341C164.207 81.2561 165.028 81.9607 165.028 82.7828C165.028 83.1351 164.911 83.4874 164.794 83.8397C164.677 84.5442 165.146 85.2488 165.615 85.9534C166.905 87.5975 168.899 88.6544 170.775 89.7113C172.417 90.6507 173.707 91.7076 174.059 93.5865C174.293 96.2875 187.898 90.8856 187.898 90.8856Z" fill="#F28F8F"/>
<path d="M173.355 72.214C174.411 72.8011 175.583 73.3883 176.639 73.9755C177.343 74.3278 177.929 74.7975 178.398 75.5021C178.867 76.0892 179.102 77.0287 178.867 77.7333C178.633 78.4379 177.812 79.025 177.108 78.9076C177.812 79.3773 178.046 80.4342 177.694 81.1388C177.343 81.9608 176.522 82.4306 175.701 82.3131C176.404 82.6654 176.756 83.4875 176.639 84.192C176.522 85.1315 175.818 85.4838 174.997 85.7187C175.466 86.0709 175.935 86.5407 175.935 87.1278C175.935 87.715 175.466 88.3022 174.997 88.537C174.411 88.7719 173.824 88.8893 173.238 88.8893C172.534 88.8893 171.948 88.8893 171.244 88.8893C170.892 88.8893 170.54 88.7719 170.189 88.6545C169.485 88.3022 169.133 86.7756 168.781 86.1884C168.312 85.1315 167.96 84.0746 167.608 82.9003C166.905 80.6691 166.553 78.4379 166.436 76.0892C166.318 73.7406 166.436 71.2745 167.96 69.513C168.195 69.2782 168.312 69.0433 168.664 68.9259C169.602 68.5736 170.54 69.3956 171.009 69.9828C171.713 70.8048 172.417 71.6268 173.355 72.214Z" fill="#B16668"/>
<path d="M176.639 79.612C176.287 79.1423 175.701 78.6726 175.114 78.3203C176.053 78.4377 177.343 78.3203 177.577 77.8505C178.046 77.0285 177.694 75.5019 176.991 74.9147C175.935 73.9753 174.528 73.623 173.355 72.9184C172.534 72.3312 171.479 69.8652 170.658 68.2211C170.306 67.3991 169.837 66.1073 168.898 65.9899C167.843 65.8725 166.436 65.8725 165.615 66.6945C165.028 67.2817 164.794 68.1037 164.676 69.1606C164.676 69.8652 164.325 70.8046 163.855 71.3918C163.738 71.5092 163.738 71.5092 163.621 71.6267C162.917 72.5661 162.683 73.8579 163.034 74.9147C163.152 75.3845 163.386 75.9716 163.386 76.4414C163.386 77.6157 162.331 78.5551 162.683 79.8469C162.8 80.4341 163.034 80.7863 163.034 81.3735C162.917 82.0781 162.565 82.6653 162.448 83.3698C162.331 83.957 162.8 84.779 163.152 85.1313C165.028 87.0102 165.849 87.5974 167.257 88.4194C167.96 88.7717 169.133 89.0066 171.948 88.6543C172.769 88.5369 173.941 88.302 174.411 88.1846C174.88 88.0671 175.232 87.8323 175.232 87.3625C175.232 87.1277 175.114 86.7754 174.997 86.5405C174.645 86.0708 173.941 85.7185 173.472 85.4836C173.941 85.4836 174.411 85.3662 174.88 85.2488C175.701 84.8965 175.701 84.0744 175.349 83.4873C174.997 82.7827 174.411 82.4304 173.941 82.1955C175.466 82.1955 176.17 81.8432 176.404 81.6084C177.108 80.9038 176.991 80.1992 176.639 79.612Z" fill="#F28F8F"/>
<path d="M165.028 70.4524C166.905 72.4487 168.312 74.9148 170.423 76.6763C171.831 77.4983 173.472 77.8506 174.997 78.3203C173.238 78.3203 171.479 78.2029 169.954 77.3809C167.608 75.7368 166.318 73.0359 165.028 70.4524Z" fill="#B16668"/>
<path d="M163.738 76.2065C165.732 77.7332 167.374 79.8469 169.485 81.1387C170.892 81.7258 172.417 81.8433 173.942 82.0781C172.417 82.313 170.775 82.4304 169.25 81.8433C166.788 80.5515 165.146 78.3203 163.738 76.2065Z" fill="#B16668"/>
<path d="M163.386 81.2561C165.028 82.313 166.435 83.6047 167.96 84.5442C169.485 85.3662 171.596 85.1314 173.355 85.3662C171.479 85.6011 169.368 86.1883 167.608 85.2488C165.966 84.1919 164.559 82.7827 163.386 81.2561Z" fill="#B16668"/>
<path d="M184.262 81.8432C184.028 81.0212 183.793 80.0817 183.441 79.2597C183.207 78.6726 183.089 78.0854 182.855 77.6157C182.738 77.2634 182.62 76.5588 182.386 76.2065C181.917 75.6193 180.627 76.0891 180.04 76.2065C178.985 76.3239 178.046 76.5588 176.991 76.5588C175.349 76.6762 174.176 76.4413 172.886 75.5019C171.948 74.7973 171.127 74.0927 170.071 73.623C169.25 73.2707 168.664 73.3881 167.96 73.623C167.726 73.7404 167.491 73.8578 167.491 74.0927C167.491 74.2101 167.491 74.445 167.491 74.5624C167.96 76.3239 168.781 77.7331 169.72 79.3772C170.071 79.9643 170.423 80.5515 170.775 81.0212C171.361 81.6084 172.065 82.0781 172.769 82.5478C174.528 83.6047 176.404 84.6616 178.398 85.4836C180.04 86.3056 181.799 87.3625 183.793 87.3625C184.849 87.3625 185.318 86.7754 185.2 85.7185C184.966 84.5442 184.614 83.135 184.262 81.8432Z" fill="#F28F8F"/>
<path d="M180.157 76.324C178.75 76.5589 176.991 77.0286 175.701 76.9112C172.886 77.0286 170.775 72.6836 167.96 74.3277C167.96 74.3277 167.96 74.4451 167.96 74.5626C168.781 76.9112 170.071 79.9644 171.948 81.6085C173.121 82.5479 174.528 83.1351 175.818 83.8397C178.398 85.1314 180.978 87.2452 183.91 87.5975C180.861 87.5975 178.164 85.7186 175.466 84.4268C174.059 83.7223 172.769 83.1351 171.479 82.1956C169.368 80.4342 168.312 77.7332 167.374 75.2671C167.257 74.7974 167.022 74.3277 167.374 73.858C167.726 73.3882 168.195 73.3882 168.664 73.2708C169.954 72.9185 171.127 73.7405 172.065 74.4451C173.238 75.3846 174.293 76.4415 175.818 76.5589C177.108 76.6763 178.633 76.324 180.157 76.324Z" fill="#B16668"/>
<path d="M177.577 170.387V85.3662C177.225 85.1313 176.756 85.0139 176.404 84.7791C176.17 85.2488 175.583 85.4836 174.997 85.6011C175.466 85.9534 175.935 86.4231 175.935 87.0103C175.935 87.5974 175.466 88.1846 174.997 88.5369C174.528 88.7717 173.824 88.8892 173.238 88.8892V170.387H177.577Z" fill="#263238"/>
<path d="M177.577 74.5625C176.287 73.623 175.231 73.3882 173.355 72.2139V-68H177.577V74.5625Z" fill="#263238"/>
<path d="M210.415 151.48L212.526 166.394L232.581 165.337L230.47 149.249L210.415 151.48Z" fill="#FFA8A7"/>
<path d="M202.44 123.766C200.916 125.763 196.107 131.634 195.873 132.809L199.86 135.275L202.44 123.766Z" fill="#B16668"/>
<path d="M213.582 108.852C207.366 108.148 203.261 112.61 201.502 125.88C201.385 126.35 200.681 127.172 200.095 129.168C197.632 137.741 199.039 145.844 200.446 147.957C204.082 150.893 208.07 151.95 213.816 151.48C218.273 151.128 226.834 151.011 232.581 145.021C239.266 137.976 245.482 126.115 240.673 120.596C233.988 112.728 217.1 109.205 213.582 108.852Z" fill="#FFA8A7"/>
<path d="M200.446 147.957C201.267 149.132 206.897 152.067 210.532 152.302L210.18 149.484C210.18 149.484 205.372 149.484 200.446 147.957Z" fill="#B16668"/>
<path d="M239.149 117.073C243.723 119.891 247.006 128.933 239.852 138.68C236.803 142.79 233.402 144.434 230.47 149.249C224.489 151.128 217.804 150.071 217.804 150.071C213.464 146.196 213.934 138.915 213.934 138.915C213.934 138.915 217.569 142.203 221.674 138.328C224.254 135.979 225.779 128.816 220.618 128.464C219.211 128.346 217.804 128.933 216.748 129.755C215.81 130.46 215.224 131.517 214.52 132.339C213.934 133.044 212.643 133.044 212.409 131.987C211.94 130.108 212.174 128.581 212.292 128.229C214.051 122.592 210.415 123.649 208.773 121.418C207.835 120.126 208.773 117.425 209.125 116.133C214.051 114.489 239.149 117.073 239.149 117.073Z" fill="#455A64"/>
<path d="M209.125 116.133C209.125 115.194 208.187 114.254 207.483 113.785C206.897 113.315 205.607 112.728 204.903 112.61C205.49 110.027 206.897 107.561 208.891 105.799C216.279 99.223 224.254 104.39 231.643 107.678C237.273 110.144 243.371 111.906 240.908 118.717C236.1 122.24 215.576 119.421 209.125 116.133Z" fill="#263238"/>
<path d="M217.218 123.179C217.218 123.179 212.878 129.873 212.761 137.858C212.761 138.798 213.23 139.502 214.168 139.972C214.168 139.972 221.909 142.79 229.532 134.805L231.174 135.51C231.174 135.51 224.841 144.904 212.409 141.733C212.409 141.733 209.712 144.082 209.595 149.014C209.595 151.48 210.181 152.302 210.181 152.302C210.181 152.302 209.243 152.302 208.187 151.833C207.366 149.132 207.484 144.904 211.237 139.972C210.064 136.684 211.354 128.933 215.576 122.005L217.218 123.179Z" fill="#37474F"/>
<path d="M211.705 120.948C203.027 119.774 195.521 114.607 196.225 108.735C196.811 103.568 204.2 100.632 212.292 103.451C212.292 103.451 211.705 121.065 211.705 120.948Z" fill="#9999FF"/>
<path opacity="0.3" d="M211.705 120.948C203.027 119.774 195.521 114.607 196.225 108.735C196.811 103.568 204.2 100.632 212.292 103.451C212.292 103.451 211.705 121.065 211.705 120.948Z" fill="white"/>
<path d="M217.335 128.346C211.354 124.236 204.434 118.952 202.44 112.258C203.379 109.44 204.669 107.443 207.601 103.92C212.878 97.5791 225.427 95.5827 235.513 101.219C245.599 106.856 248.297 117.777 245.951 127.877C245.13 131.634 243.019 135.157 241.143 137.741C230.588 137.623 224.606 133.278 217.335 128.346Z" fill="#9999FF"/>
<g opacity="0.3">
<path d="M235.044 101.102C234.223 100.75 233.52 100.28 232.699 100.045C241.612 106.621 243.488 119.656 242.668 130.225C242.55 131.987 242.316 133.748 242.081 135.51C245.6 124.471 244.661 108.618 235.044 101.102Z" fill="black"/>
<path d="M222.144 98.0488C233.989 103.451 237.507 117.543 236.217 129.521C236.1 131.282 235.865 133.044 235.631 134.805C240.087 121.653 237.155 102.746 222.144 98.0488Z" fill="black"/>
</g>
<path d="M182.737 209.257C183.206 216.538 183.675 221.587 184.027 225.932C193.41 231.334 229.297 233.683 240.322 225.932C240.556 219.121 241.729 213.367 242.55 210.314C245.834 196.927 247.241 190.35 247.945 180.721C248.531 172.853 246.068 160.758 240.439 158.526C237.155 157.117 236.569 156.647 231.408 156.765L231.526 157.822C228.594 160.288 216.162 161.814 211.588 160.64C211.588 160.64 200.329 159.818 196.107 161.345C192.002 162.871 194.582 166.747 192.12 171.209C189.657 176.611 180.861 179.429 181.564 190.35C181.916 197.279 182.033 198.453 182.737 209.257Z" fill="#9999FF"/>
<path d="M125.974 129.403C124.684 129.99 122.69 129.873 121.517 129.051C120.931 128.698 120.696 128.111 120.696 127.642L125.387 60.9402L131.721 61.4099L127.029 128.111C126.912 128.698 126.56 129.168 125.974 129.403Z" fill="#263238"/>
<path d="M118.703 65.52C123.628 63.876 124.567 66.1072 124.215 71.2742C123.863 76.4412 123.628 80.0816 123.628 80.0816C123.628 80.0816 124.215 81.6082 127.147 81.9605C130.079 82.3128 130.665 80.6688 130.665 80.6688C130.665 80.6688 131.017 74.7972 131.252 71.7439C131.486 68.5733 132.19 59.8833 138.406 57.2998L118.703 65.52Z" fill="#9999FF"/>
<path d="M93.7222 64.8155L101.111 70.5697L159.516 46.0264L152.01 40.3896L93.7222 64.8155Z" fill="#9999FF"/>
<path opacity="0.5" d="M93.7222 64.8155L101.111 70.5697L159.516 46.0264L152.01 40.3896L93.7222 64.8155Z" fill="white"/>
<path d="M93.7221 64.8154L101.111 70.5696L100.759 73.9751L93.2529 68.221L93.7221 64.8154Z" fill="#9999FF"/>
<path d="M159.516 46.0264L159.047 49.4319L100.759 73.9752L101.111 70.5697L159.516 46.0264Z" fill="#9999FF"/>
<path opacity="0.3" d="M159.516 46.0264L159.047 49.4319L100.759 73.9752L101.111 70.5697L159.516 46.0264Z" fill="white"/>
<path d="M93.2528 68.221L85.395 60.5879L93.7219 64.8154L93.2528 68.221Z" fill="#37474F"/>
<path d="M152.01 40.3897L93.7219 64.8155L85.395 60.588L143.683 36.0447L152.01 40.3897Z" fill="#455A64"/>
<path d="M142.745 171.326C148.609 173.91 158.46 177.433 168.546 181.308C178.632 185.183 181.213 190.938 182.034 195.87C190.009 196.927 198.218 187.532 200.212 179.781C202.323 171.326 201.15 163.928 199.508 161.697C195.169 160.523 193.175 160.405 183.558 158.291C176.873 156.882 173.707 156.413 166.787 154.768C160.454 153.242 152.362 151.128 152.362 151.128C152.362 151.128 144.269 131.987 141.22 124.941C138.054 117.895 136.764 116.955 135.825 109.909C135.591 107.796 135.239 105.799 134.652 103.803C133.949 100.985 133.48 97.4616 133.48 94.5258C133.48 94.0561 133.48 93.469 133.362 92.9992C133.128 92.5295 132.659 92.0598 132.19 92.1772C131.955 92.1772 131.72 92.2946 131.486 92.4121C129.961 93.3515 128.788 94.9956 128.554 96.757C128.437 97.8139 128.319 99.1057 128.319 100.28C128.319 101.337 129.023 103.686 128.085 104.508C127.029 105.447 123.863 105.564 122.338 104.038L123.042 94.7607C123.042 94.7607 120.579 96.1699 118.468 97.2268C117.06 97.9314 115.419 98.8708 114.715 100.397C114.246 101.337 114.598 102.276 114.48 103.216C114.363 104.038 114.011 104.742 113.542 105.447C113.073 106.152 112.956 107.208 113.19 108.031C113.308 108.5 113.542 108.853 113.542 109.322C113.659 110.144 113.19 110.966 113.073 111.788C112.956 113.315 114.246 114.724 114.128 116.368C114.128 116.72 114.011 117.073 114.011 117.543C114.011 120.713 118.468 122.475 120.462 124.119C123.159 126.232 125.505 128.699 127.029 131.634C128.202 133.983 128.554 136.919 129.14 139.385C130.313 144.434 131.486 149.601 132.541 154.651C132.893 156.06 133.245 157.469 133.597 158.879C135.708 167.803 136.763 168.625 142.745 171.326Z" fill="#FFA8A7"/>
<path d="M201.854 160.405C197.397 159.935 154.004 150.306 154.004 150.306L142.158 125.293C142.158 125.293 141.338 129.755 134.653 131.869C127.968 134.1 126.912 132.809 126.912 132.809C126.912 132.809 132.307 155.708 133.362 161.814C134.301 167.921 135.474 168.978 140.047 171.561C144.739 174.145 167.725 181.308 173.003 184.948C178.281 188.589 181.682 193.873 182.034 197.749C194.583 200.919 206.545 181.308 201.854 160.405Z" fill="#455A64"/>
</g>
<defs>
<clipPath id="clip0_262_2525">
<rect width="526" height="486" fill="white"/>
</clipPath>
</defs>
</svg>
