<svg width="546" height="372" viewBox="0 0 546 372" fill="none" xmlns="http://www.w3.org/2000/svg">
<path d="M185.588 23.301H118.689V149.454H185.588V23.301Z" fill="#E6E6E6"/>
<path d="M182.312 23.301H103.762V149.454H182.312V23.301Z" fill="#F0F0F0"/>
<path d="M170.388 34.5874H115.686V138.35H170.388V34.5874Z" fill="white"/>
<path d="M153.914 69.6299H136.256V96.6626H153.914V69.6299Z" fill="#E0E0E0"/>
<path d="M541.862 300.222C538.767 296.855 533.033 294.852 526.934 294.124C527.481 295.853 527.299 297.492 526.297 297.947C525.205 298.493 523.567 297.31 522.657 295.398C522.383 294.852 522.292 294.306 522.201 293.76C516.012 293.669 509.914 294.761 506 297.037C506 297.037 510.278 300.404 515.375 309.597C515.557 309.597 515.648 309.597 515.83 309.597C518.743 309.415 521.2 310.69 521.291 312.419C521.382 313.693 520.108 314.785 518.379 315.423C518.652 316.06 518.925 316.606 519.198 317.243C524.295 328.711 535.308 319.427 534.671 311.418C534.58 311.418 548.87 307.686 541.862 300.222Z" fill="#34D399"/>
<path d="M534.398 297.674C535.672 291.211 541.224 284.567 548.233 279.015C548.779 281.563 550.326 283.383 551.874 283.201C553.603 283.019 554.786 280.38 554.422 277.376C554.331 276.557 554.149 275.738 553.785 275.101C561.34 270.368 569.622 267.182 576.176 267C576.176 267 573.445 274.282 573.991 289.482C573.809 289.573 573.627 289.664 573.445 289.755C569.713 291.757 567.62 295.125 568.803 297.309C569.623 298.948 571.989 299.403 574.629 298.766C574.72 299.676 574.811 300.677 574.993 301.587C577.268 319.427 556.88 316.242 551.692 305.956C551.692 306.047 531.394 312.055 534.398 297.674Z" fill="#5DDCAD"/>
<path d="M549.052 338.359C545.684 319.518 550.69 299.221 562.614 284.203" stroke="#263238" stroke-width="0.75" stroke-miterlimit="10"/>
<path d="M523.84 302.134C538.13 309.506 545.958 325.435 548.142 331.624C548.142 331.624 565.618 318.972 573.992 313.511" stroke="#263238" stroke-width="0.75" stroke-miterlimit="10" stroke-linecap="round" stroke-linejoin="round"/>
<path d="M569.987 344.457H527.117V336.539H569.987V344.457Z" fill="#263238"/>
<path d="M530.211 341.909L536.947 369.761H561.613L567.529 341.909H530.211Z" fill="#263238"/>
<path d="M613.197 250.303H448.725C445.812 250.303 443.355 247.937 443.355 244.933V5.37015C443.355 2.45752 445.721 0 448.725 0H613.197C616.11 0 618.567 2.36651 618.567 5.37015V245.024C618.567 247.937 616.201 250.303 613.197 250.303ZM448.725 0.273058C445.904 0.273058 443.628 2.54854 443.628 5.37015V245.024C443.628 247.846 445.904 250.121 448.725 250.121H613.197C616.019 250.121 618.294 247.846 618.294 245.024V5.37015C618.294 2.54854 616.019 0.273058 613.197 0.273058H448.725Z" fill="#E0E0E0"/>
<path d="M423.513 250.303H259.041C256.128 250.303 253.671 247.937 253.671 244.933V5.37015C253.671 2.45752 256.037 0 259.041 0H423.513C426.426 0 428.883 2.36651 428.883 5.37015V245.024C428.883 247.937 426.426 250.303 423.513 250.303ZM259.041 0.273058C256.219 0.273058 253.944 2.54854 253.944 5.37015V245.024C253.944 247.846 256.219 250.121 259.041 250.121H423.513C426.335 250.121 428.61 247.846 428.61 245.024V5.37015C428.61 2.54854 426.335 0.273058 423.513 0.273058H259.041Z" fill="#E0E0E0"/>
<path d="M233.92 250.303H69.4478C66.5352 250.303 64.0776 247.937 64.0776 244.933V5.37015C64.0776 2.36651 66.4441 0 69.4478 0H233.92C236.833 0 239.29 2.36651 239.29 5.37015V245.024C239.29 247.937 236.833 250.303 233.92 250.303ZM69.4478 0.273058C66.6262 0.273058 64.3507 2.54854 64.3507 5.37015V245.024C64.3507 247.846 66.6262 250.121 69.4478 250.121H233.92C236.741 250.121 239.017 247.846 239.017 245.024V5.37015C239.017 2.54854 236.741 0.273058 233.92 0.273058H69.4478Z" fill="#E0E0E0"/>
<path d="M682.646 305.916H0V306.007H682.646V305.916Z" fill="#E0E0E0"/>
<path d="M463.835 336.772H450.546V337.136H463.835V336.772Z" fill="#EBEBEB"/>
<path d="M103.125 320.935H36.9536V321.299H103.125V320.935Z" fill="#EBEBEB"/>
<path d="M126.517 320.935H116.778V321.299H126.517V320.935Z" fill="#EBEBEB"/>
<path d="M301.456 327.397H158.01V327.761H301.456V327.397Z" fill="#EBEBEB"/>
<path d="M531.371 369.448C531.371 372.543 430.34 375 305.734 375C181.129 375 80.0972 372.543 80.0972 369.448C80.0972 366.353 181.129 363.896 305.734 363.896C430.34 363.896 531.371 366.353 531.371 369.448Z" fill="#F5F5F5"/>
<path d="M594.721 19.6604H475.03V191.323H594.721V19.6604Z" fill="#6339F5"/>
<path opacity="0.8" d="M594.721 19.6604H475.03V191.323H594.721V19.6604Z" fill="white"/>
<path opacity="0.8" d="M514.077 19.6604C492.688 33.1313 475.394 43.9626 475.394 43.9626V79.0051L570.782 19.6604H514.077Z" fill="white"/>
<path opacity="0.8" d="M594.721 19.6604H586.165C558.859 37.9553 475.303 90.2005 475.303 90.2005V104.764L594.721 30.4917V19.6604Z" fill="white"/>
<path d="M403.489 18.9321H283.798V190.595H403.489V18.9321Z" fill="#6339F5"/>
<path opacity="0.8" d="M403.489 18.9321H283.798V190.595H403.489V18.9321Z" fill="white"/>
<path opacity="0.8" d="M403.58 18.9321C403.58 21.0256 284.162 95.7525 284.162 95.7525V130.795L403.58 56.4321V18.9321Z" fill="white"/>
<path opacity="0.8" d="M403.58 68.0825C403.58 70.176 284.162 144.903 284.162 144.903V159.466L403.58 85.1942V68.0825Z" fill="white"/>
<path d="M170.752 173.119L167.931 158.556H196.329L198.604 163.471V158.556H203.337L203.974 164.836L205.795 158.556H214.351L210.619 172.664L170.752 173.119Z" fill="#6339F5"/>
<path opacity="0.3" d="M170.752 173.119L167.931 158.556H196.329L198.604 163.471V158.556H203.337L203.974 164.836L205.795 158.556H214.351L210.619 172.664L170.752 173.119Z" fill="white"/>
<path d="M191.231 177.215H186.771V235.194H191.231V177.215Z" fill="#263238"/>
<path d="M212.53 172.664H170.024V177.124H212.53V172.664Z" fill="#263238"/>
<path opacity="0.2" d="M191.232 177.215H186.772V179.945H191.232V177.215Z" fill="black"/>
<path d="M173.21 190.777C168.932 190.686 165.746 186.681 164.472 182.585C163.198 178.489 163.198 174.12 161.833 170.115C160.194 164.927 156.189 160.376 151.001 158.647C145.813 157.009 139.533 158.738 136.438 163.289C133.343 167.84 134.436 174.848 139.078 177.761L141.262 185.134C146.814 194.6 159.375 199.242 169.751 195.601C168.75 194.326 167.749 193.052 166.748 191.869C168.932 192.597 171.481 192.142 173.21 190.777Z" fill="#263238"/>
<g opacity="0.7">
<path d="M173.21 190.777C168.932 190.686 165.746 186.681 164.472 182.585C163.198 178.489 163.198 174.12 161.833 170.115C160.194 164.927 156.189 160.376 151.001 158.647C145.813 157.009 139.533 158.738 136.438 163.289C133.343 167.84 134.436 174.848 139.078 177.761L141.262 185.134C146.814 194.6 159.375 199.242 169.751 195.601C168.75 194.326 167.749 193.052 166.748 191.869C168.932 192.597 171.481 192.142 173.21 190.777Z" fill="white"/>
</g>
<path d="M144.63 178.216H141.626V268.143H144.63V178.216Z" fill="#263238"/>
<path opacity="0.4" d="M144.63 178.216H141.626V268.143H144.63V178.216Z" fill="white"/>
<path d="M139.806 178.216C139.806 178.216 138.168 177.579 137.167 176.123C137.167 176.123 149.272 176.305 149.181 176.123C148.999 175.941 148.089 177.852 145.904 178.216H139.806Z" fill="#6339F5"/>
<path d="M116.96 184.041C115.231 184.041 112.955 184.041 110.68 184.041C107.039 184.132 103.944 186.681 103.216 190.14L100.668 201.972L97.573 220.085C97.391 221.268 98.3012 222.451 99.5754 222.451H116.778C118.507 222.451 119.873 221.086 119.873 219.357V186.863C119.782 185.316 118.507 184.041 116.96 184.041ZM109.041 195.692L106.857 207.069C106.584 208.434 105.219 209.345 103.853 209.072C102.488 208.799 101.578 207.433 101.851 206.068L104.035 194.691C104.308 193.325 105.674 192.415 107.039 192.688C108.404 192.961 109.315 194.326 109.041 195.692Z" fill="#6339F5"/>
<path opacity="0.3" d="M116.96 184.041C115.231 184.041 112.955 184.041 110.68 184.041C107.039 184.132 103.944 186.681 103.216 190.14L100.668 201.972L97.573 220.085C97.391 221.268 98.3012 222.451 99.5754 222.451H116.778C118.507 222.451 119.873 221.086 119.873 219.357V186.863C119.782 185.316 118.507 184.041 116.96 184.041ZM109.041 195.692L106.857 207.069C106.584 208.434 105.219 209.345 103.853 209.072C102.488 208.799 101.578 207.433 101.851 206.068L104.035 194.691C104.308 193.325 105.674 192.415 107.039 192.688C108.404 192.961 109.315 194.326 109.041 195.692Z" fill="white"/>
<path d="M117.87 178.125H109.86V183.95H117.87V178.125Z" fill="#263238"/>
<path d="M132.16 353.337C130.704 354.066 132.16 216.535 132.16 216.535H208.162C208.162 216.535 195.055 354.612 193.599 353.337C192.142 352.154 132.16 353.337 132.16 353.337Z" fill="#6339F5"/>
<path opacity="0.2" d="M131.979 228.459L206.068 238.198L206.887 229.551L131.979 228.459Z" fill="black"/>
<path d="M74.363 350.334L69.812 301.001H113.501L108.586 350.152L74.363 350.334Z" fill="#263238"/>
<path opacity="0.3" d="M74.363 350.334L69.812 301.001H113.501L108.586 350.152L74.363 350.334Z" fill="white"/>
<path d="M115.14 300.546H68.0825V303.641H115.14V300.546Z" fill="#263238"/>
<path d="M203.792 349.879H68.0825V356.887H203.792V349.879Z" fill="#263238"/>
<path d="M126.699 221.541H117.961V349.788H126.699V221.541Z" fill="#263238"/>
<path d="M208.161 221.632H68.0825V228.823H208.161V221.632Z" fill="#263238"/>
<path d="M98.8925 360.159C100.004 353.311 95.3537 346.859 88.5061 345.748C81.6585 344.637 75.2065 349.287 74.0952 356.135C72.9839 362.982 77.6341 369.434 84.4816 370.545C91.3292 371.657 97.7812 367.007 98.8925 360.159Z" fill="#263238"/>
<path d="M86.4683 364.351C89.9369 364.351 92.7487 361.539 92.7487 358.07C92.7487 354.602 89.9369 351.79 86.4683 351.79C82.9998 351.79 80.188 354.602 80.188 358.07C80.188 361.539 82.9998 364.351 86.4683 364.351Z" fill="#6339F5"/>
<path d="M197.907 356.658C199.388 347.528 193.188 338.925 184.058 337.443C174.928 335.962 166.325 342.162 164.844 351.292C163.362 360.422 169.562 369.025 178.692 370.506C187.822 371.988 196.425 365.788 197.907 356.658Z" fill="#263238"/>
<path d="M181.402 362.257C186.026 362.257 189.775 358.508 189.775 353.883C189.775 349.259 186.026 345.51 181.402 345.51C176.777 345.51 173.028 349.259 173.028 353.883C173.028 358.508 176.777 362.257 181.402 362.257Z" fill="#6339F5"/>
<path d="M96.3897 175.849H94.5693V181.037H96.3897V175.849Z" fill="#263238"/>
<path d="M97.5732 203.246C96.4809 199.697 89.7455 196.329 90.1096 193.78C90.3826 191.232 90.3826 187.864 90.3826 187.864H83.7382C83.1921 188.41 77.5489 199.606 79.6423 212.803L81.4627 221.541H94.7516C94.7516 221.541 98.7564 206.796 97.5732 203.246Z" fill="#6339F5"/>
<path d="M90.7466 184.223H82.9189V187.5H90.7466V184.223Z" fill="#263238"/>
<path d="M77.3667 182.676C77.3667 182.676 78.2769 176.851 82.4638 176.487C86.6507 176.122 94.5694 176.487 94.5694 176.487V180.4H90.7466V184.223H83.1919V181.402C83.1919 181.402 81.2805 180.127 77.3667 182.676Z" fill="#263238"/>
<path d="M90.7471 182.767C90.7471 182.767 91.3842 186.044 96.2082 186.408L96.3903 185.588C96.3903 185.588 92.6585 184.405 92.5675 180.4H90.7471V182.767Z" fill="#263238"/>
<path d="M210.437 213.167H128.52V221.996H210.437V213.167Z" fill="#6339F5"/>
<path opacity="0.3" d="M210.437 213.167H128.52V221.996H210.437V213.167Z" fill="black"/>
<path opacity="0.2" d="M70.2672 305.916L69.9941 303.641H113.137V305.916H70.2672Z" fill="black"/>
<path opacity="0.7" d="M119.782 193.416H112.591L109.132 215.807H119.782V193.416Z" fill="white"/>
<g opacity="0.5">
<path d="M115.14 300.546H68.0825V303.641H115.14V300.546Z" fill="white"/>
</g>
<path d="M69.9941 302.093C69.9941 302.093 76.3655 326.942 111.135 324.757" stroke="#263238" stroke-miterlimit="10"/>
<path d="M483.404 228.55C483.586 230.916 482.13 232.737 480.128 232.737H416.232C414.23 232.737 412.409 230.825 412.227 228.55L408.404 181.493C408.404 181.038 408.404 180.583 408.495 180.128C408.859 178.489 410.134 177.306 411.772 177.306H475.668C477.67 177.306 479.49 179.217 479.672 181.493L483.404 228.55Z" fill="#263238"/>
<path opacity="0.7" d="M483.404 228.55C483.586 230.916 482.13 232.737 480.128 232.737H416.232C414.23 232.737 412.409 230.825 412.227 228.55L408.404 181.493C408.404 181.038 408.404 180.583 408.495 180.128C408.859 178.489 410.134 177.306 411.772 177.306H475.668C477.67 177.306 479.49 179.217 479.672 181.493L483.404 228.55Z" fill="white"/>
<path d="M479.854 232.828H416.141C414.138 232.828 412.318 230.916 412.136 228.641L408.313 181.584C408.313 181.129 408.313 180.674 408.404 180.219H472.118C474.12 180.219 475.94 182.13 476.122 184.405L479.945 231.462C479.945 231.918 479.945 232.373 479.854 232.828Z" fill="#263238"/>
<path opacity="0.5" d="M479.854 232.828H416.141C414.138 232.828 412.318 230.916 412.136 228.641L408.313 181.584C408.313 181.129 408.313 180.674 408.404 180.219H472.118C474.12 180.219 475.94 182.13 476.122 184.405L479.945 231.462C479.945 231.918 479.945 232.373 479.854 232.828Z" fill="white"/>
<path d="M436.984 221.814L449.818 221.905L447.36 245.024L459.921 245.206V247.937L425.971 248.028V245.388L434.162 245.206L436.984 221.814Z" fill="#263238"/>
<path opacity="0.3" d="M449.818 221.905C449.818 222.269 452.639 232.828 452.639 232.828H448.634L449.818 221.905Z" fill="black"/>
<path opacity="0.3" d="M435.619 232.828L436.984 221.814L433.616 232.828H435.619Z" fill="black"/>
<path d="M405.127 249.211H400.667V370.722H405.127V249.211Z" fill="#263238"/>
<path opacity="0.3" d="M405.127 249.211H400.667V370.722H405.127V249.211Z" fill="white"/>
<path d="M373.361 249.211H368.901V370.722H373.361V249.211Z" fill="#263238"/>
<path opacity="0.3" d="M373.361 249.211H368.901V370.722H373.361V249.211Z" fill="white"/>
<path opacity="0.2" d="M368.901 256.948V264.776L373.361 262.773V256.22L368.901 256.948Z" fill="black"/>
<path opacity="0.2" d="M400.667 256.948V264.776L405.127 262.773V256.22L400.667 256.948Z" fill="black"/>
<path d="M499.332 249.211H494.873V370.722H499.332V249.211Z" fill="#263238"/>
<path opacity="0.3" d="M499.332 249.211H494.873V370.722H499.332V249.211Z" fill="white"/>
<path opacity="0.2" d="M494.873 256.948V264.776L499.241 262.773V256.22L494.873 256.948Z" fill="black"/>
<path d="M539.836 249.211H535.376V370.722H539.836V249.211Z" fill="#263238"/>
<path opacity="0.3" d="M539.836 249.211H535.376V370.722H539.836V249.211Z" fill="white"/>
<path opacity="0.2" d="M535.376 256.857V264.684L539.836 262.682V256.129L535.376 256.857Z" fill="black"/>
<path d="M545.297 247.937H363.167V256.948H545.297V247.937Z" fill="#263238"/>
<path opacity="0.3" d="M545.297 247.937H502.609V256.948H545.297V247.937Z" fill="black"/>
<path opacity="0.6" d="M436.984 221.814L449.818 221.905L447.36 245.024L459.921 245.206V247.937L425.971 248.028V245.388L434.162 245.206L436.984 221.814Z" fill="white"/>
<path d="M358.889 317.112C361.256 314.199 365.898 312.196 370.995 311.195C370.631 312.652 370.904 314.017 371.723 314.29C372.724 314.654 373.998 313.653 374.636 312.014C374.818 311.559 374.909 311.104 374.909 310.649C380.006 310.194 385.194 310.831 388.562 312.47C388.562 312.47 385.194 315.473 381.462 323.392C381.371 323.392 381.189 323.392 381.098 323.392C378.64 323.392 376.638 324.575 376.638 326.031C376.638 327.124 377.73 327.943 379.278 328.398C379.096 328.944 378.913 329.399 378.64 329.945C375 339.684 365.352 332.676 365.443 325.94C365.534 326.031 353.519 323.756 358.889 317.112Z" fill="#34D399"/>
<path d="M346.966 304.551C344.053 301.365 338.592 299.454 332.767 298.726C333.313 300.364 333.131 301.912 332.13 302.367C331.038 302.822 329.49 301.821 328.671 300C328.398 299.454 328.307 298.999 328.216 298.453C322.3 298.362 316.565 299.454 312.743 301.547C312.743 301.547 316.748 304.733 321.663 313.471C321.754 313.471 321.936 313.471 322.027 313.471C324.848 313.289 327.215 314.563 327.306 316.202C327.397 317.385 326.214 318.477 324.484 319.023C324.757 319.569 325.03 320.206 325.303 320.753C330.127 331.675 340.595 322.846 340.049 315.2C340.049 315.2 353.61 311.651 346.966 304.551Z" fill="#34D399"/>
<path d="M339.775 302.093C341.05 295.995 346.329 289.624 352.973 284.345C353.519 286.802 354.976 288.532 356.432 288.35C358.07 288.167 359.163 285.71 358.89 282.797C358.799 281.978 358.617 281.25 358.343 280.613C365.534 276.153 373.453 273.058 379.642 272.876C379.642 272.876 377.093 279.794 377.549 294.266C377.367 294.357 377.184 294.448 377.002 294.539C373.453 296.45 371.45 299.636 372.542 301.729C373.362 303.277 375.637 303.732 378.095 303.186C378.186 304.096 378.277 305.006 378.368 305.916C380.552 322.937 361.074 319.933 356.159 310.103C356.25 310.103 336.954 315.837 339.775 302.093Z" fill="#34D399"/>
<path opacity="0.2" d="M339.775 302.093C341.05 295.995 346.329 289.624 352.973 284.345C353.519 286.802 354.976 288.532 356.432 288.35C358.07 288.167 359.163 285.71 358.89 282.797C358.799 281.978 358.617 281.25 358.343 280.613C365.534 276.153 373.453 273.058 379.642 272.876C379.642 272.876 377.093 279.794 377.549 294.266C377.367 294.357 377.184 294.448 377.002 294.539C373.453 296.45 371.45 299.636 372.542 301.729C373.362 303.277 375.637 303.732 378.095 303.186C378.186 304.096 378.277 305.006 378.368 305.916C380.552 322.937 361.074 319.933 356.159 310.103C356.25 310.103 336.954 315.837 339.775 302.093Z" fill="white"/>
<path d="M369.721 284.436C369.903 284.254 369.994 284.163 369.994 284.163C369.903 284.254 369.812 284.345 369.721 284.436Z" fill="#263238"/>
<path d="M353.793 340.868C350.516 322.937 355.431 303.641 366.717 289.351" stroke="#263238" stroke-width="0.75" stroke-miterlimit="10"/>
<path d="M329.854 306.371C343.416 313.38 350.971 328.58 352.973 334.496C352.973 334.496 369.629 322.391 377.639 317.294" stroke="#263238" stroke-width="0.75" stroke-miterlimit="10" stroke-linecap="round" stroke-linejoin="round"/>
<path d="M373.726 346.602H332.858V339.138H373.635L373.726 346.602Z" fill="#263238"/>
<path d="M335.861 344.236L342.233 370.722H365.716L371.45 344.236H335.861Z" fill="#263238"/>
<path opacity="0.3" d="M336.408 346.602H370.904L370.267 349.606H337.045L336.408 346.602Z" fill="black"/>
<path d="M335.134 337.591C336.317 337.591 337.591 337.591 338.775 337.591" stroke="#34D399" stroke-width="0.5" stroke-miterlimit="10" stroke-linecap="round" stroke-linejoin="round"/>
<path d="M340.503 337.591C343.78 337.591 347.148 337.591 350.425 337.591" stroke="#34D399" stroke-width="0.5" stroke-miterlimit="10" stroke-linecap="round" stroke-linejoin="round"/>
<path d="M390.201 228.641C389.018 224.909 382.009 221.268 382.282 218.629C382.555 215.898 382.555 212.348 382.555 212.348H375.547C374.91 212.986 368.994 224.818 371.178 238.744L373.089 248.028H387.197C387.197 248.028 391.384 232.373 390.201 228.641Z" fill="#6339F5"/>
<path d="M382.919 209.618H374.636V213.076H382.919V209.618Z" fill="#263238"/>
<path d="M368.811 207.888C368.811 207.888 369.721 201.699 374.272 201.335C378.732 200.971 387.015 201.335 387.015 201.335V205.522H382.919V209.527H375V206.614C375 206.614 372.998 205.249 368.811 207.888Z" fill="#263238"/>
<path d="M382.919 208.071C382.919 208.071 383.557 211.529 388.745 211.893L388.927 210.983C388.927 210.983 385.013 209.8 384.922 205.522H382.919V208.071Z" fill="#263238"/>
<path opacity="0.3" d="M384.831 222.542L370.632 229.642C370.632 229.642 370.541 235.012 370.632 234.921C370.723 234.83 387.652 225.182 387.561 225.091C387.561 225 384.831 222.542 384.831 222.542Z" fill="white"/>
<path opacity="0.3" d="M371.087 238.016L389.018 226.547L389.746 227.549L371.633 240.2L371.087 238.016Z" fill="white"/>
<path d="M244.023 342.779V360.619L253.034 361.256L256.22 344.509C252.033 341.687 248.028 341.05 244.023 342.779Z" fill="#B97964"/>
<path d="M244.297 358.708C243.387 361.074 243.387 370.722 243.387 370.722H262.41C263.502 367.263 261.773 364.897 259.588 364.533C258.678 364.442 257.495 363.441 256.676 362.53C256.676 362.439 255.492 357.069 254.764 356.796C254.764 356.796 254.309 356.25 253.854 356.796C253.399 357.342 253.035 359.163 253.035 359.163C250.122 355.522 247.21 356.068 244.297 358.708Z" fill="#263238"/>
<path d="M244.115 361.529C246.299 360.71 248.575 361.074 250.486 362.349C250.85 362.622 251.123 362.075 250.759 361.802C248.757 360.437 246.208 360.073 243.933 360.892C243.569 361.074 243.66 361.62 244.115 361.529Z" fill="white"/>
<path d="M262.318 369.357H243.568C243.386 369.357 243.295 369.175 243.295 369.084C243.295 368.902 243.477 368.811 243.568 368.811H262.318C262.501 368.811 262.592 368.993 262.592 369.084C262.683 369.175 262.501 369.357 262.318 369.357Z" fill="white"/>
<path d="M268.326 342.779V360.619L277.337 361.256L280.522 344.509C276.335 341.687 272.331 341.05 268.326 342.779Z" fill="#B97964"/>
<path d="M268.69 358.708C267.78 361.074 267.78 370.722 267.78 370.722H286.803C287.895 367.263 286.166 364.897 283.981 364.533C283.071 364.442 281.888 363.441 281.069 362.53C281.069 362.439 279.885 357.069 279.157 356.796C279.157 356.796 278.702 356.25 278.247 356.796C277.792 357.342 277.428 359.163 277.428 359.163C274.424 355.522 271.512 356.068 268.69 358.708Z" fill="#263238"/>
<path d="M268.417 361.529C270.601 360.71 272.877 361.074 274.788 362.349C275.152 362.622 275.425 362.075 275.061 361.802C273.059 360.437 270.51 360.073 268.235 360.892C267.871 361.074 268.053 361.62 268.417 361.529Z" fill="white"/>
<path d="M286.712 369.357H267.962C267.779 369.357 267.688 369.175 267.688 369.084C267.688 368.902 267.871 368.811 267.962 368.811H286.712C286.894 368.811 286.985 368.993 286.985 369.084C286.985 369.175 286.894 369.357 286.712 369.357Z" fill="white"/>
<path d="M278.793 179.035C278.793 179.035 290.99 198.423 295.541 228.186C300.456 260.134 295.541 306.645 295.541 306.645H250.304V246.117L245.753 186.59L278.793 179.035Z" fill="#263238"/>
<path d="M241.111 152.003C240.656 152.003 237.561 171.663 237.743 172.209C238.471 174.302 261.226 169.569 261.226 169.569L262.682 175.668C262.682 175.668 252.761 180.492 242.112 182.221C231.099 184.041 227.003 179.126 226.912 171.663C226.821 164.836 229.733 148.18 229.733 148.18L241.111 152.003Z" fill="#B97964"/>
<path d="M279.248 186.499L244.023 184.497C238.835 191.232 236.833 204.339 237.197 215.443C237.561 222.634 238.835 231.918 240.11 240.838C242.021 253.671 244.205 265.686 244.387 269.236H244.752C244.752 273.787 241.93 288.987 241.93 295.722C241.93 318.841 241.657 354.157 241.657 354.157H258.769C258.769 354.157 266.05 274.788 266.232 270.055C266.232 269.509 266.232 268.963 266.323 268.416L266.778 260.043C267.324 252.397 267.961 243.841 268.235 235.194L269.054 221.177C279.248 217.537 283.89 205.158 285.619 202.518C282.525 192.688 281.796 190.686 279.248 186.499Z" fill="#263238"/>
<path d="M284.436 198.24C284.436 198.24 289.624 216.171 294.084 258.95C294.903 267.142 292.173 279.43 290.807 287.075L281.432 354.157L264.958 354.066C266.414 323.21 268.872 287.622 271.966 274.424L252.306 207.524L284.436 198.24Z" fill="#263238"/>
<g opacity="0.4">
<path d="M279.248 186.499L244.023 184.497C238.835 191.232 236.833 204.339 237.197 215.443C237.561 222.634 238.835 231.918 240.11 240.838C242.021 253.671 244.205 265.686 244.387 269.236H244.752C244.752 273.787 241.93 288.987 241.93 295.722C241.93 318.841 241.657 354.157 241.657 354.157H258.769C258.769 354.157 266.05 274.788 266.232 270.055C266.232 269.509 266.232 268.963 266.323 268.416L266.778 260.043C267.324 252.397 267.961 243.841 268.235 235.194L269.054 221.177C279.248 217.537 283.89 205.158 285.619 202.518C282.525 192.688 281.796 190.686 279.248 186.499Z" fill="white"/>
<path d="M284.436 198.24C284.436 198.24 289.624 216.171 294.084 258.95C294.903 267.142 292.173 279.43 290.807 287.075L281.432 354.157L264.958 354.066C266.414 323.21 268.872 287.622 271.966 274.424L252.306 207.524L284.436 198.24Z" fill="white"/>
</g>
<path opacity="0.2" d="M271.966 274.515L265.14 251.305C262.955 241.657 260.316 236.287 258.04 232.828C258.04 232.464 257.949 232.1 257.949 232.1C257.858 232.1 257.221 231.554 256.311 230.552C255.492 229.551 254.764 228.823 254.218 228.095L254.309 228.459C250.486 224.363 244.934 218.174 244.934 218.174C244.934 218.174 249.12 227.64 254.855 232.1C255.31 232.464 255.674 232.646 255.947 232.919L271.966 274.515Z" fill="black"/>
<path d="M281.888 138.076C286.166 146.268 287.895 153.459 287.895 153.459L270.601 156.735C270.601 156.735 266.779 138.896 268.69 134.436C270.419 130.34 271.694 132.251 277.883 134.527C279.612 135.255 280.978 136.529 281.888 138.076Z" fill="#6339F5"/>
<path d="M236.924 155.279L231.645 137.44C234.922 132.524 251.396 128.702 251.396 128.702L262.228 129.248C262.228 129.248 266.414 130.158 269.964 131.341C274.697 132.889 277.246 134.163 278.429 136.802C278.429 136.802 278.884 146.541 277.701 158.556C277.337 161.833 278.156 175.395 279.066 181.129L284.345 194.964C253.672 207.707 239.746 194.509 239.746 194.509C240.656 191.778 242.749 184.679 243.113 182.039C242.84 178.671 242.658 177.215 241.202 171.299C240.929 170.207 237.379 156.372 236.924 155.279Z" fill="#6339F5"/>
<path d="M233.01 135.983C229.188 138.077 227.367 151.729 227.367 151.729L240.747 157.555C240.747 157.555 245.935 145.904 243.751 140.716C241.839 136.256 237.925 133.344 233.01 135.983Z" fill="#6339F5"/>
<path d="M315.838 143.629C316.384 141.717 315.565 139.715 314.291 138.258C312.925 136.893 311.105 136.074 309.194 135.528C307.919 135.164 306.554 134.982 305.371 135.255C304.096 135.528 302.913 136.438 302.549 137.712C302.276 138.714 302.458 139.806 302.003 140.716C301.73 141.262 301.275 141.626 300.82 142.081C300.365 142.445 299.91 142.9 299.728 143.447C299.545 143.993 299.728 144.721 300.274 144.994L299.91 144.812C299.728 147.542 297.543 149.727 296.997 152.366C296.451 154.824 297.361 157.464 299.09 159.375C300.82 161.195 303.277 162.288 305.826 162.561C308.101 162.834 310.559 162.561 312.561 161.377C313.654 160.74 314.564 159.83 314.837 158.556C315.11 157.19 314.291 155.825 313.654 154.551C312.834 153.004 312.288 151.183 312.743 149.454C313.107 147.269 315.201 145.813 315.838 143.629Z" fill="#6339F5"/>
<g opacity="0.3">
<path d="M315.838 143.629C316.384 141.717 315.565 139.715 314.291 138.258C312.925 136.893 311.105 136.074 309.194 135.528C307.919 135.164 306.554 134.982 305.371 135.255C304.096 135.528 302.913 136.438 302.549 137.712C302.276 138.714 302.458 139.806 302.003 140.716C301.73 141.262 301.275 141.626 300.82 142.081C300.365 142.445 299.91 142.9 299.728 143.447C299.545 143.993 299.728 144.721 300.274 144.994L299.91 144.812C299.728 147.542 297.543 149.727 296.997 152.366C296.451 154.824 297.361 157.464 299.09 159.375C300.82 161.195 303.277 162.288 305.826 162.561C308.101 162.834 310.559 162.561 312.561 161.377C313.654 160.74 314.564 159.83 314.837 158.556C315.11 157.19 314.291 155.825 313.654 154.551C312.834 153.004 312.288 151.183 312.743 149.454C313.107 147.269 315.201 145.813 315.838 143.629Z" fill="white"/>
</g>
<path d="M286.348 153.732L291.263 166.019L299.727 154.915L306.372 157.646C306.372 157.646 301.184 166.383 297.088 175.212C292.719 184.587 286.803 182.949 283.253 176.396C279.976 170.388 274.515 156.007 274.515 156.007L286.348 153.732Z" fill="#B97964"/>
<path d="M250.759 113.956C251.669 118.689 253.854 128.155 250.577 131.341C250.577 131.341 251.851 136.074 260.68 136.074C270.328 136.074 265.231 131.341 265.231 131.341C259.952 130.067 260.043 126.153 260.953 122.512L250.759 113.956Z" fill="#B97964"/>
<path d="M270.601 105.31C270.51 105.31 270.328 105.219 270.328 105.219C270.146 105.037 270.146 104.763 270.328 104.581C271.329 103.671 272.694 103.216 274.06 103.398C274.242 103.489 274.424 103.671 274.333 103.944C274.242 104.126 274.06 104.308 273.878 104.308C272.785 104.126 271.693 104.49 270.965 105.219C270.783 105.219 270.692 105.31 270.601 105.31Z" fill="#263238"/>
<path d="M271.876 110.771C272.149 112.5 272.604 114.229 273.332 115.868C272.513 116.232 271.512 116.141 270.692 115.777L271.876 110.771Z" fill="#A24E3F"/>
<path d="M271.512 109.405C271.33 110.133 271.603 110.771 272.058 110.862C272.513 110.953 273.059 110.498 273.15 109.769C273.241 109.041 273.059 108.404 272.604 108.313C272.149 108.222 271.694 108.677 271.512 109.405Z" fill="#263238"/>
<path d="M272.422 108.313L274.242 108.222C274.242 108.222 273.059 109.314 272.422 108.313Z" fill="#263238"/>
<path d="M248.301 101.304C246.845 110.133 246.026 113.865 249.394 119.326C254.491 127.609 265.595 127.518 269.691 119.326C273.332 111.954 275.152 98.7559 267.416 93.2948C261.954 89.3809 254.4 90.5642 250.486 96.0254C249.394 97.5727 248.575 99.3931 248.301 101.304Z" fill="#B97964"/>
<path d="M259.133 89.1992C266.505 86.1955 274.151 88.198 274.97 95.8436C275.698 103.489 267.051 110.771 267.051 110.771L259.133 89.1992Z" fill="#263238"/>
<path d="M262.683 109.041C262.501 110.771 262.956 112.5 264.048 113.865C265.505 115.686 267.507 114.685 268.235 112.682C268.872 110.862 268.963 107.676 266.961 106.584C265.505 105.856 263.775 106.402 263.047 107.858C262.865 108.222 262.774 108.677 262.683 109.041Z" fill="#B97964"/>
<path opacity="0.3" d="M266.233 108.768C265.868 108.677 265.504 108.95 265.322 109.223C265.14 109.496 265.049 109.861 265.049 110.225C265.049 111.317 265.504 112.409 266.415 113.137" stroke="black" stroke-width="0.5" stroke-miterlimit="10" stroke-linecap="round" stroke-linejoin="round"/>
<path opacity="0.3" d="M234.011 140.261C234.102 140.443 236.105 152.64 240.383 153.732C242.385 154.278 258.495 154.005 258.495 154.005L259.952 151.73L262.409 154.005H272.694L266.869 143.811L267.506 127.154L234.011 140.261Z" fill="black"/>
<path d="M265.504 110.498C269.145 103.58 267.051 91.1105 259.042 88.835C251.851 86.7416 240.474 88.9261 240.838 101.76C241.293 114.685 238.289 113.319 235.012 121.602C231.554 130.249 232.555 141.717 238.38 151.092H254.309L257.221 146.905L260.68 151.092H274.515C267.688 141.626 271.784 137.895 272.603 129.339C273.514 120.692 262.409 116.505 265.504 110.498Z" fill="#263238"/>
<path d="M249.121 91.2014C248.666 90.2002 247.847 89.29 246.754 89.29C246.208 89.29 245.662 89.4721 245.116 89.6541L245.025 90.2913C244.57 91.3835 243.751 92.2027 243.114 93.1129C242.476 94.0231 242.021 95.2973 242.567 96.2985C243.022 97.0267 243.842 97.4818 244.661 97.5728C246.208 97.7548 247.847 96.9357 248.666 95.6614C249.667 94.3871 249.758 92.6578 249.121 91.2014Z" fill="#6339F5"/>
<path d="M247.3 96.0255C247.846 94.8423 248.21 92.2027 247.937 91.2925C247.573 89.8362 246.572 88.653 245.389 87.7428C244.843 87.2877 244.115 86.8326 243.477 86.6505C242.294 86.2865 241.02 86.3775 239.837 86.6505C238.471 86.9236 237.106 87.4697 236.105 88.4709C234.74 89.8362 234.284 92.0207 234.922 93.7501C235.559 95.5704 237.379 96.8447 239.2 97.0267C238.016 97.3908 236.833 97.9369 235.832 98.6651C235.741 98.7561 235.65 98.8471 235.65 98.9382C235.65 99.0292 235.741 99.1202 235.741 99.2112C236.378 99.8484 237.288 100.121 238.198 100.03C239.109 99.9394 239.928 99.6663 240.838 99.3933C240.565 100.303 240.292 101.123 240.019 102.033C239.928 102.306 239.837 102.579 239.928 102.852C240.11 103.489 240.929 103.58 241.566 103.489C243.477 103.125 245.025 101.669 245.935 100.03C246.572 98.6651 247.027 97.2998 247.3 96.0255Z" fill="#263238"/>
<path d="M283.162 189.593C281.523 185.407 277.792 167.749 277.792 167.749L260.953 183.677C257.858 185.225 253.945 185.225 250.486 183.404C245.207 180.674 241.839 173.756 241.839 173.756C241.839 173.756 242.385 177.852 242.385 181.675C242.294 185.498 240.474 191.232 240.474 191.232C240.474 191.232 246.39 189.502 256.857 188.501C267.324 187.591 287.076 200.971 287.076 200.971C287.076 200.971 284.8 193.78 283.162 189.593Z" fill="#263238"/>
<path d="M257.13 185.497C256.493 179.854 254.036 174.393 250.213 170.206C249.485 169.387 248.393 168.568 247.482 169.569C246.663 170.479 246.754 171.845 246.936 172.937C247.482 175.758 249.394 178.398 251.214 180.582C253.308 183.131 255.765 185.406 258.496 187.227C259.224 187.682 259.952 186.499 259.224 186.044C255.31 183.404 251.942 179.854 249.576 175.667C248.939 174.575 248.393 173.301 248.21 172.027C248.21 171.663 248.119 170.479 248.575 170.57C248.939 170.57 249.576 171.48 249.758 171.754C251.305 173.483 252.488 175.485 253.49 177.67C254.673 180.127 255.401 182.767 255.674 185.497C255.856 186.317 257.221 186.317 257.13 185.497Z" fill="#263238"/>
<path d="M256.857 185.953C259.042 184.861 260.225 182.585 261.044 180.401C262.136 177.579 262.864 174.667 263.228 171.663C263.319 170.662 263.41 169.478 262.5 168.841C261.59 168.204 260.498 168.568 259.77 169.296C257.858 171.026 256.857 173.847 256.402 176.305C255.765 179.764 256.129 183.222 256.493 186.681C256.584 187.591 257.949 187.591 257.858 186.681C257.494 183.495 257.13 180.31 257.676 177.124C257.858 175.759 258.222 174.393 258.86 173.119C259.133 172.482 259.497 171.936 259.861 171.39C260.134 170.935 260.771 169.933 261.408 169.933C262.682 169.751 261.863 173.028 261.681 173.756C261.408 175.213 261.044 176.669 260.589 178.125C259.77 180.583 258.769 183.586 256.311 184.861C255.401 185.225 256.129 186.317 256.857 185.953Z" fill="#263238"/>
<path d="M254.127 187.773C254.309 187.864 254.582 187.955 254.764 187.955C254.582 187.773 254.4 187.5 254.218 187.318C253.217 195.055 252.762 202.791 253.035 210.528C253.035 211.438 254.4 211.438 254.4 210.528C254.218 202.791 254.582 195.055 255.583 187.318C255.583 187.045 255.31 186.772 255.037 186.681C254.855 186.59 254.582 186.499 254.4 186.499C253.672 186.226 253.308 187.5 254.127 187.773Z" fill="#263238"/>
<path d="M254.764 187.773C256.675 195.146 259.406 202.336 262.865 209.072C263.229 209.891 264.412 209.163 264.048 208.343C260.589 201.699 257.95 194.691 256.038 187.409C255.856 186.59 254.582 186.954 254.764 187.773Z" fill="#263238"/>
<path d="M299.818 155.006C299.818 155.006 298.362 152.731 298.817 150.637C299.272 148.453 299.09 146.632 299.545 144.994C300 143.447 300.911 145.449 301.184 146.632C301.457 147.816 301.821 149.181 302.64 148.817C303.459 148.453 308.283 142.172 309.557 141.808C310.832 141.444 310.377 142.719 310.377 142.719C310.377 142.719 311.56 141.262 312.288 141.535C312.47 141.626 312.743 142.081 312.379 142.901C311.378 144.63 309.102 148.18 309.102 148.18C309.193 147.998 312.379 143.811 312.925 143.265C313.653 142.537 314.381 142.537 314.745 142.992C315.292 143.629 311.651 148.908 311.651 149.181C311.651 149.181 313.653 146.086 314.745 146.177C315.838 146.268 314.654 148.271 313.289 149.909C312.015 151.365 309.921 154.551 308.465 155.916C306.736 157.555 305.188 158.283 303.004 157.464C300.911 156.554 299.818 155.006 299.818 155.006Z" fill="#B97964"/>
</svg>
